<svg xmlns="http://www.w3.org/2000/svg" xmlns:xlink="http://www.w3.org/1999/xlink" x="0px" y="0px" viewBox="0 0 165 78.5" style="enable-background:new 0 0 165 78.5;" xml:space="preserve"><g transform="translate(-27.926 -16.127)">	<g transform="translate(27.926 16.127)">		<g transform="translate(0 42.629)">			<path d="M37.1,9.5c0,4.9-0.5,20.1-0.5,20.1c0,2.9,1,4.2,3.8,4.2v1.3H29.4v-1.3c2.8,0,4.2-1.3,4.2-4.2l1-24.8    c-0.8-2-1.6-2.6-3.8-2.8V0.8h8.3L48,24l9-23.2h7.5V2c-2.1,0-3.3,1-3.3,3.3l1,24c0,3.6,0.7,4.6,3.6,4.6v1.3H53.3v-1.3    c2.4,0,3.6-0.8,3.4-4.6c0,0-0.5-16.8-0.7-19.7l-6,16.6c-0.9,2.3-1.7,4.7-2.3,7.2l-2,0.2c-0.5-1.8-1.8-5.1-1.8-5.1    S38.9,14.2,37.1,9.5z M26.8,35.2c-0.6-0.1-1.3-0.2-2-0.2c-1.3,0-3.6,0.7-6.4,0.7C7.8,35.7,0,29.4,0,17.6C0,7.7,7.4,0,18.6,0    c2.7,0,5.4,0.5,8,1.5c0.5-0.5,0.7-0.8,1.1-1.3h1C28.6,2,28,7.8,28,7.8h-1c-0.7-3.4-2.5-5.7-8.2-5.7c-6.9,0-13.1,5.4-13.1,15.3    c0,11.3,6.4,16.2,13.4,16.2c4.6,0,7.4-2.6,9.2-5.9l1.1,0.5L26.8,35.2z"></path>			<path d="M118.9,9.1v19.6c0,4.2,1,5.1,3.6,5.1v1.3h-19.3v-1.3c1.5,0,2.8-0.5,2.8-1.5c0-1-0.2-2-0.5-2.9l-1.5-4.7H93.3    c-0.2,0.7-2.1,6-2.1,7.5c0,1.3,1.5,1.6,2.4,1.6v1.3h-9v-1.3c1.6,0,2.9-0.2,4.1-3.6L97,3.6c-0.3-1-1.3-1.6-2.3-1.6V0.8h7.4    l8.8,27.9c0.8,2.9,1.6,4.4,2.9,5.1c2-0.7,2.4-1.3,2.4-5.1V5.2c-1.5-2-1.6-3.3-4.4-3.3V0.8h8.3L134,24.2V6.4    c0-3.6-0.8-4.4-3.6-4.4V0.8h18.3V2c-1.1,0-2.1,0.5-2.1,1.6c0.1,0.9,0.3,1.8,0.7,2.6l5.2,11.3l5.1-10.9c0.6-0.9,0.9-2,1-3.1    c0-1-0.7-1.5-2.1-1.5V0.8h8.7v1.1c-2.1,0-3.4,2-4.4,4.2l-6.7,13.7v9c0,3.9,1,4.9,3.6,4.9V35h-12.4v-1.3c2.6,0,3.6-1,3.6-4.9v-7.7    L141.5,6c-1.3-2.9-1.8-3.6-2.6-4.1c-1.6,0.7-2.1,1.8-2.1,4.4v25.1c0,0,0.2,2,0.3,4.2l-2.1,0.2L118.9,9.1z M98.5,7.5l-4.6,14.8    h9.5L98.5,7.5z"></path>			<path d="M78.3,22.4h-2.4v7c0,3.6,1,4.4,3.8,4.4v1.3H67v-1.3c2.6,0,3.6-1,3.6-4.6v-23c0-3.6-1-4.2-3.6-4.2V0.8h9.5    C85.6,0.8,91,3.6,91,11.1C91,18.9,84.5,22.4,78.3,22.4z M76.6,3.1h-0.8v16.8h1.5c5.4,0,8.2-2.4,8.2-8.7S83,3.1,76.6,3.1L76.6,3.1    z M21.2,28.6c-6.2,0-10.5-4.4-10.5-10.8C10.6,12,15.1,7.2,20.8,7c0.1,0,0.3,0,0.4,0c5.9,0,10.3,4.6,10.3,10.8    c0.2,5.8-4.4,10.6-10.1,10.8C21.3,28.5,21.3,28.6,21.2,28.6z M21.2,9c-4.2,0-5.7,4.1-5.7,8.8c0,4.4,1.3,8.8,5.7,8.8    c4.2,0,5.5-4.4,5.5-9C26.8,13.2,25.2,9,21.2,9L21.2,9z"></path>		</g>		<g transform="translate(44.763)">			<path d="M40,36.2c-1.8,0-3.7-0.2-5.4-0.8c-1-0.2-1.9-0.6-2.8-1.1c-0.4,0.4-0.8,0.9-1.1,1.5l-1-0.3l0.8-7.7l1.1,0.2    c0.7,3.6,3.1,6.2,8.2,6.2c3.7,0,6.6-3,6.5-6.7c0-0.1,0-0.1,0-0.2c0-2.9-1.1-4.4-5.1-7.3c-1.2-0.7-2.3-1.4-3.4-2.3    c-3.6-2.3-5.9-4.9-5.9-9.1c0-4.9,4.1-8.2,9.5-8.2c2,0,3.9,0.4,5.7,1.3l1.1-1.3l0.8,0.2l-0.8,7l-1.1-0.2c0-3.3-2-4.7-5.2-4.7    c-3.1,0-5.4,1.6-5.4,4.7c0,2.8,2.1,4.6,4.6,6.2c1.3,0.8,2.3,1.5,3.3,2.1c5.7,4.1,7,6.7,7,10.6C51.5,32,47.1,36.2,40,36.2z"></path>			<path d="M21.4,7.5h-1.3c0-2.9-1.3-4.1-3.9-4.1H8.8v12.9h4.7c2.4,0,2.9-1.3,3.3-3.4H18V22h-1.1    c-0.3-2.4-0.8-3.4-3.4-3.4H8.8v10.9c0,4.1,1,4.6,3.6,4.6v1.3H0v-1.3c3.1,0,3.6-0.8,3.6-4.6v-24c0-2.3-1-3.3-3.6-3.3V1.1h17    c2.9,0,3.6-0.2,4.1-1.1h1.1L21.4,7.5z"></path>			<path d="M33.8,22.2C32,17,30.2,11.8,28.4,6.5h-5.2v1.1c0.8-0.1,1.5,0.4,1.6,1.1l-4.9,14.7c-0.7,1.8-1.3,2.3-2.9,2.3    v1.1h6.4v-1.1c-1,0-1.6-0.5-1.6-1.1c0-0.6,0.1-1.1,0.3-1.6l0.7-2.1h6.4c0.3,1,0.7,2.3,0.7,2.3c0.2,0.5,0.3,1.1,0.3,1.6    c0,0.5-0.3,1-2,1v1.1h8.7v-1.1C35.4,25.8,34.6,25,33.8,22.2z M23.4,19.1l2.4-8l2.6,8H23.4z"></path>			<path d="M74.7,7.5h-1.1c-0.2-3.1-1.1-4.1-3.6-4.1h-4.7V29c0,4.2,0.8,5.1,3.6,5.1v1.3H56.5v-1.3    c2.8,0,3.6-0.8,3.6-5.2V3.4h-4.7c-3.1,0-3.6,0.8-4.4,4.1h-1.1l0.8-7.3l0.8,0.2c0.3,0.8,1,0.8,2.9,0.8h15.8c2.9,0,3.6,0,4.2-1h1    L74.7,7.5z"></path>		</g>	</g></g></svg>