<svg xmlns="http://www.w3.org/2000/svg" xmlns:xlink="http://www.w3.org/1999/xlink" data-name="Group 24603" width="23.212" height="22" viewBox="0 0 23.212 22"><defs><clipPath id="home-path"><rect data-name="Rectangle 8259" width="23.212" height="22" fill="currentcolor"></rect></clipPath></defs><g data-name="Group 24602" clip-path="url(#home-path)"><path data-name="Path 108" d="M1.671,12.07l9.634-9.779a.423.423,0,0,1,.6,0l9.634,9.779a.423.423,0,0,0,.3.126h.946a.422.422,0,0,0,.3-.719L11.907.126a.423.423,0,0,0-.6,0L.123,11.477a.422.422,0,0,0,.3.719H1.37a.423.423,0,0,0,.3-.126" transform="translate(0 0)" fill="currentcolor"></path><path data-name="Path 109" d="M165.4,179.24l-3.963-4.047-3.963-4.035-3.963,4.041-3.964,4.041h-.051V189H165.4V179.24Zm-5.706,5.609H155.2v-4.444h4.492Z" transform="translate(-145.865 -167.002)" fill="currentcolor"></path></g></svg>