<svg xmlns="http://www.w3.org/2000/svg" xmlns:xlink="http://www.w3.org/1999/xlink" x="0px" y="0px" viewBox="0 0 161 47.7" style="enable-background:new 0 0 161 47.7;" xml:space="preserve"><style type="text/css">	.bike0{fill:currentColor;}</style><path class="bike0" d="M24.5,22.7c-0.7-0.6-0.7-1.7,0-2.3c0.6-0.6,1.7-0.7,2.3-0.1c6.4,6,6.7,16.1,0.6,22.4 c-6,6.4-16.1,6.7-22.4,0.6c-6.4-6-6.7-16.1-0.6-22.4c3.5-3.7,8.7-5.5,13.8-4.8c0.3,0,0.5,0.1,0.8,0.1l2.9-9.6h-6.4c0,0-0.1,0-0.1,0 c-0.5,0-1,0.2-1.4,0.6l0,0C13,8,13,9.2,13.8,10c0.4,0.4,0.9,0.6,1.4,0.6c0.9,0,1.7,0.7,1.7,1.7c0,0.9-0.7,1.7-1.7,1.7 c-2.9,0-5.2-2.3-5.3-5.2c0-1.4,0.6-2.7,1.5-3.7l0,0l0,0c1-1,2.3-1.5,3.7-1.5c0.1,0,0.1,0,0.1,0h10.9l-0.6,2.1l-1.9,6.4 C33.7,13.2,41,15.7,46.9,19l4.6-15.7h-3.5c-0.9,0-1.6-0.7-1.6-1.6S47.2,0,48.1,0h9.1c0.9,0,1.6,0.7,1.6,1.6S58,3.3,57.1,3.3H55 c0,0.1,0,0.1,0,0.2l-5.1,17.2c3.9,2.6,7.6,5.5,10.9,8.8c0.1,0,0.2,0,0.2,0c1.3,0,2.3,1,2.3,2.3s-1,2.3-2.3,2.3c-1.2,0-2.3-1-2.3-2.2 c-2.7-2.3-5.6-4.4-8.6-6.2c-3.4,6-1.2,13.6,4.8,16.9s13.6,1.2,16.9-4.8c3.4-6,1.2-13.6-4.8-16.9c-2.6-1.4-5.6-1.9-8.5-1.3 c-0.8,0.2-1.6,0.4-2.4,0.7c-0.8,0.3-1.8-0.1-2.1-0.9c-0.3-0.8,0.1-1.8,0.9-2.1c1-0.4,2-0.7,3-0.9c8.6-1.7,16.9,3.8,18.6,12.4 s-3.8,16.9-12.4,18.6s-16.9-3.8-18.6-12.4c-0.5-2.7-0.4-5.4,0.5-8c0.3-1,0.7-1.9,1.2-2.8c-6.5-3.2-14-5.2-25.2-6.6l-4,13.3 c0.6,1.1,0.1,2.5-1,3.1c-1.1,0.6-2.5,0.1-3.1-1c-0.6-1.1-0.2-2.4,0.9-3l3.1-10.4c-0.1,0-0.2,0-0.3,0c-0.6-0.1-1.2-0.1-1.7-0.1 C9,19.3,3.4,24.9,3.4,31.8c0,6.9,5.6,12.5,12.5,12.5c6.9,0,12.5-5.6,12.5-12.5C28.4,28.3,27,25.1,24.5,22.7"></path><path class="bike0" d="M154.2,23.5h6.7v-2.9h-10v13.3h10V31h-6.7v-2.3h5.9v-2.8h-5.9V23.5z M131.8,29l3.7,4.9h4l-5.5-7.4 l5-5.8h-3.9l-5.3,6v-6h-3.3v13.3h3.3v-2.7L131.8,29z M114.1,20.6h-3.3v13.3h3.3V20.6z M90.3,31.1v-2.6h3.3c0.5,0,1,0.1,1.4,0.3 c0.3,0.2,0.5,0.5,0.5,0.9c0,0.3-0.1,0.5-0.2,0.7c-0.2,0.2-0.4,0.4-0.6,0.5c-0.4,0.1-0.7,0.2-1.1,0.2L90.3,31.1z M90.3,23.3h2.7 c0.5,0,1,0.1,1.4,0.3c0.3,0.2,0.5,0.6,0.5,1c0,0.3-0.1,0.5-0.2,0.8c-0.2,0.2-0.4,0.4-0.6,0.5c-0.3,0.1-0.7,0.2-1,0.2h-2.7V23.3z  M96.3,27c0.3-0.1,0.6-0.3,0.8-0.5c0.2-0.2,0.4-0.4,0.6-0.7c0.2-0.3,0.3-0.5,0.4-0.8c0.1-0.3,0.1-0.6,0.1-0.9c0-0.7-0.2-1.3-0.5-1.9 c-0.4-0.5-0.9-1-1.6-1.2c-0.8-0.3-1.6-0.4-2.5-0.4H87v13.3h6.9c0.9,0,1.7-0.1,2.6-0.5c0.7-0.3,1.2-0.7,1.6-1.3 c0.4-0.6,0.6-1.2,0.6-1.9c0-0.4-0.1-0.7-0.2-1c-0.1-0.3-0.3-0.6-0.5-0.9c-0.2-0.3-0.5-0.5-0.8-0.7C97,27.2,96.6,27.1,96.3,27 L96.3,27z"></path></svg>