<svg xmlns="http://www.w3.org/2000/svg" xmlns:xlink="http://www.w3.org/1999/xlink" x="0px" y="0px" viewBox="0 0 177.1 38.5" style="enable-background:new 0 0 177.1 38.5;" xml:space="preserve"><style type="text/css">	.botrio{fill:currentColor;}</style><path class="botrio" d="M25.3,2.3c6.4,0,8.7,2.9,8.7,7.9v3.6c0,4.5-1.5,6.3-4.4,6.8c3.9,3.1,6.1,4,6.1,8.4v1.6 c0,6.5-3.6,7.9-10.8,7.9h-21V9.7L0,2.3L25.3,2.3z M22.6,13.8c0-2-0.5-3.5-2.2-3.5h-4.8v3.6l4.8,3.4c0.6,0.5,1.5,0.3,1.9-0.3 c0.1-0.1,0.2-0.3,0.2-0.5V13.8z M24.2,28.5c0-2.1-1-4.1-2.7-5.4l-5.9-3.7V31h5.9c1.8,0,2.7-1.7,2.7-3.4V28.5z"></path><g transform="translate(124.761 0)">	<path class="botrio" d="M17.4,31c-2.3,0-2.8-0.3-2.8-5V11H0l2.9,4.4v13.5c0,6.8,2.7,9.6,9.7,9.6h6.2V31L17.4,31z"></path>	<path class="botrio" d="M3.2,5.9c0,0.9,0.5,1.4,1.6,1.4h9.9V1.4C14.6,0.5,14.1,0,13,0H0.3l2.9,4.3V5.9z"></path></g><path class="botrio" d="M96.9,11H109l0,5.9c0.9-3.8,3.9-5.9,8-5.9c1.1-0.1,2.2,0.1,3.3,0.4V22c-8-1.4-8.8,2.4-8.8,6v10.4 H99.9v-23L96.9,11z"></path><path class="botrio" d="M92.8,11v9.9h-5V27c0,2.3,0.6,2.8,2.8,2.8h4.7v8.6h-9.9c-6.5,0-9.3-2.8-9.3-9.6V16l-4-5h4V0h11.7 v11H92.8z"></path><path class="botrio" d="M61.4,11h-23l2.9,4.4v10.2l0,0v3.3c0,3.9,1,6.4,2.9,7.8s4.1,1.8,7.4,1.8h9.7c6,0,8.7-2.8,8.7-9 v-8.9C70.1,14.2,67.3,11,61.4,11z M58.5,29.6c0,2-0.5,2.8-2.3,2.8h-0.9c-1.7,0-2.3-0.8-2.3-2.8v-9.1c0-2,0.5-2.8,2.3-2.8h0.9 c1.7,0,2.3,0.8,2.3,2.8V29.6z"></path><path class="botrio" d="M168.4,11h-23l2.9,4.4v10.2l0,0v3.3c0,3.9,1,6.4,2.9,7.8s4.1,1.8,7.4,1.8h9.7c6,0,8.7-2.8,8.7-9 v-8.9C177.1,14.2,174.2,11,168.4,11z M165.4,29.6c0,2-0.5,2.8-2.3,2.8h-0.9c-1.7,0-2.3-0.8-2.3-2.8v-9.1c0-2,0.5-2.8,2.3-2.8h0.9 c1.7,0,2.3,0.8,2.3,2.8V29.6z"></path></svg>