<svg xmlns="http://www.w3.org/2000/svg" xmlns:xlink="http://www.w3.org/1999/xlink" x="0px" y="0px" viewBox="0 0 186 186" style="enable-background:new 0 0 186 186;" xml:space="preserve"><style type="text/css">	.hummer1{fill:currentColor;}</style><g transform="translate(0 -0.002)">		<g transform="translate(0 0.002)" class="st0">			<path class="hummer1" d="M87.1,85.3L75.9,74.2l1.4-1.4c0.2-0.2,0.2-0.5,0-0.8l-0.2-0.2c-0.1-0.1-0.2-0.3-0.1-0.5    c0.7-2.5,5.5-6.3,10.1-6.7c0.1,0,0.3-0.1,0.2-0.3c0-0.1-0.1-0.2-0.2-0.2c-5-1.5-10.5-0.2-14.3,3.5l-6.6,6.6    c-0.2,0.2-0.2,0.5,0,0.8l0.1,0.1c0.2,0.2,0.2,0.5,0,0.8L64.2,78c-0.2,0.2-0.5,0.2-0.8,0l-0.1-0.1c-0.2-0.2-0.5-0.2-0.8,0L60.4,80    c-0.2,0.2-0.2,0.5,0,0.8l4.1,4.1c0.2,0.2,0.5,0.2,0.8,0l2.2-2.2c0.2-0.2,0.2-0.5,0-0.8l-0.1-0.1c-0.2-0.2-0.2-0.5,0-0.8l2.1-2.1    c0.2-0.2,0.5-0.2,0.8,0l0.1,0.1c0.2,0.2,0.5,0.2,0.8,0l1.4-1.4l11.2,11.2c-0.3,0.5-0.3,1.1,0.1,1.6l3.6,3.7l3.7-3.6l-3.4-3.4    l-0.7,0.5L74.7,75.4l0.5-0.5l11.8,11.8l0.7-0.5c0.1,0,0.1,0,0.2,0l3.7,3.7l0.8-0.8l-3.8-3.7C88.2,85.1,87.5,85,87.1,85.3     M93.6,100.6l21,21.5c0.5,0.5,1.2,0.5,1.7,0c0,0,0,0,0,0l2-2l2-2c0.5-0.5,0.5-1.2,0-1.7c0,0,0,0,0,0l-21.6-21L98,96.1l21.6,21    c0,0.1,0,0.1,0,0.2l-0.8,0.8L97.3,96.8L93.6,100.6z M67.6,75.3c0-0.3-0.1-0.5-0.2-0.7l6.2-6.2c2.5-2.4,5.9-3.8,9.4-3.7l-0.1,0.1    c-3.1,0.2-6.1,1.6-8.3,3.8L67.6,75.3z"></path>			<path class="hummer1" d="M98.9,85.3l11.2-11.2l-1.4-1.4c-0.2-0.2-0.2-0.5,0-0.8l0.2-0.2c0.1-0.1,0.2-0.3,0.1-0.5    c-0.7-2.5-5.5-6.3-10.1-6.7c-0.1,0-0.3-0.1-0.2-0.3c0-0.1,0.1-0.2,0.2-0.2c5-1.5,10.5-0.2,14.3,3.5l6.6,6.6    c0.2,0.2,0.2,0.5,0,0.8l-0.1,0.1c-0.2,0.2-0.2,0.5,0,0.8l2.1,2.1c0.2,0.2,0.5,0.2,0.8,0l0.1-0.1c0.2-0.2,0.5-0.2,0.8,0l2.2,2.2    c0.2,0.2,0.2,0.5,0,0.8l-4.1,4.1c-0.2,0.2-0.5,0.2-0.8,0l-2.2-2.2c-0.2-0.2-0.2-0.5,0-0.8l0.1-0.1c0.2-0.2,0.2-0.5,0-0.8    l-2.1-2.1c-0.2-0.2-0.5-0.2-0.8,0l-0.1,0.1c-0.2,0.2-0.5,0.2-0.8,0l-1.4-1.4l-11.2,11.2c0.3,0.5,0.3,1.1-0.1,1.6l-30.9,31.7    c-0.5,0.5-1.2,0.5-1.7,0c0,0,0,0,0,0l-2-2l-2-2c-0.5-0.5-0.5-1.2,0-1.7c0,0,0,0,0,0l31.7-30.9C97.8,85.1,98.5,85,98.9,85.3     M118.4,75.4c0-0.3,0.1-0.5,0.2-0.7l-6.2-6.2c-2.5-2.4-5.9-3.8-9.4-3.7l0.1,0.1c3.1,0.2,6.1,1.6,8.3,3.8L118.4,75.4z M111.3,75.4    l-0.5-0.5L99.1,86.8l-0.7-0.5c-0.1,0-0.1,0-0.2,0l-31.7,30.9c0,0.1,0,0.1,0,0.2l0.8,0.8l31.1-31.1l0.7,0.5L111.3,75.4z"></path>			<path class="hummer1" d="M93,47.4c25.2,0,45.6,20.4,45.6,45.6c0,25.2-20.4,45.6-45.6,45.6    c-25.2,0-45.6-20.4-45.6-45.6c0-12.1,4.8-23.7,13.3-32.2C69.3,52.2,80.9,47.4,93,47.4 M123.3,62.7c-16.8-16.7-43.9-16.7-60.7,0    c-16.7,16.8-16.7,43.9,0,60.7c16.8,16.7,43.9,16.7,60.7,0c8-8,12.6-19,12.6-30.3C135.9,81.6,131.4,70.7,123.3,62.7"></path>			<path class="hummer1" d="M39.2,69.7l-2.5-1.3l1.1-2.1l-6.6-3.4l-0.7,1.3l2.3,1.5l-1.2,2.4l-4.7-2.5l6-11.6l4.7,2.5    l-1.2,2.4l-2.6-1l-0.7,1.3l6.6,3.4l1.1-2.1l2.5,1.3L39.2,69.7z M44.8,59.2l4.3-4.9L47,52.5l-0.7,0.8l-1.8-1.6l2.2-2.6l1.8,1.6    l-0.7,0.8l2.1,1.8l4.3-4.9l-2.1-1.8l-0.9,1l-5.5-4.8l0.9-1L44.5,40l-4.3,4.9l2.1,1.8l0.7-0.8l1.7,1.5L42.5,50l-1.7-1.5l0.7-0.8    l-2.1-1.8l-4.3,4.9l2.1,1.8l0.8-1l5.5,4.8l-0.8,1L44.8,59.2z M55.2,48l-1.6-2.3l1.1-0.7l-4.2-6l-1.1,0.7l-1.6-2.3l9.3-6.6l3,4.2    l-2.2,1.5l-1.6-1.8l-2.5,1.8l1.3,1.8l1.8-1.3l1.6,2.2l-1.8,1.3l1.4,2l2.5-1.8l-1.3-2.4l2.2-1.5l3.2,4.5L55.2,48z M69,38.9    l-0.7-2.7l1.2-0.3l-1.9-7l-1.2,0.3l-0.7-2.7l6.3-1.7l0.7,2.7l-1.1,0.3l0.6,2.2l3.3-0.9l-0.6-2.2l-1.1,0.3L73,24.5l6.3-1.7    l0.7,2.7l-1.2,0.3l1.9,7l1.2-0.3l0.7,2.7l-6.3,1.7l-0.7-2.7l1.1-0.3l-0.6-2.3l-3.3,0.9l0.6,2.3l1.1-0.3l0.7,2.7L69,38.9z     M90.6,34.8c-1.5,0.2-3.1-0.3-4.3-1.2c-1.1-1.1-1.8-2.7-1.7-4.3l-0.2-4.5l-1.3,0l-0.1-2.8l6.8-0.3l0.1,2.8l-1.3,0.1l0.2,4.5    c0.1,1.7,0.8,2.5,2.2,2.5c0.6,0,1.1-0.2,1.5-0.7c0.3-0.6,0.5-1.2,0.4-1.9l-0.2-4.5l-1.3,0.1l-0.1-2.8l5.3-0.2l0.1,2.8l-1.3,0    l0.2,4.9C95.8,32.8,94.1,34.6,90.6,34.8 M98.2,34.1l0.6-2.7l1.3,0.3l1.7-7.1l-1.3-0.3l0.6-2.7l6.4,1.5l1,7.5l4.4-6.2l5.8,1.4    l-0.6,2.7l-1.3-0.3l-1.7,7.1l1.3,0.3l-0.6,2.7l-6.3-1.5l0.6-2.7l1.1,0.3l1.2-5.2l-5,7.2l-2.2-0.5l-1.3-8.7l-1.2,5.2l1.1,0.3    l-0.6,2.7L98.2,34.1z M116.9,38.7l4.2,2.8l1.5-2.3l-0.9-0.6l2.9-4.5l-1.8,8.6l1.9,1.3l7.2-5l-2.9,4.5l-0.9-0.6l-1.5,2.3l5.4,3.6    l1.5-2.3l-1.1-0.7l4-6.1l1.1,0.7l1.5-2.3l-5-3.3l-6.2,4.3l1.6-7.4l-5.5-3.6l-1.5,2.3l1.1,0.7l-4,6.1l-1.1-0.7L116.9,38.7z     M132.7,49.4l2.1-1.8l0.8,1l5.6-4.7l-0.8-1l2.1-1.8l7.4,8.7l-3.9,3.3l-1.7-2l1.6-1.7l-2-2.4l-1.7,1.4l1.4,1.7l-2.1,1.8l-1.4-1.7    l-1.9,1.6l2,2.4l2.3-1.5l1.7,2l-4.2,3.5L132.7,49.4z M141.2,59.3l3.2,5.6l2.4-1.4l-0.5-0.9l2.1-1.2l0.5,0.9    c0.3,0.5,0.2,1.2-0.3,1.6c-0.1,0.1-0.2,0.1-0.2,0.1l-0.9,0.5c-0.7,0.3-1.2,1-1.5,1.7c-0.1,0.8,0,1.7,0.5,2.3l1.4,2.4l2.4-1.4    l-0.4-0.7c-0.1-0.2-0.2-0.4-0.1-0.6c0.1-0.2,0.3-0.4,0.5-0.5l0.6-0.3c0.4-0.2,0.7-0.6,0.9-1c0.2-0.4,0.2-0.9,0.1-1.4    c1.4,1.1,3.4,1,4.5-0.4c0.4-0.5,0.6-1.1,0.7-1.7c0-1.3-0.3-2.6-1-3.7l-3.7-6.5l-2.4,1.4l0.6,1.1l-6.3,3.6l-0.6-1.1L141.2,59.3z     M153.3,60.1c0.5,0.9,0.4,1.6-0.4,2s-1.4,0.2-2-0.7l-0.6-1.1l2.4-1.4L153.3,60.1z"></path>			<path class="hummer1" d="M31.4,130.6l2.2-1.7l1.4,1.9l6-4.4l-0.9-1.2l-2.4,1.4l-1.6-2.2l4.3-3.2l7.8,10.5L44,135    l-1.6-2.2l2-1.9l-0.9-1.2l-6,4.4l1.4,1.9l-2.2,1.7L31.4,130.6z M40.3,142.6l5,4.2l1.8-2.1l-0.8-0.7l1.5-1.8l2.6,2.2l-1.5,1.8    l-0.8-0.7l-1.8,2.1l5,4.2l1.8-2.1l-1-0.8l4.7-5.6l1,0.8l1.8-2.1l-5-4.2l-1.8,2.1l0.8,0.7l-1.4,1.7l-2.6-2.2l1.4-1.7l0.8,0.7    l1.8-2.1l-5-4.2l-1.8,2.1l1,0.8l-4.7,5.6l-1-0.8L40.3,142.6z M54.5,154.2l1.2-2.5l1.2,0.6l3.2-6.6l-1.2-0.6l1.2-2.5l10.3,5    l-2.3,4.6l-2.4-1.2l0.8-2.3l-2.8-1.4l-1,2l2,1l-1.2,2.5l-2-1l-1.1,2.2l2.8,1.4l1.5-2.3l2.4,1.2l-2.4,4.9L54.5,154.2z M78.9,163.7    c-0.8-0.2-1.7-0.5-2.4-1c-0.5-0.4-1-0.9-1.3-1.4l-0.7,1.1l-2.2-0.5l1-4.2l2.9,0.7c0,0.6,0.2,1.2,0.6,1.7c0.5,0.5,1.1,0.9,1.8,1    c0.3,0.1,0.7,0.1,1,0c0.5-0.2,0.7-0.8,0.5-1.2c0-0.1-0.1-0.2-0.2-0.2c-0.3-0.3-0.6-0.5-0.9-0.6c-0.4-0.2-0.8-0.4-1.3-0.6    c-0.5-0.2-1-0.5-1.4-0.7c-0.5-0.3-0.9-0.6-1.2-1c-0.4-0.4-0.6-0.9-0.7-1.5c-0.1-0.7-0.1-1.4,0.1-2.1c0.3-1.5,1.5-2.7,3-2.9    c0.9-0.2,1.8-0.1,2.7,0.1c0.8,0.2,1.5,0.5,2.1,0.9c0.5,0.4,0.9,0.9,1.2,1.4l0.7-1.1l2.2,0.5l-1,4.1l-3-0.7c0-0.6-0.2-1.2-0.6-1.7    c-0.4-0.4-0.9-0.8-1.5-0.9c-0.4-0.1-0.7-0.1-1.1,0c-0.3,0.1-0.5,0.3-0.5,0.6c-0.1,0.3,0,0.6,0.2,0.8c0.3,0.3,0.6,0.5,0.9,0.6    c0.4,0.2,0.8,0.4,1.3,0.6c0.5,0.2,1,0.5,1.4,0.8c0.5,0.3,0.9,0.6,1.2,1.1c0.4,0.4,0.6,0.9,0.7,1.5c0.1,0.7,0.1,1.4-0.1,2.1    c-0.2,1.1-0.9,2.1-1.9,2.6C81.4,164,80.1,164.1,78.9,163.7 M87.7,165.2l-0.1-2.8l1.3-0.1l-0.3-7.3l-1.3,0.1l-0.1-2.8l7.3-0.3    l0.1,2.8l-1.8,0.1l0.3,7.3l2.6-0.1l0.2-3l2.7-0.1l0.3,5.8L87.7,165.2z M109.1,163.2c-1.2,0.3-2.4,0.3-3.5,0    c-1.1-0.3-2-0.9-2.7-1.7c-0.8-1-1.3-2.1-1.6-3.3c-0.3-1.2-0.3-2.5,0-3.7c0.3-1.1,0.8-2,1.7-2.8c1.9-1.5,4.4-2.1,6.7-1.6    c1.1,0.3,2,0.9,2.7,1.7c0.8,1,1.3,2.1,1.6,3.3c0.3,1.2,0.3,2.4,0,3.6c-0.3,1.1-0.8,2-1.7,2.7C111.4,162.4,110.3,163,109.1,163.2     M108.5,160.5c0.6-0.2,1.1-0.7,1.1-1.3c0.2-2-0.3-4-1.3-5.7c-0.4-0.7-1.3-0.9-2-0.5c-0.4,0.2-0.6,0.6-0.7,1.1    c-0.2,2,0.3,4,1.3,5.7C107.3,160.4,107.9,160.6,108.5,160.5 M126.3,156.9c-1.3,0.6-2.6,1-4,1c-1.2,0-2.4-0.4-3.4-1    c-1.1-0.7-1.9-1.8-2.4-2.9c-0.5-1-0.8-2.2-0.8-3.3c0-1,0.4-2.1,0.9-2.9c1.1-1.5,2.8-2.5,4.7-2.7c0.6,0,1.3,0.1,1.9,0.4L123,144    l2-1l2,4.2l-2.7,1.3c-0.3-0.5-0.7-0.9-1.3-1.1c-0.5-0.1-1.1-0.1-1.5,0.2c-0.9,0.4-1.5,1.4-1.5,2.4c0,0.7,0.2,1.4,0.5,2    c0.4,0.9,1.1,1.7,2,2.1c0.9,0.3,1.8,0.3,2.6-0.2c0.4-0.2,0.7-0.4,1-0.7l-0.6-1.2l-1.4,0.7l-1-2.2l4.7-2.2l2.6,5.4    c-0.3,0.4-0.7,0.8-1.1,1.2c-0.4,0.4-0.9,0.8-1.4,1.1C127.4,156.4,126.8,156.7,126.3,156.9 M134.3,152.4l3.9-3.6l-1.9-2.1l-1,0.9    l-0.6-1.3l2.5-2.3l1.2,0.8l-1,0.9l1.9,2.1l5.3-4.9l-1.9-2.1l-0.9,0.8l-9-5.4l-5.9,5.4l1.9,2.1l1.3-1.2l3.1,7l-0.9,0.8    L134.3,152.4z M133.8,144.5l-1.8-3.7l3.4,2.2L133.8,144.5z M152.3,133.5l-8.6-0.5l3.8,2.6l0.7-1.1l2.3,1.6l-2.9,4.3l-2.3-1.6    l0.7-1.1l-6-4.1l-0.7,1.1l-2.3-1.6l3.3-4.8l8.6,0.5l-3.8-2.6l-0.7,1.1l-2.3-1.6l2.9-4.3l2.3,1.6l-0.7,1.1l8.3,5.7L152.3,133.5z"></path>			<path class="hummer1" d="M93,5.4c48.4,0,87.6,39.2,87.6,87.6s-39.2,87.6-87.6,87.6S5.4,141.4,5.4,93    c0-23.2,9.2-45.5,25.7-62C47.5,14.6,69.8,5.3,93,5.4 M152.1,33.9c-32.6-32.6-85.6-32.7-118.2,0s-32.7,85.6,0,118.2    s85.6,32.7,118.2,0c15.7-15.7,24.5-36.9,24.5-59.1C176.6,70.8,167.8,49.5,152.1,33.9"></path>			<path class="hummer1" d="M93,0c51.4,0,93,41.6,93,93s-41.6,93-93,93S0,144.4,0,93c0-24.7,9.8-48.3,27.2-65.8    C44.7,9.8,68.3,0,93,0 M156.9,29.1c-35.3-35.3-92.5-35.3-127.7,0s-35.3,92.5,0,127.7s92.5,35.3,127.7,0    c16.9-16.9,26.5-39.9,26.5-63.9C183.3,69,173.8,46.1,156.9,29.1"></path>			<path class="hummer1" d="M56.5,94.9v-0.8h0.4v-2.2h-0.4v-0.8h3.4v1.5h-0.8L59,91.9h-0.9v0.7h0.7v0.8h-0.7v0.7H59    l0.1-0.8h0.8v1.6L56.5,94.9z M63.4,95c-0.3,0-0.5,0-0.8-0.1c-0.2-0.1-0.3-0.2-0.5-0.3L62,94.9h-0.7v-1.3h0.9    c0,0.2,0.1,0.4,0.3,0.5c0.2,0.1,0.4,0.2,0.6,0.2c0.1,0,0.2,0,0.3-0.1c0.1-0.1,0.1-0.3,0-0.4c0,0,0,0-0.1-0.1    c-0.1-0.1-0.2-0.1-0.3-0.1c-0.1,0-0.3-0.1-0.4-0.1c-0.2,0-0.3-0.1-0.5-0.1c-0.2,0-0.3-0.1-0.4-0.2c-0.1-0.1-0.2-0.2-0.3-0.4    c-0.1-0.2-0.1-0.4-0.1-0.6c0-0.5,0.3-0.9,0.7-1.1c0.3-0.1,0.5-0.2,0.8-0.2c0.2,0,0.5,0,0.7,0.1c0.2,0.1,0.3,0.2,0.5,0.3l0.1-0.4    h0.7v1.3h-0.9c0-0.2-0.1-0.3-0.3-0.4c-0.1-0.1-0.3-0.2-0.5-0.2c-0.1,0-0.2,0-0.3,0.1c-0.1,0-0.1,0.1-0.1,0.2c0,0.1,0,0.2,0.1,0.2    c0.1,0.1,0.2,0.1,0.3,0.1c0.1,0,0.3,0.1,0.4,0.1c0.2,0,0.3,0.1,0.5,0.1c0.2,0.1,0.3,0.1,0.4,0.2c0.1,0.1,0.2,0.2,0.3,0.4    c0.1,0.2,0.1,0.4,0.1,0.6c0,0.3-0.1,0.7-0.4,0.9C64.1,94.9,63.7,95,63.4,95 M66.6,94.9v-0.8h0.7v-2.2h-0.4l-0.1,0.8H66v-1.6h3.9    v1.6h-0.8L69,91.9h-0.4v2.2h0.7v0.8H66.6z M71.1,94.9v-0.8h0.4v-2.2h-0.4v-0.8h1.8c0.6,0,1.2,0.1,1.6,0.5c0.7,0.8,0.7,2.1,0,2.9    c-0.5,0.4-1.1,0.5-1.6,0.5H71.1z M72.8,94.1h0.1c0.2,0,0.5-0.1,0.6-0.3c0.2-0.5,0.2-1.2,0-1.7c-0.1-0.2-0.4-0.3-0.6-0.3h-0.1    V94.1z"></path>			<path class="hummer1" d="M111.5,95v-0.8c0.5-0.2,0.9-0.4,1.3-0.8c0.3-0.2,0.4-0.6,0.5-0.9c0-0.2,0-0.3-0.1-0.4    c-0.1-0.1-0.2-0.2-0.3-0.2c-0.1,0-0.3,0.1-0.4,0.2c-0.1,0.1-0.1,0.3-0.1,0.4c0,0.1,0,0.2,0,0.3c0,0.1,0.1,0.2,0.1,0.3l-0.7,0.3    c-0.1-0.1-0.2-0.2-0.2-0.4c-0.1-0.2-0.1-0.3-0.1-0.5c0-0.3,0.1-0.5,0.2-0.7c0.2-0.2,0.4-0.4,0.6-0.5c0.3-0.1,0.6-0.2,0.8-0.2    c0.3,0,0.6,0,0.8,0.2c0.5,0.2,0.8,0.7,0.8,1.2c0,0.4-0.1,0.7-0.4,0.9c-0.3,0.3-0.7,0.6-1.1,0.7h1.6l0,1L111.5,95z M118,95    c-0.3,0-0.7-0.1-1-0.2c-0.3-0.2-0.5-0.4-0.6-0.7c-0.2-0.3-0.2-0.7-0.2-1.1c0-0.4,0.1-0.7,0.2-1.1c0.1-0.3,0.3-0.5,0.6-0.7    c0.6-0.3,1.3-0.3,1.9,0c0.3,0.2,0.5,0.4,0.6,0.7c0.2,0.3,0.2,0.7,0.2,1.1c0,0.4-0.1,0.7-0.2,1.1c-0.1,0.3-0.3,0.5-0.6,0.7    C118.7,95,118.4,95,118,95 M118,94.1c0.3,0,0.5-0.4,0.5-1.1s-0.2-1.1-0.5-1.1c-0.3,0-0.5,0.4-0.5,1.1S117.7,94.1,118,94.1     M121.5,95v-0.8c0.5-0.2,0.9-0.4,1.3-0.8c0.3-0.2,0.4-0.6,0.5-0.9c0-0.2,0-0.3-0.1-0.4c-0.1-0.1-0.2-0.2-0.3-0.2    c-0.1,0-0.3,0.1-0.4,0.2c-0.1,0.1-0.1,0.3-0.1,0.4c0,0.1,0,0.2,0,0.3c0,0.1,0.1,0.2,0.1,0.3l-0.7,0.3c-0.1-0.1-0.2-0.2-0.2-0.4    c-0.1-0.2-0.1-0.3-0.1-0.5c0-0.3,0.1-0.5,0.2-0.7c0.2-0.2,0.4-0.4,0.6-0.5c0.3-0.1,0.6-0.2,0.8-0.2c0.3,0,0.6,0,0.8,0.2    c0.5,0.2,0.8,0.7,0.8,1.2c0,0.4-0.1,0.7-0.4,0.9c-0.3,0.3-0.7,0.6-1.1,0.7h1.6l0,1L121.5,95z M127.6,95c-0.2,0-0.3,0-0.5,0    c-0.2,0-0.3-0.1-0.5-0.1c-0.1,0-0.3-0.1-0.4-0.2v-0.9l0.1,0c0.1,0.1,0.3,0.2,0.5,0.2c0.2,0.1,0.4,0.1,0.7,0.1    c0.2,0,0.3,0,0.5-0.1c0.2-0.1,0.3-0.3,0.2-0.5c0-0.1-0.1-0.1-0.2-0.2c-0.2-0.1-0.3-0.1-0.5-0.1c-0.1,0-0.2,0-0.2,0    c-0.1,0-0.2,0-0.3,0l-0.1,0v-0.4L128,92h-1.7v-1h3.1v0.8l-1.1,0.8c0.3,0,0.6,0.2,0.9,0.4c0.2,0.2,0.3,0.5,0.3,0.8    c0,0.4-0.2,0.7-0.5,0.9C128.6,95,128.1,95.1,127.6,95"></path>			<path class="hummer1" d="M28,87.7l1.9,5.9l6.2,0l-5,3.6l1.9,5.8l-5-3.6l-5,3.6l1.9-5.8l-5-3.6l6.2,0L28,87.7z"></path>			<path class="hummer1" d="M158,87.7l1.9,5.9l6.2,0l-5,3.6l1.9,5.8l-5-3.6l-5,3.6l1.9-5.8l-5-3.6l6.2,0L158,87.7z"></path>		</g></g></svg>