<svg xmlns="http://www.w3.org/2000/svg" data-name="Group 123646" width="19.096" height="21.109" viewBox="0 0 19.096 21.109"><g data-name="Group 123501" transform="translate(0 0.348)"><path data-name="Path 51321" d="M638.692,634.073l-1.231-1.233a21.81,21.81,0,0,1-3.516.383l-.063,0a.349.349,0,0,1-.219-.092l-.046-.046a19.024,19.024,0,0,1-3.8-5.688l-.027-.061a.349.349,0,0,1,0-.239l.025-.057a22.149,22.149,0,0,1,1.7-3.1l-.666-1.608-.818-1.971-.669-1.616a8.371,8.371,0,0,0-1.057.312,8.846,8.846,0,0,0-1.854.94,2.811,2.811,0,0,0-1.135,1.535c-.023.088-.049.177-.065.264a4.706,4.706,0,0,0-.008,1.8,23.382,23.382,0,0,0,3.124,7.966c.135.216.272.432.415.646s.292.424.439.632a23.317,23.317,0,0,0,6.164,5.933,4.646,4.646,0,0,0,1.664.68c.087.018.176.029.267.042a2.855,2.855,0,0,0,.817-.037,2.8,2.8,0,0,0,1.038-.427,8.788,8.788,0,0,0,1.578-1.352,8.614,8.614,0,0,0,.693-.857l-1.238-1.238Z" transform="translate(-625.158 -618.744)" fill="currentcolor"></path></g><g data-name="Group 123502" transform="translate(9.407 0)"><path data-name="Path 51322" d="M872.466,614.612a10.994,10.994,0,0,0-7.04-4.7.654.654,0,1,0-.255,1.282,9.754,9.754,0,0,1,7.664,11.468.654.654,0,1,0,1.282.255A10.988,10.988,0,0,0,872.466,614.612Z" transform="translate(-864.645 -609.895)" fill="currentcolor"></path></g><g data-name="Group 123503" transform="translate(8.662 3.744)"><path data-name="Path 51323" d="M846.208,706.51a5.938,5.938,0,0,1,4.666,6.979.654.654,0,0,0,.513.77.647.647,0,0,0,.129.012.654.654,0,0,0,.64-.526,7.244,7.244,0,0,0-5.694-8.519.654.654,0,0,0-.254,1.284Z" transform="translate(-845.681 -705.213)" fill="currentcolor"></path></g></svg>