<svg xmlns="http://www.w3.org/2000/svg" xmlns:xlink="http://www.w3.org/1999/xlink" data-name="Group 24607" width="19.744" height="18.859" viewBox="0 0 19.744 18.859"><defs><clipPath id="call-path"><rect data-name="Rectangle 8261" width="19.744" height="18.859" fill="currentcolor"></rect></clipPath></defs><g data-name="Group 24606" clip-path="url(#call-path)"><path data-name="Path 110" d="M13.693,14.325c-.911.441-4.709-1.758-6.044-3.093a11.928,11.928,0,0,1-1.044-1.194Q6.29,9.626,6.019,9.2a21.579,21.579,0,0,1-1.08-2.218c-.011-.032-.021-.063-.032-.1C4.8,6.46,5.2,5.965,5.66,5.555,6.394,5.1,7.147,4.545,7.147,4.218a3.98,3.98,0,0,0-.03-.421C7.086,3.64,5.68.807,5.68.807A4.265,4.265,0,0,0,5.437.3h0A1.24,1.24,0,0,0,5.222.053,8.064,8.064,0,0,0,2.968.185,7.67,7.67,0,0,0,1.039,1.29l-.1.08-.108.093C-1.03,3.185.8,7.975.916,8.278a19.915,19.915,0,0,0,1.815,3.468,16.577,16.577,0,0,0,5.328,5.128,17.023,17.023,0,0,0,3.469,1.583,6.653,6.653,0,0,0,6.29-.883s1.979-2.454,1.926-3.617a1.177,1.177,0,0,0-.577-.8A5.956,5.956,0,0,0,17.91,12.5c-.368-.15-.743-.285-1.121-.407q-.284-.092-.57-.176a1.128,1.128,0,0,0-.519-.108,1.564,1.564,0,0,0-.431.16,1.043,1.043,0,0,0-.372.464q-.15.269-.305.535a12.674,12.674,0,0,1-.8,1.229q-.05.066-.1.131" transform="translate(0 0.001)" fill="currentcolor"></path></g></svg>