<svg xmlns="http://www.w3.org/2000/svg" xmlns:xlink="http://www.w3.org/1999/xlink" id="WDT-circle" x="0px" y="0px" viewBox="0 0 504.6 504.1" style="enable-background:new 0 0 504.6 504.1;" xml:space="preserve"><path d="M460.8,252.1c0,5.7-0.2,11.5-0.7,17.2c-0.2,3.1-0.6,6.2-0.9,9.3c-0.1,1.5-1.3,6.2,0,0.3c-0.3,1.5-0.4,3-0.7,4.6 c-1.9,11.5-4.6,22.8-8.2,33.9c-1.7,5.3-3.7,10.3-5.6,15.5c-1.9,4.8,2-4.5-0.1,0.3c-0.6,1.3-1.2,2.7-1.8,4c-1.2,2.7-2.6,5.4-3.9,8.1 c-5.2,10.1-11,19.8-17.6,29c-0.9,1.2-1.7,2.4-2.6,3.6c-0.8,1-3.2,5.3-0.1,0.2c-1.2,2-3.1,3.9-4.6,5.7c-3.8,4.5-7.7,8.8-11.8,13.1 c-3.7,3.9-7.6,7.6-11.6,11.2c-2.2,2-4.4,3.9-6.7,5.7c-0.8,0.7-1.5,1.2-2.2,1.9c-0.8,0.7-1.6,1.2-2.2,1.8c-1.9,1.5-1.6,1.2,0.9-0.7 c-3.1,3.7-9.2,6.7-13.2,9.3c-4.9,3.2-10,6.3-15.2,9.1c-4.8,2.6-9.6,5-14.6,7.3c-1.3,0.7-2.7,1.2-4,1.8c-3.6,1.6,0.7-0.2,1.1-0.4 c-2.7,1.8-6.7,2.7-9.7,3.8c-10.9,3.9-22.1,7.1-33.5,9.3c-2.5,0.4-5,0.9-7.5,1.3c-1.3,0.2-3.1,0.8-4.6,0.7c5.7,0.2,1.3-0.2-0.3,0 c-6.2,0.7-12.4,1.1-18.7,1.3c-12.1,0.4-24-0.2-36-1.6c-1.7-0.2-3.4,0.4,1.2,0.2c-1.5,0.1-3.1-0.4-4.6-0.7c-3-0.4-6-1-9.1-1.7 c-5.7-1.1-11.3-2.6-16.9-4.1c-5.5-1.6-11-3.4-16.5-5.4c-2.4-0.9-4.6-1.8-6.9-2.7c-4.8-1.9,4.5,2-0.3-0.1c-1.6-0.7-3.1-1.5-4.7-2.1 c-10.1-4.7-19.8-10.1-29.1-16.1c-4-2.7-10.2-5.6-13.2-9.3c3.2,3.9,1.2,0.9-0.2-0.2c-1.1-0.9-2.2-1.8-3.5-2.8 c-2.2-1.9-4.5-3.8-6.7-5.7c-8.4-7.5-16.2-15.7-23.4-24.3c-0.9-1.1-1.9-2.2-2.8-3.5c-1.1-1.3-4.1-3.6-0.2-0.2 c-1.7-1.3-3.1-4.1-4.4-5.9c-3.4-4.8-6.6-9.7-9.6-14.8c-2.8-4.7-5.4-9.4-7.8-14.2c-1.3-2.7-2.7-5.4-3.9-8.1c-0.4-0.9-0.8-1.8-1.2-2.7 c-0.4-0.9-0.8-1.8-1.2-2.7c1.2,2.9,1.3,3.2,0.4,1.1c-4.1-10.8-7.8-21.6-10.5-32.9c-1.3-5.5-2.4-11-3.2-16.5 c-0.2-1.3-0.8-3.1-0.7-4.6c-0.2,5.2,0.3,2.2,0.1,0.4c-0.4-3.4-0.7-6.7-1-10.1c-0.9-12-0.9-24.1,0.1-36.1c0.2-2.6,0.4-5.2,0.8-7.7 c0.2-1.7-0.2-6,0-0.3c-0.1-1.5,0.4-3.1,0.7-4.6c1-6,2.2-12,3.7-17.9c1.3-5.4,2.8-10.8,4.6-16c1.7-5.3,3.1-12.2,6.2-16.8 c-2.7,4.3-0.9,1.9-0.1,0.4c0.6-1.1,1-2.2,1.6-3.4c1.2-2.7,2.6-5.4,3.9-8.1c2.7-5.3,5.6-10.4,8.6-15.5c2.8-4.6,5.8-9.2,9-13.6 c1.3-1.8,2.7-4.5,4.4-5.9c-4,3.4-0.9,1.1,0.2-0.2c1.2-1.6,2.5-3,3.7-4.6c7.1-8.4,14.8-16.4,23-23.6c2-1.8,4-3.6,6.2-5.3 c1.1-0.9,2.2-1.9,3.5-2.8c0.3-0.2,4.3-3.1,1.2-1c-3,2.1,1-0.7,1.3-1c1.2-0.9,2.4-1.8,3.6-2.6c2.4-1.7,4.8-3.4,7.3-4.9 c9.5-6.2,19.5-11.8,29.8-16.5c1.3-0.7,2.7-1.2,4-1.8c4.7-2.1-4.6,1.8,0.3-0.1c2.4-0.9,4.6-1.8,6.9-2.7c5.6-2.1,11.3-3.9,17.1-5.6 c5.4-1.5,10.8-2.8,16.2-3.9c3-0.6,6-1.1,9.1-1.7c1.3-0.2,3.1-0.8,4.6-0.7c-0.9,0.1-1.8,0.2-2.7,0.3c1-0.1,2-0.2,3-0.3 c12-1.3,24-1.8,36-1.3c5.7,0.2,11.4,0.7,17.1,1.3c1.7,0.2,6-0.2,0.3,0c1.5-0.1,3.1,0.4,4.6,0.7c3,0.4,6,1,9.1,1.7 c11.3,2.4,22.5,5.5,33.4,9.5c2.6,0.9,5,2,7.6,3c3,1.1-4.9-2.2-0.4-0.1c1.3,0.6,2.7,1.2,4,1.8c5.4,2.5,10.6,5.2,15.9,8.1 c4.7,2.7,9.4,5.5,13.9,8.4c2,1.3,4.1,2.7,6,4.1c1.2,0.9,2.4,1.7,3.6,2.6c1,0.8,6.7,4.4,1.5,1c9.2,5.9,17.5,14.8,25.1,22.6 c3.7,3.9,7.3,8,10.8,12.1c1.6,1.8,3.4,3.7,4.6,5.7c-3.1-4.9-0.6-0.8,0.1,0.2c1.1,1.6,2.4,3.1,3.5,4.8c6.5,9.3,12.3,19,17.4,29.1 c1.1,2.2,2.1,4.5,3.2,6.7c0.7,1.3,1.2,2.7,1.8,4c2.1,4.7-1.8-4.6,0.1,0.3c2.1,5.6,4.3,11.2,6,16.9c3.5,10.9,6,22,7.8,33.3 c0.2,1.2,0.7,2.6,0.6,3.8c0.2-5.7-0.2-1.3,0,0.3c0.3,2.8,0.6,5.7,0.8,8.5C460.6,240.1,460.8,246,460.8,252.1 c0,11.4,10,22.3,21.8,21.8c11.8-0.6,21.8-9.6,21.8-21.8c-0.2-51.6-16-103.4-46.3-145.4c-30.4-42.1-71.8-73.9-120.5-91.8 c-97.8-36.1-213.1-4.7-279.1,75.7C25.1,131.4,5.1,180.5,0.8,233.2C-3.5,285,9.5,338.4,36.5,382.8c25.9,42.4,64.6,77.7,110,98.2 c49.6,22.4,104.4,28.8,157.8,17.9c99.7-20.4,181-104.6,196.7-205.3c2.1-13.8,3.5-27.6,3.6-41.6c0-11.4-10.1-22.3-21.8-21.8 C470.7,230.8,460.8,239.8,460.8,252.1L460.8,252.1z"></path><path d="M317.9,252.1c0,36.2-29.3,65.5-65.5,65.5s-65.5-29.3-65.5-65.5s29.3-65.5,65.5-65.5S317.9,215.9,317.9,252.1"></path><path d="M310.7,252.1c-0.3,24.2-15.3,46.7-38.5,54.9c-23.4,8.3-49.8,0.9-65.4-18.5c-15.2-19-16.7-46.4-3.9-67.1 c12.7-20.5,37.7-31.5,61.4-26.4C291.2,200.8,310.4,224.6,310.7,252.1c0.1,9.3,14.7,9.4,14.6,0c-0.3-30.5-19.3-57.7-47.8-68.4 c-28.3-10.6-61.8-1.6-81,21.7c-19.4,23.6-22.4,57.7-6.6,84c15.8,26.3,46.7,39.8,76.7,34c33.9-6.4,58.2-37.3,58.6-71.5 C325.4,242.8,310.8,242.8,310.7,252.1L310.7,252.1z"></path></svg>