<svg xmlns="http://www.w3.org/2000/svg" xmlns:xlink="http://www.w3.org/1999/xlink" x="0px" y="0px" viewBox="0 0 100 100" style="enable-background:new 0 0 100 100;" xml:space="preserve"><g>	<path d="M96.8,8.3C96,8,95.1,8.2,94.5,8.7L77.1,26.1c-0.2,0.2-0.4,0.3-0.7,0.3c-0.1,0-0.1,0-0.2,0  c-0.3,0-0.6-0.3-0.7-0.5l-1.2-2.4c-0.2-0.4-0.1-0.9,0.2-1.2L91.3,5.5c0.8-0.8,0.8-2.1,0-2.9C90.9,2.2,90.4,2,89.8,2h-9.2  c-0.4,0-0.7,0.1-1,0.3L58.3,14.5c0,0-0.1,0-0.1,0.1c0,0-0.1,0.1-0.1,0.1s-0.1,0.1-0.2,0.2L57.8,15c-0.1,0-0.1,0.1-0.2,0.1l-0.1,0.1  L44.4,33.6c-0.2,0.2-0.4,0.4-0.7,0.4h-0.1c-0.3,0-0.5-0.1-0.7-0.3l-3.6-3.6c-0.8-0.8-2.1-0.8-2.9,0s-0.8,2.1,0,2.9l0,0l1.3,1.3  c0.4,0.4,0.4,1,0,1.4c-0.1,0.1-0.3,0.2-0.4,0.3l-0.4,0.1c-0.2,0-0.5,0.1-0.7,0.2c-15.3,5.9-27.5,18-33.4,33.4  c-1.1,2.7-1,5.8,0.4,8.5C4,80,5.8,81.3,7.8,81.7c0.5,0.1,1,0.1,1.4,0.1c3.9-0.2,7.3-2.7,8.6-6.3c4.3-11.1,13-19.8,24.1-24.1  c3.3-1.2,5.7-4.2,6.2-7.7c0.1-0.5,0.5-0.9,1-0.9h1.5c0.4,0,0.8,0.3,0.9,0.7c0.7,2,2.2,3.7,4.2,4.6c0.5,0.2,0.7,0.7,0.5,1.2  l-0.6,1.8c-0.1,0.3-0.4,0.6-0.8,0.7c-3.3,0.7-5.9,3-7.1,6.1c-4.3,11.1-13,19.8-24.1,24.1c-4.2,1.5-6.7,5.7-6.2,10.1  c0.4,2,1.7,3.7,3.5,4.7c1.4,0.7,2.9,1.1,4.5,1.1c1.3,0,2.7-0.3,3.9-0.7c15.3-5.9,27.5-18,33.4-33.3c0.2-0.5,0.3-1.1,0.4-1.7  c0.1-0.4,0.3-0.6,0.7-0.7c0.1,0,0.2,0,0.3,0c0.3,0,0.5,0.1,0.7,0.3l2,2c0.8,0.8,2.1,0.8,2.9,0c0.8-0.8,0.8-2.1,0-2.9l-3.6-3.6  c-0.4-0.4-0.4-1,0-1.4c0,0,0.1-0.1,0.1-0.1l18.5-13.2c0.2-0.2,0.4-0.4,0.6-0.7l12.2-21.4c0.2-0.3,0.3-0.7,0.3-1v-9.2  C98,9.4,97.5,8.6,96.8,8.3 M40.4,47.7C28.3,52.3,18.7,61.9,14,74.1c-0.7,2.1-2.6,3.5-4.8,3.7c-0.2,0-0.4,0-0.6-0.1H8.5  c-0.8-0.2-1.5-0.7-1.8-1.5c-0.8-1.6-0.8-3.4-0.1-5c5.5-14.2,16.8-25.5,31-31c0.8-0.3,1.6-0.5,2.5-0.5c0.9,0,1.7,0.2,2.5,0.6  c0.7,0.4,1.3,1,1.5,1.8C44.3,44.6,42.8,46.9,40.4,47.7 M51.5,38.1c-0.1,0.4-0.5,0.7-0.9,0.7h-2.9c-0.6,0-1-0.4-1-1  c0-0.2,0.1-0.4,0.2-0.6l13.7-19.1c0.1-0.1,0.2-0.2,0.3-0.3L81,6.3c0.2-0.1,0.3-0.1,0.5-0.1h1c0.5,0,1,0.4,1,1  c0,0.3-0.1,0.6-0.3,0.8L70,21c-0.6,0.6-0.8,1.6-0.4,2.4l2.3,4.6c0.2,0.5,0,1.1-0.4,1.3c0,0,0,0,0,0l-7.1,3.5  c-0.8,0.4-1.8,0.5-2.7,0.2c-0.8-0.2-1.7-0.3-2.5-0.4C55.8,32.7,52.7,34.8,51.5,38.1 M55.1,40.8c0-2.2,1.8-4.1,4.1-4.1  c2.2,0,4.1,1.8,4.1,4.1c0,2.2-1.8,4.1-4.1,4.1C57,44.9,55.2,43.1,55.1,40.8 M59,62.4c-5.5,14.3-16.8,25.5-31,31  c-0.8,0.3-1.6,0.5-2.5,0.5c-0.9,0-1.7-0.2-2.5-0.6c-0.7-0.4-1.3-1-1.5-1.8c-0.2-2.4,1.3-4.7,3.6-5.5c12.2-4.7,21.8-14.3,26.4-26.4  c0.7-2.1,2.6-3.5,4.8-3.7c0.2,0,0.5,0,0.7,0.1c0.8,0.2,1.5,0.7,1.8,1.5C59.6,59,59.7,60.8,59,62.4 M93.9,18.6c0,0.2,0,0.3-0.1,0.5  L82.3,39.2c-0.1,0.1-0.2,0.2-0.3,0.3L62.2,53.6c-0.2,0.1-0.4,0.2-0.6,0.2c-0.3,0-0.5-0.1-0.7-0.3c-0.2-0.2-0.5-0.5-0.8-0.6  c-0.4-0.3-0.5-0.7-0.4-1.1l0.8-2.4c0.1-0.3,0.4-0.6,0.7-0.7c3.6-0.9,6.1-4.2,6.1-7.9c0-1.2-0.3-2.3-0.8-3.4c-0.2-0.5,0-1.1,0.5-1.3  l11.4-5.7c0.2-0.1,0.4-0.2,0.5-0.4l13.2-13.2c0.4-0.4,1-0.4,1.4,0c0.2,0.2,0.3,0.5,0.3,0.8L93.9,18.6z"></path></g></svg>