<svg xmlns="http://www.w3.org/2000/svg" xmlns:xlink="http://www.w3.org/1999/xlink" x="0px" y="0px" viewBox="0 0 100 100" style="enable-background:new 0 0 100 100;" xml:space="preserve"><g>	<g>		<path d="M76,97.4c-5.9,0.1-11.7-2.2-15.9-6.4c-4.2-4.2-6.7-9.8-6.8-15.8c0-1.9,0.2-3.8,0.6-5.6   c0.1-0.3,0-0.7-0.3-0.9l-9.1-9.1c-0.2-0.2-0.4-0.3-0.7-0.3l0,0c-0.3,0-0.5,0.1-0.7,0.3l-7.8,7.8c-0.4,0.4-0.4,1,0,1.4c0,0,0,0,0,0   l6.9,6.9c0.8,0.8,0.7,2.1-0.1,2.9c-0.8,0.7-2,0.7-2.8,0l-1.9-1.9c-0.4-0.4-1-0.4-1.4,0L17.3,95.6c-1.1,1.1-2.7,1.8-4.3,1.8   c-1.7,0-3.4-0.7-4.6-1.9l-3.8-3.8c-2.5-2.4-2.6-6.4-0.2-8.9l18.9-18.9c0.4-0.4,0.4-1,0-1.4l-1.9-1.9c-0.8-0.8-0.7-2.1,0.1-2.9   c0.8-0.7,2-0.7,2.8,0l6.9,6.9c0.2,0.2,0.4,0.3,0.7,0.3c0.3,0,0.5-0.1,0.7-0.3l7.8-7.8c0.4-0.4,0.4-1,0-1.4l-9.1-9.1   c-0.2-0.2-0.4-0.3-0.7-0.3c-0.1,0-0.2,0-0.2,0c-1.7,0.4-3.4,0.6-5.2,0.6h-0.4c-5.9-0.1-11.6-2.5-15.8-6.8   c-6.4-6.7-8.2-16.5-4.6-25c0.3-0.6,0.8-1.1,1.5-1.2c0.1,0,0.3,0,0.4,0c0.5,0,1.1,0.2,1.4,0.6l11.4,11.3c0.4,0.4,1,0.4,1.4,0   l5.1-5.1c0.4-0.4,0.4-1,0-1.4c0,0,0,0,0,0L14.2,7.7c-0.8-0.8-0.8-2.1,0-2.9c0.2-0.2,0.4-0.3,0.7-0.4c2.9-1.2,6-1.8,9.1-1.8   C29.9,2.6,35.6,4.9,39.9,9c5.7,5.7,8,13.9,6.1,21.7c-0.1,0.3,0,0.7,0.3,0.9l9,9c0.4,0.4,1,0.4,1.4,0c0,0,0,0,0,0l20.1-20.1   c0.4-0.4,0.4-1,0-1.4l-0.9-0.9c-0.8-0.8-0.8-2.1,0-2.9L87.9,3.3c0.8-0.8,2.1-0.8,2.9,0c0,0,0,0,0,0l6,6c0.8,0.8,0.8,2.1,0,2.9   L84.7,24.2c-0.8,0.8-2.1,0.8-2.9,0l-0.9-0.9c-0.4-0.4-1-0.4-1.4,0L59.4,43.4c-0.4,0.4-0.4,1,0,1.4c0,0,0,0,0,0l9,9   c0.2,0.2,0.4,0.3,0.7,0.3c0.1,0,0.2,0,0.2,0c1.8-0.5,3.6-0.7,5.5-0.7c6.1,0,11.9,2.4,16.2,6.7c6.4,6.7,8.2,16.5,4.6,25   c-0.3,0.6-0.8,1.1-1.5,1.2c-0.1,0-0.3,0-0.4,0c-0.5,0-1.1-0.2-1.4-0.6L80.9,74.5c-0.4-0.4-1-0.4-1.4,0c0,0,0,0,0,0l-5.1,5.1   c-0.4,0.4-0.4,1,0,1.4c0,0,0,0,0,0l11.3,11.3c0.8,0.8,0.8,2.1,0,2.9c-0.2,0.2-0.4,0.3-0.7,0.4C82.2,96.8,79.2,97.4,76,97.4    M26.9,66.4c-0.3,0-0.5,0.1-0.7,0.3L7.3,85.6c-0.4,0.4-0.6,1-0.6,1.7c0.1,0.6,0.3,1.1,0.7,1.5l3.8,3.8c0.5,0.5,1.1,0.7,1.8,0.7   c0.5,0,1-0.2,1.4-0.6l18.9-18.9c0.4-0.4,0.4-1,0-1.4c0,0,0,0,0,0l-5.7-5.7C27.4,66.5,27.1,66.4,26.9,66.4 M74.8,57.4   c-9.5-0.1-17.3,7.6-17.4,17.1c0,0.2,0,0.4,0,0.6c0.1,4.9,2.1,9.6,5.6,13c3.5,3.4,8.2,5.2,13.1,5.2c0.9,0,1.7-0.1,2.6-0.2   c0.5-0.1,0.9-0.6,0.9-1.1c0-0.2-0.1-0.4-0.3-0.6l-8-8c-0.9-0.8-1.3-2-1.4-3.2c0-1.2,0.4-2.4,1.3-3.2l5.8-5.8   c0.8-0.8,1.9-1.3,3.1-1.3h0.2c1.2,0,2.4,0.5,3.2,1.4l8,8c0.3,0.3,0.7,0.4,1,0.2c0.4-0.1,0.6-0.4,0.7-0.8   c1.6-10.1-5.3-19.5-15.4-21C76.8,57.5,75.8,57.4,74.8,57.4 M44.4,35.9h-0.1c-0.3,0-0.6,0.2-0.7,0.5c-0.9,1.5-1.9,2.8-3.1,4   c-1.3,1.3-2.7,2.3-4.2,3.2c-0.5,0.3-0.6,0.9-0.3,1.4c0,0.1,0.1,0.1,0.2,0.2L54.8,64c0.2,0.2,0.4,0.3,0.7,0.3c0,0,0.1,0,0.1,0   c0.3,0,0.6-0.2,0.7-0.5c1.8-3,4.2-5.5,7.2-7.3c0.5-0.3,0.6-0.9,0.4-1.3c0-0.1-0.1-0.1-0.2-0.2L45.1,36.2   C44.9,36,44.6,35.9,44.4,35.9 M7.9,20.5c-0.1,0-0.2,0-0.3,0.1c-0.4,0.1-0.6,0.4-0.7,0.8c-0.8,5.7,1,11.5,5,15.7   c3.4,3.5,8.1,5.5,13,5.6h0.5c9.5,0,17.3-7.7,17.3-17.3c0-0.2,0-0.4,0-0.6c-0.1-4.9-2.1-9.5-5.6-12.9c-3.5-3.4-8.2-5.2-13.1-5.1   c-0.9,0-1.7,0.1-2.6,0.2c-0.5,0.1-0.9,0.5-0.9,1.1c0,0.2,0.1,0.5,0.3,0.6l8,8c1.8,1.8,1.8,4.6,0.1,6.4l-5.8,5.8   c-0.8,0.8-2,1.3-3.2,1.3c-1.2,0-2.4-0.5-3.3-1.4l-8-8C8.4,20.6,8.1,20.5,7.9,20.5 M82.5,19.2c0.4,0.4,1,0.4,1.4,0l7.8-7.8   c0.4-0.4,0.4-1,0-1.4c0,0,0,0,0,0L90,8.3c-0.4-0.4-1-0.4-1.4,0l-7.8,7.8c-0.4,0.4-0.4,1,0,1.4l0.9,0.9L82.5,19.2z"></path>	</g></g></svg>