<svg xmlns="http://www.w3.org/2000/svg" xmlns:xlink="http://www.w3.org/1999/xlink" x="0px" y="0px" viewBox="0 0 100 100" style="enable-background:new 0 0 100 100;" xml:space="preserve"><g>	<path d="M74.5,98.5c-0.7,0-1.3-0.3-1.7-0.9l-6.2-9.3c-0.2-0.3-0.4-0.7-0.4-1.2V71.1c0-0.4-0.2-0.7-0.5-0.9l-4.7-3  c-1-0.6-1.3-1.9-0.7-2.8c0.6-1,1.9-1.3,2.8-0.7c0,0,0.1,0,0.1,0.1l1.5,0.9c0.2,0.1,0.3,0.2,0.5,0.2c0.2,0,0.3,0,0.5-0.1  c0.3-0.2,0.5-0.5,0.5-0.9V52.5c0-0.4-0.2-0.7-0.5-0.9l-4.7-3c-1-0.6-1.3-1.9-0.7-2.8c0.6-1,1.9-1.3,2.8-0.7c0,0,0.1,0,0.1,0.1  l1.5,0.9c0.3,0.2,0.7,0.2,1,0c0.3-0.2,0.5-0.5,0.5-0.9V33.9c0-0.4-0.2-0.7-0.5-0.9l-4.7-3c-1-0.5-1.4-1.8-0.8-2.8s1.8-1.4,2.8-0.8  c0.1,0,0.2,0.1,0.2,0.1l1.5,0.9c0.3,0.2,0.7,0.2,1,0c0.3-0.2,0.5-0.5,0.5-0.9V19c0-0.6-0.4-1-1-1H56c-1.1,0-2.1-0.9-2.1-2.1  c0-7.6,9.8-14.5,20.6-14.5c11,0,20.6,6.8,20.6,14.5c0,1.1-0.9,2.1-2.1,2.1h-9.3c-0.6,0-1,0.4-1,1c0,0,0,0,0,0v19.2  c0,0.4,0.2,0.7,0.5,0.9l4.7,3c1,0.6,1.3,1.9,0.7,2.9c-0.6,1-1.9,1.3-2.9,0.7l-1.5-0.9c-0.2-0.1-0.3-0.2-0.5-0.2  c-0.2,0-0.3,0-0.5,0.1c-0.3,0.2-0.5,0.5-0.5,0.9v11.3c0,0.4,0.2,0.7,0.5,0.9l4.7,3c1,0.6,1.3,1.9,0.7,2.9c-0.4,0.6-1,1-1.8,1  c-0.4,0-0.8-0.1-1.1-0.3l-1.5-0.9c-0.2-0.1-0.3-0.2-0.5-0.2c-0.6,0-1,0.5-1,1v11.3c0,0.4,0.2,0.7,0.5,0.9l4.7,3  c1,0.6,1.3,1.9,0.7,2.9c-0.6,1-1.9,1.3-2.9,0.7l0,0l-1.5-0.9c-0.5-0.3-1.1-0.2-1.4,0.3c-0.1,0.2-0.2,0.3-0.2,0.5v4.5  c0,0.4-0.1,0.8-0.4,1.2l-6.2,9.3C75.9,98.1,75.2,98.5,74.5,98.5 M71.4,73.9c-0.6,0-1,0.4-1,1c0,0,0,0,0,0v11.3  c0,0.2,0.1,0.4,0.2,0.6l3.1,4.6c0.3,0.5,0.9,0.6,1.4,0.3c0.1-0.1,0.2-0.2,0.3-0.3l3.1-4.6c0.1-0.2,0.2-0.4,0.2-0.6v-7.4  c0-0.4-0.2-0.7-0.5-0.9L72,74.1C71.8,74,71.6,73.9,71.4,73.9 M71.4,55.3c-0.6,0-1,0.5-1,1v11.3c0,0.4,0.2,0.7,0.5,0.9l6.2,3.9  c0.3,0.2,0.7,0.2,1,0c0.3-0.2,0.5-0.5,0.5-0.9V60.2c0-0.4-0.2-0.7-0.5-0.9L72,55.5C71.8,55.4,71.6,55.3,71.4,55.3 M71.4,36.8  c-0.6,0-1,0.5-1,1v11.3c0,0.4,0.2,0.7,0.5,0.9l6.2,3.9c0.2,0.1,0.3,0.2,0.5,0.2c0.6,0,1-0.4,1-1c0,0,0,0,0,0V41.7  c0-0.4-0.2-0.7-0.5-0.9L72,36.9C71.8,36.8,71.6,36.8,71.4,36.8 M71.4,18c-0.6,0-1,0.4-1,1v11.4c0,0.4,0.2,0.7,0.5,0.9l6.2,3.9  c0.2,0.1,0.3,0.2,0.5,0.2c0.6,0,1-0.5,1-1V19c0-0.6-0.5-1-1-1L71.4,18z M74.5,5.7c-5.8-0.2-11.3,2.2-15.1,6.6  c-0.3,0.4-0.3,1.1,0.2,1.4c0.2,0.1,0.4,0.2,0.6,0.2h28.6c0.6,0,1-0.4,1-1c0-0.2-0.1-0.4-0.2-0.6C85.9,7.9,80.3,5.4,74.5,5.7"></path>	<path d="M48.9,94.3h-7.1c-0.6,0-1-0.5-1-1V80.7c0.1-0.4,0.5-0.8,1-0.8h3.1c1.1,0,2.1-0.9,2.1-2.1  c0-1.1-0.9-2.1-2.1-2.1h-9.3c-0.6,0-1-0.5-1-1V41.2c0-0.1,0-0.2,0.1-0.3l6-18.1c0.1-0.3,0.1-0.7,0.1-1L37.7,3.2c-0.2-1-1-1.7-2-1.7  H20.2c-1,0-1.9,0.7-2.1,1.7L15,21.8c-0.1,0.3,0,0.7,0.1,1l6,18.1c0,0.1,0.1,0.2,0.1,0.3v33.5c0,0.6-0.5,1-1,1h-9.3  c-1.1,0-2.1,0.9-2.1,2.1c0,1.1,0.9,2.1,2.1,2.1H14c0.3,0,0.6,0.1,0.8,0.3c0.1,0.1,0.2,0.3,0.2,0.4v12.6c0,0.6-0.4,1-1,1H6.9  c-1.1,0-2.1,0.9-2.1,2.1c0,1.1,0.9,2.1,2.1,2.1h42c1.1,0,2.1-0.9,2.1-2.1C51,95.3,50,94.3,48.9,94.3 M19.3,22.2  c-0.1-0.2-0.1-0.3,0-0.5l2.5-15.2c0.1-0.5,0.5-0.8,1-0.8H33c0.5,0,0.9,0.4,1,0.8l2.5,15.2c0,0.2,0,0.3,0,0.5l-5.9,17.8  c-0.1,0.2-0.1,0.4-0.1,0.7v34c0,0.6-0.4,1-1,1h-3.1c-0.6,0-1-0.5-1-1v-34c0-0.2,0-0.4-0.1-0.7L19.3,22.2z M36.6,93.3  c0,0.6-0.5,1-1,1H20.2c-0.6,0-1-0.5-1-1V81.6c0-0.3,0-0.6,0.1-0.9c0.1-0.4,0.5-0.8,1-0.8h15.3c0.5,0,0.9,0.3,1,0.8  c0.1,0.3,0.1,0.6,0.1,0.9L36.6,93.3z"></path></g></svg>