<svg xmlns="http://www.w3.org/2000/svg" xmlns:xlink="http://www.w3.org/1999/xlink" x="0px" y="0px" viewBox="0 0 100 100" style="enable-background:new 0 0 100 100;" xml:space="preserve"><g>	<path d="M12.9,99.2c-0.6,0-1.1-0.2-1.5-0.6l-9.1-9.1c-0.8-0.8-0.8-2.1,0-2.9l34.1-34.1c0.8-0.8,2.1-0.8,2.9,0  c0,0,0,0,0,0l2.4,2.4c0.4,0.4,1,0.4,1.4,0l16.3-16.3c0.4-0.4,0.4-1,0-1.4l-6.9-7.3c-0.8-0.9-1.3-2-1.3-3.2c0-0.4,0.1-0.7,0.3-1.1  c0.4-1.1,0.6-2.3,0.8-3.5c0.3-2.2-0.3-4.4-1.7-6c-2-2.2-6-3.4-11.5-3.4c-1,0-1.9-0.4-2.5-1.1c-0.7-0.8-1-1.8-0.9-2.8  c0.2-1.6,1.2-3,2.6-3.6c4.2-1.8,8.7-2.7,13.3-2.8c7.1-0.1,13.8,2.8,18.6,8l12.4,13c0.8,0.8,0.8,2.1,0,2.9c-1.6,1.6-1.8,4.1-0.4,5.9  c0.6,0.6,1.4,1,2.3,1c1.1,0,2.2-0.5,3-1.4c0.8-0.8,2.2-0.8,3,0l7,7.4c0.7,0.8,1.1,1.8,1,2.8c-0.1,1-0.5,1.9-1.2,2.6L84.8,57.8  c-0.7,0.7-1.6,1.2-2.6,1.3c-0.1,0-0.3,0-0.4,0c-0.9,0-1.9-0.4-2.5-1.1l-7-7.4c-0.8-0.8-0.8-2.1,0-2.9c1.6-1.6,1.8-4.1,0.4-5.9  c-0.6-0.6-1.4-1-2.3-1c-1.1,0-2.2,0.5-3,1.4c-0.8,0.8-2.2,0.8-3,0l-0.7-0.8c-0.2-0.2-0.4-0.3-0.7-0.3h0c-0.3,0-0.5,0.1-0.7,0.3  L46.1,57.7c-0.4,0.4-0.4,1,0,1.4c0,0,0,0,0,0l2.4,2.4c0.8,0.8,0.8,2.1,0,2.9L14.4,98.6C14,99,13.5,99.2,12.9,99.2 M38,57.2  c-0.3,0-0.5,0.1-0.7,0.3L7.5,87.3c-0.4,0.4-0.4,1,0,1.4l4.7,4.7c0.4,0.4,1,0.4,1.4,0l29.8-29.7c0.4-0.4,0.4-1,0-1.4l-4.7-4.7  C38.5,57.4,38.2,57.2,38,57.2 M70.4,36.9c2,0,3.9,0.8,5.3,2.2c2.3,2.6,2.8,6.3,1.1,9.4c-0.2,0.4-0.1,0.8,0.2,1.1l4.1,4.4  c0.4,0.4,1,0.4,1.4,0c0,0,0,0,0,0l10.9-11.5c0.4-0.4,0.4-1,0-1.4l-4.2-4.4c-0.3-0.3-0.8-0.4-1.2-0.2c-1.1,0.6-2.4,0.9-3.6,0.9  c-2,0-3.9-0.8-5.3-2.2c-2.3-2.6-2.8-6.3-1.1-9.4c0.2-0.4,0.1-0.8-0.2-1.1L67.3,13.3c-4-4.4-9.8-6.8-15.7-6.7  c-1.9,0-3.8,0.2-5.7,0.6c-0.5,0.1-0.9,0.7-0.8,1.2c0.1,0.4,0.4,0.7,0.8,0.8c3,0.5,5.8,2,7.9,4.1c2.2,2.5,3.2,5.9,2.8,9.2  c-0.1,1.3-0.4,2.6-0.7,3.8c-0.1,0.4,0,0.7,0.2,1l9.6,10.2c0.3,0.3,0.8,0.4,1.2,0.2C68,37.2,69.2,36.9,70.4,36.9"></path>	<path d="M34.7,99.2c-1.1,0-2.1-0.9-2.1-2.1c0-1.1,0.9-2.1,2.1-2.1H81c0.6,0,1-0.4,1-1c0,0,0,0,0,0V78.6  c0-0.6-0.4-1-1-1c0,0,0,0,0,0h-3.1c-1.1,0-2.1-0.9-2.1-2.1c0-1.1,0.9-2.1,2.1-2.1h12.3c1.1,0,2.1,0.9,2.1,2.1  c0,1.1-0.9,2.1-2.1,2.1h-3.1c-0.6,0-1,0.4-1,1c0,0,0,0,0,0V94c0,0.6,0.4,1,1,1c0,0,0,0,0,0h9.3c1.1,0,2.1,0.9,2.1,2.1  c0,1.1-0.9,2.1-2.1,2.1L34.7,99.2z"></path>	<path d="M59.4,77.6c-1.1,0-2.1-0.9-2.1-2.1c0-1.1,0.9-2.1,2.1-2.1h6.2c1.1,0,2.1,0.9,2.1,2.1  c0,1.1-0.9,2.1-2.1,2.1H59.4z"></path>	<path d="M71.8,68.3c-0.6,0-1.1-0.2-1.5-0.6l-4.4-4.4c-0.4-0.4-0.6-0.9-0.6-1.5c0-1.1,0.9-2.1,2.1-2.1  c0.5,0,1.1,0.2,1.5,0.6l4.4,4.4c0.8,0.8,0.8,2.1,0,2.9C72.8,68.1,72.3,68.3,71.8,68.3"></path></g></svg>