<svg xmlns="http://www.w3.org/2000/svg" xmlns:xlink="http://www.w3.org/1999/xlink" x="0px" y="0px" viewBox="0 0 212.1 54.6" style="enable-background:new 0 0 212.1 54.6;" xml:space="preserve"><style type="text/css">	.dollar{fill:currentColor;}</style><g>	<path class="dollar" d="M21.9,31.1c0.1,0.1,0.2,0.2,0.2,0.3s0.2,0.2,0.3,0.2c2.3,1.9,5.4-1.3,3.5-3.5  c-0.1-0.1-0.2-0.2-0.2-0.3c-0.1-0.1-0.2-0.2-0.3-0.2C23.2,25.6,20,28.8,21.9,31.1z"></path>	<path class="dollar" d="M8,22.8c0.1,0.1,0.2,0.2,0.3,0.2c2.3,1.9,5.4-1.3,3.5-3.5c-0.1-0.1-0.2-0.2-0.2-0.3  s-0.2-0.2-0.3-0.2c-2.3-1.9-5.5,1.3-3.5,3.5C7.9,22.7,8,22.7,8,22.8z"></path>	<path class="dollar" d="M18.8,12.1c0.1,0.1,0.2,0.2,0.3,0.2c2.3,1.9,5.4-1.3,3.5-3.5c-0.1-0.1-0.2-0.2-0.2-0.3  c-0.1-0.1-0.2-0.2-0.3-0.2c-2.3-1.9-5.5,1.3-3.5,3.5C18.6,11.9,18.7,12,18.8,12.1z"></path>	<path class="dollar" d="M36.3,5.2c0.1-0.1,0.2-0.2,0.3-0.2c0.1-0.1,0.2-0.2,0.2-0.3c1.9-2.3-1.4-5.4-3.6-3.5  c-0.1,0.1-0.2,0.2-0.3,0.2s-0.2,0.2-0.2,0.3C30.8,4.1,34,7.2,36.3,5.2z"></path>	<path class="dollar" d="M46.8,8.1c-0.1,0.1-0.2,0.2-0.2,0.3c-1.9,2.3,1.4,5.4,3.6,3.5c0.1-0.1,0.2-0.2,0.3-0.2  c0.1-0.1,0.2-0.2,0.2-0.3c1.9-2.3-1.4-5.4-3.6-3.5C47,8,46.9,8,46.8,8.1z"></path>	<path class="dollar" d="M58,19c-0.1,0.1-0.2,0.2-0.3,0.2c-0.1,0.1-0.2,0.2-0.2,0.3c-1.9,2.3,1.4,5.4,3.6,3.5  c0.1-0.1,0.2-0.2,0.3-0.2c0.1-0.1,0.2-0.2,0.2-0.3C63.5,20.2,60.2,17.1,58,19z"></path>	<path class="dollar" d="M43.5,27.5c-0.1,0.1-0.2,0.2-0.3,0.2C43.2,27.9,43.1,28,43,28c-1.9,2.3,1.4,5.4,3.6,3.5  c0.1-0.1,0.2-0.2,0.3-0.2s0.2-0.2,0.2-0.3C49,28.7,45.8,25.6,43.5,27.5z"></path>	<path class="dollar" d="M34.3,22.9c0.1,0,0.2,0,0.4,0s0.2,0,0.4,0c2.9-0.4,2.8-4.9-0.2-5c-0.1,0-0.2,0-0.4,0  s-0.2,0-0.4,0C31.1,18.3,31.3,22.8,34.3,22.9z"></path>	<path class="dollar" d="M66.1,18.6C65.7,24.4,61.4,27,56,29.5c-0.4-2.8-1.6-5.4-3.4-7.5c-1.1,0.8-2.2,1.6-3.4,2.2  c1.7,1.9,2.8,4.4,3,7c-3.6,1.7-7.3,3.7-9.7,6.9c-1.1-3.3-2.8-6.3-5.1-8.8c2.8-2.2,5.8-4.2,8.9-6l0.7-0.4c0.3-0.2,0.6-0.4,0.9-0.6  c0.9-0.5,1.9-1.1,2.8-1.7c3.8-2.5,7.5-5.4,9.3-9.7c-1-1-2.1-2.1-3.3-3l0,0c-1,4.1-4.3,6.9-8.9,9.8c-2.3-1.4-4.7-2.7-7.2-3.8  l-0.7-0.3c-0.4-0.2-0.8-0.4-1.2-0.6c4.2-2.6,7.2-6.6,8.6-11.3C46,1.1,44.8,0.5,43.5,0c-1.5,5.8-5.3,8.8-9,10.9  C30.8,8.8,27,5.8,25.5,0c-1.3,0.5-2.5,1.1-3.7,1.7c1.4,4.9,4.4,8.7,9.3,11.8c0.9,0.6,2,1.2,3.2,1.9c1.5,0.8,2.9,1.5,4.5,2.2l0.1,0  c1.8,0.8,3.4,1.6,5,2.5c-3.3,1.9-6.4,4-9.4,6.4c-2.3-1.9-4.7-3.6-7.2-5.1c-1.3,0.7-2.6,1.5-3.7,2.4c3,1.7,5.8,3.6,8.4,5.8  c0.8,0.7,1.5,1.4,2.2,2.1c3.8,4.1,5.6,8.9,5.6,15v3.4H29.2v-3.5c-0.1-4.6,1.2-9.1,3.8-12.8c-0.8-1.1-1.8-2.1-2.8-2.9  c-1.6,2.1-2.9,4.5-3.7,7.1c-2.4-3.2-6.1-5.2-9.7-6.9c0.2-3.5,2-6.8,4.9-8.8c0.9-0.7,1.8-1.3,2.8-1.9c1.8-1,3.7-2,5.7-2.9  c0.6-0.3,1.2-0.6,1.8-0.9l0.1,0c-1.3-0.7-2.6-1.6-3.8-2.6c-2.4,1.1-4.8,2.4-7.1,3.8c-4.6-2.9-7.9-5.7-8.9-9.8l0,0  c-1.1,1-2.2,2-3.3,3c1.7,4.1,5.1,7,8.8,9.4c-2.6,2.4-4.4,5.6-4.9,9.1c-5.3-2.5-9.7-5-10.1-10.8c-1.1,1.6-2,3.2-2.9,4.9  c2.4,5.4,8,8,13.2,10.4c6.5,2.9,12.1,5.5,12.1,12.8v3.5h-6.6v4.4h31.7v-4.4h-6.6v-3.4c0-7.3,5.6-9.9,12.1-12.8  C61,31.6,66.7,29,69,23.6C68.2,21.9,67.2,20.2,66.1,18.6z"></path></g><g transform="translate(82.253 15.626)">	<path class="dollar" d="M5.9,0.4c8.2,0,12.5,3.9,12.5,11.2C18.4,19,14,23,5.9,23H0V0.4L5.9,0.4z M6.9,19.7  c5.7,0,6.9-1.4,6.9-8c0-6.7-1.2-8-6.9-8H4v16L6.9,19.7z"></path>	<path class="dollar" d="M45.3,11.7c-0.3,6.2-5.5,10.9-11.7,10.6C27.5,22,22.7,16.8,23,10.6C23.3,4.7,28.2,0,34.2,0  C40.5,0.1,45.5,5.4,45.3,11.7C45.3,11.7,45.3,11.7,45.3,11.7z M40.8,11.7c0-5.4-1.2-8.1-6.6-8.1s-6.6,2.7-6.6,8.1s1.2,8.1,6.6,8.1  S40.8,17.1,40.8,11.7z"></path>	<path class="dollar" d="M50.4,23V0.4h4v19.3h9.5V23L50.4,23z"></path>	<path class="dollar" d="M87.9,11.7c-0.3,6.2-5.5,10.9-11.7,10.6C70,22,65.3,16.8,65.6,10.6C65.9,4.7,70.8,0,76.7,0  C83,0.1,88,5.4,87.9,11.7C87.9,11.7,87.9,11.7,87.9,11.7z M83.3,11.7c0-5.4-1.2-8.1-6.6-8.1s-6.6,2.7-6.6,8.1s1.2,8.1,6.6,8.1  S83.3,17.1,83.3,11.7L83.3,11.7z"></path>	<path class="dollar" d="M106.6,23l-5.7-9.2h-4V23h-4V0.4h7.4c4.9,0,8.3,3.3,8.3,6.8c0,2.3-1.6,4.3-4,5.6l6.6,10.2  L106.6,23z M101.2,10.6c2.7,0,3.1-0.3,3.1-3.4s-0.5-3.6-3.1-3.6H97v7H101.2z"></path>	<path class="dollar" d="M119,3.6v5.8h10.1v3.2H119v7.1h10.8V23H115V0.4h14.6v3.2L119,3.6z"></path></g></svg>