<svg xmlns="http://www.w3.org/2000/svg" xmlns:xlink="http://www.w3.org/1999/xlink" x="0px" y="0px" viewBox="0 0 442.3 301.1" style="enable-background:new 0 0 442.3 301.1;" xml:space="preserve"><style type="text/css">	.hh0{fill:currentColor;}</style><path class="hh0" d="M143.9,207.9c0.2-0.3,0.5-0.6,0.7-0.9c5.6-7.3,5.1-17.6-1.4-24.3c-0.6-0.6-1.2-1.2-1.9-1.8 c-7.3-6.9-18.6-6.7-25.9,0.3c-1.6,1.5-3.1,3.1-4.7,4.6c-0.2,0.2-0.5,0.5-0.9,0.6c0.1-0.3,0.3-0.6,0.5-0.9c1.7-2.9,2.5-6.1,2.5-9.5 c-0.1-4.8-1.7-8.9-5-12.4c-1-1-2-2.1-3.1-3c-7.3-6-18.1-5.5-24.8,1.2c-1.5,1.5-3,3-4.5,4.5c-0.2,0.2-0.3,0.4-0.5,0.5 c-0.7,0.6-1.4,0.7-2.1,0c-0.9-0.8-1.7-1.6-2.5-2.4c-4-3.8-7.7-7.9-11.1-12.3c-4.8-6.4-8.4-13.4-10.6-21.1c-0.7-2.4-1.5-4.8-2.3-7.3 c-0.8-2.6-0.4-4.9,1.2-7.1c9.8-13.1,19.5-26.3,29.2-39.4c9.1-12.2,18.1-24.4,27.2-36.7c0.6-0.8,1.2-1.5,2-2c2.4-1.6,5-1.8,7.6-0.5 c3.3,1.7,6.6,3.4,9.9,5.1c4,2.1,8,4.1,12.1,6.2c2,1,4,1.4,6.2,1.3c2.7-0.1,5.5-0.2,8.2-0.2c3.7,0,7.4,0,11.2,0.1 c6.2,0.1,12.4,0.6,18.6,1.7c2.5,0.4,5,1,7.4,1.9c0.3,0.1,0.6,0.2,0.9,0.3c2,0.7,2.5,3.3,0.6,4.7c-2.1,1.6-4.2,3.2-6.2,4.9 c-4.2,3.5-8.1,7.3-11.4,11.7c-2,2.7-3.8,5.6-5.1,8.7c-0.8,2.2-1.3,4.4-1.2,6.7c0.1,3.2-0.1,6.5-0.1,9.7c-0.1,7-0.2,13.9-0.3,20.9 c-0.1,4-0.1,8.1-0.2,12.1c0,1.5-0.2,3.1,0,4.6c0.7,5.9,3.6,10.2,8.8,13c1.4,0.7,2.9,1,4.4,1.4c2.9,0.6,5.8,0.9,8.7,0.6 c4.5-0.5,8.5-2.3,12-5.2c3.1-2.6,5.1-6,6.5-9.8c1-2.7,1.5-5.5,2.1-8.3c1.3-6.3,2.7-12.6,4.8-18.7c0.8-2.2,1.6-4.4,2.7-6.4 c0.7-1.3,1.5-2.5,2.3-3.7c2.9-3.9,8-4.5,11.8-1.5c2.8,2.2,5.7,4.5,8.5,6.8c19.7,15.6,39.4,31.2,59.1,46.9 c15.6,12.4,31.3,24.8,47,37.3c3.2,2.5,5.2,5.7,5.9,9.7c1.5,8.4-4,16-11.8,17.7c-5.1,1.1-9.7-0.1-13.6-3.5c-15.2-13-30.3-26-45.5-39 c-1.3-1.1-2.7-2-4.5-2.3c-1.3-0.2-2.5-0.1-3.7,0.3c-3.1,1-5.5,4-5.8,7.3c-0.2,2.7,0.8,4.9,2.9,6.6c1.2,1,2.5,1.9,3.7,2.9 c14.1,11,28.1,21.9,42.2,32.8c2.8,2.2,4.7,5,5.6,8.4c2.3,8.6-3.3,17.4-12.1,19c-4.6,0.8-8.7-0.2-12.4-3c-4.7-3.5-9.3-7.1-14-10.6 c-11.2-8.5-22.5-17.1-33.7-25.6c-1-0.8-2.1-1.3-3.3-1.4c-2.6-0.3-5.1,1.1-6.2,3.6c-1.1,2.4-0.4,5.2,1.5,6.9c0.4,0.3,0.8,0.6,1.2,0.9 c15,10.1,30,20.3,45,30.4c3.3,2.3,5.4,5.3,6.1,9.3c1.2,6.9-3.2,13.7-10,15.4c-4.2,1.1-8.1,0.2-11.7-2.4c-6.4-4.7-12.8-9.4-19.2-14.1 c-8-5.9-16-11.8-24-17.7c-1.8-1.3-3.7-2-5.9-1.9c-4,0.1-7.7,3.2-8.4,7.2c-0.8,4.2,1.2,8,5.1,9.9c9.5,4.5,18.9,9,28.4,13.5 c1.2,0.6,2.3,1.1,3.5,1.7c5.2,2.6,9,8.4,8.1,15.3c-0.9,6.5-5.7,11.6-12,12.8c-2.8,0.5-5.5,0.3-8.2-0.7c-10.1-3.8-19.9-8.1-29.5-12.9 c-6.7-3.4-13.4-7-19.9-10.9c-0.3-0.2-0.7-0.4-1.1-0.6c0.2-0.3,0.3-0.5,0.5-0.7c1.3-1.3,2.7-2.6,4-4c3.4-3.7,5.1-8.2,5-13.2 c-0.1-4.8-1.9-9-5.3-12.5c-0.7-0.7-1.5-1.5-2.2-2.2c-6-5.3-14.6-6.1-21.5-2.1c-0.4,0.2-0.7,0.4-1.2,0.6c0.1-0.2,0.2-0.3,0.4-0.5 c0.9-0.9,1.8-1.8,2.7-2.7c3.5-3.5,5.3-7.8,5.4-12.7c0.1-5.1-1.6-9.5-5.1-13.2c-0.9-1-1.8-1.9-2.9-2.7c-5.7-4.8-13.7-5.7-20.4-2.3 c-0.3,0.2-0.6,0.3-0.9,0.4C143.9,208,143.9,208,143.9,207.9z"></path><path class="hh0" d="M344.6,180.3c-0.7-0.6-1.5-1.1-2.2-1.7c-36.1-28.3-72.2-56.6-108.3-84.9c-1.4-1.1-2.9-2.2-4.6-2.8 c-4.4-1.6-8.5-1-12.3,1.5c-2.4,1.6-4.2,3.6-5.8,5.9c-2.4,3.4-4,7.1-5.4,11s-2.5,7.8-3.4,11.8c-1.1,5.1-2.8,10-5.4,14.6 c-1.3,2.3-2.8,4.3-4.6,6.2c-3.2,3.1-7,4.4-11.4,3.9s-7.2-3-8.1-7.3c-0.3-1.3-0.4-2.6-0.4-3.9c0-13.8,0-27.6,0-41.4 c0-0.3,0-0.6,0-0.9c-0.2-2,0.4-3.9,1.2-5.6c1.4-3,3.3-5.7,5.4-8.3c3.8-4.6,8.1-8.7,12.6-12.5c2.8-2.4,5.7-4.6,8.6-7 c0.4-0.3,0.9-0.7,1.3-1.1c7.3-6.8,15.3-12.7,24.2-17c5.2-2.5,10.6-3.5,16.3-3.2c3.9,0.2,7.7,0.3,11.6,0.5c4.2,0.2,8.4,0.4,12.6,0.6 c3.8,0.2,7.6,0.3,11.4,0.5c4.2,0.2,8.5,0.4,12.7,0.6c3.8,0.2,7.5,0.3,11.3,0.5c4.3,0.2,8.6,0.4,12.8,0.6c3.9,0.2,7.9,0.3,11.8,0.5 c3.4,0.1,6.9,0.1,10.3,0.5c8.2,0.9,14.2,5.1,17.5,12.7c3.4,7.6,6.7,15.3,10,23c7,16.1,14,32.3,21.1,48.4c1.8,4,2.4,8.2,1.9,12.5 c-0.5,4.5-2.1,8.5-4.8,12.1c-6.3,8-13.3,15.2-21.5,21.2c-4.6,3.4-9.5,6.2-14.9,8.3c-0.3,0.1-0.6,0.2-0.9,0.3 C344.9,180.3,344.8,180.3,344.6,180.3z"></path><path class="hh0" d="M387.6,10.4c5.8,0.3,10.1,2.9,12.5,8.2c2.3,5,4.4,10,6.6,15c11.4,25.9,22.9,51.7,34.3,77.6 c2.4,5.5,1.6,10.5-2.3,15.1c-1.2,1.4-2.7,2.5-4.4,3.2c-6.5,2.9-13,5.8-19.6,8.6c-7,3-14.9,0-18-7c-5.5-12.3-10.9-24.6-16.3-36.9 C372.2,75.6,364,57,355.7,38.4c-2.4-5.5-1.1-11.7,2.9-15.6c1.1-1.1,2.4-2,3.9-2.6c6.5-2.9,13-5.8,19.6-8.7 C383.8,10.8,385.6,10.4,387.6,10.4z"></path><path class="hh0" d="M28.9,119.9c-3-0.1-5.8-1-8.2-2.8c-5.1-3.8-10.2-7.7-15.2-11.5c-6.1-4.7-7.3-13.1-2.6-19.2 c10.3-13.7,20.7-27.3,31-41c9.9-13,19.7-26.1,29.6-39.1c0.4-0.5,0.7-1,1.1-1.4c4.6-5.5,12.8-6.5,18.6-2.2c3.7,2.8,7.4,5.6,11.1,8.4 c1.4,1,2.7,2,4.1,3.1c4,3.1,5.8,7.1,5.5,12.1c-0.2,2.7-1.2,5.2-2.9,7.4c-3.7,4.8-7.4,9.7-11,14.6c-16.6,21.9-33.2,43.8-49.8,65.8 c-2.1,2.7-4.6,4.7-8,5.5C31.1,119.6,30,119.7,28.9,119.9z"></path><path class="hh0" d="M141.1,197.1c0,3.4-1.2,6.5-3.5,9c-0.3,0.3-0.5,0.6-0.8,0.8c-9.8,9.8-19.6,19.6-29.4,29.4c-2,2.1-4.4,3.5-7.3,4 c-7.9,1.5-14.9-4-15.7-11.4c-0.5-4.3,0.8-8,3.8-11c10.1-10.1,20.1-20.1,30.2-30.2c7.1-7.1,19.2-4,22.1,5.6 C140.9,194.5,141.1,195.8,141.1,197.1z"></path><path class="hh0" d="M152.3,214.5c6.8,0,12.2,5.1,13.1,11.4c0.6,4.3-0.6,8.1-3.6,11.2c-7.4,7.5-14.8,14.9-22.3,22.3 c-3.7,3.7-8.3,4.7-13.3,3.2c-4.9-1.5-8-5-9-10.1c-0.9-4.5,0.4-8.5,3.6-11.9c1.4-1.5,2.9-2.9,4.4-4.4c5.8-5.8,11.7-11.7,17.5-17.5 c2.2-2.2,4.8-3.6,7.8-4C151.1,214.6,151.7,214.5,152.3,214.5z"></path><path class="hh0" d="M92.8,164.4c8,0,13.4,5.4,14.1,11.8c0.4,4.2-0.8,7.9-3.8,10.9c-5.5,5.5-11,11.1-16.5,16.5 c-3.7,3.7-8.3,4.8-13.3,3.3c-4.9-1.5-8-4.9-9.1-9.9c-1-4.6,0.1-8.7,3.4-12c5.6-5.7,11.2-11.3,16.9-16.9 C87,165.6,90.2,164.5,92.8,164.4z"></path><path class="hh0" d="M187.5,259.7c-0.1,3.9-1.3,7-3.8,9.6c-4.1,4.2-8.3,8.4-12.5,12.5c-7.3,7.1-19.4,3.8-22-6 c-1.3-4.8-0.2-9.2,3.3-12.8c4.1-4.2,8.2-8.3,12.4-12.4c3.8-3.7,8.3-4.7,13.3-3.2c4.9,1.5,7.9,5,9,10 C187.4,258.3,187.4,259.2,187.5,259.7z"></path></svg>