<svg xmlns="http://www.w3.org/2000/svg" xmlns:xlink="http://www.w3.org/1999/xlink" width="462.855" height="177.292" viewBox="0 0 462.855 177.292">
  <defs>
    <clipPath id="clip-path">
      <rect id="Rectangle_32" data-name="Rectangle 32" width="462.855" height="177.292" fill="#f64"/>
    </clipPath>
  </defs>
  <g id="Group_24592" data-name="Group 24592" opacity="0.3">
    <g id="Group_28" data-name="Group 28" clip-path="url(#clip-path)">
      <path id="Path_32" data-name="Path 32" d="M27.445,106.813q2.487-1.409,5.763-3.151t5.68-3.068l5.721-2.9,2.156-4.975q5.389-12.1,12.686-26.864,1.823-3.648,3.069-6.26T63.762,56.9c0-.11-.07-.194-.207-.249a1.493,1.493,0,0,0-.538-.083A3.066,3.066,0,0,1,60.736,55.2a4.369,4.369,0,0,1-1.119-2.778q0-1.741,4.56-9.369t10.2-15.339q5.141-6.881,6.966-6.965a3.141,3.141,0,0,1,2.9.912,3.288,3.288,0,0,1,.745,2.985q0,1.493-9.618,19.32Q68.9,55.9,62.975,67.47t-9.7,19.236q-3.774,7.671-3.69,8.25a15.19,15.19,0,0,0,1.99-.788q1.823-.787,4.477-2.031A560.979,560.979,0,0,1,116,67.346l3.565-1.244,5.058-11.028q2.239-4.725,4.6-9.867t3.856-8.291q3.315-7.131,5.639-12.313a55.947,55.947,0,0,0,2.321-5.514c-.055-.054-.194-.028-.414.082s-.47.249-.746.415a3.947,3.947,0,0,1-4.353.041,3.767,3.767,0,0,1-1.617-3.938,22.638,22.638,0,0,1,3.151-5.846,71.308,71.308,0,0,1,5.721-7.5A7.428,7.428,0,0,1,147.217.06a4.053,4.053,0,0,1,4.1,1.617q1.493,1.989-.166,7.214a30.358,30.358,0,0,1-1.824,4.436q-1.244,2.529-3.4,6.674-3.814,7.214-12.023,24.212-9.621,20.148-9.453,20.314c.054.056.359.014.912-.124s1.188-.318,1.907-.539q8.872-2.653,20.149-4.933t20.811-3.359a85.883,85.883,0,0,1,8.831-.414,49.949,49.949,0,0,1,6.923.332q5.224,1.575,5.223,4.726a3.328,3.328,0,0,1-1.989,3.316,3.189,3.189,0,0,1-3.192-.041,4.018,4.018,0,0,1-1.7-2.944,5.941,5.941,0,0,0-.207-1.12.9.9,0,0,0-.456-.538,5.215,5.215,0,0,0-1.162-.332q-3.9-.912-13.349-.083a162.581,162.581,0,0,0-20.149,3.151q-3.482.746-9.121,2.2T127.649,66.6a37.885,37.885,0,0,0-5.1,1.658q-.168.248-1.658,3.607t-3.607,8q-2.115,4.645-3.98,8.83t-2.695,6.095q-8.541,19.651-16.293,39.675T83.579,164.523a33.444,33.444,0,0,0-.87,3.233,2.444,2.444,0,0,0,0,1.451,1.287,1.287,0,0,0,.87.539,3.791,3.791,0,0,1,2.281,4.56,4.712,4.712,0,0,1-2.363,2.571,7.184,7.184,0,0,1-4.809,0,2.512,2.512,0,0,1-1.327-1.493,8.141,8.141,0,0,1-.249-2.82,15.8,15.8,0,0,1,.5-2.86q.414-1.616,1.451-4.56T82,156.978q12.437-34.244,32.752-80.014,1.326-2.985,2.156-4.975t.83-2.073a37.323,37.323,0,0,0-3.607,1.2q-3.358,1.2-7.836,2.86t-8.043,3.068q-20.813,8.292-42.2,18.988l-9.121,4.643-1.161,2.4q-.5,1.163-1.534,3.608t-2.114,5.14q-1.079,2.695-1.865,4.727a19.517,19.517,0,0,0-.788,2.2c0,.055.069.124.207.207s.318.18.539.29a3.645,3.645,0,0,1,3.151,3.98,4.564,4.564,0,0,1-.622,1.949q-.623,1.2-2.446,4.1a44.558,44.558,0,0,1-3.9,5.514,3.585,3.585,0,0,1-2.4,1.451q-2.239,0-2.239-2.9,0-4.559,8.374-24.958.746-1.989,1.285-3.358t.539-1.451q-.416-.081-4.892,2.4t-10.7,6.219q-6.218,3.73-11.856,7.214-8.126,5.141-10.2,5.638a3.693,3.693,0,0,1-3.027-.829A3.5,3.5,0,0,1,0,121.406q0-1.657,2.777-4.519a47.88,47.88,0,0,1,7.255-5.928q4.312-2.985,6.55-3.4a4.138,4.138,0,0,1,3.98,1.493l.994,1Z" transform="translate(0 0)" fill="#f64"/>
      <path id="Path_33" data-name="Path 33" d="M163.491,125.126a5.519,5.519,0,0,1-2.4-.414q-3.482-1.824-3.482-7.048a39.113,39.113,0,0,1,1.658-9.867v-.083a.074.074,0,0,0-.083-.083,32.488,32.488,0,0,0-3.233,2.737q-7.049,6.3-10.78,6.3a3.3,3.3,0,0,1-3.151-2.239,7.346,7.346,0,0,1-.414-2.487q0-3.565,3.4-8.126,6.3-7.214,13.1-7.214a7.257,7.257,0,0,1,6.467,3.234,2.722,2.722,0,0,1,.332,1.493,6.545,6.545,0,0,1-1,4.063,12.2,12.2,0,0,0-1.825,3.9A31.223,31.223,0,0,0,160.423,118a5.221,5.221,0,0,0,1.161,3.566,2.509,2.509,0,0,0,1.99,1q3.9,0,14.013-7.96a32.164,32.164,0,0,0,5.223-4.934,6.4,6.4,0,0,0,1.493-3.9,3.177,3.177,0,0,1,1-2.695,3.213,3.213,0,0,1,1.907-.746,2.3,2.3,0,0,1,2.239,1.576,6.058,6.058,0,0,1,.331,1.907q0,2.736-1.658,3.732a28.063,28.063,0,0,0-3.98,3.15,111.291,111.291,0,0,1-10.033,7.836,30.029,30.029,0,0,1-7.462,4.1,9.89,9.89,0,0,1-3.151.5m-18.241-11.608q1.822,0,6.716-4.312,4.228-3.732,4.975-5.39a4.354,4.354,0,0,0,.249-1.658,1.319,1.319,0,0,0-1.493-1.493,7.611,7.611,0,0,0-3.732,1.493,16.7,16.7,0,0,0-6.55,7.3,8.755,8.755,0,0,0-.912,3.151q0,.913.746.912" transform="translate(-21.373 -14.581)" fill="#f64"/>
      <path id="Path_34" data-name="Path 34" d="M184.791,132.365q-1.16-1.077,1-6.882,1.575-4.561,2.57-7.38t1.451-4.312a14.5,14.5,0,0,0,.539-2.156,1.431,1.431,0,0,0-.083-.912,5.8,5.8,0,0,1,.581-4.768,3.947,3.947,0,0,1,3.482-2.28,2.829,2.829,0,0,1,2.778,1.617,6.072,6.072,0,0,1,.456,3.69,7.189,7.189,0,0,1-1.824,3.731c-.332.388-.622.746-.871,1.078a1.634,1.634,0,0,0-.373.663,16,16,0,0,1-.622,1.493q-.622,1.41-1.533,3.4-.83,1.908-1.409,3.234a15.024,15.024,0,0,0-.581,1.409,4.588,4.588,0,0,0,.83-.788q.745-.787,1.824-2.032,2.32-2.569,5.928-6.052t6.592-5.887a27.2,27.2,0,0,1,4.809-3.192,6.589,6.589,0,0,1,3.483-.953q3.234.5,4.477,6.8,1.493,7.96,4.312,9t9.7-2.695a72.548,72.548,0,0,0,10.241-6.467,23.113,23.113,0,0,0,6.011-6.136q1.657-3.315,4.228-3.316a2.594,2.594,0,0,1,2.488,1.409,4.494,4.494,0,0,1,.414,3.068,4,4,0,0,1-1.907,2.653q-.416.25-1.409.871t-1.99,1.285q-20.813,12.853-26.782,12.852a7.155,7.155,0,0,1-4.975-2.073q-2.157-1.991-3.732-8.706-1.162-5.057-2.073-5.058a8.156,8.156,0,0,0-2.612,1.451q-2.115,1.451-4.353,3.192-2.985,2.489-6.758,6.343t-7.173,7.836q-1.657,2.073-2.943,3.524a9.774,9.774,0,0,1-1.617,1.617,2.22,2.22,0,0,1-1.451.332,1.578,1.578,0,0,1-1.119-.5" transform="translate(-27.831 -15.436)" fill="#f64"/>
      <path id="Path_35" data-name="Path 35" d="M262.883,142.789a3.781,3.781,0,0,1-3.648-2.073l-.082-.083a3.224,3.224,0,0,1-.249-1.077,17.912,17.912,0,0,1,1.078-3.98q9.12-25.537,12.851-33.332a3.387,3.387,0,0,0,.415-1.077c0-.11-.028-.166-.083-.166q-.331,0-2.156,2.321-3.98,5.141-8.705,10.281-9.037,9.785-11.94,9.785a2.716,2.716,0,0,1-2.4-1.658,3.632,3.632,0,0,1-.5-1.907q0-2.737,4.644-9.536a69.4,69.4,0,0,1,10.448-12.52,36.672,36.672,0,0,1,5.97-5.058,4.867,4.867,0,0,1,2.155-.581,3.662,3.662,0,0,1,1.369.249l1.036.415a2.3,2.3,0,0,0,.5.166,12.024,12.024,0,0,0,1.741-2.239A104.73,104.73,0,0,0,285.27,73.8q3.482-7.876,4.975-9.7a2.438,2.438,0,0,1,1.907-1c.055,0,.278.014.664.042s.746.428,1.077,1.2V64.6q0,2.984-7.462,16.085-2.654,4.561-6.882,13.93a291.4,291.4,0,0,0-10.862,27.363q-3.814,11.609-3.814,13.183a3.075,3.075,0,0,0,.83,1.534,3.806,3.806,0,0,1,.829,2.445,3.836,3.836,0,0,1-3.648,3.648m-9.121-26.2a5.8,5.8,0,0,0,1.326-1.161,105.151,105.151,0,0,0,7.214-7.711q5.969-6.8,5.97-7.546h-.083q-.581,0-2.736,1.99a67.438,67.438,0,0,0-9.2,10.2q-.664,1.077-1.162,1.741a10.964,10.964,0,0,0-1.409,2.239v.166a.074.074,0,0,0,.083.083" transform="translate(-37.352 -9.525)" fill="#f64"/>
      <path id="Path_36" data-name="Path 36" d="M283.678,167.111a2.933,2.933,0,0,1-1.161-.249,3.015,3.015,0,0,1-1.659-3.068,14.808,14.808,0,0,1,1.244-5.141q4.976-11.857,22.8-29.518l5.389-5.307q10.613-21.641,10.613-22.3v-.083l-.745.414q-6.137,4.4-21.559,19.9-9.785,9.784-10.945,10.448a5.964,5.964,0,0,1-2.156.5q-2.487,0-2.487-3.565,0-3.315,3.233-11.691a12.6,12.6,0,0,0,1.161-3.566,3.915,3.915,0,0,0-.166-1.077,4.843,4.843,0,0,1-.166-1.327q0-3.315,3.731-7.379,2.9-3.067,4.809-3.068a2.645,2.645,0,0,1,1.658.58,3,3,0,0,1,1.244,2.571,13.032,13.032,0,0,1-1.326,3.98q-2.239,5.224-4.56,6.467-2.323.913-5.224,9.95a16.8,16.8,0,0,0-1.077,4.229c0,.055.055.082.166.082q.5,0,3.027-2.363t8.416-8.25Q319.662,96.8,322.98,96.8a1.678,1.678,0,0,1,1.2.746,2.2,2.2,0,0,1,.622,1.327q0,2.073-4.975,12.354a71.359,71.359,0,0,0-3.4,7.214,10.012,10.012,0,0,0,2.737-1.825q2.9-2.072,5.638-3.9,3.151-1.989,4.892-3.233a11.219,11.219,0,0,0,3.648-3.648,10.4,10.4,0,0,1,1.575-2.446,2.83,2.83,0,0,1,2.156-.788,3.318,3.318,0,0,1,2.446.954,2.936,2.936,0,0,1,.953,2.115,3.164,3.164,0,0,1-1.741,2.487,4.227,4.227,0,0,1-2.239.912q-.913,0-4.395,2.073a158.9,158.9,0,0,0-19.236,14.178q-8.044,14.511-13.433,23.051-10.032,15.5-13.846,18.158a3.8,3.8,0,0,1-1.907.581m.912-4.146,1-1a23.535,23.535,0,0,0,3.731-4.56q4.311-5.555,10.364-15.174,4.809-7.545,4.809-8.209l-.082-.083q-.332,0-2.737,2.82-14.76,16.915-17.081,26.2" transform="translate(-42.393 -14.611)" fill="#f64"/>
      <path id="Path_37" data-name="Path 37" d="M388.987,122.886a8.609,8.609,0,0,1-5.307-1.741,7.771,7.771,0,0,1-2.489-5.307,57.735,57.735,0,0,1,.333-6.8l.249-2.984a1.983,1.983,0,0,0-.166-1.078.966.966,0,0,0-.665-.166q-2.653.581-9.577,7.338t-9.078,6.758l-.5-.083q-1.411-.579-1.409-7.048,0-4.228-.332-4.56a.22.22,0,0,0-.249-.249q-1.246,0-7.628,6.219a18.246,18.246,0,0,0-1.328,1.493q-3.068,3.649-5.141,3.648l-.579-.083a2.487,2.487,0,0,1-2.156-2.653,14.387,14.387,0,0,1,.249-2.487l1.161-7.96a13.277,13.277,0,0,1,.828-3.815,3.3,3.3,0,0,1,3.4-1.989,3.27,3.27,0,0,1,3.318,2.57,2.619,2.619,0,0,1,.249,1,10.272,10.272,0,0,1-1,2.653q-2.075,4.147-2.074,4.975v.083a23.024,23.024,0,0,0,3.318-2.653q5.222-4.726,8.041-4.727,2.653,0,3.151,4.064a23.066,23.066,0,0,1,.249,2.321q0,1.327-.082,2.4v2.488q.415,0,3.068-2.82,10.945-11.359,15.338-11.359,3.234,0,3.235,4.477a41.514,41.514,0,0,1-.415,5.223,37.046,37.046,0,0,0-.331,4.727v.912q0,4.312,3.813,4.312a19.253,19.253,0,0,0,5.888-1.409,34.859,34.859,0,0,0,8.29-4.56q4.394-3.151,5.225-6.136,1.159-4.146,4.312-4.146a3.044,3.044,0,0,1,2.237.913,1.979,1.979,0,0,1,.5,1.326,3.3,3.3,0,0,1-1.907,2.985,4.8,4.8,0,0,0-1.244.912,58.745,58.745,0,0,1-7.752,6.55,39.656,39.656,0,0,1-10.821,5.721,13.381,13.381,0,0,1-4.227.746" transform="translate(-51.768 -14.994)" fill="#f64"/>
      <path id="Path_38" data-name="Path 38" d="M440.151,125.126a5.521,5.521,0,0,1-2.4-.414q-3.482-1.824-3.482-7.048a39.111,39.111,0,0,1,1.658-9.867v-.083a.074.074,0,0,0-.083-.083,32.6,32.6,0,0,0-3.233,2.737q-7.049,6.3-10.78,6.3a3.3,3.3,0,0,1-3.151-2.239,7.346,7.346,0,0,1-.414-2.487q0-3.565,3.4-8.126,6.3-7.214,13.1-7.214a7.256,7.256,0,0,1,6.467,3.234,2.715,2.715,0,0,1,.332,1.493,6.545,6.545,0,0,1-1,4.063,12.218,12.218,0,0,0-1.825,3.9A31.223,31.223,0,0,0,437.083,118a5.221,5.221,0,0,0,1.161,3.566,2.512,2.512,0,0,0,1.99,1q3.9,0,14.013-7.96a32.16,32.16,0,0,0,5.223-4.934,6.4,6.4,0,0,0,1.493-3.9,3.176,3.176,0,0,1,1-2.695,3.213,3.213,0,0,1,1.907-.746A2.3,2.3,0,0,1,466.1,103.9a6.033,6.033,0,0,1,.331,1.907q0,2.736-1.658,3.732a28.063,28.063,0,0,0-3.979,3.15,111.165,111.165,0,0,1-10.033,7.836,30,30,0,0,1-7.462,4.1,9.891,9.891,0,0,1-3.151.5m-18.241-11.608q1.824,0,6.716-4.312,4.228-3.732,4.975-5.39a4.354,4.354,0,0,0,.249-1.658,1.319,1.319,0,0,0-1.493-1.493,7.611,7.611,0,0,0-3.732,1.493,16.7,16.7,0,0,0-6.55,7.3,8.754,8.754,0,0,0-.912,3.151q0,.913.746.912" transform="translate(-63.132 -14.581)" fill="#f64"/>
      <path id="Path_39" data-name="Path 39" d="M461.451,132.365q-1.16-1.077,1-6.882,1.575-4.561,2.57-7.38t1.451-4.312a14.5,14.5,0,0,0,.539-2.156,1.437,1.437,0,0,0-.083-.912,5.8,5.8,0,0,1,.581-4.768,3.948,3.948,0,0,1,3.482-2.28,2.828,2.828,0,0,1,2.778,1.617,6.066,6.066,0,0,1,.456,3.69,7.189,7.189,0,0,1-1.824,3.731c-.332.388-.622.746-.871,1.078a1.635,1.635,0,0,0-.373.663,16,16,0,0,1-.622,1.493q-.622,1.41-1.533,3.4-.83,1.908-1.409,3.234a14.749,14.749,0,0,0-.581,1.409,4.586,4.586,0,0,0,.83-.788q.745-.787,1.824-2.032,2.32-2.569,5.928-6.052t6.592-5.887a27.232,27.232,0,0,1,4.809-3.192,6.589,6.589,0,0,1,3.483-.953q3.234.5,4.477,6.8,1.493,7.96,4.312,9t9.7-2.695A72.5,72.5,0,0,0,519.2,111.72a23.113,23.113,0,0,0,6.011-6.136q1.657-3.315,4.228-3.316a2.594,2.594,0,0,1,2.488,1.409,4.489,4.489,0,0,1,.414,3.068,4,4,0,0,1-1.907,2.653q-.415.25-1.409.871t-1.99,1.285q-20.813,12.853-26.782,12.852a7.155,7.155,0,0,1-4.975-2.073q-2.157-1.991-3.732-8.706-1.162-5.057-2.073-5.058a8.157,8.157,0,0,0-2.612,1.451q-2.115,1.451-4.353,3.192-2.985,2.489-6.758,6.343t-7.173,7.836q-1.657,2.073-2.943,3.524a9.774,9.774,0,0,1-1.617,1.617,2.221,2.221,0,0,1-1.451.332,1.578,1.578,0,0,1-1.119-.5" transform="translate(-69.59 -15.436)" fill="#f64"/>
    </g>
  </g>
</svg>
