<svg xmlns="http://www.w3.org/2000/svg" xmlns:xlink="http://www.w3.org/1999/xlink" width="9.433" height="15" viewBox="0 0 9.433 15"><defs><clipPath id="Hlocation-path"><rect data-name="Rectangle 3" width="9.433" height="15" fill="none"></rect></clipPath></defs><g data-name="Group 8" transform="translate(0 0)"><g data-name="Group 7" transform="translate(0 0)" clip-path="url(#Hlocation-path)"><path data-name="Path 7" d="M4.239,14.594c.264.543.69.543.954,0,1.129-2.334,3.871-8.035,3.957-8.277l.014-.038a4.66,4.66,0,0,0,.269-1.557A4.716,4.716,0,1,0,0,4.718,4.775,4.775,0,0,0,.138,5.835l0,.023c.121.483,2.949,6.359,4.1,8.736M4.717,2.059A2.661,2.661,0,1,1,2.056,4.718,2.661,2.661,0,0,1,4.717,2.059" transform="translate(0 0)" fill="currentcolor"></path></g></g></svg>