<svg xmlns="http://www.w3.org/2000/svg" xmlns:xlink="http://www.w3.org/1999/xlink" x="0px" y="0px" viewBox="0 0 53.2 56.1" style="enable-background:new 0 0 53.2 56.1;" xml:space="preserve"><style type="text/css">	.ic1{fill:currentColor;}</style><g>			<path class="ic1" d="M5.4,25.9l4.6,0.8c0.3,1.1,0.8,2.2,1.4,3.2l-2.3,3.3c-0.3,0.4-0.3,1,0.1,1.4l4.6,4.6    c0.4,0.4,0.9,0.4,1.4,0.1l3.3-2.3c1.1,0.6,2.2,1,3.3,1.4l0.7,4c0.1,0.5,0.5,0.9,1.1,0.9H30c0.5,0,1-0.4,1.1-0.9l0.7-4    c1.1-0.3,2.3-0.8,3.3-1.4l3.3,2.3c0.4,0.3,1,0.3,1.4-0.1l4.6-4.6c0.4-0.4,0.4-0.9,0.1-1.4l-2.3-3.3c0.6-1,1-2.1,1.3-3.2l4.6-0.8    c0.5-0.1,0.9-0.5,0.9-1.1v-6.4c0-0.5-0.4-1-0.9-1.1l-4.6-0.8c-0.3-1.1-0.8-2.2-1.4-3.2l2.3-3.3c0.3-0.4,0.3-1-0.1-1.4l-4.8-4.5    c-0.4-0.4-0.9-0.4-1.4-0.1l-3.3,2.3c-1.1-0.6-2.2-1-3.3-1.4l-0.7-4C30.7,0.4,30.3,0,29.7,0h-6.5c-0.5,0-1,0.4-1.1,0.9l-0.7,4    c-1.1,0.3-2.3,0.8-3.3,1.4L14.8,4c-0.4-0.3-1-0.3-1.4,0.1L8.8,8.7c-0.4,0.4-0.4,0.9-0.1,1.4l2.3,3.3c-0.6,1-1,2.1-1.4,3.2L5,17.4    c-0.5,0.1-0.9,0.5-0.9,1.1v6.4C4.5,25.4,4.9,25.8,5.4,25.9 M6.7,19.3l4.3-0.7c0.4-0.1,0.8-0.4,0.9-0.8c0.4-1.4,0.9-2.7,1.6-4    c0.2-0.4,0.2-0.8,0-1.2l-2.2-3.1l3.3-3.3l3.1,2.2c0.3,0.2,0.8,0.3,1.2,0c1.3-0.7,2.6-1.3,4-1.7c0.4-0.1,0.7-0.4,0.8-0.9l0.6-3.7    h4.6l0.6,3.7c0.1,0.4,0.4,0.8,0.8,0.9c1.4,0.4,2.8,0.9,4,1.7c0.4,0.2,0.8,0.2,1.2,0l3.1-2.2l3.3,3.3l-2.2,3.1    c-0.2,0.3-0.3,0.8,0,1.2c0.7,1.2,1.3,2.6,1.7,4c0.1,0.4,0.4,0.7,0.9,0.8l4.3,0.7v4.6l-4.3,0.7c-0.4,0.1-0.8,0.4-0.9,0.8    c-0.4,1.4-0.9,2.7-1.7,4c-0.2,0.4-0.2,0.8,0,1.2l2.2,3.1l-3.3,3.2l-3.1-2.2c-0.3-0.2-0.8-0.3-1.2,0c-1.3,0.7-2.6,1.3-4,1.7    c-0.4,0.1-0.7,0.4-0.8,0.9L28.9,41h-4.6l-0.7-3.8c-0.1-0.4-0.4-0.8-0.8-0.9c-1.4-0.4-2.8-0.9-4-1.7c-0.4-0.2-0.8-0.2-1.2,0    l-3,2.3l-3.3-3.3l2.2-3.1c0.2-0.3,0.3-0.8,0-1.2c-0.7-1.2-1.3-2.6-1.7-4c-0.1-0.4-0.4-0.7-0.9-0.8l-4.3-0.7L6.7,19.3z"></path>			<path class="ic1" d="M26.6,32.4c0.6,0,1.1-0.5,1.1-1.1s-0.5-1.1-1.1-1.1c-4.8,0-8.7-3.9-8.7-8.7    s3.9-8.7,8.7-8.7s8.7,3.9,8.7,8.7c0,2.9-1.4,5.6-3.8,7.2c-0.5,0.3-0.6,1-0.3,1.5s1,0.6,1.5,0.3c5-3.3,6.3-10.1,2.9-15    c-3.3-5-10.1-6.3-15-2.9s-6.3,10.1-2.9,15C19.6,30.7,23,32.4,26.6,32.4"></path>			<path class="ic1" d="M20,51.2H4c-0.6,0-1.1,0.5-1.1,1.1s0.5,1.1,1.1,1.1h16c0.6,0,1.1-0.5,1.1-1.1    C21.1,51.6,20.6,51.2,20,51.2"></path>			<path class="ic1" d="M49.4,48.4H3.8c-2.1,0-3.8,1.7-3.8,3.8C0,54.3,1.7,56,3.8,56h45.5c2.1,0,3.8-1.7,3.8-3.8    C53.2,50.1,51.5,48.4,49.4,48.4 M49.4,53.9H3.8c-0.9,0-1.7-0.8-1.7-1.7c0-0.9,0.8-1.7,1.7-1.7h45.5c0.9,0,1.7,0.8,1.7,1.7    C51.1,53.2,50.3,53.9,49.4,53.9"></path></g></svg>