<svg xmlns="http://www.w3.org/2000/svg" xmlns:xlink="http://www.w3.org/1999/xlink" x="0px" y="0px" viewBox="0 0 60.1 78.6" style="enable-background:new 0 0 60.1 78.6;" xml:space="preserve"><style type="text/css">	.ic2{fill:currentColor;}</style><g>	<path class="ic2" d="M11.2,35.2C8.4,36.5,6.3,39,5.6,42l-0.2,0.7h19.8l-2.7-7.3c-0.6-1.5-0.9-3-1-4.6L11.2,35.2z"></path>	<path class="ic2" d="M7.4,75.6h45.5c0.8,0,1.5,0.7,1.5,1.5s-0.7,1.5-1.5,1.5H7.4c-0.8,0-1.5-0.7-1.5-1.5  C5.9,76.2,6.6,75.6,7.4,75.6"></path>	<path class="ic2" d="M2.7,44.3c-1.4,0-2.9,1.6-2.7,2.9l5,25.3c0.3,1,1.3,1.7,2.3,1.7h45.5c1.1,0,2-0.7,2.3-1.7  l5-25.3c0.2-1.2-1.3-2.9-2.7-2.9C57.4,44.3,2.7,44.3,2.7,44.3z"></path>	<path class="ic2" d="M54.7,42.8l-0.2-0.7c-0.7-3-2.8-5.6-5.6-6.8L38.6,31c-0.1,1.6-0.4,3.1-1,4.6l-2.7,7.3  L54.7,42.8L54.7,42.8z"></path>	<path class="ic2" d="M32.6,42.8c-0.3-1-0.7-1.9-1.4-2.7c0.4-0.9,1-1.8,1.6-2.6c-0.5-0.8-1.1-1.5-1.9-2  c2.3-1.5,4.4-3.2,6.4-5l-0.6-3c0.9-1.7,1.6-3.6,1.9-5.5l0,0c0.7,0.2,1.5-1.2,1.9-3s0.2-3.4-0.4-3.6c0.2-0.9,0.3-1.8,0.4-2.6  c0.3-1.8,0.2-3.5-0.2-5.3c-1.9-6.9-15-11.3-18.4-2.8c-0.9,0.1-1.8,1.6-2.1,2.7c-0.4,1.8-0.5,3.6-0.2,5.4c0.1,0.8,0.2,1.7,0.4,2.6  c-0.6,0.2-0.8,1.8-0.4,3.6s1.3,3.2,1.9,3l0,0c0.4,1.9,1.1,3.8,1.9,5.5l-0.6,3c2,1.9,4.1,3.6,6.4,5c-0.7,0.6-1.3,1.3-1.9,2  c0.6,0.8,1.1,1.7,1.6,2.6c-0.6,0.8-1.1,1.7-1.4,2.7H32.6z"></path></g></svg>