<svg xmlns="http://www.w3.org/2000/svg" xmlns:xlink="http://www.w3.org/1999/xlink" x="0px" y="0px" viewBox="0 0 63.3 63.9" style="enable-background:new 0 0 63.3 63.9;" xml:space="preserve"><style type="text/css">	.ic3{fill:currentColor;}</style><g>		<g class="st0">			<path class="ic3" d="M57.2,43.7c0,0-14.9-5.1-15.3-5.1c-0.1,0.2-0.1,0.4-0.2,0.6c-0.7,2.7-1.4,5.4-2.2,8.1    c-1,3.1-2.1,6.3-3.2,9.4v0.1c-0.1,0.4-0.3,0.7-0.5,1c-0.2-1.4-0.4-3.3-0.7-5.2c-0.3-2-0.5-4-0.7-5.3c0-0.1-0.1-0.3-0.3-0.3h-4.9    c-0.1,0-0.3,0.1-0.3,0.3c-0.2,1.3-0.4,3.3-0.7,5.3c-0.3,1.8-0.5,3.7-0.7,5.2c-0.2-0.3-0.3-0.7-0.5-1v-0.1    c-1.1-3.1-2.2-6.2-3.2-9.4c-0.8-2.7-1.5-5.4-2.2-8.1c-0.1-0.2-0.1-0.4-0.2-0.6c-0.4,0-15.3,5.1-15.3,5.1C-0.4,45.9,0,50.2,0,50.2    v8.6c0.7,5.2,4.7,5.1,4.7,5.1h54c0,0,4,0.1,4.6-5.1v-8.6C63.3,50.2,63.7,45.8,57.2,43.7"></path>			<path class="ic3" d="M35.8,42l-0.6-1.3c-0.1-0.3-0.4-0.4-0.7-0.4H29c-0.3,0-0.6,0.2-0.7,0.4L27.6,42    c-0.1,0.2-0.1,0.5,0,0.7l1.3,2.7c0,0.1,0.1,0.1,0.1,0.1h5.5c0.1,0,0.1,0,0.1-0.1l1.3-2.7C36,42.5,36,42.3,35.8,42"></path>			<path class="ic3" d="M45.8,18.5L45.8,18.5L45.8,18.5c0.1-1.3-0.6-2.5-1.8-3v-0.1c0-0.1,0-0.3,0-0.4    c0-0.4,0.1-0.8,0.2-1.2c0.3-1.1,0.5-2.3,0.5-3.5c0.2-3.7-1.9-7.2-5.3-8.6c-0.4-0.2-0.7-0.3-1.1-0.5C36.2,0.4,34,0,31.8,0    c-0.5,0-1,0-1.5,0c-1.7,0-3.3,0.3-4.8,1c-0.2,0.1-0.3,0.2-0.5,0.3c-0.6,0.4-1.2,1-1.6,1.6l-0.2,0.3c-0.1,0.2-0.3,0.4-0.5,0.6    c-0.3,0.3-0.7,0.5-1,0.7c-0.7,0.3-1.2,0.8-1.6,1.4c-0.5,1-0.8,2.2-0.8,3.4c0,1.2,0,2.5,0.1,3.7c0,0.5,0.1,1,0.2,1.4v0.1    c0.1,0.3,0.1,0.6,0.2,0.9h-0.1c-1.3,0.4-2.1,1.6-2,3l0,0c0,0.3,0,0.7,0,1c0,0.5,0.1,0.9,0.2,1.3c0,0.2,0.1,0.4,0.1,0.6    c0.1,1.7,1.1,3.3,2.6,4.2l0.1,0.1c0.7,3.2,2.6,6,5.3,7.9c0.3,0.2,0.7,0.4,1.1,0.6l0,0c0.6,0.3,1.1,0.5,1.7,0.7h0.1    c0.5,0.2,1,0.4,1.5,0.5s0.9,0.1,1.4,0.1h0.1c0.4,0,0.9,0,1.3-0.1c0.5-0.1,1-0.2,1.5-0.4h0.1c0.6-0.2,1.2-0.5,1.8-0.8l0,0    c0.4-0.2,0.7-0.4,1.1-0.6c1.4-1,2.6-2.2,3.5-3.7c0.4-0.7,0.8-1.5,1.1-2.3c0.1-0.3,0.2-0.6,0.3-0.9c0-0.3,0.2-0.6,0.3-0.9    c0.2-0.2,0.5-0.5,0.7-0.7c0.1-0.1,0.3-0.3,0.4-0.4c0.9-0.9,1.5-2.1,1.5-3.3c0-0.2,0.1-0.4,0.1-0.6c0.1-0.4,0.1-0.8,0.2-1.3    C45.8,19.2,45.8,18.9,45.8,18.5"></path>		</g></g></svg>