<svg xmlns="http://www.w3.org/2000/svg" xmlns:xlink="http://www.w3.org/1999/xlink" x="0px" y="0px" viewBox="0 0 66.2 41.9" style="enable-background:new 0 0 66.2 41.9;" xml:space="preserve"><style type="text/css">	.ic1{fill:currentColor;}</style><g transform="translate(0 0.002)">	<g>			<g transform="translate(0 -0.002)" class="st0">				<path class="ic1" d="M51.5,24.6c-0.9-0.7-2-1.6-3.1-2.4c-1.5-1.1-3.5-2.6-6.2-4.4c-0.3-0.2-0.7-0.4-1-0.7     l-0.6-0.4c-3.3-2.1-7.4-4.2-8.5-4.7l-2.5,0.8c-0.7,1-3.5,4.9-7.7,5.2c-0.2,0-0.4,0-0.7,0c-0.8,0.1-1.5-0.2-2-0.8     c-0.5-0.9-0.5-2-0.1-2.9v-0.1c1.1-2,2.4-3.9,3.8-5.8l-0.8-0.1c-1.5-0.1-2.9-0.5-4.3-1c-0.4-0.2-1-0.6-1.7-1l-8.5,15l0.7,0.8     c0,0,0.9,1.1,2,2.5l0,0c0.6-0.8,1.5-1.2,2.5-1.2c0.9,0,1.7,0.3,2.4,0.9c0.6,0.5,1.1,1.2,1.3,2l0.8-1.1c0.6-0.8,1.5-1.2,2.5-1.2     c0.9,0,1.7,0.3,2.4,0.9c1.1,0.9,1.7,2.4,1.4,3.8c0.1,0,0.1,0,0.2,0c0.9,0,1.7,0.3,2.4,0.9c1.1,0.9,1.6,2.3,1.4,3.7     c0.1,0,0.2,0,0.3,0c0.9,0,1.7,0.3,2.4,0.9c1.5,1.2,1.9,3.3,0.9,4.9l-0.5,0.7c1.3,0.5,2.6,0.8,3.9,1.1h0.1c1.3,0.4,2.7,0.3,4-0.1     c0.8-0.5,1.4-1.1,1.9-1.8l-6.4-3.1c-0.3-0.2-0.5-0.6-0.3-0.9c0.2-0.3,0.6-0.5,0.9-0.3l6.8,3.3c0.1,0,0.1,0,0.2,0     c0.9,0.2,1.7,0.1,2.5-0.3c0.7-0.6,1.1-1.5,1-2.5L37,30.4c-0.3-0.2-0.4-0.6-0.2-0.9c0.2-0.3,0.6-0.4,0.9-0.2l8.5,4.9     c0.9,0.1,1.8-0.1,2.6-0.5c0.8-0.7,1.1-1.8,0.9-2.8L39.9,25c-0.3-0.2-0.4-0.6-0.2-0.9c0.2-0.3,0.6-0.4,0.9-0.2L51,30.1     c1.2,0.4,2.5,0,3.2-1c0.6-1,0.3-2.4-0.6-3.1L51.5,24.6z"></path>				<path class="ic1" d="M21.9,28.9c0.6-1,0.3-2.4-0.6-3.1c-0.4-0.4-0.9-0.6-1.5-0.6c-0.5,0-1,0.2-1.4,0.7l-4.4,6     c-0.6,1-0.3,2.4,0.6,3.1c0.4,0.4,0.9,0.6,1.5,0.6c0.5,0,1-0.2,1.4-0.7l0,0L21.9,28.9z"></path>				<path class="ic1" d="M25.2,30.5c-0.4-0.4-0.9-0.6-1.5-0.6c-0.4,0-0.8,0.1-1.1,0.4c-0.1,0.1-3.6,4.9-3.6,4.9     s0,0.1-0.1,0.1c-0.1,0.1-0.1,0.2-0.2,0.3c-0.3,1,0,2,0.8,2.6c0.4,0.4,0.9,0.6,1.5,0.6c0.5,0,1-0.2,1.4-0.7l3.4-4.6     C26.5,32.6,26.2,31.2,25.2,30.5"></path>				<path class="ic1" d="M29.2,35.2c-0.4-0.4-0.9-0.6-1.5-0.6c-0.5,0-1,0.2-1.4,0.7c0,0-2.3,3.2-2.4,3.3     c-0.3,1,0,2.1,0.8,2.7c0.4,0.4,0.9,0.6,1.5,0.6c0.5,0,1-0.2,1.4-0.7l2.2-3C30.5,37.2,30.2,35.9,29.2,35.2"></path>				<path class="ic1" d="M15.1,28.3c0.6-1.3,0-2.7-1.2-3.3c-0.3-0.1-0.6-0.2-0.9-0.2c-0.5,0-1,0.2-1.4,0.7     l-1.4,1.9c-0.6,1-0.3,2.4,0.6,3.1c0.4,0.4,0.9,0.6,1.5,0.6c0.4,0,0.8-0.1,1.1-0.4C13.4,30.5,15,28.3,15.1,28.3"></path>				<path class="ic1" d="M46.6,6.7c-1.1-0.1-2.1-0.3-3.1-0.6c-2.2-0.6-4.4-0.9-6.7-1h-0.2     C31,5.2,26.5,5.9,25.9,6.8c-0.2,0.2-0.3,0.5-0.5,0.7l-0.5,0.6l-0.4,0.5c-1.5,1.9-2.8,3.9-4,6c-0.3,1.1-0.2,1.5-0.1,1.7     c0.2,0.2,0.6,0.2,0.9,0.2c0.2,0,0.4,0,0.6,0c4.1-0.3,6.8-4.7,6.8-4.8c0.1-0.1,0.2-0.2,0.4-0.3l1.3-0.4l1.6-0.5     c0.2-0.1,0.4,0,0.5,0s4.9,2.4,8.7,4.8c0.3,0.2,0.5,0.3,0.8,0.5s0.6,0.4,0.9,0.6c2.6,1.8,4.6,3.2,6.1,4.3     c2.2,1.6,3.2,2.5,3.3,2.5l0,0l1.4,1.2l0,0c0.9-0.4,1.6-0.9,2.3-1.6c0.4-0.4,0.7-0.7,1-1c0.4-0.4,0.8-0.8,1.2-1.1l0,0L49.8,5.9     C48.9,6.5,47.8,6.7,46.6,6.7"></path>				<path class="ic1" d="M16.1,3.6c0.1-0.2,0.1-0.5-0.2-0.6l-4.7-2.9C11.1,0.1,11.1,0,11,0c-0.1,0-0.3,0.1-0.4,0.2     L0.1,18.9C0,19.1,0,19.4,0.3,19.5L5,22.4c0.2,0.1,0.4,0,0.6-0.2L16.1,3.6z"></path>				<path class="ic1" d="M66.1,18.9L55.5,0.2C55.4,0.1,55.3,0,55.1,0C55,0,55,0,54.9,0.1L50.2,3     C50,3.1,49.9,3.4,50,3.6l10.6,18.7c0.1,0.2,0.4,0.3,0.6,0.2l0,0l4.7-2.9C66.2,19.4,66.2,19.2,66.1,18.9"></path>			</g>	</g></g></svg>