<svg xmlns="http://www.w3.org/2000/svg" xmlns:xlink="http://www.w3.org/1999/xlink" x="0px" y="0px" viewBox="0 0 10.5 17.5" style="enable-background:new 0 0 10.5 17.5;" xml:space="preserve"><style type="text/css">	.up0{fill:currentColor;}</style><g transform="translate(17.25 -3.253) rotate(90)">	<g transform="translate(20 16.5) rotate(180)">		<g>			<path class="up0" d="M8,9.2C7.7,9.2,7.5,9.2,7.3,9l0,0l0,0L7.1,8.9l0,0l0,0l-7-7C-0.1,1.6-0.3,1.3-0.3,1s0.1-0.6,0.4-0.9    C0.4-0.1,0.7-0.3,1-0.3c0.3,0,0.5,0.1,0.7,0.2l0,0l0,0l0.1,0.1l0,0l0,0L8,6.2l6.1-6.1c0.2-0.2,0.5-0.4,0.9-0.4    c0.3,0,0.5,0.1,0.7,0.2l0,0l0,0l0.1,0.1l0,0l0,0c0.4,0.4,0.5,1.1,0.1,1.6l0,0l0,0l-0.1,0.1l0,0l0,0l-7,7C8.6,9.1,8.3,9.2,8,9.2z"></path>			<path class="up0" d="M1,0.2c-0.2,0-0.4,0.1-0.5,0.2c-0.3,0.3-0.3,0.8,0,1.1l7,7l0.1,0.1c0.3,0.2,0.7,0.2,1-0.1l7-7l0.1-0.1    c0.2-0.3,0.2-0.7-0.1-1l-0.1-0.1c-0.3-0.2-0.7-0.2-1,0.1L8,6.9L1.5,0.5L1.4,0.4C1.3,0.3,1.2,0.2,1,0.2 M1-0.8    c0.4,0,0.7,0.1,1,0.3l0,0l0.1,0.1L8,5.5l5.8-5.8c0.3-0.3,0.8-0.5,1.2-0.5c0.4,0,0.7,0.1,1,0.3l0,0l0.1,0.1l0,0    c0.6,0.6,0.7,1.6,0.2,2.3l0,0l-0.1,0.1l-7,7C8.9,9.6,8.5,9.7,8,9.7c-0.4,0-0.7-0.1-1-0.3l0,0L6.8,9.3l-7-7    C-0.6,1.9-0.8,1.5-0.8,1s0.2-0.9,0.5-1.2C0.1-0.6,0.5-0.8,1-0.8z"></path>		</g>	</g></g></svg>