<svg xmlns="http://www.w3.org/2000/svg" width="35.126" height="57.396" viewBox="0 0 35.126 57.396"><path data-name="Shape 46" d="M405.2,3200.53a7.622,7.622,0,0,0-3.3-2.187V3179.3a4.275,4.275,0,0,0-4.288-4.252h-.227a4.276,4.276,0,0,0-4.289,4.252v12.206a4.267,4.267,0,0,0-2.222-.634h-.227a4.28,4.28,0,0,0-4.209,3.485,4.244,4.244,0,0,0-3.4-1l-.3.043a4.234,4.234,0,0,0-2.79,1.659,4.163,4.163,0,0,0-.731,1.612,4.271,4.271,0,0,0-3.932-.776l-.286.086a4.22,4.22,0,0,0-2.519,2.049,4.147,4.147,0,0,0-.317,3.2l1.475,4.8c-.007.024-.023.041-.029.065a17.409,17.409,0,0,0,8.686,17.943.17.17,0,0,1,.091.131v7.241a1.033,1.033,0,0,0,2.067,0v-7.241a2.22,2.22,0,0,0-1.086-1.884c-7.164-4.3-8.023-10.572-7.941-13.753a4.241,4.241,0,0,0,3.588.537l.284-.086h0a3.973,3.973,0,0,0,2.737-2.57,4.261,4.261,0,0,0,2.108.563,4.355,4.355,0,0,0,.629-.046l.3-.043a4.234,4.234,0,0,0,2.79-1.658,4.185,4.185,0,0,0,.631-1.264,4.149,4.149,0,0,0,.6.281,5.371,5.371,0,0,0,.1.837,4.914,4.914,0,0,0,1.172,2.333,7.236,7.236,0,0,0-3.017,5.962,1.026,1.026,0,0,0,.974,1.08l.058,0a1.029,1.029,0,0,0,1.03-.968c.218-3.882,2.554-4.691,3.133-4.832a5.588,5.588,0,0,0,2.233.051l4.443-.954a1.026,1.026,0,1,0-.438-2l-4.4.946a2.494,2.494,0,0,1-3.167-2.044,3.375,3.375,0,0,1,.552-2.685,3.451,3.451,0,0,1,2.367-1.437l4.011-.557a6.727,6.727,0,0,1,2.451.113c.01,0,.017.01.028.011h.013a5.684,5.684,0,0,1,2.987,1.752c5.175,5.978-5.31,18.41-6.525,19.811a2.189,2.189,0,0,0-.529,1.427v8.319a1.033,1.033,0,0,0,2.067,0l.031-8.412C400.849,3220.508,411.37,3207.657,405.2,3200.53Zm-25.2,5.451a2.164,2.164,0,0,1-1.294,1.053l-.285.086a2.2,2.2,0,0,1-2.729-1.44l-1.546-5.037a2.123,2.123,0,0,1,.161-1.642,2.17,2.17,0,0,1,1.295-1.053l.286-.085a2.2,2.2,0,0,1,2.729,1.441l1.545,5.035A2.122,2.122,0,0,1,380.006,3205.981Zm6.206-1.962a2.181,2.181,0,0,1-1.435.852l-.3.043a2.188,2.188,0,0,1-2.484-1.82l-.783-5.206a2.132,2.132,0,0,1,.4-1.6,2.176,2.176,0,0,1,1.434-.851l.3-.044a2.236,2.236,0,0,1,.324-.024,2.181,2.181,0,0,1,2.161,1.844l.783,5.206A2.131,2.131,0,0,1,386.212,3204.02Zm6.89-5.373v.037a5.563,5.563,0,0,0-3.019,2.125,5.448,5.448,0,0,0-.669,1.3,1.95,1.95,0,0,1-.982-1.8v-5.176a2.215,2.215,0,0,1,2.221-2.2h.227a2.216,2.216,0,0,1,2.222,2.2Zm6.737-.734a8.792,8.792,0,0,0-1.971.047l-2.7.375V3179.3a2.215,2.215,0,0,1,2.222-2.2h.227a2.214,2.214,0,0,1,2.221,2.2Z" transform="translate(-371.99 -3175.052)"></path></svg>