<svg xmlns="http://www.w3.org/2000/svg" data-name="Group 123645" width="23.474" height="27.449" viewBox="0 0 23.474 27.449"><g data-name="Group 123498" transform="translate(3.369)"><path data-name="Path 51319" d="M5286.186,598.46a36.055,36.055,0,0,0,7.711-11.438,8.368,8.368,0,1,0-15.424,0A36.061,36.061,0,0,0,5286.186,598.46Zm-3.9-16.342a4.261,4.261,0,0,1,.908-1.345,4.232,4.232,0,0,1,5.985,0,4.283,4.283,0,0,1,.907,1.345,4.232,4.232,0,1,1-7.8,0Z" transform="translate(-5277.816 -575.396)" fill="currentcolor"></path></g><g data-name="Group 123499" transform="translate(0 18.68)"><path data-name="Path 51320" d="M5226.05,971.416h-2.5q-.548.8-1.138,1.571h2.606l2.456,5.628H5208.8l2.457-5.628h2.607c-.395-.515-.775-1.037-1.14-1.571h-2.5l-3.827,8.769h23.474Z" transform="translate(-5206.404 -971.416)" fill="currentcolor"></path></g></svg>