<svg xmlns="http://www.w3.org/2000/svg" width="272" height="80.989" viewBox="0 0 272 80.989">
  <g id="Logo" transform="translate(16466.814 378.788)">
    <path data-name="Path 131481" d="M379.263,241.464V282.83h-6.8V264.511h-19.5V282.83h-6.8V241.464h6.8v16.843h19.5V241.464Z" transform="translate(-16757.027 -581.219)" fill="#fff"/>
    <path data-name="Path 131482" d="M604.46,347.781a14.529,14.529,0,0,1-7.5-1.98,14.8,14.8,0,0,1-5.348-5.348,14.528,14.528,0,0,1-1.98-7.5,14.22,14.22,0,0,1,1.98-7.446,14.962,14.962,0,0,1,5.348-5.289,14.538,14.538,0,0,1,7.5-1.98,14.82,14.82,0,0,1,7.564,1.95,14.66,14.66,0,0,1,5.348,5.289,14.385,14.385,0,0,1,1.979,7.475,14.539,14.539,0,0,1-1.979,7.5,14.811,14.811,0,0,1-5.348,5.348,14.641,14.641,0,0,1-7.564,1.98m0-6.264a8.3,8.3,0,0,0,4.284-1.093,7.564,7.564,0,0,0,2.9-3.043,9.32,9.32,0,0,0,1.034-4.432,8.77,8.77,0,0,0-1.063-4.373,7.962,7.962,0,0,0-2.9-2.984,8.768,8.768,0,0,0-8.48,0,7.668,7.668,0,0,0-2.9,2.984,8.967,8.967,0,0,0-1.034,4.373,9.312,9.312,0,0,0,1.034,4.432,7.557,7.557,0,0,0,2.9,3.043,8.18,8.18,0,0,0,4.225,1.093" transform="translate(-16961.127 -645.58)" fill="#fff"/>
    <path data-name="Path 131483" d="M814.725,350.846a12.742,12.742,0,0,1-6.412-1.6,11.31,11.31,0,0,1-4.373-4.4,13.049,13.049,0,0,1-1.566-6.47V321.891h6.5v16.191a8.223,8.223,0,0,0,.68,3.516,4.875,4.875,0,0,0,2.009,2.216,6.208,6.208,0,0,0,3.161.768,5.525,5.525,0,0,0,4.343-1.684,6.986,6.986,0,0,0,1.507-4.816V321.891h6.5v16.487a13.187,13.187,0,0,1-1.566,6.53,11.168,11.168,0,0,1-4.344,4.373,12.9,12.9,0,0,1-6.441,1.566" transform="translate(-17139.486 -648.645)" fill="#fff"/>
    <path data-name="Path 131484" d="M1006.055,325.436,991.98,344.345H1005.7v5.91H982.6V346.71L996.671,327.8H983.658v-5.91h22.4Z" transform="translate(-17290.574 -648.645)" fill="#fff"/>
    <path data-name="Path 131485" d="M1243.085,247.671V258.9H1262v6.2h-18.911V282.83h-6.795V241.464H1263v6.207Z" transform="translate(-17503.256 -581.219)" fill="#0080ff"/>
    <path data-name="Path 131486" d="M1438.258,249.27a3.673,3.673,0,0,1-2.748-1.123,4.075,4.075,0,0,1,0-5.555,3.96,3.96,0,0,1,5.525,0,4.158,4.158,0,0,1,0,5.555,3.651,3.651,0,0,1-2.777,1.123m-3.25,5.2h6.5v28.364h-6.5Z" transform="translate(-17669.359 -581.224)" fill="#0080ff"/>
    <path data-name="Path 131487" d="M1533.989,350.256h-7.8l-6.626-9.747-6.671,9.747h-7.564l10.475-14.524-9.942-13.841h7.86l6.209,8.987,6.023-8.987h7.5l-9.756,13.777Z" transform="translate(-17728.803 -648.645)" fill="#0080ff"/>
    <path data-name="Path 131488" d="M18.309,80.162H39.255v-25.1H30.788V71.695H18.309a9.853,9.853,0,0,1-9.842-9.842V33.4L35.093,10.954,63.166,33.389l5.286-6.614L34.95,0,0,29.458V61.853A18.33,18.33,0,0,0,18.309,80.162" transform="translate(-16466.814 -378.788)" fill="#0080ff"/>
    <path data-name="Path 131489" d="M131.944,235.006l-.186,9.575-5.477-.112a3.3,3.3,0,0,0-3.316-2.422c-2.757,0-3.949,4.694-3.949,4.694l-8.494.3s-.41-6.371-5.514-6.706a12.555,12.555,0,0,0-8.628,2.89L94.554,241.4s7.548-7.175,13.695-7.585a69.586,69.586,0,0,1,10.543.037s1.5,2.99,4.382,2.892,3.628-2.035,3.628-2.035Z" transform="translate(-16546.082 -574.66)" fill="#0080ff"/>
  </g>
</svg>
