<svg xmlns="http://www.w3.org/2000/svg" width="173.522" height="51.667" viewBox="0 0 173.522 51.667"><g transform="translate(16466.814 378.787)"><path data-name="Path 131481" d="M367.281,241.464v26.389h-4.336V256.167h-12.44v11.687H346.17V241.464h4.336v10.745h12.44V241.464Z" transform="translate(-16777.287 -595.351)" fill="#072440"></path><path data-name="Path 131482" d="M599.09,337.084a9.268,9.268,0,0,1-4.788-1.263,9.444,9.444,0,0,1-3.412-3.412,9.268,9.268,0,0,1-1.263-4.788,9.072,9.072,0,0,1,1.263-4.75A9.545,9.545,0,0,1,594.3,319.5a9.274,9.274,0,0,1,4.788-1.263,9.454,9.454,0,0,1,4.825,1.244,9.353,9.353,0,0,1,3.412,3.374,9.177,9.177,0,0,1,1.263,4.769,9.275,9.275,0,0,1-1.263,4.788,9.449,9.449,0,0,1-3.412,3.412,9.34,9.34,0,0,1-4.825,1.263m0-4a5.293,5.293,0,0,0,2.733-.7,4.826,4.826,0,0,0,1.847-1.941,5.946,5.946,0,0,0,.66-2.827,5.594,5.594,0,0,0-.679-2.79,5.079,5.079,0,0,0-1.847-1.9,5.594,5.594,0,0,0-5.41,0,4.891,4.891,0,0,0-1.847,1.9,5.721,5.721,0,0,0-.66,2.79,5.941,5.941,0,0,0,.66,2.827,4.821,4.821,0,0,0,1.847,1.941,5.218,5.218,0,0,0,2.7.7" transform="translate(-16995.637 -664.205)" fill="#072440"></path><path data-name="Path 131483" d="M810.254,340.363a8.129,8.129,0,0,1-4.09-1.018,7.215,7.215,0,0,1-2.79-2.809,8.324,8.324,0,0,1-1-4.128V321.891h4.147V332.22a5.246,5.246,0,0,0,.434,2.243,3.11,3.11,0,0,0,1.282,1.414,3.96,3.96,0,0,0,2.017.49,3.524,3.524,0,0,0,2.771-1.074,4.457,4.457,0,0,0,.961-3.072V321.891h4.147v10.518a8.413,8.413,0,0,1-1,4.166,7.124,7.124,0,0,1-2.771,2.79,8.229,8.229,0,0,1-4.109,1" transform="translate(-17186.445 -667.484)" fill="#072440"></path><path data-name="Path 131484" d="M997.562,324.153l-8.979,12.063h8.752v3.77H982.6v-2.262l8.979-12.063h-8.3v-3.77h14.288Z" transform="translate(-17348.08 -667.484)" fill="#072440"></path><path data-name="Path 131485" d="M1240.625,245.423v7.162h12.065v3.958h-12.065v11.31h-4.334V241.464h17.039v3.959Z" transform="translate(-17575.611 -595.351)" fill="#0080ff"></path><path data-name="Path 131486" d="M1436.867,246.446a2.344,2.344,0,0,1-1.753-.716,2.6,2.6,0,0,1,0-3.544,2.527,2.527,0,0,1,3.525,0,2.653,2.653,0,0,1,0,3.544,2.329,2.329,0,0,1-1.772.716m-2.073,3.317h4.147v18.095h-4.147Z" transform="translate(-17753.309 -595.356)" fill="#0080ff"></path><path data-name="Path 131487" d="M1523.612,339.986h-4.976l-4.227-6.218-4.256,6.218h-4.825l6.682-9.266-6.343-8.83h5.014l3.961,5.733,3.843-5.733h4.787l-6.224,8.789Z" transform="translate(-17816.904 -667.484)" fill="#0080ff"></path><path data-name="Path 131488" d="M11.68,51.14H25.043V35.127h-5.4V45.738H11.68A6.286,6.286,0,0,1,5.4,39.459V21.3L22.387,6.988,40.3,21.3l3.372-4.22L22.3,0,0,18.793V39.459A11.694,11.694,0,0,0,11.68,51.14" transform="translate(-16466.814 -378.788)" fill="#0080ff"></path><path data-name="Path 131489" d="M118.407,234.512l-.119,6.108-3.494-.071A2.1,2.1,0,0,0,112.679,239c-1.759,0-2.519,2.995-2.519,2.995l-5.419.19s-.262-4.064-3.518-4.278a8.009,8.009,0,0,0-5.5,1.844l-1.165-1.165s4.815-4.577,8.737-4.839a44.392,44.392,0,0,1,6.726.024,3.363,3.363,0,0,0,2.8,1.845,2.422,2.422,0,0,0,2.314-1.3Z" transform="translate(-16551.617 -588.334)" fill="#0080ff"></path></g></svg>