<svg xmlns="http://www.w3.org/2000/svg" width="198" height="58.955" viewBox="0 0 198 58.955"><g transform="translate(16466.814 378.787)"><path data-name="Path 131481" d="M370.259,241.464v30.112h-4.948V258.241H351.118v13.335H346.17V241.464h4.948v12.26h14.194v-12.26Z" transform="translate(-16772.252 -591.838)" fill="#fff"></path><path data-name="Path 131482" d="M600.425,339.743a10.576,10.576,0,0,1-5.463-1.441,10.776,10.776,0,0,1-3.893-3.893,10.575,10.575,0,0,1-1.441-5.463,10.351,10.351,0,0,1,1.441-5.42,10.891,10.891,0,0,1,3.893-3.85,10.583,10.583,0,0,1,5.463-1.441,10.788,10.788,0,0,1,5.506,1.419,10.672,10.672,0,0,1,3.893,3.85,10.472,10.472,0,0,1,1.441,5.441,10.584,10.584,0,0,1-1.441,5.463,10.783,10.783,0,0,1-3.893,3.893,10.658,10.658,0,0,1-5.506,1.441m0-4.56a6.039,6.039,0,0,0,3.119-.8,5.507,5.507,0,0,0,2.108-2.215,6.786,6.786,0,0,0,.753-3.226,6.383,6.383,0,0,0-.774-3.183,5.8,5.8,0,0,0-2.108-2.172,6.383,6.383,0,0,0-6.173,0,5.582,5.582,0,0,0-2.108,2.172,6.527,6.527,0,0,0-.753,3.183,6.778,6.778,0,0,0,.753,3.226,5.5,5.5,0,0,0,2.108,2.215,5.954,5.954,0,0,0,3.076.8" transform="translate(-16987.059 -659.575)" fill="#fff"></path><path data-name="Path 131483" d="M811.365,342.969a9.276,9.276,0,0,1-4.667-1.161,8.233,8.233,0,0,1-3.183-3.2,9.5,9.5,0,0,1-1.14-4.71v-12h4.732v11.786a5.987,5.987,0,0,0,.495,2.559,3.548,3.548,0,0,0,1.463,1.613,4.519,4.519,0,0,0,2.3.559,4.021,4.021,0,0,0,3.162-1.226,5.085,5.085,0,0,0,1.1-3.506V321.891h4.732v12a9.6,9.6,0,0,1-1.14,4.753,8.129,8.129,0,0,1-3.162,3.183,9.39,9.39,0,0,1-4.689,1.14" transform="translate(-17174.773 -662.801)" fill="#fff"></path><path data-name="Path 131484" d="M999.673,324.472l-10.246,13.765h9.987v4.3H982.6v-2.581l10.246-13.765h-9.472v-4.3h16.3Z" transform="translate(-17333.787 -662.801)" fill="#fff"></path><path data-name="Path 131485" d="M1241.237,245.982v8.172H1255v4.516h-13.766v12.906h-4.946V241.464h19.443v4.518Z" transform="translate(-17557.627 -591.838)" fill="#fff"></path><path data-name="Path 131486" d="M1437.213,247.148a2.674,2.674,0,0,1-2-.817,2.966,2.966,0,0,1,0-4.043,2.883,2.883,0,0,1,4.022,0,3.027,3.027,0,0,1,0,4.043,2.658,2.658,0,0,1-2.022.817m-2.366,3.785h4.732v20.647h-4.732Z" transform="translate(-17732.441 -591.843)" fill="#fff"></path><path data-name="Path 131487" d="M1526.191,342.539h-5.678l-4.823-7.1-4.856,7.1h-5.506l7.625-10.573-7.237-10.075h5.721l4.52,6.542,4.385-6.542h5.462l-7.1,10.029Z" transform="translate(-17795.006 -662.801)" fill="#fff"></path><path data-name="Path 131488" d="M13.328,58.353H28.575V40.082H22.412V52.19H13.328a7.173,7.173,0,0,1-7.164-7.164V24.31L25.545,7.974,45.981,24.306l3.848-4.815L25.441,0,0,21.444V45.025A13.343,13.343,0,0,0,13.328,58.353" transform="translate(-16466.814 -378.788)" fill="#fff"></path><path data-name="Path 131489" d="M121.771,234.635l-.136,6.97-3.987-.081a2.4,2.4,0,0,0-2.414-1.763c-2.007,0-2.875,3.417-2.875,3.417l-6.183.217s-.3-4.638-4.014-4.882a9.139,9.139,0,0,0-6.281,2.1l-1.329-1.329s5.494-5.223,9.969-5.521a50.656,50.656,0,0,1,7.675.027s1.092,2.177,3.19,2.105a2.763,2.763,0,0,0,2.641-1.482Z" transform="translate(-16550.242 -584.936)" fill="#fff"></path></g></svg>