<svg xmlns="http://www.w3.org/2000/svg" width="218" height="64.91" viewBox="0 0 218 64.91"><g transform="translate(-201 -11891.334)"><path data-name="Path 131481" d="M372.693,241.464v33.154h-5.447V259.936H351.617v14.682H346.17V241.464h5.447v13.5h15.628v-13.5Z" transform="translate(-100.323 11679.896)" fill="#ffbe0b"></path><path data-name="Path 131482" d="M601.516,341.915a11.644,11.644,0,0,1-6.015-1.587,11.864,11.864,0,0,1-4.286-4.286,11.644,11.644,0,0,1-1.587-6.015,11.4,11.4,0,0,1,1.587-5.967,11.991,11.991,0,0,1,4.286-4.239,11.652,11.652,0,0,1,6.015-1.587,11.878,11.878,0,0,1,6.062,1.563,11.75,11.75,0,0,1,4.286,4.239,11.53,11.53,0,0,1,1.586,5.991,11.653,11.653,0,0,1-1.586,6.015,11.872,11.872,0,0,1-4.286,4.286,11.735,11.735,0,0,1-6.062,1.587m0-5.02a6.65,6.65,0,0,0,3.434-.876,6.063,6.063,0,0,0,2.32-2.439,7.471,7.471,0,0,0,.829-3.552,7.029,7.029,0,0,0-.852-3.5,6.381,6.381,0,0,0-2.321-2.392,7.027,7.027,0,0,0-6.8,0,6.145,6.145,0,0,0-2.321,2.392,7.187,7.187,0,0,0-.829,3.5,7.464,7.464,0,0,0,.829,3.552,6.057,6.057,0,0,0,2.321,2.439,6.556,6.556,0,0,0,3.386.876" transform="translate(-312.236 11614.328)" fill="#ffbe0b"></path><path data-name="Path 131483" d="M812.273,345.1a10.212,10.212,0,0,1-5.139-1.279,9.065,9.065,0,0,1-3.5-3.528,10.458,10.458,0,0,1-1.255-5.186V321.891h5.21v12.977a6.592,6.592,0,0,0,.545,2.818,3.907,3.907,0,0,0,1.61,1.776,4.975,4.975,0,0,0,2.534.616,4.428,4.428,0,0,0,3.481-1.35,5.6,5.6,0,0,0,1.208-3.86V321.891h5.21V335.1a10.568,10.568,0,0,1-1.255,5.233,8.95,8.95,0,0,1-3.481,3.5,10.338,10.338,0,0,1-5.162,1.255" transform="translate(-497.422 11611.146)" fill="#ffbe0b"></path><path data-name="Path 131484" d="M1001.4,324.732l-11.281,15.155h11v4.737H982.6v-2.841l11.281-15.155H983.447v-4.737H1001.4Z" transform="translate(-654.292 11611.146)" fill="#ffbe0b"></path><path data-name="Path 131485" d="M1241.736,246.438v9h15.157v4.973h-15.157v14.209h-5.446V241.464H1257.7v4.974Z" transform="translate(-875.117 11681.153)" fill="#0096c7"></path><path data-name="Path 131486" d="M1437.5,247.721a2.945,2.945,0,0,1-2.2-.9,3.266,3.266,0,0,1,0-4.452,3.174,3.174,0,0,1,4.428,0,3.333,3.333,0,0,1,0,4.452,2.926,2.926,0,0,1-2.226.9m-2.6,4.168h5.21v22.733h-5.21Z" transform="translate(-1047.578 11681.147)" fill="#0096c7"></path><path data-name="Path 131487" d="M1528.3,344.625h-6.252l-5.311-7.812-5.346,7.812h-6.062l8.4-11.641-7.968-11.093h6.3l4.976,7.2,4.828-7.2h6.014l-7.82,11.042Z" transform="translate(-1109.299 11611.146)" fill="#0096c7"></path><path data-name="Path 131488" d="M14.674,64.248H31.462V44.131H24.675V57.462h-10a7.9,7.9,0,0,1-7.888-7.888V26.766L28.126,8.779l22.5,17.981,4.237-5.3L28.011,0,0,23.61V49.573A14.691,14.691,0,0,0,14.674,64.248" transform="translate(201 11891.333)" fill="#0096c7"></path><path data-name="Path 131489" d="M124.521,234.735l-.149,7.674-4.389-.09a2.642,2.642,0,0,0-2.657-1.941c-2.21,0-3.165,3.762-3.165,3.762l-6.808.239s-.329-5.106-4.419-5.375a10.062,10.062,0,0,0-6.915,2.317l-1.463-1.463s6.049-5.751,10.976-6.079a55.768,55.768,0,0,1,8.45.03s1.2,2.4,3.512,2.318A3.043,3.043,0,0,0,120.4,234.5Z" transform="translate(118.697 11687.963)" fill="#0096c7"></path></g></svg>