<svg xmlns="http://www.w3.org/2000/svg" xmlns:xlink="http://www.w3.org/1999/xlink" x="0px" y="0px" viewBox="0 0 107.2 51.4" style="enable-background:new 0 0 107.2 51.4;" xml:space="preserve"><style type="text/css">	.m0{fill:currentColor;}</style><path class="m0" d="M67.1,41.3v2.4c0,4.3-3.5,7.7-7.7,7.7l0,0l0,0c-4.3,0-7.7-3.5-7.7-7.7l0,0v-2.4 c0-2.8-2.3-5.1-5.1-5.1c-2.9,0-5.2,2.4-5.2,5.3c0,0,0,0,0,0v2.3c0,4.3-3.5,7.7-7.7,7.7l0,0h-0.2c-4.3,0-7.7-3.5-7.7-7.7l0,0V20.6 c0-2.8-2.3-5.1-5.1-5.1c-2.9,0-5.2,2.4-5.2,5.3c0,0,0,0,0,0v23c0,4.3-3.5,7.7-7.7,7.7l0,0l0,0c-4.3,0-7.7-3.5-7.7-7.7l0,0V20.8 C0,9.4,9.3,0,20.7,0C32,0.1,41.2,9.3,41.2,20.6v0.8c11-3,22.3,3.5,25.2,14.5C66.9,37.6,67.1,39.4,67.1,41.3L67.1,41.3z"></path><circle class="m0" cx="99.5" cy="43.6" r="7.7"></circle></svg>