<svg xmlns="http://www.w3.org/2000/svg" xmlns:xlink="http://www.w3.org/1999/xlink" data-name="Group 24599" width="21.427" height="15" viewBox="0 0 21.427 15"><defs><clipPath id="mail-path"><rect data-name="Rectangle 2" width="21.427" height="15" fill="none"></rect></clipPath></defs><g data-name="Group 5" transform="translate(0 0)" clip-path="url(#mail-path)"><path data-name="Path 5" d="M4.133.889,11.85,7a1.962,1.962,0,0,0,1.3.376A1.944,1.944,0,0,0,14.451,7L22.172.889C22.786.4,22.647,0,21.862,0H4.439c-.784,0-.924.4-.306.889" transform="translate(-2.44 0)" fill="currentcolor"></path><path data-name="Path 6" d="M20.286,6.722l-8.432,6.4a2.049,2.049,0,0,1-2.28,0l-8.438-6.4C.51,6.244,0,6.5,0,7.286v10.5A1.431,1.431,0,0,0,1.428,19.22H20a1.434,1.434,0,0,0,1.431-1.429V7.286c0-.786-.516-1.042-1.141-.564" transform="translate(0 -4.22)" fill="currentcolor"></path></g></svg>