<svg xmlns="http://www.w3.org/2000/svg" xmlns:xlink="http://www.w3.org/1999/xlink" x="0px" y="0px" viewBox="0 0 75.7 76.4" xml:space="preserve">	<g class="man0">		<path class="man1" d="M68.4,52.2c0,0-17.8-6.1-18.4-6.1c-0.1,0.2-0.1,0.5-0.2,0.7c-0.9,3.2-1.7,6.5-2.7,9.7   c-1.2,3.8-2.5,7.5-3.8,11.2c0,0,0,0.1,0,0.1c-0.2,0.4-0.3,0.8-0.6,1.2c-0.2-1.7-0.5-4-0.8-6.2c-0.3-2.4-0.6-4.8-0.8-6.4   c0-0.2-0.2-0.3-0.4-0.3h-5.9c-0.2,0-0.3,0.1-0.4,0.3c-0.2,1.6-0.5,4-0.8,6.4c-0.3,2.2-0.6,4.5-0.8,6.2c-0.2-0.4-0.4-0.8-0.6-1.2   c0,0,0-0.1,0-0.1c-1.3-3.7-2.6-7.5-3.8-11.2c-1-3.2-1.8-6.4-2.7-9.7c-0.1-0.2-0.1-0.4-0.2-0.7c-0.5,0-18.4,6.1-18.4,6.1   C-0.5,54.8,0,60,0,60v10.3c0.7,6.3,5.6,6.1,5.6,6.1h64.6c0,0,4.8,0.1,5.6-6.1V60C75.7,60,76.2,54.8,68.4,52.2"></path>		<path class="man1" d="M42.8,50.2l-0.8-1.5c-0.2-0.3-0.5-0.5-0.9-0.5h-6.6c-0.4,0-0.7,0.2-0.9,0.5l-0.8,1.5   c-0.1,0.3-0.1,0.6,0,0.9l1.5,3.2c0,0.1,0.1,0.1,0.2,0.1h6.6c0.1,0,0.1,0,0.2-0.1l1.5-3.2C43,50.8,43,50.5,42.8,50.2"></path>		<path class="man1" d="M54.8,22.1C54.8,22.1,54.8,22,54.8,22.1L54.8,22.1c0.1-1.6-0.8-3-2.2-3.6c0,0,0-0.1,0-0.1   c0-0.2,0-0.3,0.1-0.5c0-0.5,0.1-1,0.2-1.4c0.3-1.4,0.5-2.8,0.6-4.2c0.3-4.4-2.3-8.6-6.4-10.3c-0.4-0.2-0.9-0.4-1.4-0.6   C43.2,0.5,40.6,0,37.9,0c-0.6,0-1.2,0-1.7,0c-2,0-4,0.4-5.8,1.2c-0.2,0.1-0.4,0.2-0.6,0.3C29,2,28.3,2.7,27.8,3.5   c-0.1,0.1-0.2,0.3-0.2,0.4c-0.1,0.3-0.3,0.5-0.6,0.7c-0.4,0.3-0.8,0.6-1.2,0.8C25,5.7,24.3,6.3,23.9,7c-0.7,1.2-1,2.6-1,4   c0,1.5,0,3,0.1,4.5c0.1,0.6,0.1,1.1,0.3,1.7l0,0.1c0.1,0.4,0.2,0.8,0.2,1.1c0,0-0.1,0-0.1,0c-1.5,0.5-2.5,2-2.3,3.6v0   c0,0.4,0,0.8,0,1.2c0,0.5,0.1,1.1,0.2,1.5c0,0.2,0.1,0.5,0.1,0.8c0.2,2.1,1.3,4,3.2,5c0,0,0.1,0.1,0.1,0.2   c0.9,3.8,3.1,7.2,6.3,9.5c0.4,0.3,0.8,0.5,1.3,0.8l0,0c0.7,0.3,1.4,0.6,2.1,0.9c0,0,0.1,0,0.1,0c0.6,0.3,1.2,0.4,1.8,0.6   c0.6,0.1,1.1,0.1,1.7,0.1H38c0.5,0,1,0,1.6-0.1c0.6-0.1,1.2-0.3,1.8-0.5l0.1,0c0.7-0.3,1.4-0.6,2.1-0.9l0,0   c0.4-0.2,0.9-0.5,1.3-0.8c1.7-1.2,3.2-2.7,4.2-4.4c0.5-0.9,1-1.8,1.4-2.8c0.1-0.4,0.3-0.7,0.3-1.1c0.1-0.4,0.2-0.7,0.4-1   c0.3-0.3,0.5-0.6,0.8-0.8c0.2-0.2,0.4-0.3,0.5-0.5c1.1-1.1,1.8-2.5,1.9-4c0-0.3,0.1-0.5,0.1-0.8c0.1-0.5,0.2-1,0.2-1.5   C54.8,22.9,54.8,22.5,54.8,22.1"></path>	</g></svg>