<svg xmlns="http://www.w3.org/2000/svg" xmlns:xlink="http://www.w3.org/1999/xlink" x="0px" y="0px" viewBox="0 0 40.1 63.8" style="enable-background:new 0 0 40.1 63.8;" xml:space="preserve"><style type="text/css">	.map-pin-0{fill:rgb(255 105 0);}</style>				<g>					<path class="map-pin-0" d="M18,62.1c1.1,2.3,2.9,2.3,4.1,0c4.8-9.9,16.5-34.2,16.8-35.2l0.1-0.2c0.7-2.1,1.1-4.3,1.1-6.6      C40.1,9,31.1,0,20.1,0C9,0,0,9,0,20.1c0,1.6,0.2,3.2,0.6,4.8l0,0.1C1.1,27,13.2,52,18,62.1z M20.1,8.8      c6.2,0,11.3,5.1,11.3,11.3c0,6.2-5.1,11.3-11.3,11.3c-6.3,0-11.3-5.1-11.3-11.3C8.7,13.8,13.8,8.8,20.1,8.8z"></path>				</g></svg>