<svg xmlns="http://www.w3.org/2000/svg" xmlns:xlink="http://www.w3.org/1999/xlink" x="0px" y="0px" viewBox="0 0 60.1 73.9" style="enable-background:new 0 0 60.1 73.9;" xml:space="preserve"><style type="text/css">	.note1{fill:currentColor;}</style><g transform="translate(120.228 3616.405)">		<g class="s0">			<path class="note1" d="M-110.9-3601.5v-8h28.2v-2.8h-31v10.9C-112.8-3601.5-111.8-3601.5-110.9-3601.5"></path>			<path class="note1" d="M-70.7-3612.4v2.8h7.8v58.4h-7.8c0,0.9,0,1.9-0.1,2.8h10.8v-64.1H-70.7z"></path>			<path class="note1" d="M-78.5-3598.3c-3.1,0-5.5-2.4-5.6-5.5v-7c0-3.1,2.5-5.6,5.5-5.6c3.1,0,5.6,2.5,5.6,5.5    c0,0,0,0,0,0v1.4h-2.8v-1.4c0-1.5-1.2-2.7-2.7-2.8c-1.5,0-2.7,1.2-2.8,2.7c0,0,0,0.1,0,0.1v7c0,1.5,1.3,2.7,2.8,2.7    c1.5,0,2.6-1.2,2.7-2.7h2.8C-73-3600.8-75.5-3598.3-78.5-3598.3"></path>			<path class="note1" d="M-74.4-3603.8c0,2.3-1.9,4.1-4.2,4.1c-2.2,0-4-1.8-4.1-4.1h-37.6v61.3h50.8v-61.3H-74.4z     M-91.3-3585.5h-7.1c-2.2,0-4-1.8-3.9-4v-1.7c0-2.2,1.8-3.9,3.9-3.9h2.1v-1.4c0-0.8,0.6-1.4,1.4-1.4c0.8,0,1.4,0.6,1.4,1.4    c0,0,0,0,0,0v1.4h2.1c2.2,0,3.9,1.8,3.9,3.9c0,0.8-0.6,1.4-1.4,1.4c-0.8,0-1.4-0.6-1.4-1.4c0-0.6-0.5-1.1-1.1-1.1h-7.1    c-0.6,0-1.1,0.5-1.1,1.1v1.7c0,0.6,0.5,1.1,1.1,1.2h7.1c2.2,0,3.9,1.8,3.9,3.9v1.7c0,2.2-1.8,4-3.9,4h-2.1v1.4    c0,0.8-0.6,1.4-1.4,1.4c-0.8,0-1.4-0.6-1.4-1.4c0,0,0,0,0,0v-1.4h-2.1c-2.2,0-4-1.8-3.9-4c0-0.8,0.6-1.4,1.4-1.4    c0.8,0,1.4,0.6,1.4,1.4c0,0,0,0,0,0c0,0.6,0.5,1.1,1.1,1.2h7.1c0.6,0,1.1-0.5,1.1-1.2v-1.7C-90.2-3585-90.7-3585.5-91.3-3585.5     M-102.5-3570.3h15.3c0.8,0,1.4,0.6,1.4,1.4s-0.6,1.4-1.4,1.4h-15.3c-0.8,0-1.4-0.6-1.4-1.4S-103.2-3570.3-102.5-3570.3     M-78.2-3550.4h-33.4c-0.8,0-1.4-0.6-1.4-1.4c0-0.8,0.6-1.4,1.4-1.4h33.4c0.8,0,1.4,0.6,1.4,1.4    C-76.7-3551.1-77.4-3550.4-78.2-3550.4 M-78.2-3559h-33.4c-0.8,0-1.4-0.6-1.4-1.4c0-0.8,0.6-1.4,1.4-1.4h33.4    c0.8,0,1.4,0.6,1.4,1.4C-76.7-3559.6-77.4-3559-78.2-3559"></path>		</g></g></svg>