<svg xmlns="http://www.w3.org/2000/svg" xmlns:xlink="http://www.w3.org/1999/xlink" x="0px" y="0px" viewBox="0 0 68.6 64.5" style="enable-background:new 0 0 68.6 64.5;" xml:space="preserve"><style type="text/css">}	.notes1{fill:currentColor;}</style><g transform="translate(1338.544 3615.352)">		<g class="t0">			<path class="notes1" d="M-1277.9-3592c-0.4,0.6-0.8,1.2-1.1,1.8v22.7c0,2.4-1.2,3.6-3.6,3.6c-0.6,0-1.1,0-1.7,0    l-2.7,0c-0.4,0-0.8,0-1.3,0c-2.7,0-5.4,0.8-7.6,2.4c-1.6,1.1-3.3,2.2-4.9,3.3l-0.5,0.3c-1.5,1-3.4,2.3-5.2,3.5    c-0.2,0.2-0.5,0.3-0.8,0.3c-0.3,0-0.6-0.2-0.8-0.4c-1.7-1.1-3.3-2.3-5-3.4l-0.1,0c-1.8-1.2-3.6-2.4-5.4-3.6    c-2.3-1.6-5.1-2.5-8-2.5h-0.2l-3.2,0c-0.9,0-1.6,0-2.2,0c-1.7,0.1-3.3-1.1-3.4-2.9c0-0.2,0-0.4,0-0.6c0-7,0-20.9,0-27.7v-2.3    c0-2.7,1.2-3.9,3.8-3.9c3.5,0,6.9,0,10.4,0h32.1c0.6-1,1.3-2,1.9-3.1c-2,0-3.9,0-5.9,0h-28.1c-3.5,0-6.9,0-10.4,0    c-4.3,0-6.9,2.6-6.9,6.9l0,1.2c0,7.2,0,21.4,0,28.8c-0.2,3.4,2.4,6.3,5.8,6.5c0.2,0,0.4,0,0.6,0c0.7,0,1.4,0,2.3,0l3.2,0l0.2,0    c2.2,0,4.4,0.6,6.2,1.9c1.8,1.2,3.6,2.4,5.3,3.6l0.1,0c1.6,1.1,3.4,2.2,5,3.4c1.5,1.1,3.6,1.1,5,0c1.7-1.2,3.5-2.4,5.3-3.6    l0.2-0.1c1.7-1.1,3.4-2.3,5.1-3.4c1.7-1.2,3.8-1.8,5.9-1.8c0.4,0,0.8,0,1.2,0l2.6,0c0.6,0,1.2,0,1.8,0c3.7-0.1,6.1-2.1,6.5-5.5    c0.1-0.2,0.1-0.3,0.1-0.5v-28.3L-1277.9-3592z"></path>			<path class="notes1" d="M-1293.9-3593.6c-0.6,1-1.2,1.9-1.8,2.9c0,0,0,0.1,0,0.1h-31.1c-0.8,0-1.5-0.8-1.4-1.6    c0-0.8,0.7-1.4,1.4-1.4H-1293.9z"></path>			<path class="notes1" d="M-1297.7-3583.9c-0.2,0.7-0.3,1.4-0.5,2l-0.2,1h-28.5c-0.8,0-1.5-0.8-1.4-1.6    c0-0.8,0.7-1.4,1.4-1.4H-1297.7z"></path>			<path class="notes1" d="M-1326.8-3574.2h39.2c0.8-0.1,1.5,0.6,1.6,1.4c0.1,0.8-0.6,1.5-1.4,1.6c-0.1,0-0.1,0-0.2,0    h-39.2c-0.8-0.1-1.5-0.8-1.4-1.6C-1328.2-3573.6-1327.6-3574.2-1326.8-3574.2"></path>			<path class="notes1" d="M-1280.3-3609.9l-0.7,1.1c-4.1,6.6-8.2,13.1-12.2,19.7c-0.2,0.3-0.4,0.7-0.5,1.1    c-0.7,2.8-1.3,5.6-2,8.4c-0.1,0.3-0.1,0.6-0.1,0.9c0,0.6,0.5,1.1,1.1,1.1c0.2,0,0.4,0,0.6-0.1c0.3-0.1,0.5-0.3,0.8-0.5l1.2-1    c1.5-1.2,2.9-2.4,4.4-3.6l0.2-0.2c0.7-0.5,1.3-1.2,1.8-1.9c2.8-4.5,5.6-8.9,8.3-13.4l4.2-6.8c0.1-0.1,0.1-0.2,0.2-0.3    L-1280.3-3609.9z M-1288.3-3585.2c-0.9,0.8-1.8,1.5-2.7,2.3c-0.2,0.2-0.3,0.2-0.5,0.1c-0.3-0.2-0.5-0.3-0.8-0.5    c-0.1-0.1-0.1-0.2-0.1-0.3c0.3-1.3,0.6-2.7,0.9-4c0,0,0-0.1,0-0.1c1.2,0.8,2.4,1.5,3.6,2.3    C-1288-3585.5-1288.1-3585.4-1288.3-3585.2"></path>			<path class="notes1" d="M-1271-3612.9c-1.2-0.7-2.3-1.5-3.5-2.2c-1.1-0.6-2.5-0.3-3.2,0.9c0,0,0,0.1,0,0.1    c-0.4,0.6-0.8,1.2-1.1,1.8l-0.3,0.5c0,0-0.1,0.1-0.1,0.1l0,0l0.5,0.3l0.2,0.1l6,3.7l0.6,0.4l0.5-0.7c0.4-0.6,0.7-1.1,1.1-1.7    c0.8-1,0.6-2.5-0.5-3.3C-1270.9-3612.8-1271-3612.8-1271-3612.9"></path>		</g></g></svg>