<svg xmlns="http://www.w3.org/2000/svg" xmlns:xlink="http://www.w3.org/1999/xlink" x="0px" y="0px" viewBox="0 0 143.2 58" style="enable-background:new 0 0 143.2 58;" xml:space="preserve"><style type="text/css">	.ogio{fill:currentColor;}</style><g transform="translate(0)">	<path class="ogio" d="M97.5,0v6.3h-6.3V0H97.5z M91.3,11.1h6.3v33.4h-6.3C91.3,44.5,91.3,11.1,91.3,11.1z"></path>	<path class="ogio" d="M17.2,10.6c9.5,0,17.2,7.7,17.2,17.2c0,9.5-7.7,17.2-17.2,17.2C7.7,45,0,37.3,0,27.8  C0,18.3,7.7,10.6,17.2,10.6C17.2,10.6,17.2,10.6,17.2,10.6z M6.4,27.8c0,6,4.8,10.8,10.8,10.8S28,33.8,28,27.8  c0-6-4.8-10.8-10.8-10.8C11.2,17,6.4,21.8,6.4,27.8C6.4,27.8,6.4,27.8,6.4,27.8z"></path>	<path class="ogio" d="M64.3,10.6c3.9,0,7.8,1.3,10.8,3.8v-3.3h6.3l0.1,16.7c0,9.5-7.6,17.2-17.1,17.2c0,0-0.1,0-0.1,0  h-4.2c-0.7,0-1.3,0.5-1.6,1.1l0,0v0v0l0,0v0v0v0v0l0,0l0,0v0v0v0v0l0,0v0v0v0v0v0l0,0v0v0v0v0v0l0,0v0v0v0v0v0v0v0v0v0v0v0v0v0v0  l0,0v0.2l0,0v0.1l0,0v0.2v0v0v0v0v0v0v0v0v0v0v0v0v0l0,0v0v0v0v0v0l0,0v0v0v0v0v0l0,0v0v0v0v0l0,0l0,0v0v0v0v0l0,0v0v0l0,0  c0.2,0.7,0.9,1.1,1.6,1.1h11.7c4.5,0,8.1,3.6,8.1,8.1c0,0.3,0,0.6-0.1,0.9L79.8,58h-6.7l0.4-1.1c0.1-0.2,0.1-0.4,0.1-0.6  c0-0.9-0.8-1.7-1.7-1.7H60.2c-3.8,0-7.1-2.7-7.9-6.4h0l-0.1-0.7v0v0v0v0v0v0v0v0l0-0.1v-0.1l0-0.1v-0.1l0,0v0l0-0.2v0v-0.2v-0.2v0  l0-0.2v0l0,0v-0.1l0-0.1V46l0-0.1v0v0v0v0v0v0v0v0l0.1-0.7h0c0.3-1.3,0.9-2.5,1.7-3.5c-7.6-5.7-9.1-16.5-3.4-24.1  C53.9,13.1,59,10.6,64.3,10.6L64.3,10.6z M53.5,27.8c0,6,4.8,10.8,10.8,10.8s10.8-4.8,10.8-10.8c0-6-4.8-10.8-10.8-10.8  C58.4,17,53.5,21.8,53.5,27.8C53.5,27.8,53.5,27.8,53.5,27.8z"></path>	<path class="ogio" d="M115.7,31c1.8,5.7,7.8,8.9,13.5,7.2c2.1-0.7,4-1.9,5.3-3.7l0.2-0.3h7.3l-0.6,1.1  c-4.1,8.5-14.4,12.1-23,8c-8.5-4.1-12.1-14.4-8-23c4.1-8.5,14.4-12.1,23-8c6.7,3.3,10.6,10.5,9.5,18L143,31H115.7z M115.7,24.6  h20.7c-1.8-5.7-7.8-8.9-13.5-7.2C119.4,18.5,116.8,21.2,115.7,24.6z"></path></g></svg>