<svg xmlns="http://www.w3.org/2000/svg" xmlns:xlink="http://www.w3.org/1999/xlink" x="0px" y="0px" viewBox="0 0 87.7 63.7" style="enable-background:new 0 0 87.7 63.7;" xml:space="preserve"><style type="text/css">	.cur1{fill:currentColor;}</style>	<g class="st0">		<path class="cur1" d="M10.2,52.9c-0.4,0-0.8-0.4-0.8-0.8l0,0V8.3c0-1.8,1.4-3.2,3.2-3.2h61.3   c1.8,0,3.2,1.4,3.2,3.2v33.3c0,0.4-0.4,0.8-0.8,0.8s-0.8-0.4-0.8-0.8V8.3c0-0.9-0.7-1.6-1.6-1.6c0,0,0,0,0,0H12.6   c-0.9,0-1.6,0.7-1.6,1.6v43.8C11,52.5,10.6,52.9,10.2,52.9L10.2,52.9"></path>		<path class="cur1" d="M5.2,52.9c-0.4,0-0.8-0.4-0.8-0.8l0,0V6.4C4.4,2.9,7.2,0,10.7,0h65.1C79.2,0,82,2.9,82,6.4   v36.3c0,0.4-0.4,0.8-0.8,0.8s-0.8-0.4-0.8-0.8V6.4c0-2.6-2.1-4.7-4.7-4.8H10.7C8.1,1.6,6,3.8,6,6.4v45.7C6,52.5,5.7,52.9,5.2,52.9   L5.2,52.9"></path>		<path class="cur1" d="M68.3,62.5h-63c-2.9,0-5.3-2.4-5.3-5.3v-5.1c0-0.4,0.4-0.8,0.8-0.8c0,0,0,0,0,0h18.8   c3.6,0,7.2,0.5,10.7,1.4c2.6,0.7,8,0.8,12.8,0.8s10.2-0.1,12.8-0.8c3.1-0.8,6.3-1.3,9.5-1.4c0.4,0,0.8,0.3,0.8,0.8   c0,0.4-0.3,0.8-0.8,0.8c-3.1,0.1-6.1,0.5-9.1,1.3c-2.8,0.7-8,0.8-13.2,0.8S32.7,54.9,30,54.2c-3.4-0.9-6.9-1.3-10.4-1.3h-18v4.3   c0,2.1,1.7,3.7,3.7,3.7h63c0.4,0,0.8,0.4,0.8,0.8C69.1,62.1,68.8,62.5,68.3,62.5"></path>		<path class="cur1" d="M46.1,58.7h-5.8c-0.4,0-0.8-0.4-0.8-0.8c0-0.4,0.4-0.8,0.8-0.8h5.8c0.4,0,0.8,0.4,0.8,0.8   C46.9,58.3,46.5,58.6,46.1,58.7"></path>		<path class="cur1" d="M56.9,44.1H29.5c-0.4,0-0.8-0.4-0.8-0.8v-22c0-0.4,0.4-0.8,0.8-0.8h27.4   c0.4,0,0.8,0.4,0.8,0.8v22C57.7,43.8,57.4,44.1,56.9,44.1 M30.3,42.5h25.9V22.1H30.3L30.3,42.5z"></path>		<path class="cur1" d="M56.9,22.1c-0.3,0-0.6-0.2-0.7-0.4l-3.4-6.2H33.6l-3.4,6.2C30,22,29.5,22.2,29.1,22   c-0.4-0.2-0.5-0.7-0.3-1.1c0,0,0,0,0,0l3.7-6.6c0.1-0.3,0.4-0.4,0.7-0.4h20.1c0.3,0,0.6,0.2,0.7,0.4l3.7,6.6   c0.2,0.4,0.1,0.9-0.3,1.1C57.2,22,57.1,22.1,56.9,22.1"></path>		<path class="cur1" d="M47.4,29.9c-0.1,0-0.3,0-0.4-0.1l-3.8-2.4l-3.8,2.4c-0.4,0.2-0.9,0.1-1.1-0.2   c-0.1-0.1-0.1-0.3-0.1-0.4l0-7.8c0-0.1,0-0.1,0-0.2l1.8-6.6c0.1-0.4,0.5-0.7,1-0.6c0.4,0.1,0.7,0.5,0.6,1c0,0,0,0,0,0l-1.7,6.5   l0,6.3l3-1.9c0.3-0.2,0.6-0.2,0.8,0l3,1.9l0-6.3l-1.7-6.5c-0.1-0.4,0.1-0.9,0.5-1s0.9,0.1,1,0.5c0,0,0,0,0,0l1.8,6.6   c0,0.1,0,0.1,0,0.2l0,7.8C48.2,29.5,47.9,29.9,47.4,29.9C47.4,29.9,47.4,29.9,47.4,29.9"></path>		<path class="cur1" d="M51.7,41.2H50c-0.4,0-0.8-0.4-0.8-0.8c0-0.4,0.4-0.8,0.8-0.8h1.6c0.4,0,0.8,0.4,0.8,0.8   C52.4,40.8,52.1,41.2,51.7,41.2"></path>		<path class="cur1" d="M54.2,41.2h-0.4c-0.4,0-0.8-0.4-0.8-0.8c0-0.4,0.4-0.8,0.8-0.8h0.4c0.4,0,0.8,0.4,0.8,0.8   C55,40.8,54.7,41.2,54.2,41.2"></path>		<path class="cur1" d="M83.8,63.7L83.8,63.7c-0.2,0-0.4-0.1-0.6-0.2l-7.8-8.2l-2.4,4c-0.2,0.3-0.6,0.5-0.9,0.4   c-0.4-0.1-0.6-0.4-0.7-0.7c-0.8-4.3-1.8-8.5-3.2-12.7c-0.2-0.5-0.3-1-0.5-1.5c-0.1-0.4,0.1-0.9,0.5-1c0.2,0,0.3,0,0.5,0l1.5,0.5   c4.1,1.4,8.4,2.5,12.7,3.2c0.4,0.1,0.7,0.3,0.7,0.7c0.1,0.4-0.1,0.7-0.4,0.9l-4,2.4l8.2,7.8c0.3,0.3,0.3,0.8,0,1.1c0,0,0,0,0,0   l-3.1,3.1C84.2,63.7,84,63.7,83.8,63.7 M75.3,53.2c0.2,0,0.4,0.1,0.6,0.2l8,8.4l2-2l-8.4-8c-0.3-0.3-0.3-0.8,0-1.1   c0-0.1,0.1-0.1,0.2-0.1l3.3-2c-3.7-0.8-7.4-1.8-11-2.9l-0.1,0l0,0.1c1.2,3.6,2.2,7.3,2.9,11l2-3.3C74.7,53.4,74.9,53.2,75.3,53.2   C75.2,53.2,75.2,53.2,75.3,53.2 M82.6,49L82.6,49z"></path>		<path class="cur1" d="M65.1,42c-0.2,0-0.4-0.1-0.6-0.2l-2.1-2.1c-0.3-0.3-0.3-0.8,0-1.1c0.3-0.3,0.8-0.3,1.1,0   l2.1,2.1c0.3,0.3,0.3,0.8,0,1.1C65.5,41.9,65.3,42,65.1,42"></path>		<path class="cur1" d="M63.9,45h-3c-0.4,0-0.8-0.4-0.8-0.8c0-0.4,0.4-0.8,0.8-0.8h3c0.4,0,0.8,0.3,0.8,0.8   S64.3,45,63.9,45C63.9,45,63.9,45,63.9,45"></path>		<path class="cur1" d="M63,50.1c-0.4,0-0.8-0.4-0.8-0.8c0-0.2,0.1-0.4,0.2-0.6l2.1-2.1c0.3-0.3,0.8-0.3,1.1,0   c0.3,0.3,0.3,0.8,0,1.1l-2.1,2.1C63.4,50,63.2,50.1,63,50.1"></path>		<path class="cur1" d="M71.1,42c-0.4,0-0.8-0.4-0.8-0.8c0-0.2,0.1-0.4,0.2-0.6l2.1-2.1c0.3-0.3,0.8-0.3,1.1,0   c0.3,0.3,0.3,0.8,0,1.1l-2.1,2.1C71.5,41.9,71.3,42,71.1,42"></path>		<path class="cur1" d="M68.1,40.7c-0.4,0-0.8-0.4-0.8-0.8l0,0v-3c0-0.4,0.3-0.8,0.8-0.8s0.8,0.3,0.8,0.8   c0,0,0,0,0,0v3C68.9,40.4,68.5,40.7,68.1,40.7L68.1,40.7"></path>	</g></svg>