<svg xmlns="http://www.w3.org/2000/svg" xmlns:xlink="http://www.w3.org/1999/xlink" width="47" height="53" viewBox="0 0 47 53"><defs><clipPath id="calling-path"><rect data-name="Rectangle 8374" width="47" height="53" transform="translate(0 -0.328)" fill="none"></rect></clipPath></defs><g data-name="Group 124158" transform="translate(0.206 0.505)"><g data-name="Group 24863" transform="translate(-0.206 -0.177)" clip-path="url(#clip-path)"><path data-name="Path 1564" d="M41.814,35.1a17.432,17.432,0,0,1-2.244-.207,5.749,5.749,0,0,1-4.509-5.522c-.037-2.045-.044-4.092,0-6.136A5.788,5.788,0,0,1,41.2,17.572a9.806,9.806,0,0,1,1.319.24c.159.031.316.072.488.111a20.374,20.374,0,0,0-39.281-.031c.261-.061.5-.115.742-.173A5.592,5.592,0,0,1,9.446,18.8a5.491,5.491,0,0,1,2.216,4.442q.04,2.98.01,5.961A5.826,5.826,0,0,1,.089,30.13a5.171,5.171,0,0,1-.064-.7c0-2.318-.071-4.639.028-6.953A22.715,22.715,0,0,1,8.212,5.634,22.447,22.447,0,0,1,19.865.3a22.28,22.28,0,0,1,4.6-.265,23.451,23.451,0,0,1,19.265,11.9A23.469,23.469,0,0,1,46.6,20.968c.063.619.107,1.243.112,1.866.015,2.133.033,4.267,0,6.4a7.329,7.329,0,0,1-.319,1.861c-.27.943-.612,1.866-.936,2.793A23.344,23.344,0,0,1,27.817,49.224a11.751,11.751,0,0,1-1.211.187.742.742,0,0,0-.691.508,4.2,4.2,0,0,1-3.1,2.549,4.372,4.372,0,1,1,2.818-6.563c.405.67.407.677,1.172.533A20.258,20.258,0,0,0,41.742,35.262a1.721,1.721,0,0,0,.071-.16c.006-.016,0-.037,0,0M37.97,26.294h0c0,.973-.012,1.947,0,2.92a2.923,2.923,0,0,0,2.856,2.921,2.893,2.893,0,0,0,2.963-2.868c.031-1.995.024-3.99,0-5.985a2.909,2.909,0,0,0-5.814-.052c-.042,1.02-.007,2.043-.007,3.065m-29.216,0h0c0-1.022.04-2.047-.009-3.067a2.894,2.894,0,0,0-3.657-2.674,2.923,2.923,0,0,0-2.154,2.922c-.012,1.9,0,3.8,0,5.7a2.591,2.591,0,0,0,.02.35,2.841,2.841,0,0,0,1.97,2.457,2.894,2.894,0,0,0,3.825-2.618c.045-1.02.008-2.044.008-3.067" transform="translate(0.167 0.144)" fill="currentcolor"></path></g></g></svg>