<svg xmlns="http://www.w3.org/2000/svg" xmlns:xlink="http://www.w3.org/1999/xlink" x="0px" y="0px" viewBox="0 0 100 100" style="enable-background:new 0 0 100 100;" xml:space="preserve"><style type="text/css">	.rotate-1{fill:currentcolor;}</style><g>	<g class="text-rotate-style">		<path class="rotate-1" d="M11.9,74.1L11.9,74.1c-0.8,0.5-1.8,0.2-2.3-0.6c-0.4-0.8-0.2-1.8,0.6-2.2l0,0   c0.8-0.5,1.8-0.2,2.2,0.6C13,72.6,12.7,73.6,11.9,74.1"></path>		<path class="rotate-1" d="M7.4,64.9L7.4,64.9c-0.9,0.3-1.8-0.3-2.1-1.1c-0.2-0.8,0.2-1.7,1.1-2l0,0   c0.9-0.3,1.8,0.2,2.1,1.1C8.8,63.7,8.3,64.6,7.4,64.9"></path>		<path class="rotate-1" d="M5.2,54.9L5.2,54.9c-0.9,0.1-1.7-0.6-1.8-1.5c0-0.9,0.6-1.6,1.5-1.7l0,0   c0.9,0,1.7,0.6,1.7,1.6C6.7,54.1,6,54.8,5.2,54.9"></path>		<path class="rotate-1" d="M5.2,44.7L5.2,44.7c-0.9-0.2-1.5-1-1.3-1.9s1-1.4,1.8-1.3l0,0c0.9,0.2,1.5,1,1.3,1.9   C6.9,44.2,6.1,44.8,5.2,44.7"></path>		<path class="rotate-1" d="M7.5,34.7L7.5,34.7c-0.9-0.3-1.3-1.3-0.9-2.1c0.3-0.8,1.3-1.3,2.1-0.9l0,0   C9.6,32,10,33,9.6,33.8C9.3,34.6,8.3,35,7.5,34.7"></path>		<path class="rotate-1" d="M9.2,23.4c-0.3-0.2-0.4-0.7-0.1-1l0,0l0.1-0.1C9.4,22,9.6,21.9,9.9,22l4.6,0.4L13,18.1   c-0.1-0.2-0.1-0.5,0.1-0.7l0.1-0.1c0.2-0.3,0.7-0.4,1-0.1l0,0l5.4,4.2c0.3,0.2,0.4,0.7,0.1,1l0,0c-0.2,0.3-0.7,0.4-1,0.1l-3.9-3   l1.1,3.4c0.2,0.3,0,0.7-0.3,0.9c-0.1,0.1-0.3,0.1-0.4,0.1l-3.5-0.3l3.8,3c0.3,0.2,0.4,0.7,0.1,1l0,0c-0.2,0.3-0.7,0.4-1,0.1l0,0   L9.2,23.4z"></path>		<path class="rotate-1" d="M18.8,17.1L18.8,17.1c-1.5-1.9-1.2-4.5,0.7-6s4.5-1.1,6,0.7l0,0c1.4,1.9,1.1,4.5-0.8,6   C22.9,19.2,20.3,18.9,18.8,17.1 M24.4,12.8L24.4,12.8c-0.9-1.3-2.7-1.5-3.9-0.6c0,0,0,0-0.1,0c-1.2,0.9-1.4,2.7-0.5,3.9   c0,0,0,0.1,0.1,0.1l0,0c0.9,1.2,2.6,1.5,3.9,0.6c0,0,0.1,0,0.1-0.1C25.2,15.8,25.4,14.1,24.4,12.8L24.4,12.8"></path>		<path class="rotate-1" d="M26.6,7.3c-0.2-0.4,0-0.8,0.3-1l0,0L27,6.2c0.3-0.1,0.6-0.1,0.8,0.1l5.9,3.1l-2.1-4.5   c-0.2-0.4,0-0.8,0.3-0.9c0.4-0.2,0.8,0,0.9,0.3l0,0l2.8,6.2c0.2,0.3,0,0.8-0.3,0.9l0,0h-0.1c-0.3,0.1-0.6,0.1-0.9-0.1l-6.1-3.2   l2.1,4.7c0.2,0.4,0,0.8-0.3,0.9c-0.4,0.2-0.8,0-0.9-0.3l0,0L26.6,7.3z"></path>		<path class="rotate-1" d="M38.3,9.7l-1.4-6.5c-0.1-0.4,0.1-0.8,0.5-0.9l0,0l4.6-1c0.3-0.1,0.7,0.1,0.8,0.5   c0.1,0.3-0.1,0.7-0.5,0.8l0,0l-3.9,0.9l0.4,2.1l3.4-0.7c0.3-0.1,0.7,0.2,0.8,0.5s-0.1,0.7-0.5,0.7l-3.4,0.7l0.5,2.1l4-0.9   c0.3-0.1,0.7,0.1,0.8,0.5c0.1,0.3-0.1,0.7-0.5,0.8l0,0l-4.7,1C38.8,10.4,38.4,10.1,38.3,9.7C38.3,9.8,38.3,9.8,38.3,9.7"></path>		<path class="rotate-1" d="M48.7,5.8L45.8,2c-0.1-0.1-0.2-0.3-0.2-0.5c0-0.4,0.3-0.7,0.7-0.7l0,0   c0.3,0,0.6,0.2,0.7,0.4l2.3,3.2l2.2-3.3c0.1-0.3,0.4-0.4,0.7-0.4c0.4,0,0.7,0.3,0.7,0.6l0,0c0,0.2-0.1,0.4-0.2,0.5L50,5.6v2.5   c0,0.4-0.3,0.7-0.7,0.7s-0.7-0.3-0.7-0.7l0,0L48.7,5.8z"></path>		<path class="rotate-1" d="M60.3,2.5c0.1-0.4,0.5-0.6,0.9-0.5l0,0L64,2.8c0.8,0.2,1.4,0.6,1.8,1.3   c0.2,0.4,0.3,1,0.2,1.4l0,0c-0.2,0.8-0.8,1.3-1.6,1.4c0.9,0.4,1.3,1.4,1,2.3l0,0c-0.4,1.4-1.8,1.8-3.5,1.3L59,9.7   c-0.4-0.1-0.6-0.5-0.5-0.9l0,0L60.3,2.5z M62.2,9.4c0.9,0.3,1.6,0.1,1.8-0.6l0,0c0.2-0.7-0.2-1.2-1.3-1.5l-2.2-0.6L60,8.8   L62.2,9.4z M62.8,6c0.9,0.3,1.6,0.1,1.8-0.6l0,0c0.2-0.6-0.2-1.1-1.1-1.4l-2-0.6l-0.6,2.1L62.8,6z"></path>		<path class="rotate-1" d="M66.4,11.1l5.9-4.5c0.3-0.2,0.7-0.3,1-0.1h0.1c0.3,0.2,0.5,0.5,0.5,0.9l-0.5,7.4   c0,0.1,0,0.2-0.1,0.3c-0.2,0.3-0.6,0.5-0.9,0.3l0,0c-0.3-0.2-0.4-0.5-0.4-0.8l0.1-1.7L68.6,11l-1.3,1.1c-0.2,0.2-0.5,0.2-0.8,0.1   c-0.3-0.2-0.4-0.6-0.3-0.9l0,0C66.2,11.3,66.3,11.2,66.4,11.1 M72.2,11.6L72.5,8l-2.8,2.2L72.2,11.6z"></path>		<path class="rotate-1" d="M76.3,13.2L76.3,13.2c1.4-1.8,4-2.1,5.8-0.6l0.1,0.1c0.8,0.6,1.3,1.5,1.5,2.5   c0,0.2,0,0.4-0.2,0.6c-0.2,0.3-0.7,0.3-1,0.1l0,0c-0.1-0.1-0.2-0.2-0.2-0.4c-0.1-0.7-0.5-1.4-1-1.8c-1.2-1-2.9-0.8-3.9,0.4   c0,0,0,0-0.1,0.1l0,0c-1,1.1-1,2.8,0.1,3.9c0,0,0,0,0.1,0.1c0.6,0.5,1.3,0.8,2.1,0.7c0.2,0,0.3,0.1,0.4,0.2   c0.3,0.2,0.3,0.7,0.1,0.9c-0.1,0.2-0.3,0.2-0.5,0.2c-1.1,0-2.1-0.3-3-1.1c-1.7-1.4-2-4-0.5-5.8C76.3,13.3,76.3,13.2,76.3,13.2"></path>		<path class="rotate-1" d="M86.4,17.8c0.3-0.2,0.8-0.2,1,0.1c0.2,0.3,0.2,0.8-0.1,1l0,0L84.6,21l5.4,0.7   c0.2,0,0.4,0.1,0.6,0.3c0.2,0.3,0.2,0.7-0.1,0.9l0,0c-0.2,0.1-0.4,0.2-0.6,0.1l-3.5-0.5l-1,4.2c0,0.2-0.1,0.4-0.3,0.5   c-0.3,0.2-0.7,0.2-1-0.1l0,0C84,27,83.9,26.7,84,26.5l1-4.1l-1.8-0.3l-1.3,1c-0.3,0.2-0.8,0.2-1-0.1c-0.2-0.3-0.2-0.8,0.1-1   L86.4,17.8z"></path>		<path class="rotate-1" d="M91.1,31.4L91.1,31.4c0.9-0.3,1.8,0.1,2.2,0.9c0.3,0.8-0.1,1.8-0.9,2.1l0,0   c-0.8,0.3-1.8-0.1-2.1-0.9C89.9,32.7,90.3,31.7,91.1,31.4"></path>		<path class="rotate-1" d="M94.2,41.2L94.2,41.2c0.9-0.1,1.8,0.5,1.9,1.4s-0.5,1.7-1.4,1.9l0,0   c-0.9,0.1-1.7-0.5-1.9-1.4C92.7,42.1,93.3,41.3,94.2,41.2"></path>		<path class="rotate-1" d="M95,51.3L95,51.3c0.9,0.1,1.6,0.8,1.6,1.8c-0.1,0.9-0.8,1.6-1.8,1.5l0,0l0,0   c-0.9-0.1-1.6-0.8-1.5-1.8C93.3,52,94.1,51.3,95,51.3"></path>		<path class="rotate-1" d="M93.5,61.5L93.5,61.5c0.9,0.3,1.4,1.2,1.1,2.1c-0.3,0.9-1.2,1.4-2.1,1.1l0,0l0,0   c-0.9-0.3-1.4-1.2-1.1-2.1C91.8,61.7,92.7,61.2,93.5,61.5"></path>		<path class="rotate-1" d="M89.8,71L89.8,71c0.8,0.5,1.1,1.5,0.6,2.3s-1.5,1-2.2,0.6l0,0c-0.8-0.5-1-1.5-0.6-2.2   C88,70.8,89,70.6,89.8,71"></path>		<path class="rotate-1" d="M14.6,78.5L14.6,78.5c1.6-1.6,4.3-1.6,5.9,0l0.1,0.1c0.7,0.7,1.2,1.6,1.3,2.6   c0,0.2-0.1,0.5-0.2,0.6c-0.3,0.3-0.7,0.3-1,0c-0.1-0.1-0.2-0.3-0.2-0.4c-0.1-0.7-0.4-1.4-0.9-1.9c-1.1-1.1-2.8-1-3.9,0.1l0,0l0,0   c-1.1,1-1.3,2.7-0.3,3.8c0.1,0.1,0.1,0.1,0.2,0.2c0.5,0.5,1.1,0.9,1.8,1l1.1-1.1l-1.1-1.2c-0.2-0.2-0.2-0.6,0-0.9l0,0   c0.3-0.2,0.7-0.2,0.9,0l1.6,1.6c0.3,0.3,0.3,0.7,0,1l0,0l-1.6,1.5c-0.3,0.3-0.6,0.4-1,0.3c-1-0.2-1.9-0.7-2.6-1.5   C13.1,82.8,13,80.2,14.6,78.5C14.5,78.6,14.6,78.5,14.6,78.5"></path>		<path class="rotate-1" d="M21.6,86.1l2.2-3.3c0.2-0.3,0.7-0.4,1-0.2c0.3,0.2,0.4,0.7,0.2,1l-2.2,3.3   c-0.8,0.8-0.7,2.1,0.1,2.8c0.1,0.1,0.2,0.2,0.3,0.3c0.9,0.7,2.1,0.5,2.7-0.4c0.1-0.1,0.2-0.2,0.2-0.4l2.2-3.3   c0.2-0.3,0.7-0.4,1-0.2c0.3,0.2,0.4,0.7,0.2,1L27.3,90c-0.8,1.6-2.8,2.3-4.4,1.5c-0.2-0.1-0.4-0.2-0.6-0.4   c-1.5-0.9-2.1-2.8-1.3-4.4C21.3,86.4,21.4,86.2,21.6,86.1"></path>		<path class="rotate-1" d="M28.2,93.3l5.3-5.1c0.3-0.3,0.7-0.4,1-0.2h0.1c0.4,0.1,0.6,0.5,0.6,0.9l0.3,7.4   c0,0.1,0,0.2,0,0.3c-0.1,0.3-0.5,0.5-0.9,0.4l0,0c-0.3-0.1-0.5-0.4-0.5-0.7v-1.7L30.3,93l-1.2,1.2c-0.2,0.2-0.5,0.3-0.8,0.2   c-0.3-0.1-0.5-0.5-0.4-0.8l0,0C28,93.4,28.1,93.3,28.2,93.3 M34,93.1l-0.1-3.6L31.3,92L34,93.1z"></path>		<path class="rotate-1" d="M39.4,90.6c0.1-0.4,0.4-0.6,0.8-0.6l0,0l2.9,0.5c0.9,0.1,1.6,0.5,2.2,1.2   c0.4,0.5,0.5,1.2,0.4,1.8l0,0c-0.2,1.1-1.1,2-2.2,2.1l1.2,2.2c0.1,0.2,0.2,0.4,0.1,0.6c-0.1,0.4-0.4,0.6-0.8,0.5l0,0   c-0.3,0-0.5-0.2-0.6-0.5l-1.5-2.8L40,95.3l-0.4,2.1c-0.1,0.4-0.4,0.6-0.8,0.6c-0.4-0.1-0.6-0.4-0.6-0.8L39.4,90.6z M42.3,94.5   c1,0.2,1.7-0.2,1.9-1l0,0c0.2-0.9-0.4-1.4-1.4-1.6l-2-0.4l-0.5,2.7L42.3,94.5z"></path>		<path class="rotate-1" d="M47.5,98.4l2.8-6.8c0.1-0.4,0.5-0.6,0.8-0.6h0.1c0.4,0,0.7,0.2,0.9,0.6l3.2,6.6   c0.1,0.1,0.1,0.2,0.1,0.3c0,0.4-0.3,0.7-0.6,0.7l0,0c-0.3,0-0.6-0.2-0.7-0.5l-0.7-1.5l-3.9,0.1l-0.6,1.6c-0.1,0.3-0.4,0.5-0.6,0.5   c-0.4,0-0.7-0.3-0.7-0.6l0,0C47.4,98.6,47.4,98.5,47.5,98.4 M52.7,95.9l-1.5-3.2L49.9,96L52.7,95.9z"></path>		<path class="rotate-1" d="M56.7,91.4c-0.1-0.4,0.1-0.8,0.5-0.9l0,0h0.1c0.3-0.1,0.6,0,0.8,0.2l5.2,4.1L62.2,90   c-0.1-0.4,0.1-0.8,0.5-0.9s0.8,0.1,0.9,0.5l1.6,6.6c0.1,0.4-0.1,0.8-0.5,0.9l0,0h-0.1c-0.3,0.1-0.6,0-0.8-0.2l-5.4-4.2l1.2,5   c0.1,0.4-0.1,0.8-0.5,0.9s-0.8-0.1-0.9-0.5L56.7,91.4z"></path>		<path class="rotate-1" d="M67.6,88.6l-1.8,0.8c-0.3,0.1-0.7,0-0.9-0.4c-0.1-0.3,0-0.7,0.3-0.8l4.9-2.3   c0.3-0.1,0.7,0,0.9,0.4c0.1,0.3,0,0.7-0.3,0.8L68.9,88l2.6,5.6c0.2,0.4,0,0.8-0.3,1c-0.4,0.2-0.8,0-1-0.3L67.6,88.6z"></path>		<path class="rotate-1" d="M76.2,90.9l-3.9-5.4c-0.2-0.3-0.2-0.8,0.1-1l0,0l3.8-2.8c0.3-0.2,0.7-0.1,0.9,0.1   c0.2,0.3,0.1,0.7-0.1,0.9l0,0l-3.3,2.4l1.2,1.7l2.8-2.1c0.3-0.2,0.7-0.1,0.9,0.2c0.2,0.3,0.1,0.7-0.1,0.9l-2.8,2.1l1.3,1.8   l3.3-2.4c0.3-0.2,0.7-0.1,0.9,0.1c0.2,0.3,0.1,0.7-0.1,0.9l0,0l-3.9,2.8C76.9,91.3,76.4,91.2,76.2,90.9L76.2,90.9"></path>		<path class="rotate-1" d="M83.4,85.3l-4.9-4.6c-0.3-0.3-0.3-0.7,0-1l0,0l3.2-3.4c0.2-0.3,0.6-0.3,0.9,0   c0.3,0.2,0.3,0.6,0,0.9l0,0L79.9,80l1.5,1.5l2.4-2.5c0.2-0.3,0.7-0.3,0.9,0c0.3,0.2,0.3,0.6,0,0.9l-2.4,2.5l1.6,1.5l2.8-3   c0.2-0.3,0.6-0.3,0.9,0c0.3,0.2,0.3,0.6,0,0.9l0,0l-3.3,3.5C84.1,85.6,83.7,85.6,83.4,85.3L83.4,85.3"></path>	</g>	<g>		<path class="rotate-1" d="M46.6,64.4c0.7,0.2,1.5-0.2,1.7-0.9l0.6-1.8h3.2l0.6,1.8c0.2,0.7,1,1.1,1.7,0.9   s1.1-1,0.9-1.7l0,0l-3.5-11.2c-0.2-0.7-1-1.1-1.7-0.9c-0.4,0.1-0.8,0.5-0.9,0.9l-3.5,11.2C45.5,63.4,45.9,64.1,46.6,64.4    M51.3,58.9h-1.5l0.8-2.4L51.3,58.9z"></path>		<path class="rotate-1" d="M40.6,50.5H38c-0.8,0-1.4,0.6-1.4,1.4l0,0v11.2c0,0.8,0.6,1.4,1.4,1.4l0,0h2.6   c2.7,0,4.9-2.2,4.9-4.9v-4.1C45.5,52.7,43.3,50.5,40.6,50.5 M42.8,59.5c0,1.2-1,2.2-2.2,2.2h-1.2v-8.5h1.2c1.2,0,2.2,1,2.2,2.2   V59.5z"></path>		<path class="rotate-1" d="M58.7,64.4c0.8,0,1.4-0.6,1.4-1.4l0,0v-3.9l3.3-6.7c0.3-0.7,0.1-1.5-0.6-1.8   c-0.7-0.3-1.5-0.1-1.8,0.6l0,0l-2.3,4.5l-2.3-4.5c-0.3-0.7-1.2-0.9-1.8-0.6c-0.7,0.3-0.9,1.2-0.6,1.8l3.3,6.7V63   C57.3,63.8,57.9,64.4,58.7,64.4L58.7,64.4"></path>		<path class="rotate-1" d="M49.5,44.6c0-1.1-0.3-2.1-1-2.9c0.7-0.6,1.1-1.5,1-2.5c0.1-2.2-1.7-4.1-3.9-4.1   c-0.2,0-0.4,0-0.5,0c-1.9,0-3.5,1.1-4.3,2.8c-0.3,0.7-0.1,1.5,0.6,1.8c0.7,0.3,1.5,0.1,1.8-0.6c0.3-0.8,1-1.3,1.8-1.3   c1.5,0,1.7,0.7,1.7,1.4c0,0.9-1.6,1-1.7,1c-0.8,0-1.4,0.6-1.4,1.3s0.6,1.4,1.3,1.4c0,0,0,0,0.1,0c0.9-0.1,1.6,0.6,1.7,1.4   c0,0.1,0,0.2,0,0.3c0.1,0.8-0.5,1.6-1.4,1.7c-0.1,0-0.2,0-0.3,0c-0.8,0-1.6-0.5-1.8-1.3c-0.3-0.7-1.2-0.9-1.8-0.6   c-0.7,0.3-0.9,1.2-0.6,1.8c0.7,1.7,2.4,2.8,4.3,2.8c2.3,0.1,4.3-1.7,4.4-4C49.5,44.9,49.5,44.8,49.5,44.6"></path>		<path class="rotate-1" d="M54.8,35.1c-2.6,0-4.7,3.1-4.7,7s2.1,7,4.7,7c2.6,0,4.7-3.1,4.7-7S57.5,35.1,54.8,35.1    M54.8,46.3c-0.8,0-2-1.6-2-4.2c0-2.6,1.2-4.2,2-4.2s2,1.6,2,4.2S55.6,46.3,54.8,46.3"></path>		<path class="rotate-1" d="M57.2,22c-0.6-0.1-1.1,0.2-1.2,0.8c-0.1,0.5,0.2,1,0.7,1.2C63,25.8,68.4,29.8,72,35.3   c3.5,5.5,4.8,12,3.7,18.4c-1,6.3-4.4,12-9.3,16c-4.9,3.9-11.2,5.9-17.5,5.5c-12.8-0.7-23-11-23.7-23.8c-0.6-12,7.6-22.7,19.4-25.3   v2.2c0,0.6,0.5,1,1,1c0.3,0,0.5-0.1,0.7-0.3l6.1-6.1c0.4-0.4,0.4-1,0-1.4l0,0l-6.1-6.1c-0.4-0.4-1-0.4-1.4,0   c-0.2,0.2-0.3,0.5-0.3,0.7v3.2C33.2,21.4,24,29.7,20.7,40.8c-3.3,10.9-0.1,22.8,8.1,30.7c11,10.6,28.2,11.1,39.9,1.3   c12.3-10.3,14-28.6,3.7-41C68.6,26.9,63.2,23.5,57.2,22"></path>	</g></g></svg>