<svg xmlns="http://www.w3.org/2000/svg" xmlns:xlink="http://www.w3.org/1999/xlink" x="0px" y="0px" viewBox="0 0 100 100" style="enable-background:new 0 0 100 100;" xml:space="preserve"><style type="text/css">	.rotate-2{fill:currentcolor;}</style><g>	<g class="text-rotate-style">		<path class="rotate-2" d="M4.9,46.7L4.9,46.7c-0.9-0.1-1.6-0.9-1.5-1.8c0.1-0.9,0.9-1.5,1.8-1.4h0   c0.9,0.1,1.5,1,1.4,1.9C6.5,46.2,5.7,46.8,4.9,46.7"></path>		<path class="rotate-2" d="M6.9,36.1L6.9,36.1c-0.9-0.3-1.3-1.3-1-2.1c0.3-0.8,1.2-1.3,2.1-1l0,0   c0.9,0.3,1.3,1.3,1,2.1C8.7,36,7.8,36.4,6.9,36.1"></path>		<path class="rotate-2" d="M11.4,26.2L11.4,26.2c-0.8-0.5-1-1.5-0.4-2.3c0.5-0.7,1.5-0.9,2.2-0.4l0,0   c0.7,0.5,0.9,1.5,0.4,2.3C13.2,26.5,12.2,26.7,11.4,26.2"></path>		<path class="rotate-2" d="M15.9,15.2c-0.3-0.3-0.2-0.8,0.1-1c0,0,0,0,0,0l0.1-0.1c0.2-0.2,0.5-0.3,0.8-0.2l6.5,1.4   l-3.2-3.8c-0.3-0.3-0.2-0.7,0.1-1c0.3-0.3,0.7-0.2,1,0.1l0,0l4.4,5.2c0.3,0.3,0.2,0.7-0.1,1c0,0,0,0,0,0l0,0   C25.3,17,25,17,24.7,16.9L18,15.5l3.3,3.9c0.3,0.3,0.2,0.7-0.1,1c-0.3,0.3-0.7,0.2-1-0.1l0,0L15.9,15.2z"></path>		<path class="rotate-2" d="M25.8,11.5L25.8,11.5c-1-2.1-0.2-4.7,1.9-5.7c2.1-1,4.6-0.2,5.6,1.8l0,0   c1,2.1,0.1,4.7-2,5.7C29.4,14.3,26.9,13.5,25.8,11.5 M32.1,8.4L32.1,8.4c-0.7-1.4-2.3-2-3.7-1.4c0,0,0,0-0.1,0   c-1.4,0.7-1.9,2.3-1.2,3.7c0,0,0,0.1,0.1,0.1l0,0c0.6,1.4,2.3,2,3.7,1.4c0,0,0.1,0,0.1,0c1.3-0.7,1.9-2.3,1.2-3.7   C32.1,8.5,32.1,8.4,32.1,8.4"></path>		<path class="rotate-2" d="M35.3,3.5c-0.1-0.4,0.1-0.8,0.5-0.9c0,0,0,0,0,0l0.1,0c0.3-0.1,0.6,0,0.8,0.2L42,7l-1.1-4.9   c-0.1-0.4,0.1-0.8,0.5-0.8c0.4-0.1,0.8,0.1,0.8,0.5l0,0l1.5,6.6c0.1,0.4-0.1,0.8-0.5,0.8c0,0,0,0,0,0l-0.1,0   c-0.3,0.1-0.6,0-0.8-0.2l-5.3-4.3l1.2,5c0.1,0.4-0.1,0.8-0.5,0.8c-0.4,0.1-0.8-0.1-0.8-0.5l0,0L35.3,3.5z"></path>		<path class="rotate-2" d="M45.8,5.5c0-0.4,0.3-0.7,0.6-0.7l2.2-0.1c0.4,0,0.7,0.4,0.6,0.8c0,0.3-0.3,0.6-0.6,0.6   l-2.2,0.1C46.1,6.1,45.8,5.8,45.8,5.5"></path>		<path class="rotate-2" d="M51.2,7.9c-0.3-0.2-0.3-0.7-0.1-0.9c0.1-0.2,0.4-0.2,0.6-0.2c0.1,0,0.3,0.1,0.4,0.2   c0.6,0.6,1.4,1,2.2,1.1c0.9,0.1,1.5-0.3,1.5-0.9v0c0.1-0.6-0.2-0.9-1.7-1.4c-1.7-0.6-2.6-1.2-2.4-2.7v0c0.2-1.4,1.5-2.3,2.8-2.1   c0.1,0,0.1,0,0.2,0c0.9,0.1,1.8,0.4,2.5,1c0.2,0.1,0.3,0.4,0.3,0.6c0,0.4-0.4,0.6-0.7,0.6c0,0,0,0,0,0c-0.1,0-0.3-0.1-0.4-0.1   c-0.5-0.4-1.1-0.7-1.8-0.8C53.7,2,53.1,2.4,53.1,3v0c-0.1,0.6,0.3,0.9,1.8,1.5c1.7,0.6,2.5,1.3,2.3,2.6v0   c-0.2,1.5-1.4,2.3-3.1,2.1C53,9.1,52,8.6,51.2,7.9"></path>		<path class="rotate-2" d="M62.7,3.8l-1.9-0.6c-0.4-0.1-0.6-0.5-0.4-0.8s0.5-0.6,0.8-0.4l0,0l5.2,1.5   c0.3,0.1,0.5,0.5,0.4,0.8c-0.1,0.3-0.5,0.5-0.8,0.4l-1.9-0.6l-1.7,5.9c-0.1,0.4-0.5,0.6-0.9,0.5c-0.4-0.1-0.6-0.5-0.5-0.9   L62.7,3.8z"></path>		<path class="rotate-2" d="M67.4,8.2L67.4,8.2c1.2-2.1,3.7-2.8,5.8-1.7c2,1.1,2.7,3.6,1.7,5.6l0,0   c-1.1,2-3.7,2.8-5.8,1.6C67.1,12.7,66.3,10.2,67.4,8.2 M73.5,11.5L73.5,11.5c0.8-1.3,0.3-3.1-1-3.8c0,0,0,0-0.1,0   c-1.3-0.7-3-0.2-3.7,1.1c0,0,0,0.1-0.1,0.1l0,0c-0.8,1.3-0.3,3,1,3.8c0,0,0.1,0,0.1,0c1.3,0.7,3,0.2,3.7-1.1   C73.5,11.6,73.5,11.5,73.5,11.5"></path>		<path class="rotate-2" d="M79.3,11.4c0.3-0.3,0.7-0.3,1-0.1c0,0,0,0,0,0l1.9,1.6c1.3,0.8,1.6,2.5,0.8,3.8   c-0.1,0.1-0.1,0.2-0.2,0.3l0,0c-1.1,1.2-2.9,1.3-4,0.2c-0.1-0.1-0.2-0.1-0.2-0.2l-1.2-1.1l-1.3,1.5c-0.3,0.3-0.7,0.3-1,0.1   c-0.3-0.3-0.3-0.7-0.1-1L79.3,11.4z M79.3,16.1c0.6,0.6,1.5,0.7,2.2,0.2c0,0,0.1-0.1,0.1-0.1l0,0c0.6-0.7,0.4-1.5-0.4-2.2L80,12.8   L78.1,15L79.3,16.1z"></path>		<path class="rotate-2" d="M86.2,23.3L86.2,23.3c0.8-0.5,1.8-0.3,2.3,0.5c0.5,0.7,0.3,1.7-0.4,2.2l0,0   c-0.8,0.5-1.8,0.3-2.3-0.4C85.3,24.8,85.5,23.8,86.2,23.3"></path>		<path class="rotate-2" d="M91.5,32.8L91.5,32.8c0.9-0.3,1.8,0.2,2.1,1c0.3,0.8-0.1,1.7-1,2.1l0,0   c-0.9,0.3-1.8-0.2-2.1-1C90.3,34,90.7,33.1,91.5,32.8"></path>		<path class="rotate-2" d="M94.4,43.2L94.4,43.2c0.9-0.1,1.7,0.6,1.8,1.5c0.1,0.9-0.6,1.7-1.5,1.8h0   c-0.9,0.1-1.7-0.6-1.8-1.5C92.8,44.1,93.5,43.3,94.4,43.2"></path>		<path class="rotate-2" d="M4.7,54.3L4.7,54.3c2.2-0.5,4.4,1,4.9,3.2c0,0.1,0,0.1,0,0.2c0.2,1,0.1,2-0.4,2.9   c-0.1,0.2-0.3,0.3-0.5,0.4c-0.4,0.1-0.7-0.2-0.8-0.6c0,0,0,0,0,0c0-0.2,0-0.3,0.1-0.4c0.4-0.6,0.5-1.3,0.4-2   C8,56.4,6.5,55.4,5,55.7c0,0-0.1,0-0.1,0h0c-1.5,0.2-2.6,1.6-2.4,3.1c0,0,0,0.1,0,0.1c0.1,0.7,0.5,1.4,1.1,1.9   c0.1,0.1,0.2,0.2,0.2,0.4c0.1,0.4-0.2,0.7-0.5,0.8c-0.2,0-0.4,0-0.5-0.1c-0.9-0.7-1.4-1.6-1.6-2.7c-0.4-2.2,1-4.4,3.3-4.8   C4.6,54.3,4.6,54.3,4.7,54.3"></path>		<path class="rotate-2" d="M6,63.8l3.7-1.5c0.4-0.1,0.8,0,0.9,0.4c0.1,0.4,0,0.7-0.4,0.9l-3.7,1.5   c-1.1,0.2-1.7,1.3-1.5,2.4c0,0.1,0.1,0.3,0.1,0.4c0.3,1,1.5,1.6,2.5,1.2C7.9,69.1,8,69,8.1,69l3.7-1.5c0.4-0.1,0.8,0,0.9,0.4   c0.1,0.4,0,0.8-0.4,0.9l-3.7,1.5c-1.6,0.9-3.5,0.3-4.4-1.2c-0.1-0.2-0.2-0.4-0.3-0.6c-0.8-1.6-0.2-3.5,1.4-4.3   C5.6,64,5.8,63.9,6,63.8"></path>		<path class="rotate-2" d="M7.8,74c0-0.4,0.3-0.7,0.7-0.6c0.2,0,0.4,0.1,0.5,0.3c0.1,0.1,0.1,0.3,0.1,0.4   c-0.1,0.8,0.1,1.7,0.6,2.4c0.5,0.7,1.1,1,1.6,0.6l0,0c0.5-0.3,0.6-0.8,0-2.2c-0.6-1.7-0.7-2.8,0.5-3.6l0,0   c1.2-0.7,2.7-0.3,3.4,0.9c0,0.1,0.1,0.1,0.1,0.2c0.5,0.8,0.8,1.6,0.8,2.6c0,0.2-0.1,0.5-0.3,0.6c-0.3,0.2-0.7,0.1-0.9-0.2   c0,0,0,0,0,0c-0.1-0.1-0.1-0.2-0.1-0.4c0-0.7-0.2-1.3-0.5-1.9c-0.5-0.7-1.1-0.9-1.5-0.6l0,0c-0.5,0.3-0.6,0.8,0,2.3   c0.6,1.7,0.6,2.7-0.6,3.5l0,0c-1.2,0.7-2.7,0.4-3.5-0.8c-0.1-0.1-0.1-0.2-0.1-0.3C8.1,76.2,7.8,75.1,7.8,74"></path>		<path class="rotate-2" d="M18.6,78.6l-1.4-1.4c-0.3-0.3-0.2-0.7,0-0.9c0.3-0.3,0.7-0.2,0.9,0l3.7,3.9   c0.3,0.3,0.2,0.7,0,0.9c-0.3,0.3-0.7,0.2-0.9,0l-1.4-1.4l-4.4,4.2c-0.3,0.3-0.7,0.3-1,0c-0.3-0.3-0.3-0.7,0-1L18.6,78.6z"></path>		<path class="rotate-2" d="M20.4,84.5L20.4,84.5c1.4-1.9,4.1-2.3,6-0.9c1.8,1.3,2.2,3.8,1,5.7l0,0   c-1.4,1.9-4.1,2.3-5.9,0.9C19.7,88.8,19.2,86.3,20.4,84.5 M26.2,88.5L26.2,88.5c0.9-1.2,0.7-3-0.5-3.9c0,0,0,0-0.1,0   c-1.2-0.9-3-0.6-3.8,0.7c0,0,0,0.1-0.1,0.1l0,0c-0.9,1.2-0.7,3,0.5,3.9c0,0,0.1,0,0.1,0.1c1.2,0.9,2.9,0.6,3.8-0.7   C26.1,88.5,26.1,88.5,26.2,88.5"></path>		<path class="rotate-2" d="M30.9,87.3c0.1-0.4,0.6-0.6,0.9-0.4c0,0,0,0,0,0L32,87c0.3,0.1,0.4,0.3,0.5,0.6l0.9,4.5   l3.7-2.7c0.2-0.2,0.5-0.2,0.7-0.1l0.1,0.1c0.4,0.1,0.6,0.6,0.4,0.9c0,0,0,0,0,0l-2.5,6.3c-0.1,0.4-0.5,0.5-0.9,0.4c0,0,0,0,0,0   c-0.4-0.1-0.5-0.6-0.4-0.9l1.8-4.5l-2.9,2.1c-0.3,0.2-0.7,0.2-0.9,0c-0.1-0.1-0.2-0.2-0.2-0.4l-0.8-3.5l-1.8,4.5   c-0.1,0.4-0.5,0.5-0.9,0.4c0,0,0,0,0,0c-0.4-0.1-0.5-0.5-0.4-0.9c0,0,0,0,0,0L30.9,87.3z"></path>		<path class="rotate-2" d="M39.5,97.4l1-6.6c0.1-0.4,0.4-0.7,0.8-0.6c0,0,0,0,0,0l4.7,0.7c0.3,0.1,0.6,0.4,0.5,0.7   c-0.1,0.3-0.4,0.6-0.7,0.5c0,0,0,0,0,0l-4-0.6l-0.3,2.1l3.5,0.5c0.4,0.1,0.6,0.4,0.5,0.7c-0.1,0.3-0.4,0.6-0.7,0.5l-3.5-0.5L41,97   l4,0.6c0.3,0.1,0.6,0.4,0.5,0.7c-0.1,0.3-0.4,0.6-0.7,0.5c0,0,0,0,0,0l-4.7-0.7C39.7,98.1,39.4,97.8,39.5,97.4   C39.5,97.4,39.5,97.4,39.5,97.4"></path>		<path class="rotate-2" d="M48.3,91.8c0-0.4,0.3-0.7,0.7-0.7c0,0,0,0,0,0l2.9-0.1c0.9-0.1,1.7,0.2,2.4,0.7   c0.5,0.5,0.7,1.1,0.7,1.7v0c0.1,1.1-0.6,2.2-1.8,2.5l1.6,1.9c0.1,0.1,0.2,0.3,0.3,0.5c0,0.4-0.3,0.7-0.7,0.7c0,0,0,0,0,0   c-0.3,0-0.5-0.1-0.7-0.3l-2.1-2.4l-1.8,0.1l0.1,2.2c0,0.4-0.3,0.7-0.7,0.7c-0.4,0-0.7-0.3-0.7-0.7L48.3,91.8z M51.9,94.9   c1,0,1.6-0.6,1.6-1.4v0c0-0.9-0.7-1.3-1.7-1.3l-2.1,0.1l0.1,2.7L51.9,94.9z"></path>		<path class="rotate-2" d="M62.4,96.6c-0.4-0.1-0.5-0.5-0.4-0.9c0.1-0.4,0.5-0.5,0.9-0.4l0,0c0.8,0.3,1.6,0.3,2.4,0.1   c0.8-0.3,1.2-0.8,1-1.4l0,0c-0.2-0.6-0.6-0.7-2.1-0.6c-1.8,0.1-2.9,0-3.3-1.4l0,0c-0.4-1.3,0.4-2.7,1.7-3.1c0.1,0,0.1,0,0.2,0   c0.9-0.3,1.8-0.3,2.7-0.1c0.2,0.1,0.4,0.2,0.5,0.4c0.1,0.3-0.1,0.7-0.4,0.8c0,0,0,0,0,0c-0.1,0-0.3,0-0.4,0c-0.6-0.2-1.3-0.2-2,0   c-0.8,0.3-1.1,0.8-1,1.3l0,0c0.2,0.6,0.6,0.7,2.2,0.6c1.8-0.1,2.8,0.2,3.2,1.4v0c0.5,1.4-0.4,2.7-2,3.2C64.5,97,63.4,97,62.4,96.6   "></path>		<path class="rotate-2" d="M70.9,93.6l-3.3-5.8c-0.2-0.3-0.1-0.8,0.3-1c0,0,0,0,0,0l4.1-2.3c0.3-0.2,0.7-0.1,0.9,0.2   c0.2,0.3,0.1,0.7-0.2,0.9c0,0,0,0,0,0l-3.5,2l1,1.8l3.1-1.7c0.3-0.2,0.7-0.1,0.9,0.3c0.2,0.3,0.1,0.7-0.3,0.9l-3.1,1.7l1.1,1.9   l3.6-2c0.3-0.2,0.7-0.1,0.9,0.2c0.2,0.3,0.1,0.7-0.2,0.9c0,0,0,0,0,0l-4.2,2.3C71.5,94.1,71.1,94,70.9,93.6   C70.9,93.7,70.9,93.7,70.9,93.6"></path>		<path class="rotate-2" d="M74.4,83.8c-0.3-0.3-0.2-0.7,0.1-1c0,0,0,0,0,0l2.2-1.9c0.6-0.6,1.5-0.9,2.3-0.9   c0.6,0.1,1.2,0.4,1.6,0.9l0,0c0.8,0.8,0.8,2.1,0.2,3l2.5,0.5c0.2,0,0.4,0.1,0.5,0.3c0.2,0.3,0.2,0.7-0.1,0.9   c-0.2,0.2-0.5,0.2-0.8,0.2l-3.1-0.7l-1.4,1.2l1.4,1.7c0.3,0.3,0.2,0.8-0.1,1c-0.3,0.2-0.7,0.2-1-0.1L74.4,83.8z M79.3,84.1   c0.7-0.4,0.9-1.3,0.5-2c0-0.1-0.1-0.1-0.1-0.1l0,0c-0.6-0.7-1.3-0.6-2.2,0.1l-1.6,1.3l1.8,2.1L79.3,84.1z"></path>		<path class="rotate-2" d="M87.6,80.8l-7-1.9c-0.1,0-0.2-0.1-0.3-0.1c-0.3-0.2-0.3-0.7-0.1-1c0,0,0,0,0,0   c0.2-0.3,0.5-0.4,0.9-0.3l6,1.8l-3.1-5.5c-0.2-0.3-0.1-0.6,0.1-0.8c0.2-0.3,0.7-0.4,1-0.1c0.1,0.1,0.1,0.2,0.2,0.2l3.5,6.4   c0.2,0.3,0.2,0.7-0.1,1l-0.1,0.1C88.3,80.8,87.9,80.9,87.6,80.8"></path>		<path class="rotate-2" d="M85.7,71.3c-0.3-0.2-0.5-0.6-0.3-1c0.2-0.3,0.6-0.5,1-0.3l0,0l5.9,3.4   c0.3,0.2,0.4,0.6,0.2,1c-0.2,0.3-0.6,0.4-0.9,0.3L85.7,71.3z"></path>		<path class="rotate-2" d="M90.7,69.6L90.7,69.6c-2.2-0.8-3.2-3.1-2.5-5.3c0-0.1,0-0.1,0.1-0.2c0.3-1,1-1.8,1.9-2.3   c0.2-0.1,0.4-0.1,0.6-0.1c0.4,0.1,0.5,0.5,0.4,0.9c0,0,0,0,0,0c-0.1,0.1-0.2,0.3-0.3,0.3c-0.6,0.3-1.1,0.9-1.4,1.5   c-0.5,1.4,0.2,3,1.6,3.5c0,0,0.1,0,0.1,0l0,0c1.4,0.6,3,0,3.6-1.4c0,0,0-0.1,0-0.1c0.3-0.7,0.3-1.5,0-2.2c-0.1-0.1-0.1-0.3,0-0.5   c0.1-0.3,0.5-0.5,0.9-0.4c0.2,0.1,0.3,0.2,0.4,0.4c0.4,1,0.4,2.1-0.1,3.1c-0.8,2.1-3.2,3.2-5.3,2.4C90.7,69.6,90.7,69.6,90.7,69.6   "></path>		<path class="rotate-2" d="M97.1,61.1l-6.6-1.2c-0.4-0.1-0.6-0.4-0.6-0.8c0,0,0,0,0,0l0.8-4.6c0.1-0.3,0.4-0.6,0.7-0.5   c0.3,0.1,0.6,0.4,0.5,0.7c0,0,0,0,0,0l-0.7,4l2.1,0.4l0.6-3.4c0.1-0.3,0.4-0.6,0.7-0.5c0.3,0.1,0.6,0.4,0.5,0.7l-0.6,3.4l2.1,0.4   l0.7-4c0.1-0.3,0.4-0.6,0.7-0.5c0.3,0.1,0.6,0.4,0.5,0.7c0,0,0,0,0,0L98,60.5C97.9,60.9,97.5,61.1,97.1,61.1   C97.2,61.1,97.1,61.1,97.1,61.1"></path>	</g>	<g>		<path class="rotate-2" d="M56.9,62.5c0.8,0,1.4-0.6,1.4-1.4l0,0v-2.1h0.6c0.8,0,1.4-0.6,1.4-1.4   c0-0.8-0.6-1.4-1.4-1.4h-0.6v-8.1c0-0.8-0.6-1.4-1.4-1.4c-0.4,0-0.9,0.2-1.1,0.6l-6.6,9.5c-0.4,0.6-0.3,1.5,0.3,1.9   c0.2,0.2,0.5,0.2,0.8,0.2h5.2v2.1C55.6,61.9,56.2,62.5,56.9,62.5L56.9,62.5 M53,56.3l2.6-3.8v3.8H53z"></path>		<path class="rotate-2" d="M49.9,61.1c0-0.8-0.6-1.4-1.4-1.4l0,0h-4.4l4.2-4.1c0,0,0.1-0.1,0.1-0.1   c0.9-1,1.4-2.3,1.4-3.6c0-2.8-2.2-5.1-5-5.1c0,0-0.1,0-0.1,0c-2.6,0-5.4,1.5-5.4,5.7c0,0.8,0.6,1.4,1.4,1.4c0.8,0,1.4-0.6,1.4-1.4   c0-2,0.8-3,2.6-3c1.3-0.1,2.4,0.9,2.4,2.2c0,0.1,0,0.1,0,0.2c0,0.7-0.2,1.3-0.7,1.8l-6.7,6.5c-0.5,0.5-0.6,1.4,0,1.9   c0.3,0.3,0.6,0.4,1,0.4h7.8C49.3,62.5,49.9,61.9,49.9,61.1L49.9,61.1"></path>		<path class="rotate-2" d="M29.2,64.8h1.6c2.4,0,4.3-1.9,4.3-4.3v-9.9c0-2.4-1.9-4.3-4.3-4.3h-4.9c-0.6,0-1,0.5-1,1   v13.2C24.9,62.9,26.8,64.8,29.2,64.8"></path>		<path class="rotate-2" d="M73.7,46.3h-4.9c-2.4,0-4.3,1.9-4.3,4.3v9.9c0,2.4,1.9,4.3,4.3,4.3h1.6c0.4,0,0.7,0,1.1-0.1   l-14.1,13h-4.1v-1.4c0-0.6-0.5-1-1-1h-4.9c-0.6,0-1,0.5-1,1v2.4c0,0.6,0.5,1,1,1h10.4c0.3,0,0.5-0.1,0.7-0.3l15.9-14.7   c0.2-0.2,0.3-0.5,0.3-0.8V47.3C74.7,46.8,74.3,46.3,73.7,46.3"></path>		<path class="rotate-2" d="M26.2,45.2c0.5,0.1,1.1-0.2,1.2-0.7l0.1-0.2c1.2-5.4,4.2-10.3,8.4-13.9   c8.1-6.7,19.7-6.7,27.8,0c4.2,3.6,7.2,8.5,8.4,13.9l0.1,0.2c0.1,0.5,0.7,0.9,1.2,0.7c0.5-0.1,0.8-0.5,0.8-1   c0-13.5-10.9-24.4-24.4-24.4c-13.5,0-24.4,10.9-24.4,24.4C25.5,44.7,25.8,45.1,26.2,45.2"></path>	</g></g></svg>