<svg xmlns="http://www.w3.org/2000/svg" xmlns:xlink="http://www.w3.org/1999/xlink" x="0px" y="0px" viewBox="0 0 100 100" style="enable-background:new 0 0 100 100;" xml:space="preserve"><style type="text/css">	.rotate-3{fill:currentcolor;}</style><g>	<g class="text-rotate-style">		<path class="rotate-3" d="M5.3,49.6L5.3,49.6c-0.9-0.1-1.6-0.8-1.5-1.7s0.8-1.5,1.7-1.5l0,0C6.3,46.4,7,47.1,7,48   S6.2,49.6,5.3,49.6L5.3,49.6"></path>		<path class="rotate-3" d="M6.7,38.9L6.7,38.9c-0.9-0.3-1.4-1.2-1.1-2c0.3-0.9,1.2-1.4,2-1.1l0,0l0,0   c0.9,0.3,1.4,1.2,1.1,2C8.4,38.7,7.5,39.2,6.7,38.9"></path>		<path class="rotate-3" d="M10.5,28.9L10.5,28.9c-0.8-0.5-1.1-1.5-0.6-2.2c0.5-0.8,1.5-1,2.2-0.6l0,0   c0.8,0.5,1,1.5,0.5,2.2C12.2,29,11.3,29.3,10.5,28.9"></path>		<path class="rotate-3" d="M16.7,20L16.7,20c-0.7-0.6-0.7-1.7-0.1-2.3c0.6-0.7,1.7-0.7,2.3,0l0,0l0,0   c0.7,0.6,0.7,1.7,0,2.3C18.4,20.6,17.4,20.7,16.7,20"></path>		<path class="rotate-3" d="M24.8,12.9L24.8,12.9c-0.5-0.8-0.2-1.8,0.6-2.3c0.7-0.4,1.7-0.2,2.2,0.5l0,0   c0.5,0.8,0.2,1.8-0.6,2.2C26.3,13.9,25.3,13.6,24.8,12.9"></path>		<path class="rotate-3" d="M34.3,5.2l-0.7,0.5c-0.1,0-0.1,0.1-0.2,0.1c-0.3,0.1-0.7-0.1-0.8-0.4s0-0.6,0.2-0.7l1-0.8   c0.2-0.1,0.4-0.3,0.6-0.3l0,0c0.4-0.1,0.8,0.1,0.9,0.4l0,0l2.2,6.4c0.1,0.4,0,0.8-0.4,0.9s-0.8,0-0.9-0.4l0,0L34.3,5.2z"></path>		<path class="rotate-3" d="M39.1,6.4L39.1,6.4c-0.4-2.3,0.7-4.4,2.8-4.7c2.1-0.4,3.8,1.2,4.2,3.5l0,0   c0.4,2.3-0.7,4.4-2.8,4.7C41.2,10.3,39.5,8.7,39.1,6.4 M44.6,5.5L44.6,5.5c-0.3-1.6-1.3-2.7-2.5-2.5s-1.8,1.6-1.5,3.2l0,0   c0.3,1.6,1.3,2.7,2.5,2.5C44.3,8.4,44.9,7,44.6,5.5"></path>		<path class="rotate-3" d="M48.5,5.1L48.5,5.1c0.1-2.3,1.6-4.1,3.7-4c2.1,0.1,3.4,2,3.3,4.3l0,0c0.1,2.1-1.5,3.9-3.5,4   c-0.1,0-0.1,0-0.2,0C49.7,9.3,48.4,7.4,48.5,5.1 M54,5.3L54,5.3c0.1-1.6-0.7-3-1.9-3S50,3.5,49.9,5.1l0,0c-0.1,1.6,0.7,2.9,1.9,3   C53.1,8.2,54,6.9,54,5.3"></path>		<path class="rotate-3" d="M58.1,9.2l7-5.6c0.1-0.1,0.3-0.1,0.4-0.1c0.2,0.1,0.4,0.3,0.3,0.6l0,0   c0,0.1-0.1,0.2-0.2,0.3l-7,5.6c0,0-0.2,0-0.4,0c-0.2-0.1-0.4-0.3-0.3-0.5l0,0C58,9.3,58,9.2,58.1,9.2 M58.2,3.6L58.2,3.6   c0.2-1.1,1.3-1.8,2.3-1.5h0.1c1,0.3,1.6,1.4,1.3,2.4v0.1l0,0c-0.2,1-1.2,1.7-2.2,1.5c-1-0.2-1.7-1.2-1.5-2.2   C58.2,3.8,58.2,3.7,58.2,3.6 M60.9,4.4L60.9,4.4c0.2-0.6,0-1.2-0.5-1.4c-0.5-0.1-1,0.3-1.1,0.9l0,0c-0.2,0.5,0,1.1,0.5,1.4l0,0   C60.3,5.4,60.8,5,60.9,4.4 M61.9,8.9L61.9,8.9c0.2-1.1,1.2-1.7,2.2-1.5c1,0.2,1.7,1.2,1.5,2.2c0,0.1,0,0.2-0.1,0.3l0,0   c-0.2,1.1-1.3,1.7-2.3,1.5c0,0,0,0-0.1,0C62.1,11.1,61.5,10,61.9,8.9L61.9,8.9 M64.5,9.6L64.5,9.6c0.2-0.6,0-1.2-0.5-1.4   c-0.5-0.1-1,0.3-1.1,0.9l0,0c-0.2,0.6,0,1.2,0.5,1.4S64.4,10.2,64.5,9.6"></path>		<path class="rotate-3" d="M72.4,11.1L72.4,11.1c0.5-0.8,1.5-1,2.3-0.5s1,1.5,0.5,2.2l0,0c-0.5,0.8-1.5,1-2.3,0.5   S71.9,11.8,72.4,11.1"></path>		<path class="rotate-3" d="M81,17.5L81,17.5c0.7-0.6,1.7-0.6,2.3,0c0.6,0.6,0.6,1.7,0,2.3l0,0c-0.6,0.6-1.7,0.6-2.3,0   C80.3,19.2,80.3,18.1,81,17.5"></path>		<path class="rotate-3" d="M87.8,25.8L87.8,25.8c0.8-0.5,1.8-0.2,2.3,0.6c0.5,0.8,0.2,1.8-0.6,2.2l0,0   c-0.8,0.5-1.8,0.2-2.2-0.6C86.8,27.3,87.1,26.3,87.8,25.8L87.8,25.8"></path>		<path class="rotate-3" d="M92.5,35.5L92.5,35.5c0.9-0.3,1.8,0.2,2.1,1.1c0.3,0.9-0.2,1.8-1.1,2l0,0   c-0.9,0.2-1.8-0.3-2-1.1C91.2,36.7,91.7,35.8,92.5,35.5"></path>		<path class="rotate-3" d="M94.7,46.1L94.7,46.1c0.9,0,1.7,0.7,1.7,1.6c0,0.9-0.7,1.7-1.6,1.7l0,0   c-0.9,0-1.7-0.7-1.7-1.6C93.2,46.9,93.8,46.1,94.7,46.1"></path>		<path class="rotate-3" d="M2.4,57.1c0.1-0.3,0.5-0.5,0.9-0.3c0.2,0.1,0.3,0.3,0.4,0.5c0,0.1,0,0.3,0,0.4   c-0.4,0.7-0.5,1.6-0.3,2.4C3.5,61,4,61.4,4.6,61.3l0,0c0.6-0.1,0.8-0.5,0.8-2c0-1.8,0.3-2.8,1.8-3.1l0,0c1.3-0.2,2.6,0.7,2.8,2   c0,0.1,0,0.1,0,0.2c0.2,0.9,0.1,1.8-0.2,2.7c-0.1,0.2-0.3,0.4-0.5,0.4c-0.4,0.1-0.7-0.2-0.8-0.5l0,0c0-0.1,0-0.3,0-0.4   c0.5-0.7,0.5-1.4,0.4-2c-0.2-0.8-0.7-1.2-1.2-1.1l0,0c-0.6,0.1-0.8,0.6-0.8,2.1c-0.1,1.8-0.5,2.7-1.8,3l0,0   c-1.5,0.3-2.6-0.7-3-2.3C1.8,59.3,2,58.1,2.4,57.1"></path>		<path class="rotate-3" d="M4.4,65.9l6.1-2.6c0.4-0.2,0.8,0,0.9,0.4l0,0l1.8,4.3c0.1,0.3,0,0.7-0.3,0.8   c-0.3,0.1-0.7,0-0.8-0.3l0,0l-1.5-3.7l-1.9,0.8l1.3,3.2c0.1,0.3,0,0.7-0.4,0.8c-0.3,0.1-0.7,0-0.8-0.3l-1.3-3.2l-2,0.8L7,70.8   c0.1,0.3,0,0.7-0.3,0.8c-0.3,0.1-0.7,0-0.8-0.3l0,0L4,66.9C3.9,66.5,4,66.1,4.4,65.9L4.4,65.9"></path>		<path class="rotate-3" d="M10.6,71.9L10.6,71.9c1.9-1.3,4.4-0.9,5.7,1l0.1,0.1c0.6,0.8,0.9,1.8,0.8,2.8   c0,0.2-0.1,0.4-0.3,0.5c-0.3,0.2-0.7,0.1-1-0.2l0,0c-0.1-0.1-0.1-0.3-0.1-0.4c0.1-0.7-0.1-1.4-0.5-2c-0.9-1.2-2.6-1.5-3.8-0.7   c0,0,0,0-0.1,0l0,0c-1.3,0.8-1.7,2.4-0.9,3.7c0,0,0,0,0,0.1c0.4,0.6,1,1.1,1.8,1.2c0.2,0,0.3,0.1,0.4,0.3c0.2,0.3,0.1,0.7-0.2,0.9   c-0.2,0.1-0.4,0.1-0.6,0.1c-1.1-0.3-2-0.9-2.5-1.8c-1.3-1.8-0.8-4.4,1.1-5.6C10.6,71.9,10.6,71.9,10.6,71.9"></path>		<path class="rotate-3" d="M15.7,80l2.8-2.9c0.3-0.3,0.7-0.3,1,0s0.3,0.7,0,1L16.8,81c-0.9,0.6-1.1,1.9-0.4,2.8   c0.1,0.1,0.2,0.2,0.3,0.3c0.7,0.8,1.9,0.9,2.7,0.1c0.1-0.1,0.2-0.2,0.3-0.3l2.8-2.9c0.3-0.3,0.7-0.3,1,0s0.3,0.7,0,1l-2.8,2.8   c-1.1,1.4-3.1,1.7-4.5,0.6c-0.2-0.1-0.3-0.3-0.5-0.5c-1.4-1.1-1.6-3.1-0.4-4.5C15.4,80.3,15.5,80.2,15.7,80"></path>		<path class="rotate-3" d="M25.1,83.4c0.2-0.3,0.6-0.4,1-0.2l0,0l2.4,1.5c0.7,0.4,1.3,1.1,1.5,1.9   c0.1,0.6,0,1.3-0.4,1.8l0,0c-0.6,1-1.8,1.4-2.8,1.1l0.3,2.5c0,0.2,0,0.4-0.1,0.6c-0.2,0.3-0.6,0.4-0.9,0.2   c-0.2-0.1-0.4-0.4-0.4-0.7l-0.3-3.2l-1.5-1l-1.2,1.8c-0.2,0.3-0.7,0.4-1,0.2c-0.3-0.2-0.4-0.6-0.2-1L25.1,83.4z M26.3,88   c0.6,0.5,1.5,0.5,2-0.1l0.1-0.1l0,0c0.5-0.7,0.2-1.5-0.7-2L26,84.6l-1.5,2.3L26.3,88z"></path>		<path class="rotate-3" d="M30,93.9l2.4-6.2c0.1-0.4,0.5-0.6,0.9-0.4l0,0l4.4,1.7c0.3,0.1,0.5,0.5,0.4,0.8   s-0.5,0.5-0.8,0.4l0,0l-3.7-1.4l-0.8,2L36,92c0.3,0.1,0.5,0.5,0.4,0.8s-0.5,0.5-0.8,0.4L32.4,92l-0.8,2l3.8,1.5   c0.3,0.1,0.5,0.5,0.4,0.8s-0.5,0.5-0.8,0.4l0,0L30.6,95C30.1,94.7,29.9,94.3,30,93.9L30,93.9"></path>		<path class="rotate-3" d="M42.9,94.5L42.9,94.5c0.1-2.3,2.1-4,4.3-3.9c0.1,0,0.1,0,0.2,0c1,0,2,0.4,2.7,1.1   c0.2,0.1,0.3,0.4,0.2,0.6c0,0.4-0.4,0.7-0.8,0.6c-0.1,0-0.3-0.1-0.4-0.2c-0.5-0.5-1.2-0.8-1.9-0.9c-1.5-0.1-2.8,1-2.9,2.5v0.1l0,0   c-0.2,1.5,0.9,2.9,2.3,3.1h0.1c0.7,0.1,1.5-0.1,2.1-0.6c0.1-0.1,0.3-0.1,0.4-0.1c0.4,0,0.6,0.3,0.6,0.7c0,0.2-0.1,0.4-0.3,0.5   c-0.9,0.7-1.9,1-3,0.8c-2.2-0.2-3.9-2.1-3.8-4.3C42.9,94.6,42.9,94.5,42.9,94.5"></path>		<path class="rotate-3" d="M52.1,91.6c0-0.4,0.2-0.7,0.6-0.8c0.4,0,0.7,0.2,0.8,0.6l0,0l0.3,2.7l3.8-0.5l-0.3-2.7   c0-0.4,0.3-0.7,0.6-0.8c0.4,0,0.7,0.2,0.8,0.6l0.9,6.7c0,0.4-0.3,0.7-0.6,0.8c-0.4,0-0.7-0.2-0.8-0.6l-0.3-2.7L54,95.4l0.3,2.7   c0,0.4-0.2,0.7-0.6,0.8c-0.4,0-0.7-0.2-0.8-0.6l0,0L52.1,91.6z"></path>		<path class="rotate-3" d="M63.1,96.5l-2.2-6.3c-0.1-0.4,0.1-0.8,0.4-0.9l0,0l4.4-1.5c0.3-0.1,0.7,0.1,0.8,0.4   c0.1,0.3-0.1,0.7-0.4,0.8l0,0l-3.8,1.3l0.7,2l3.3-1.1c0.3-0.1,0.7,0.1,0.8,0.4c0.1,0.3-0.1,0.7-0.4,0.8l-3.3,1.1l0.7,2.1l3.8-1.3   c0.3-0.1,0.7,0.1,0.8,0.4c0.1,0.3-0.1,0.7-0.4,0.8l0,0L64,97C63.6,97.1,63.2,96.9,63.1,96.5L63.1,96.5"></path>		<path class="rotate-3" d="M69.4,90.7L69.4,90.7c-1.2-1.9-0.6-4.5,1.4-5.6l0.1-0.1c0.9-0.5,1.9-0.7,2.9-0.6   c0.2,0,0.4,0.2,0.5,0.4c0.2,0.3,0.1,0.8-0.3,1c-0.1,0.1-0.3,0.1-0.4,0.1c-0.7-0.1-1.4,0-2,0.3c-1.3,0.8-1.7,2.4-0.9,3.7   c0,0,0,0,0,0.1l0,0c0.7,1.3,2.3,1.9,3.7,1.2h0.1c0.7-0.4,1.1-1,1.4-1.7c0-0.1,0.2-0.3,0.3-0.4c0.3-0.2,0.7-0.1,0.9,0.2   c0.1,0.2,0.1,0.4,0.1,0.6c-0.3,1-1,1.9-2,2.4c-1.9,1.1-4.4,0.5-5.6-1.4C69.5,90.8,69.5,90.7,69.4,90.7"></path>		<path class="rotate-3" d="M75.4,83.1c-0.3-0.3-0.2-0.7,0.1-1c0.3-0.2,0.7-0.2,1,0.1l2.3,2.6l0.3-5.4   c0-0.2,0.1-0.4,0.3-0.6c0.3-0.2,0.7-0.2,0.9,0l0,0c0.1,0.2,0.2,0.4,0.2,0.6l-0.3,3.5l4.3,0.7c0.2,0,0.4,0.1,0.5,0.2   c0.3,0.3,0.2,0.7-0.1,1l0,0c-0.2,0.2-0.4,0.2-0.7,0.1L80,84.1l-0.1,1.8l1.1,1.2c0.3,0.3,0.2,0.7-0.1,1c-0.3,0.2-0.7,0.2-1-0.1   L75.4,83.1z"></path>		<path class="rotate-3" d="M83.8,80L83.8,80c-1.8-1.5-2.1-4.1-0.7-5.9c1.4-1.7,3.9-2.1,5.7-0.9l0,0   c1.8,1.5,2.1,4.1,0.7,5.9S85.6,81.3,83.8,80 M87.9,74.5L87.9,74.5c-1.2-1-3-0.8-3.9,0.4c0,0,0,0,0,0.1c-0.9,1.2-0.6,2.9,0.6,3.8   c0,0,0.1,0,0.1,0.1l0,0c1.2,1,2.9,0.8,3.9-0.4c0,0,0,0,0.1-0.1c0.9-1.2,0.7-2.9-0.6-3.8C88,74.5,87.9,74.5,87.9,74.5"></path>		<path class="rotate-3" d="M90.5,71.4l-3.7-1.6c-0.4-0.2-0.5-0.6-0.4-0.9c0.2-0.4,0.6-0.5,0.9-0.4l0,0L91,70   c0.9,0.6,2.1,0.3,2.7-0.6c0.1-0.1,0.1-0.2,0.2-0.4c0.5-1,0.1-2.1-0.8-2.6c-0.1-0.1-0.3-0.1-0.4-0.1L89,64.7   c-0.4-0.2-0.5-0.6-0.4-0.9c0.2-0.4,0.6-0.5,0.9-0.4l3.6,1.6c1.7,0.5,2.7,2.3,2.2,4c-0.1,0.2-0.2,0.4-0.3,0.6c-0.6,1.7-2.4,2.6-4,2   C90.8,71.6,90.6,71.5,90.5,71.4"></path>		<path class="rotate-3" d="M91.2,59.7l-0.4,1.9c-0.1,0.4-0.4,0.6-0.8,0.5s-0.6-0.4-0.5-0.8l0,0l1.1-5.2   c0.1-0.4,0.4-0.6,0.8-0.5s0.6,0.4,0.5,0.8l-0.4,1.9l6,1.3c0.4,0.1,0.6,0.5,0.5,0.9s-0.5,0.6-0.8,0.5L91.2,59.7z"></path>	</g>	<g>		<path class="rotate-3" d="M45.8,39.4c0-2.4,1.9-4.4,4.2-4.4c2.4,0,4.4,1.9,4.4,4.2c0,0.1,0,0.1,0,0.2v4.5h7.3v-4.2   c-0.1-6.4-5.3-11.6-11.7-11.5c-6.3,0.1-11.4,5.2-11.5,11.5v4.2h7.3V39.4z"></path>		<path class="rotate-3" d="M36.7,71.7h26.8c1.9,0,3.4-1.5,3.4-3.4l0,0V48.8c0-1.9-1.5-3.4-3.4-3.4l0,0H36.7   c-1.9,0-3.4,1.5-3.4,3.4l0,0v19.5C33.3,70.2,34.8,71.7,36.7,71.7L36.7,71.7 M47.6,56.4c0-1.4,1.1-2.5,2.5-2.5s2.5,1.1,2.5,2.5l0,0   v4.7c0,1.4-1.1,2.5-2.5,2.5s-2.5-1.1-2.5-2.5V56.4z"></path>	</g></g></svg>