<svg xmlns="http://www.w3.org/2000/svg" xmlns:xlink="http://www.w3.org/1999/xlink" x="0px" y="0px" viewBox="0 0 100 100" style="enable-background:new 0 0 100 100;" xml:space="preserve"><style type="text/css">	.rotate-0{fill:currentcolor;}</style><g>	<g class="text-rotate-style">		<path class="rotate-0" d="M15.7,80.1L15.7,80.1c-0.7,0.6-1.8,0.5-2.4-0.3c-0.5-0.7-0.4-1.7,0.2-2.3l0,0   c0.7-0.6,1.8-0.4,2.3,0.3C16.5,78.5,16.4,79.5,15.7,80.1"></path>		<path class="rotate-0" d="M9.8,71.6L9.8,71.6C9,72,8,71.7,7.6,70.8C7.1,70,7.5,69,8.3,68.6l0,0   c0.8-0.4,1.8-0.1,2.2,0.8C10.9,70.2,10.6,71.2,9.8,71.6"></path>		<path class="rotate-0" d="M5.9,62L5.9,62c-0.9,0.2-1.8-0.3-2-1.2c-0.2-0.9,0.3-1.8,1.2-2l0,0l0,0   c0.9-0.2,1.8,0.3,2,1.2C7.4,60.9,6.8,61.7,5.9,62L5.9,62"></path>		<path class="rotate-0" d="M4.4,51.8L4.4,51.8c-0.9,0-1.7-0.8-1.7-1.7s0.7-1.6,1.6-1.6l0,0c0.9,0,1.7,0.8,1.7,1.7   C6,51,5.3,51.7,4.4,51.8"></path>		<path class="rotate-0" d="M5.1,41.4L5.1,41.4c-0.9-0.2-1.5-1.1-1.3-2s1.1-1.5,2-1.3l0,0c0.9,0.2,1.5,1.1,1.3,2   C6.9,41,6,41.6,5.1,41.4L5.1,41.4"></path>		<path class="rotate-0" d="M8.2,31.4L8.2,31.4C7.3,31,7,30,7.4,29.2s1.4-1.2,2.2-0.8l0,0c0.8,0.4,1.2,1.4,0.8,2.2   C10,31.5,9,31.8,8.2,31.4"></path>		<path class="rotate-0" d="M10.7,20.4c-0.3-0.3-0.4-0.7-0.1-1l0,0l3.1-3.7c0.2-0.3,0.6-0.4,0.9-0.1   c0.3,0.2,0.4,0.6,0.1,0.9c0,0,0,0-0.1,0.1L12,19.7l1.7,1.5l2.3-2.7c0.2-0.3,0.6-0.4,0.9-0.1c0.3,0.2,0.4,0.6,0.1,0.9   c0,0,0,0-0.1,0.1l-2.3,2.7l2.1,1.7c0.3,0.3,0.3,0.7,0.1,1c-0.3,0.3-0.7,0.3-1,0.1L10.7,20.4z"></path>		<path class="rotate-0" d="M16.8,13.7c-0.3-0.3-0.2-0.8,0.1-1l0,0l2.3-1.8c0.6-0.6,1.5-0.9,2.4-0.8   c0.7,0.1,1.2,0.4,1.6,1l0,0c0.8,0.9,0.8,2.2,0.1,3.1l2.5,0.6c0.2,0,0.4,0.1,0.5,0.3c0.2,0.3,0.2,0.7-0.1,1l0,0   c-0.2,0.2-0.5,0.2-0.8,0.1l-3.2-0.7l-1.4,1.1l1.4,1.7c0.3,0.3,0.2,0.8-0.1,1c-0.3,0.3-0.8,0.2-1-0.1L16.8,13.7z M21.6,14.1   c0.7-0.4,0.9-1.3,0.6-2c0-0.1-0.1-0.1-0.1-0.2l0,0c-0.6-0.7-1.4-0.7-2.2,0l-1.6,1.3l1.7,2.2L21.6,14.1z"></path>		<path class="rotate-0" d="M27.9,13.8l-3.1-6c-0.2-0.3-0.1-0.8,0.3-1l0,0l4.2-2.2c0.3-0.2,0.7,0,0.9,0.3   c0.2,0.3,0,0.7-0.3,0.9l0,0l-3.6,1.9l1,1.9L30.4,8c0.3-0.2,0.7,0,0.9,0.3c0.2,0.3,0,0.7-0.3,0.9l-3.1,1.6l1,2l3.7-1.9   c0.3-0.2,0.7,0,0.9,0.3s0,0.7-0.3,0.9l0,0l-4.3,2.3C28.5,14.3,28.1,14.1,27.9,13.8L27.9,13.8"></path>		<path class="rotate-0" d="M35,10.3l-2-6.5c0-0.4,0.2-0.8,0.5-0.9l0,0l4.6-1.4c0.3-0.1,0.7,0.1,0.8,0.4   s-0.1,0.7-0.4,0.8l0,0l-3.9,1.2L35.2,6l3.4-1c0.4-0.2,0.7,0,0.8,0.4c0.1,0.3-0.1,0.7-0.4,0.8l-3.4,1l0.6,2.1l4-1.2   C40.6,8,40.9,8.2,41,8.6c0.1,0.3-0.1,0.7-0.4,0.8l0,0L36,10.8C35.6,10.9,35.2,10.7,35,10.3L35,10.3"></path>		<path class="rotate-0" d="M51.9,8.2L51,7.4c-0.7,0.7-1.6,1.1-2.5,1.1c-1.3,0.2-2.5-0.8-2.7-2.1c0-0.1,0-0.1,0-0.2l0,0   c0-1.1,0.7-2,1.7-2.3c-0.4-0.5-0.7-1.1-0.7-1.7l0,0c0-1.2,1-2.1,2.2-2.1h0.1c1.1-0.1,2.1,0.7,2.2,1.8V2l0,0c0,1.1-0.7,1.7-1.8,2.2   L51,5.6c0.2-0.4,0.5-0.8,0.7-1.2C51.8,4.2,52,4,52.2,4c0.3,0,0.6,0.3,0.6,0.6c0,0.1,0,0.2-0.1,0.3c-0.3,0.5-0.6,1-0.9,1.5l0.9,0.9   C52.9,7.4,53,7.6,53,7.8c0,0.3-0.3,0.6-0.6,0.7l0,0C52.2,8.5,52,8.4,51.9,8.2 M50.2,6.6l-1.9-1.8c-0.6,0.2-1,0.7-1.1,1.4l0,0   c0,0.7,0.6,1.2,1.3,1.2h0.1C49.2,7.3,49.8,7,50.2,6.6 M50,2.1L50,2.1c0-0.5-0.4-0.9-0.9-0.9H49c-0.5,0-1,0.4-1,0.9v0.1l0,0   c0,0.5,0.3,0.9,0.6,1.2C49.6,3.1,50.1,2.7,50,2.1"></path>		<path class="rotate-0" d="M58.3,8.4l1.8-6.5c0.1-0.4,0.5-0.6,0.9-0.5l0,0l4.6,1.3c0.4,0,0.6,0.3,0.5,0.7   c-0.1,0.3-0.4,0.5-0.8,0.5l0,0l-3.9-1.1l-0.6,2.1l3.4,0.9c0.3,0.1,0.5,0.5,0.5,0.8c-0.1,0.3-0.5,0.5-0.8,0.4l-3.4-0.9l-0.6,2.1   l4,1.1c0.3,0.1,0.5,0.4,0.5,0.8c-0.1,0.3-0.4,0.5-0.8,0.5l0,0l-4.7-1.3C58.4,9.2,58.2,8.8,58.3,8.4L58.3,8.4"></path>		<path class="rotate-0" d="M65.7,10.3l5.8-4.7c0.3-0.3,0.7-0.3,1-0.1h0.1C73,5.6,73.2,6,73.1,6.4l-0.4,7.5   c0,0.1,0,0.2-0.1,0.3c-0.2,0.3-0.6,0.5-0.9,0.3l0,0c-0.3-0.1-0.4-0.5-0.4-0.8l0.1-1.7l-3.6-1.8l-1.3,1.1c-0.2,0.2-0.5,0.2-0.8,0.1   c-0.3-0.2-0.5-0.6-0.3-0.9l0,0C65.5,10.4,65.6,10.3,65.7,10.3 M71.6,10.6L71.8,7L69,9.3L71.6,10.6z"></path>		<path class="rotate-0" d="M74.1,14.8c-0.1-0.4,0.1-0.7,0.5-0.8s0.7,0.1,0.8,0.5c0.2,0.8,0.6,1.6,1.3,2.1   c0.7,0.6,1.4,0.6,1.8,0.1l0,0c0.4-0.5,0.3-0.9-0.7-2.1c-1.1-1.4-1.6-2.4-0.6-3.6l0,0c0.9-1,2.5-1.2,3.6-0.2l0.1,0.1   c0.7,0.6,1.3,1.3,1.6,2.2c0.1,0.2,0,0.5-0.1,0.6c-0.2,0.3-0.7,0.3-0.9,0.1l0,0c-0.1-0.1-0.2-0.2-0.2-0.3c-0.2-0.7-0.6-1.2-1.1-1.7   c-0.7-0.5-1.3-0.5-1.7-0.1l0,0c-0.4,0.5-0.3,1,0.7,2.2c1.1,1.4,1.4,2.5,0.6,3.5l0,0c-0.9,1.1-2.5,1.2-3.6,0.3   c-0.1-0.1-0.2-0.1-0.2-0.2C75,16.9,74.3,15.9,74.1,14.8"></path>		<path class="rotate-0" d="M83.3,20.1l1.1-4.7c0-0.2,0.1-0.3,0.3-0.5c0.3-0.3,0.7-0.2,1,0.1l0,0   c0.2,0.2,0.2,0.5,0.1,0.8l-1,3.9l4-0.4c0.3-0.1,0.6,0,0.8,0.2c0.3,0.3,0.2,0.7,0,1l0,0c-0.1,0.1-0.3,0.2-0.5,0.2l-4.7,0.4   l-1.9,1.7c-0.3,0.3-0.8,0.2-1-0.1c-0.2-0.3-0.2-0.7,0.1-1L83.3,20.1z"></path>		<path class="rotate-0" d="M90.2,28.2L90.2,28.2c0.9-0.4,1.8,0,2.2,0.8c0.4,0.8,0.1,1.8-0.7,2.2l0,0   c-0.8,0.4-1.8,0.1-2.2-0.8C89,29.6,89.4,28.6,90.2,28.2"></path>		<path class="rotate-0" d="M94.1,37.9L94.1,37.9c0.9-0.2,1.8,0.4,2,1.3c0.2,0.9-0.4,1.7-1.2,2l0,0   c-0.9,0.2-1.8-0.4-2-1.3C92.6,39,93.2,38.1,94.1,37.9"></path>		<path class="rotate-0" d="M95.6,48L95.6,48c0.9,0,1.7,0.7,1.7,1.6c0,0.9-0.7,1.7-1.6,1.7l0,0l0,0   c-0.9,0-1.7-0.8-1.7-1.7C94,48.8,94.7,48.1,95.6,48"></path>		<path class="rotate-0" d="M94.8,58.5L94.8,58.5c0.9,0.2,1.5,1.1,1.3,2s-1.1,1.5-2,1.3l0,0c-0.9-0.2-1.5-1.1-1.3-2   C93.1,58.8,94,58.3,94.8,58.5L94.8,58.5"></path>		<path class="rotate-0" d="M91.8,68.4L91.8,68.4c0.8,0.4,1.2,1.4,0.8,2.2c-0.4,0.8-1.4,1.2-2.2,0.8l0,0l0,0   c-0.8-0.4-1.2-1.4-0.8-2.2C89.9,68.3,90.9,68,91.8,68.4"></path>		<path class="rotate-0" d="M86.5,77.3L86.5,77.3c0.7,0.6,0.8,1.7,0.2,2.4c-0.6,0.7-1.6,0.8-2.3,0.2l0,0   c-0.7-0.6-0.8-1.6-0.2-2.3C84.8,76.9,85.8,76.8,86.5,77.3"></path>		<path class="rotate-0" d="M23.4,83.2c0.2-0.3,0.7-0.4,1-0.2l0,0l2.4,1.7c0.7,0.5,1.3,1.2,1.5,2   c0.1,0.7-0.1,1.3-0.4,1.8l0,0c-0.6,1-1.8,1.4-2.9,1l0.2,2.5c0,0.2,0,0.4-0.1,0.6c-0.2,0.3-0.6,0.4-1,0.2c-0.2-0.2-0.4-0.4-0.4-0.7   l-0.2-3.2l-1.5-1l-1.2,1.8c-0.2,0.3-0.7,0.4-1,0.2c-0.3-0.2-0.4-0.7-0.2-1L23.4,83.2z M24.4,87.9c0.6,0.6,1.5,0.5,2.1,0l0.1-0.1   l0,0c0.5-0.7,0.2-1.5-0.6-2.1l-1.7-1.2l-1.6,2.3L24.4,87.9z"></path>		<path class="rotate-0" d="M28,94.1l2.7-6.2c0.2-0.4,0.6-0.5,0.9-0.4l0,0l4.4,1.9c0.3,0.1,0.5,0.5,0.3,0.8   c-0.1,0.3-0.5,0.5-0.8,0.3l0,0l-3.7-1.6l-0.8,2l3.3,1.4c0.3,0.1,0.5,0.5,0.3,0.9c-0.1,0.3-0.5,0.5-0.8,0.3l0,0l-3.3-1.4l-0.9,2   l3.8,1.6c0.3,0.1,0.5,0.5,0.3,0.8c-0.1,0.3-0.5,0.5-0.8,0.3l0,0L28.4,95C28,94.9,27.9,94.5,28,94.1L28,94.1"></path>		<path class="rotate-0" d="M40.1,91.8l-2-0.4c-0.4-0.1-0.6-0.4-0.5-0.8s0.4-0.6,0.8-0.5l5.3,1.2   c0.4,0.1,0.6,0.5,0.5,0.8s-0.4,0.6-0.8,0.5l-2-0.4l-1.3,6.1c-0.1,0.4-0.5,0.6-0.9,0.6c-0.4-0.1-0.6-0.5-0.6-0.9L40.1,91.8z"></path>		<path class="rotate-0" d="M45.6,96.3l0.1-4.1c0-0.4,0.3-0.7,0.7-0.7s0.7,0.3,0.7,0.7l-0.1,4c0,1.5,0.7,2.4,2,2.4   s2.1-0.7,2.1-2.2l0.1-4.1c0-0.4,0.3-0.7,0.7-0.7s0.7,0.3,0.7,0.7l0,0l-0.1,4c0.2,1.8-1.1,3.4-2.9,3.6c-0.2,0-0.5,0-0.7,0   c-1.8,0.1-3.3-1.2-3.5-3C45.6,96.7,45.6,96.5,45.6,96.3"></path>		<path class="rotate-0" d="M54.9,92.2c-0.1-0.4,0.2-0.8,0.6-0.8l0,0l2.9-0.6c0.8-0.2,1.7-0.1,2.5,0.4   c0.5,0.4,0.9,1,1,1.6l0,0c0.3,1.1-0.3,2.3-1.4,2.8l1.9,1.7c0.2,0.1,0.3,0.3,0.3,0.5c0.1,0.4-0.2,0.7-0.6,0.8l0,0   c-0.3,0.1-0.6,0-0.8-0.2L59,96.1l-1.8,0.3l0.4,2.2c0.1,0.4-0.2,0.8-0.6,0.8c-0.4,0.1-0.7-0.2-0.8-0.6L54.9,92.2z M59,94.8   c1-0.2,1.6-0.8,1.4-1.7l0,0c-0.2-0.9-0.9-1.2-1.9-1l-2.1,0.4l0.5,2.7L59,94.8z"></path>		<path class="rotate-0" d="M63.3,90.3c-0.2-0.4,0-0.8,0.4-1l0,0l0.1-0.1c0.3-0.1,0.6-0.1,0.9,0.1l5.9,3.3l-2-4.7   c-0.2-0.4,0-0.8,0.4-0.9c0.4-0.2,0.8,0,0.9,0.4l2.7,6.4c0.2,0.4,0,0.8-0.4,0.9l0,0h-0.1c-0.3,0.1-0.6,0.1-0.9-0.1l-6.1-3.4   l2.1,4.8c0.2,0.4,0,0.8-0.4,0.9c-0.4,0.2-0.8,0-0.9-0.4L63.3,90.3z"></path>		<path class="rotate-0" d="M75.5,91.9c-0.4,0-0.7-0.4-0.6-0.7c0-0.4,0.3-0.6,0.7-0.6c0.8,0.1,1.7-0.1,2.4-0.6   c0.7-0.5,1-1.2,0.6-1.7l0,0c-0.3-0.5-0.8-0.6-2.2,0c-1.7,0.7-2.8,0.8-3.7-0.5l0,0c-0.7-1.2-0.4-2.7,0.8-3.5c0.1,0,0.1-0.1,0.2-0.1   c0.8-0.5,1.7-0.8,2.6-0.9c0.2,0,0.5,0.1,0.6,0.3c0.2,0.3,0.1,0.7-0.2,0.9l0,0c-0.1,0.1-0.2,0.1-0.4,0.1c-0.7,0-1.3,0.2-1.9,0.6   c-0.7,0.5-0.9,1.1-0.5,1.6l0,0c0.4,0.5,0.8,0.5,2.4-0.1c1.7-0.6,2.8-0.6,3.5,0.5l0,0c0.8,1.2,0.4,2.8-0.8,3.5   c-0.1,0.1-0.2,0.1-0.3,0.2C77.7,91.6,76.6,92,75.5,91.9"></path>	</g>	<g>		<path class="rotate-0" d="M57.3,21.7c-0.6-0.1-1.1,0.2-1.2,0.8c-0.1,0.5,0.2,1.1,0.7,1.2c6.4,1.8,11.9,5.9,15.4,11.4   S77,47.3,76,53.7c-1.1,6.4-4.4,12.2-9.5,16.2c-5,4-11.3,6-17.7,5.6c-13-0.7-23.4-11.1-24-24.1c-0.6-12.2,7.7-23,19.7-25.6V28   c0,0.6,0.5,1,1,1c0.3,0,0.5-0.1,0.7-0.3l6.2-6.2c0.4-0.4,0.4-1.1,0-1.5l0,0l-6.2-6.2c-0.4-0.4-1.1-0.4-1.5,0   c-0.2,0.2-0.3,0.5-0.3,0.7v3.2c-11.5,2.2-20.8,10.6-24.2,21.8c-3.3,11.1-0.1,23.1,8.2,31.1C39.8,82.3,57.2,82.9,69,72.9   c12.5-10.4,14.2-29,3.8-41.5C68.8,26.6,63.4,23.2,57.3,21.7"></path>		<path class="rotate-0" d="M57.8,44.5l5.7-3.3L50.9,34c-0.6-0.3-1.3-0.3-1.9,0l-4.7,2.7L57.8,44.5z"></path>		<path class="rotate-0" d="M48.9,50.8L35.4,43v14.5c0,0.7,0.4,1.3,0.9,1.6l12.5,7.2L48.9,50.8L48.9,50.8z"></path>		<path class="rotate-0" d="M64.5,43l-5.7,3.3v5.9c0,0.6-0.5,1-1,1c-0.6,0-1-0.5-1-1v-4.7L51,50.8v15.6l12.5-7.2   c0.6-0.3,0.9-1,0.9-1.6L64.5,43z"></path>		<path class="rotate-0" d="M50,49l5.7-3.3l-13.5-7.8l-5.7,3.3L50,49z"></path>	</g></g></svg>