<svg xmlns="http://www.w3.org/2000/svg" xmlns:xlink="http://www.w3.org/1999/xlink" x="0px" y="0px" viewBox="0 0 51.6 51.8" style="enable-background:new 0 0 51.6 51.8;" xml:space="preserve"><style type="text/css">	.sevice-icon0{clip-path:url(#Service_2);}	.sevice-icon1{fill:currentcolor;}</style><g transform="translate(14.4 14.347)">	<g>		<defs>			<rect id="Service_1" x="-14.5" y="-14.2" width="51.6" height="51.6"></rect>		</defs>		<clipPath id="Service_2">			<use xlink:href="#Service_1" style="overflow:visible;"></use>		</clipPath>		<g transform="translate(0 0)" class="sevice-icon0">			<path class="sevice-icon1" d="M-1.5,9.6c4.6,0.4,8.6-3,9-7.6c0,0,0-0.1,0-0.1c0-0.2,0.2-0.4,0.4-0.5    C9.8,1,11.4,0,12.5-1.5c0.1-0.1,0.3-0.2,0.4-0.2h0h0.1h8.1c2.7,0,5.1-1.9,5.8-4.5c0.1-0.2,0.3-0.4,0.5-0.4c0,0,0,0,0.1,0    c0.1,0,0.1,0,0.2,0h0h8.1c0.6,0,1.1-0.5,1.1-1.1s-0.5-1.1-1.1-1.1h-8.1h0c-0.1,0-0.1,0-0.2,0c0,0,0,0-0.1,0    c-0.2,0-0.5-0.2-0.5-0.4c-0.7-2.6-3-4.5-5.8-4.5h-34c-0.6,0-1.1,0.5-1.1,1.1v13c0,0.6,0.5,1.1,1.1,1.1h1.6c0.3,0,0.5,0.2,0.5,0.5    l0,0v17.9c0,0.3-0.2,0.5-0.5,0.5c-1.5,0.1-2.7,1.4-2.7,2.9v4.4c0,1.6,1.3,2.9,2.9,2.9H6.3c1.6,0,2.9-1.3,2.9-2.9v-4.4    c0-1.6-1.3-2.9-2.9-2.9H-8.1c-0.3,0-0.5-0.2-0.5-0.5V2c0-0.3,0.2-0.5,0.5-0.5c0,0,0,0,0,0h5.6c0.3,0,0.5,0.2,0.5,0.5    c0,0.1,0,0.2-0.1,0.3c-1.5,2-2.3,4.3-2.3,6.8c0,3.1,1.3,6.1,3.6,8.3c0.4,0.4,1.1,0.4,1.5,0c0.4-0.4,0.4-1.1,0-1.5    c-1.5-1.5-2.5-3.5-2.8-5.7C-2,9.9-1.8,9.7-1.5,9.6C-1.5,9.6-1.5,9.6-1.5,9.6 M14.1-6.1v-4.9c0-0.3,0.2-0.5,0.5-0.5h6.5    c2.1,0,3.7,1.8,3.7,3.9c0,2-1.7,3.6-3.7,3.7h-6.6c-0.3,0-0.5-0.2-0.5-0.5c0,0,0-0.1,0-0.1C14-5,14.1-5.6,14.1-6.1 M-1.3,7.4    L-1.3,7.4c-0.3,0-0.5-0.2-0.5-0.5c0,0,0-0.1,0-0.1C-1.2,4.7,0,3,1.6,1.6C1.7,1.6,1.9,1.5,2,1.5h2.8c0.3,0,0.5,0.2,0.5,0.5    c0,0,0,0.1,0,0.1C4.9,4.5,3.4,7.3-1.3,7.4 M6.3,22.6c0.4,0,0.7,0.3,0.7,0.7l0,0v4.4c0,0.4-0.3,0.7-0.7,0.7h-17.4    c-0.4,0-0.7-0.3-0.7-0.7v-4.4c0-0.4,0.3-0.7,0.7-0.7H6.3z M-11.3-0.7c-0.3,0-0.5-0.2-0.5-0.5c0,0,0,0,0,0v-9.7    c0-0.3,0.2-0.5,0.5-0.5l0,0h22.7c0.3,0,0.5,0.2,0.5,0.5l0,0v4.9c0,3-2.4,5.4-5.4,5.4L-11.3-0.7z"></path>			<path class="sevice-icon1" d="M-6.5-7.1c-0.6,0-1.1,0.5-1.1,1.1S-7.1-5-6.5-5s1.1-0.5,1.1-1.1l0,0    C-5.4-6.7-5.9-7.1-6.5-7.1"></path>			<path class="sevice-icon1" d="M-2.1-7.1c-0.6,0-1.1,0.5-1.1,1.1S-2.7-5-2.1-5C-1.5-5-1-5.5-1-6.1v0    C-1-6.7-1.5-7.1-2.1-7.1"></path>			<path class="sevice-icon1" d="M17.9,30.7h14.6c2.4,0,4.3-1.9,4.3-4.3c0-2.4-1.9-4.3-4.3-4.3H13c-0.6,0-1.1,0.5-1,1.1    c0,0.6,0.5,1,1,1h19.5c1.2,0,2.2,1,2.2,2.2c0,1.2-1,2.2-2.2,2.2H17.9c-2.4,0-4.4,1.9-4.4,4.2c0,2.4,1.9,4.4,4.2,4.4    c0.1,0,0.1,0,0.2,0h17.8c0.6,0,1.1-0.5,1.1-1.1c0-0.6-0.5-1.1-1.1-1.1H17.9c-1.2,0-2.2-1-2.2-2.2C15.7,31.7,16.7,30.7,17.9,30.7"></path>		</g>	</g></g></svg>