<svg xmlns="http://www.w3.org/2000/svg" width="34.827" height="43.992" viewBox="0 0 34.827 43.992"><g data-name="Group 127922" transform="translate(0.01)"><g data-name="Group 127925" transform="translate(0.445 0)"><path data-name="Path 177751" d="M9.165,18.33A5.5,5.5,0,1,1,13.816,9.9H18.33V3.666A3.666,3.666,0,0,0,14.664,0h-11A3.666,3.666,0,0,0,0,3.666v36.66a3.666,3.666,0,0,0,3.666,3.666h11a3.666,3.666,0,0,0,3.666-3.666V15.764H13.816A5.494,5.494,0,0,1,9.165,18.33m1.466,13.537V35.9a.755.755,0,0,1-.755.755H8.453A.755.755,0,0,1,7.7,35.9V31.867a2.933,2.933,0,1,1,2.933,0" transform="translate(-0.455 0)" fill="#595959"></path><path data-name="Path 177752" d="M103.228,126.466H81.6a3.666,3.666,0,1,0,0,4.4h21.629a1.1,1.1,0,0,0,1.1-1.1v-2.2a1.1,1.1,0,0,0-1.1-1.1" transform="translate(-69.956 -115.835)" fill="#595959"></path></g></g></svg>