<svg xmlns="http://www.w3.org/2000/svg" width="41.224" height="33.979" viewBox="0 0 41.224 33.979"><g transform="translate(-29.773 -35.789)"><path data-name="Path 177756" d="M57.1,67.271h7.829a.6.6,0,0,0,.6-.6V48.6a.6.6,0,0,0-.6-.6H57.1a.6.6,0,0,0-.6.6V66.669A.6.6,0,0,0,57.1,67.271ZM64.329,49.2V66.067H57.7V51.914h3.312a.6.6,0,0,0,0-1.2H57.7V49.2Z" transform="translate(-10.631 -4.857)" fill="#fff"></path><path data-name="Path 177757" d="M66.782,35.789H33.989A4.221,4.221,0,0,0,29.773,40V65.552a4.221,4.221,0,0,0,4.216,4.216H66.781A4.221,4.221,0,0,0,71,65.552V40A4.22,4.22,0,0,0,66.782,35.789Zm3.011,29.763a3.015,3.015,0,0,1-3.011,3.011H33.989a3.015,3.015,0,0,1-3.011-3.011V40a3.015,3.015,0,0,1,3.011-3.011H66.781A3.015,3.015,0,0,1,69.793,40V65.552Z" fill="#fff"></path><path data-name="Path 177758" d="M68.859,41.729H37.891a.6.6,0,0,0-.6.6v25.62a.6.6,0,0,0,.6.6H68.859a.6.6,0,0,0,.6-.6V42.331A.6.6,0,0,0,68.859,41.729Zm-.6,25.62H38.493V42.933H68.257Z" transform="translate(-2.99 -2.363)" fill="#fff"></path></g></svg>