<svg xmlns="http://www.w3.org/2000/svg" xmlns:xlink="http://www.w3.org/1999/xlink" width="32.667" height="45.129" viewBox="0 0 32.667 45.129"><defs><clipPath><rect data-name="Rectangle 40084" width="32.667" height="45.129" transform="translate(0 0)" fill="none"></rect></clipPath></defs><g data-name="Group 127927" transform="translate(0 -0.005)"><g data-name="Group 127926" transform="translate(0 0.005)" clip-path="url(#clip-path)"><path data-name="Path 177753" d="M32.667,43.464V44.6a.524.524,0,0,1-.531.531H10.18a.529.529,0,0,1-.531-.531V43.464a.536.536,0,0,1,.531-.531h8.381V30.574a.321.321,0,0,1,.318-.318h.792V12.219c0-4.509-1.95-7.348-4.47-8.554a6.9,6.9,0,0,0-3.1-.7A7.181,7.181,0,0,0,8.973,3.7C6.347,4.968,4.28,7.942,4.28,12.625v3.437a.613.613,0,0,1,.6.541c.126,1.033.241,2.076.357,3.109s.231,2.076.348,3.109c.039.3-.28.541-.7.541H.7c-.415,0-.734-.241-.7-.541.116-1.033.231-2.067.347-3.109S.592,17.636.708,16.6a.614.614,0,0,1,.6-.541V12.625c0-5.986,2.81-9.868,6.382-11.6a10.217,10.217,0,0,1,4.4-1.023A9.962,9.962,0,0,1,16.485.99c3.466,1.67,6.16,5.407,6.16,11.229V30.256h.792a.315.315,0,0,1,.318.318v2.9h-1.11c-1.719,0-2.385,2.182-2.385,3.582s.666,3.583,2.385,3.583h1.11v2.3h8.381a.53.53,0,0,1,.531.531" transform="translate(0 -0.005)" fill="#474747"></path><path data-name="Path 177754" d="M510.313,671.568c0,1.564-.734,2.829-1.641,2.829H502.9a1.421,1.421,0,0,1-1.161-.828,4.061,4.061,0,0,1-.48-2c0-1.564.734-2.829,1.642-2.829h4.074V662.57a.293.293,0,0,1,.29-.3h.926a.3.3,0,0,1,.289.3v6.169h.194c.908,0,1.641,1.265,1.641,2.829" transform="translate(-480.253 -634.521)" fill="#474747" fill-rule="evenodd"></path></g></g></svg>