<svg xmlns="http://www.w3.org/2000/svg" xmlns:xlink="http://www.w3.org/1999/xlink" x="0px" y="0px" viewBox="0 0 81.8 81.7" style="enable-background:new 0 0 81.8 81.7;" xml:space="preserve"><style type="text/css">	.tag1{fill:currentColor;}</style><g transform="translate(709.251 3608.531)">		<g class="st0">			<path class="tag1" d="M-700.5-3587.8c-3.5-2.1-5.9-5.6-6.5-9.7c-0.4-2.4,0.4-4.9,2.1-6.7    c1.8-1.7,4.3-2.4,6.7-2.1c4,0.6,7.6,3,9.7,6.5c2.2,3.2,3.8,6.7,4.9,10.4c0.5,1.9,0.8,4.6-0.5,5.9l0,0c-0.5,0.4-1,0.7-1.6,0.8    c0.1,0.8,0.6,1.6,1.4,1.8c0.6-0.2,1.2-0.6,1.7-1.1c3.4-3.4,0.9-11.3-4.1-19c-4.8-7.5-14.2-10.1-19.8-4.8    c-5.3,5.6-2.6,15,4.8,19.8c2,1.3,4,2.4,6.1,3.4l0.2-2.3C-697.1-3585.8-698.8-3586.8-700.5-3587.8"></path>			<path class="tag1" d="M-628.3-3556.6l-37.3-37.3c-0.6-0.6-1.4-0.9-2.2-0.8l-13.3,1.2c0.4,1.1,0.8,2.2,1.1,3.3    c0.6,2.1,0.7,4.4,0.1,6.6c0.4,2-0.9,3.9-2.9,4.3c-2,0.4-3.9-0.9-4.3-2.9c-0.4-1.8,0.7-3.6,2.5-4.2c0-0.9-0.1-1.8-0.4-2.6    c-0.4-1.4-0.8-2.8-1.4-4.1l-4.6,0.4c-1.1,0.1-2.1,1-2.1,2.1l-2.2,23.3c-0.1,0.8,0.2,1.6,0.8,2.2l37.3,37.3c1,1,2.6,1.1,3.7,0.1    l25.5-25.5C-627.2-3554-627.3-3555.6-628.3-3556.6 M-648.9-3543.8l-3.2-3.2c-1.9,1.4-4.1,2.3-6.5,2.6l-1.1,0.1l-1.7-6l1.6-0.2    c2.1-0.2,4-1.2,5.4-2.7c0.9-0.8,1.4-1.8,1.6-2.9c0.1-0.8-0.1-1.6-0.7-2.1c-1.2-1.2-3.8-0.5-5.8,0.3c-5.9,2.4-10.2,2.3-12.8-0.3    c-1.5-1.4-2.4-3.4-2.4-5.5c-0.1-1.8,0.4-3.6,1.3-5.2l-3.5-3.5l4.5-4.5l3.4,3.4c1.6-1,3.4-1.8,5.3-2.4l1.4-0.4l1.6,6.5l-1.6,0.1    c-1.8,0.2-3.4,1.1-4.6,2.5c-0.7,0.6-1.2,1.5-1.4,2.4c-0.1,0.6,0.1,1.3,0.5,1.7c0.3,0.3,1.4,0.9,5.9-0.8c2.3-1,4.8-1.6,7.4-1.6    c2.1,0.1,4,1,5.5,2.5c1.5,1.5,2.4,3.5,2.5,5.6c0.1,1.9-0.3,3.8-1.3,5.5l3.4,3.4L-648.9-3543.8z"></path>		</g></g></svg>