<svg xmlns="http://www.w3.org/2000/svg" xmlns:xlink="http://www.w3.org/1999/xlink" x="0px" y="0px" viewBox="0 0 100 100" style="enable-background:new 0 0 100 100;" xml:space="preserve"><g>	<path d="M16.4,71.1c-0.4,0-0.8-0.4-0.8-0.8l0,0V26.5c0-1.8,1.4-3.2,3.2-3.2h61.3c1.8,0,3.2,1.4,3.2,3.2v33.3c0,0.4-0.4,0.8-0.8,0.8  s-0.8-0.4-0.8-0.8V26.5c0-0.9-0.7-1.6-1.6-1.6l0,0H18.8c-0.9,0-1.6,0.7-1.6,1.6v43.8C17.2,70.7,16.8,71.1,16.4,71.1L16.4,71.1"></path>	<path d="M11.4,71.1c-0.4,0-0.8-0.4-0.8-0.8l0,0V24.5c0-3.5,2.8-6.4,6.3-6.4H82c3.4,0,6.2,2.9,6.2,6.4v36.3c0,0.4-0.4,0.8-0.8,0.8  s-0.8-0.4-0.8-0.8V24.5c0-2.6-2.1-4.7-4.7-4.8h-65c-2.6,0-4.7,2.2-4.7,4.8v45.7C12.2,70.7,11.9,71.1,11.4,71.1L11.4,71.1"></path>	<path d="M74.5,80.7h-63c-2.9,0-5.3-2.4-5.3-5.3v-5.1c0-0.4,0.4-0.8,0.8-0.8l0,0h18.8c3.6,0,7.2,0.5,10.7,1.4  c2.6,0.7,8,0.8,12.8,0.8s10.2-0.1,12.8-0.8c3.1-0.8,6.3-1.3,9.5-1.4c0.4,0,0.8,0.3,0.8,0.8c0,0.4-0.3,0.8-0.8,0.8  c-3.1,0.1-6.1,0.5-9.1,1.3c-2.8,0.7-8,0.8-13.2,0.8s-10.4-0.1-13.1-0.8c-3.4-0.9-6.9-1.3-10.4-1.3h-18v4.3c0,2.1,1.7,3.7,3.7,3.7  h63c0.4,0,0.8,0.4,0.8,0.8C75.3,80.3,75,80.7,74.5,80.7"></path>	<path d="M52.3,76.8h-5.8c-0.4,0-0.8-0.4-0.8-0.8c0-0.4,0.4-0.8,0.8-0.8h5.8c0.4,0,0.8,0.4,0.8,0.8C53.1,76.4,52.7,76.8,52.3,76.8"></path>	<path d="M63.1,62.3H35.7c-0.4,0-0.8-0.4-0.8-0.8v-22c0-0.4,0.4-0.8,0.8-0.8h27.4c0.4,0,0.8,0.4,0.8,0.8v22  C63.9,61.9,63.6,62.3,63.1,62.3 M36.5,60.7h25.9V40.3H36.5V60.7z"></path>	<path d="M63.1,40.3c-0.3,0-0.6-0.2-0.7-0.4L59,33.7H39.8l-3.4,6.2c-0.2,0.3-0.7,0.5-1.1,0.3c-0.4-0.2-0.5-0.7-0.3-1.1l0,0l3.7-6.6  c0.1-0.3,0.4-0.4,0.7-0.4h20.1c0.3,0,0.6,0.2,0.7,0.4l3.7,6.6c0.2,0.4,0.1,0.9-0.3,1.1C63.4,40.2,63.3,40.3,63.1,40.3"></path>	<path d="M53.6,48c-0.1,0-0.3,0-0.4-0.1l-3.8-2.4l-3.8,2.4c-0.4,0.2-0.9,0.1-1.1-0.2c-0.1-0.1-0.1-0.3-0.1-0.4v-7.8  c0-0.1,0-0.1,0-0.2l1.8-6.6c0.1-0.4,0.5-0.7,1-0.6c0.4,0.1,0.7,0.5,0.6,1l0,0l-1.7,6.5v6.3l3-1.9c0.3-0.2,0.6-0.2,0.8,0l3,1.9v-6.3  l-1.7-6.5c-0.1-0.4,0.1-0.9,0.5-1c0.4-0.1,0.9,0.1,1,0.5l0,0l1.8,6.6c0,0.1,0,0.1,0,0.2v7.8C54.4,47.7,54.1,48,53.6,48L53.6,48"></path>	<path d="M57.9,59.3h-1.7c-0.4,0-0.8-0.4-0.8-0.8c0-0.4,0.4-0.8,0.8-0.8h1.6c0.4,0,0.8,0.4,0.8,0.8C58.6,58.9,58.3,59.3,57.9,59.3"></path>	<path d="M60.4,59.3H60c-0.4,0-0.8-0.4-0.8-0.8c0-0.4,0.4-0.8,0.8-0.8h0.4c0.4,0,0.8,0.4,0.8,0.8C61.2,58.9,60.9,59.3,60.4,59.3"></path>	<path d="M90,81.8L90,81.8c-0.2,0-0.4-0.1-0.6-0.2l-7.8-8.2l-2.4,4c-0.2,0.3-0.6,0.5-0.9,0.4c-0.4-0.1-0.6-0.4-0.7-0.7  c-0.8-4.3-1.8-8.5-3.2-12.7c-0.2-0.5-0.3-1-0.5-1.5c-0.1-0.4,0.1-0.9,0.5-1c0.2,0,0.3,0,0.5,0l1.5,0.5c4.1,1.4,8.4,2.5,12.7,3.2  c0.4,0.1,0.7,0.3,0.7,0.7c0.1,0.4-0.1,0.7-0.4,0.9l-4,2.4l8.2,7.8c0.3,0.3,0.3,0.8,0,1.1l0,0l-3.1,3.1C90.4,81.8,90.2,81.8,90,81.8   M81.5,71.3c0.2,0,0.4,0.1,0.6,0.2l8,8.4l2-2l-8.4-8c-0.3-0.3-0.3-0.8,0-1.1c0-0.1,0.1-0.1,0.2-0.1l3.3-2c-3.7-0.8-7.4-1.8-11-2.9  h-0.1V64c1.2,3.6,2.2,7.3,2.9,11l2-3.3C80.9,71.6,81.1,71.3,81.5,71.3C81.4,71.3,81.4,71.3,81.5,71.3 M88.8,67.2L88.8,67.2z"></path>	<path d="M71.3,60.2c-0.2,0-0.4-0.1-0.6-0.2l-2.1-2.1c-0.3-0.3-0.3-0.8,0-1.1c0.3-0.3,0.8-0.3,1.1,0l2.1,2.1c0.3,0.3,0.3,0.8,0,1.1  C71.7,60.1,71.5,60.2,71.3,60.2"></path>	<path d="M70.1,63.2h-3c-0.4,0-0.8-0.4-0.8-0.8s0.4-0.8,0.8-0.8h3c0.4,0,0.8,0.3,0.8,0.8S70.5,63.2,70.1,63.2L70.1,63.2"></path>	<path d="M69.2,68.3c-0.4,0-0.8-0.4-0.8-0.8c0-0.2,0.1-0.4,0.2-0.6l2.1-2.1c0.3-0.3,0.8-0.3,1.1,0c0.3,0.3,0.3,0.8,0,1.1l-2.1,2.1  C69.6,68.2,69.4,68.3,69.2,68.3"></path>	<path d="M77.3,60.2c-0.4,0-0.8-0.4-0.8-0.8c0-0.2,0.1-0.4,0.2-0.6l2.1-2.1c0.3-0.3,0.8-0.3,1.1,0c0.3,0.3,0.3,0.8,0,1.1l-2.1,2.1  C77.7,60.1,77.5,60.2,77.3,60.2"></path>	<path d="M74.3,58.8c-0.4,0-0.8-0.4-0.8-0.8l0,0v-3c0-0.4,0.3-0.8,0.8-0.8s0.8,0.3,0.8,0.8l0,0v3C75.1,58.6,74.7,58.8,74.3,58.8  L74.3,58.8"></path></g></svg>