<svg xmlns="http://www.w3.org/2000/svg" xmlns:xlink="http://www.w3.org/1999/xlink" x="0px" y="0px"
	 viewBox="0 0 250.5 209.4" style="enable-background:new 0 0 250.5 209.4;" xml:space="preserve">
<g>
	<path d="M160.6,141.6c0-1.5,0-3.1,0-4.6c0-2.7,0-5.5,0-8.2s0-5.4,0-8.1c0-2.9,0-5.7,0-8.6c0-2.8,0-5.5,0-8.3c0-2.7,0-5.4,0-8.1
		c0-2.8,0-5.7,0-8.5c0-1.6,0.1-3.1,1.7-4c0.6-0.3,1.3-0.5,1.9-0.5c4.4,0,8.7,0,13.1,0c1.1,0,2,0.4,2.7,1.2c3.3,3.3,6.6,6.6,9.9,9.9
		c1.4,1.4,1.4,3.4,0,4.8s-2.8,2.8-4.4,4.4c0.8,0.8,1.6,1.5,2.4,2.3c1.7,1.7,3.4,3.4,5.1,5.1c1.7,1.8,1.7,3.6,0,5.3
		c-1.3,1.3-2.7,2.6-4.1,4.1c0.4,0.4,0.8,0.8,1.2,1.2c2.1,2.1,4.2,4.2,6.3,6.3c1.7,1.7,1.7,3.6,0,5.3c-1.3,1.4-2.7,2.7-4.1,4.1
		c0.2,0.2,0.4,0.4,0.5,0.6c2.3,2.3,4.7,4.7,7,7c1.5,1.6,1.5,3.5,0,5c-1.4,1.4-2.8,2.8-4.2,4.2c1.5,1.5,2.8,2.8,4.2,4.2
		c0.8,0.7,1.2,1.6,1.2,2.6c0,4.7,0.1,9.5-0.1,14.2c-0.3,5.4-4.8,9.4-10.2,9.4c-6.5,0-12.9-0.1-19.4,0c-6.1,0.1-10.7-4.4-10.8-10.1
		c-0.4,0-0.8,0-1.1,0c-35.3,0-70.7,0-106,0c-2.5,0-4.3-1.8-4-4.5c0.5-4.7,1.7-9.1,4.1-13.1c2.7-4.4,6.5-7.7,10.9-10.3
		c4.5-2.6,9.3-4.5,14.1-6.2c4.3-1.6,8.6-2.9,12.6-5.2c2.1-1.2,3.9-2.5,5.1-4.6c0.2-0.3,0.3-0.6,0.3-0.9c0-3.4,0-6.7,0-10.1
		c0-0.3-0.1-0.7-0.3-0.9c-2.6-3-4.1-6.5-5.2-10.2c-0.3-1-0.5-2.1-0.8-3.1c-0.1-0.3-0.2-0.6-0.5-0.7c-3.6-2-5.3-5.3-6.2-9.1
		c-0.6-2.7-1-5.3,0.1-8c0-0.1,0.1-0.2,0.1-0.3c1.1-2.4,1.3-2.5,3.9-2.1c2.3,0.4,4.6,0.6,6.9,0.8c9.7,1,19.5,1.2,29.3,0.9
		c5.3-0.2,10.5-0.6,15.8-1c2.6-0.2,5.2-0.6,7.8-0.9c0.3,0,0.8,0.2,1,0.4c1.7,2.4,2.3,5.1,1.8,7.9c-0.5,3.2-1.3,6.3-3.6,8.8
		c-0.8,0.9-1.9,1.6-2.8,2.4c-0.3,0.2-0.5,0.6-0.6,0.9c-1,4.3-2.3,8.6-5.1,12.1c-0.9,1.2-1.2,2.4-1.2,3.8c0.1,2.6,0.1,5.2,0,7.8
		c0,1,0.4,1.8,1,2.6c1.7,2.2,4,3.6,6.4,4.6c5.2,2.2,10.6,4.1,15.8,6.2C160.3,141.7,160.4,141.6,160.6,141.6z M189.5,129.9
		c-2.5-2.5-4.9-4.9-7.3-7.2c-2-2-2-3.7,0-5.7c1.3-1.3,2.6-2.6,3.9-3.9c-2.5-2.5-5-5-7.4-7.5c-0.8-0.8-1.3-1.7-1.3-2.9
		c0.1-1,0.6-1.8,1.3-2.4c1.3-1.3,2.6-2.6,4-4c-2.2-2.2-4.4-4.4-6.5-6.5c-0.2-0.2-0.5-0.2-0.8-0.2c-2.5,0-5.1,0-7.6,0
		c-0.2,0-0.3,0.1-0.5,0.1c0,20.2,0,40.3,0,60.5c0.1,0,0.2,0.1,0.2,0.1c7.1,0,14.3,0,21.4,0c0.2,0,0.6-0.1,0.7-0.3c1.1-1,2.1-2,3.1-3
		c-0.3-0.3-0.5-0.5-0.7-0.8c-2.2-2.2-4.5-4.5-6.7-6.7c-1.8-1.8-1.8-3.6,0-5.4C186.8,132.7,188.1,131.3,189.5,129.9z M167.4,156.9
		c0,0.3,0,0.4,0,0.5c0,5.3,0,10.7,0,16c0,2.3,1.2,3.6,3.6,3.6c6.5,0,13.1,0,19.6,0c2.5,0,3.7-1.2,3.7-3.7c0-3.7,0-7.4,0-11.1
		c0-0.4-0.2-0.8-0.4-1c-1.2-1.3-2.5-2.5-3.7-3.7c-0.4-0.4-0.9-0.6-1.5-0.6c-4.1,0-8.2,0-12.3,0C173.4,156.9,170.4,156.9,167.4,156.9
		z"/>
	<path d="M157.3,75.2c-19,5.4-60.6,5.7-80.9,0c0.2-3.8,0.4-7.6,3.3-10.6c0.9-0.9,2.1-1.5,3.1-2.2c0.6-3,0.9-6.1,1.8-9.1
		c2.2-7.6,6.2-14,13.2-18.1c1.7-1,3.5-1.6,5.4-2.5c0,2.7,0,5.2,0,7.6c0,5,0,10.1,0,15.1c0,1.8,0.9,3.1,2.4,3.5
		c1.4,0.4,2.9-0.1,3.7-1.4c0.3-0.6,0.6-1.3,0.6-1.9c0-7.1,0-14.3,0-21.4c0-1.6,0-3.3,0-4.9c0-2.2,1.7-3.9,4-4c1.7,0,3.4,0.1,5.2,0
		c2.6-0.2,4.3,2,4.3,4.4c0,6.4,0,12.9,0,19.3c0,2.2,0,4.5,0,6.7c0,1.5,1.2,2.9,2.6,3.2c1.6,0.3,3.2-0.5,3.8-2c0.2-0.5,0.2-1,0.2-1.5
		c0-7.2,0-14.4,0-21.7c0-0.2,0-0.5,0-0.9c0.3,0.1,0.6,0.1,0.8,0.2c6.5,2.1,11.2,6.4,14.5,12.2c2.8,4.9,4.4,10.3,4.7,16
		c0,0.8,0.3,1.2,1.1,1.5c3,1.3,4.5,3.9,5.1,6.9C157,71.6,157.1,73.4,157.3,75.2z"/>
	<path d="M180.9,163.6c1.1,0,2.2,0,3.3,0c1.9,0.1,3.4,1.4,3.4,3.3c0.1,1.8-1.3,3.4-3.2,3.5c-2.4,0.1-4.8,0.1-7.2,0
		c-1.9-0.1-3.2-1.6-3.1-3.4c0-1.7,1.4-3.2,3.2-3.3C178.5,163.6,179.7,163.6,180.9,163.6L180.9,163.6z"/>
</g>
</svg>
