<?xml version="1.0" encoding="utf-8"?>
<!-- Generator: Adobe Illustrator 22.0.0, SVG Export Plug-In . SVG Version: 6.00 Build 0)  -->
<svg version="1.1" id="Layer_1" xmlns="http://www.w3.org/2000/svg" xmlns:xlink="http://www.w3.org/1999/xlink" x="0px" y="0px"
	 viewBox="0 0 100 100" style="enable-background:new 0 0 100 100;" xml:space="preserve">
<g>
	<path d="M0,26.5c0.4-2,1.5-3.5,2.7-4.9c5-6,9.9-12,14.8-18c2.9-3.5,5.8-3.5,8.7,0c3.3,4,6.6,8,9.9,12c2.5,3,2.8,5.4,1.3,9.1
		c6.4,7.8,12.8,15.6,19.2,23.4c0.1-0.1,0.3-0.3,0.5-0.5c4.1-5,8.3-10,12.4-15c0.4-0.5,0.7-1.1,0.5-1.8c-0.1-0.5-0.2-1-0.1-1.4
		c0.5-2.2-0.5-3.4-1.7-4.7c-0.5-0.6-1-1.3-1.7-2.2c-0.5,0.7-0.8,1.3-1.1,1.8c-0.6,0.7-1.3,0.7-1.9,0c-2.1-2.4-4.1-4.9-6.1-7.4
		c-0.8-0.9-0.6-1.6,0.3-2.8c3.1-3.8,6.2-7.6,9.3-11.4c0.5-0.6,1-1.2,1.5-1.8c0.8-0.9,1.4-0.9,2.2,0c1.9,2.4,3.9,4.7,5.8,7.1
		c0.8,1,0.8,1.8,0,2.8c-0.3,0.4-0.7,0.7-1.1,1.1c1.2,1.4,2.2,2.8,3.3,4c0.2,0.3,0.6,0.2,1,0.2c6.4-0.5,11.5,5.1,11.5,12.9
		c0,1.7,0.4,2.9,1.3,4.1c2.9,3.9,4.8,8.3,6.3,13.2c0.4,1.4,0.9,2.8,1.2,4.3c0.1,0.5,0.1,1.4-0.2,1.7c-0.3,0.4-1,0.6-1.4,0.5
		c-3.9-1.6-7.8-3.2-11.2-6.1c-1.5-1.3-2.9-2.8-4.4-4.1c-0.3-0.3-0.7-0.4-1-0.5c-1.2-0.1-2.4-0.2-3.6-0.3c-0.3,0-0.8,0.1-0.9,0.3
		c-4.4,5.3-8.7,10.5-13.1,15.8c0.3,0.4,0.5,0.7,0.8,1.1c8.9,10.8,17.6,21.5,26.5,32.2c1.3,1.6,1.3,2.2-0.1,3.7
		c-1.2,1.5-2.5,3-3.8,4.5c-0.5,0.7-1.1,0.9-1.8,0.7c-2.3-0.6-4.5-1.1-6.8-1.5c-0.9-0.2-1.5-0.7-1.9-1.6c-1-2.1-1.9-4.2-3-6.3
		c-0.3-0.5-0.8-0.9-1.2-1.1c-1.9-0.5-3.9-1-5.8-1.3c-0.9-0.2-1.5-0.7-1.9-1.6c-0.9-2.1-1.9-4.1-2.9-6.2c-0.3-0.5-0.8-0.9-1.2-1.1
		c-2-0.5-4-1-6-1.4c-0.8-0.1-1.2-0.6-1.6-1.4c-0.5-1.1-1-2.2-1.9-3.6c-0.2,0.4-0.3,0.9-0.6,1.2c-6.5,7.9-13,15.8-19.4,23.6
		c-2.1,2.6-4.6,3.1-6.9,1.4c-2.8-2-3.6-6.6-1.6-9.7c0.3-0.5,0.6-0.9,1-1.3c5.6-6.8,11.2-13.7,16.8-20.4c0.3-0.3,0.6-0.6,1-1
		c-0.8-1.8-1.7-3.3-2.3-5c-0.8-2.2-2.1-3.5-4.2-3.6c-1.4-0.1-2.8-0.5-4.1-0.9c-0.6-0.2-1.2-0.7-1.6-1.4c-1.1-2.1-2.1-4.3-3.1-6.4
		c-0.2-0.5-0.7-0.9-1.2-1c-1.8-0.5-3.6-0.9-5.5-1.2c-0.3-0.1-0.7,0-1,0.1c-2.3,1.1-4.4,0.7-6.2-1.4C9,41.5,5.4,37.1,1.9,32.7
		c-0.8-1-1.2-2.3-1.7-3.5C0,28.1,0,27.3,0,26.5z M21.8,44c1.6,0.4,3.1,0.8,4.6,1.1c0.9,0.2,1.5,0.7,1.9,1.6c1,2.2,2,4.3,3,6.4
		c0.2,0.4,0.6,0.8,1,0.9c1.8,0.5,3.6,1,5.5,1.2c1.3,0.2,2.1,0.9,2.7,2.3c0.9,2.2,2,4.2,2.9,6.2c3.7-4.5,7.3-8.9,10.9-13.3
		c-6.3-7.6-12.6-15.4-18.9-23C30.9,32.9,26.4,38.4,21.8,44z M70.8,34.9c-0.1,0.2-0.3,0.7-0.5,1C55.4,53.9,40.6,72,25.7,90.1
		c-0.3,0.4-0.6,0.7-0.9,1.1c-0.6,1.1-0.7,2.3-0.2,3.5c0.5,1.2,1.3,1.8,2.4,1.8c1,0.1,1.8-0.7,2.4-1.4c14.9-18.1,29.8-36.2,44.7-54.4
		c0.2-0.3,0.4-0.5,0.4-0.6C73.4,38.3,72.2,36.7,70.8,34.9z M35.9,20.8c-0.4-0.9-0.8-1.9-1.3-2.6c-3.5-4.3-7-8.6-10.6-12.9
		c-1.4-1.7-3-1.8-4.4-0.1C14.3,11.9,9,18.4,3.6,24.9c-1.3,1.6-1.3,3.5-0.1,5.1c3.6,4.4,7.2,8.8,10.8,13.1c1.3,1.5,2.8,1.6,4.1,0.1
		c5.5-6.6,11-13.3,16.4-20C35.3,22.8,35.5,21.8,35.9,20.8z M62.3,60c-2.9,3.5-5.7,7-8.6,10.5c0.5,1,0.9,2.1,1.5,3.1
		c0.3,0.5,0.8,0.9,1.2,1c2,0.5,4,1,6,1.4c0.8,0.1,1.2,0.6,1.6,1.4c1,2.2,2.1,4.4,3.1,6.6c0.2,0.4,0.6,0.8,1,0.9
		c2.1,0.5,4.1,0.9,6.2,1.5c0.6,0.2,1.2,0.7,1.6,1.3c1.1,2.1,2.1,4.4,3.2,6.6c0.2,0.4,0.5,0.8,0.8,0.9c1.9,0.5,3.8,0.9,5.7,1.3
		c0.2,0.1,0.5,0,0.7-0.1c1-1.2,1.9-2.5,2.8-3.7C80.1,81.7,71.2,70.8,62.3,60z M68.5,20.3c1.1,1.4,2.2,2.8,3.3,4.1
		c0.6,0.7,0.8,1.5,0.8,2.6c-0.1,1.2-0.2,2.5,0.1,3.7c0.9,5.4,4.5,8.5,9.2,7.7c0.9-0.1,1.6,0.1,2.2,0.9c2.2,2.6,4.7,4.8,7.6,6.5
		c1.6,0.9,3.2,1.7,5,2.6c-0.2-0.7-0.3-1.1-0.4-1.4c-1.6-5.2-3.8-9.9-7-13.9c-0.6-0.9-0.9-1.7-0.8-2.9c0.8-6.6-3.3-11.9-8.7-11.2
		c-1.5,0.2-2.5-0.3-3.4-1.6c-0.9-1.2-1.8-2.2-2.6-3.3C72,16.2,70.3,18.2,68.5,20.3z M73.7,9.1c-1.3-1.7-2.8-3.4-4.1-5
		c-3.1,3.7-6.2,7.6-9.2,11.2c1.3,1.6,2.8,3.3,4.1,5C67.6,16.6,70.7,12.8,73.7,9.1z"/>
	<path d="M16.7,38.6c-0.2,0-0.4,0-0.6-0.1c-1.9-0.4-4.8-3.9-5.1-6.2c-0.3-1.8,0.2-3.3,1.2-4.7c3.3-4,6.6-8,9.9-12
		c1.8-2.2,4.2-2.2,6.1,0c0.5,0.6,1,1.2,1.5,1.8c1.8,2.3,1.8,5.1,0,7.4c-1.2,1.5-2.5,3-3.7,4.5c-2,2.4-4,4.9-6,7.3
		C19.1,37.9,18,38.6,16.7,38.6z M28.4,21.4c-0.1-0.5-0.2-0.9-0.3-1.1c-0.7-0.9-1.4-1.9-2.2-2.7c-0.6-0.7-1.4-0.4-1.9,0.3
		C20.6,22,17.3,26,14,30.1c-0.7,0.9-0.6,1.8,0,2.8c0.4,0.6,1,1.2,1.5,1.8c0.9,1.1,1.7,1.1,2.6,0c3.2-3.9,6.5-7.8,9.7-11.8
		C28,22.5,28.2,21.9,28.4,21.4z"/>
</g>
</svg>
