<svg xmlns="http://www.w3.org/2000/svg" xmlns:xlink="http://www.w3.org/1999/xlink" x="0px" y="0px" viewBox="0 0 100 100" style="enable-background:new 0 0 100 100;" xml:space="preserve"><g>	<path d="M0,50C0,22.4,22.4,0,50,0s50,22.4,50,50s-22.4,50-50,50S0,77.6,0,50z M55,25c0-2.8-2.2-5-5-5c-2.8,0-5,2.2-5,5v19.8  c0,1.2,0,2.4,0.1,3.4c0.1,1.2,0.4,2.5,1.1,3.8c0.7,1.3,1.7,2.3,2.6,3c0.8,0.7,1.8,1.3,2.8,2l10.7,7.1c2.3,1.5,5.4,0.9,6.9-1.4  c1.5-2.3,0.9-5.4-1.4-6.9l-10.5-7c-1.2-0.8-1.8-1.2-2.2-1.5l0,0l0,0c0-0.5-0.1-1.2-0.1-2.6L55,25z"></path></g></svg>