<svg xmlns="http://www.w3.org/2000/svg" xmlns:xlink="http://www.w3.org/1999/xlink" x="0px" y="0px" viewBox="0 0 14 14" style="enable-background:new 0 0 14 14;" xml:space="preserve"><g transform="translate(0 0.004)">	<g>		<g transform="translate(0 -0.004)">			<path d="M13.3,4.4c-1.5-3.5-5.5-5.1-8.9-3.6s-5.1,5.5-3.6,8.9s5.5,5.1,8.9,3.6c2.5-1.1,4.2-3.5,4.2-6.3    C13.8,6.1,13.6,5.2,13.3,4.4 M7,12.4C4,12.4,1.6,10,1.6,7S4,1.6,7,1.6S12.5,4,12.5,7v0C12.5,10,10,12.4,7,12.4"></path>			<path d="M10.5,8.5L8,6.7C7.9,6.6,7.8,6.4,7.7,6.3V3.1c0-0.4-0.3-0.7-0.7-0.7S6.3,2.8,6.3,3.1v3.2    c-0.4,0.4-0.5,1-0.1,1.4C6.5,8.1,7,8.2,7.4,8l2.3,1.6c0.3,0.2,0.7,0.1,0.9-0.2C10.9,9.2,10.8,8.8,10.5,8.5"></path>		</g>	</g></g></svg>