<svg xmlns="http://www.w3.org/2000/svg" xmlns:xlink="http://www.w3.org/1999/xlink" x="0px" y="0px" viewBox="0 0 100 100" style="enable-background:new 0 0 100 100;" xml:space="preserve"><g>	<path d="M59.5,11.2h1.4v5.7h-1.4V11.2z"></path>	<path d="M52.3,14.1h1.4v5.7h-1.4V14.1z"></path>	<path d="M66.8,14.1h1.4v5.7h-1.4V14.1z"></path>	<path d="M61.7,39.9h-3c-0.9,0-1.6-0.7-1.6-1.6h-1.4c0,1.7,1.4,3,3,3h0.8v1.5h1.4v-1.5h0.8c1.7,0,3-1.4,3-3c0-1.7-1.4-3-3-3h-3  c-0.9,0-1.6-0.7-1.6-1.6c0-0.9,0.7-1.6,1.6-1.6h3c0.9,0,1.6,0.7,1.6,1.6h1.4c0-1.7-1.4-3-3-3h-0.8v-1.5h-1.4v1.5h-0.8  c-1.7,0-3,1.4-3,3c0,1.7,1.4,3,3,3h3c0.9,0,1.6,0.7,1.6,1.6C63.4,39.2,62.6,39.9,61.7,39.9L61.7,39.9z"></path>	<path d="M88.3,59.8c-2-2-5.3-1.9-7.2,0.1l-0.3,0.3c0.7-1.2,0.9-2.5,0.6-3.8C81,55.1,80.1,54,79,53.3c-2.4-1.5-5.6-0.7-7,1.7  l-7.7,12.7l-11.9-7.3c-1.3-5.4-6.2-9.3-11.8-9.3c-3.2,0-6.1,1.2-8.4,3.4l-7.5,2l-0.4-1.5c-0.3-1.3-1.7-2.1-3-1.7L12,55.7  c-1.3,0.4-2.1,1.7-1.7,3l7.3,26.9c0.3,1.1,1.3,1.8,2.4,1.8c0.2,0,0.4,0,0.6-0.1l9.3-2.5c0.6-0.2,1.2-0.6,1.5-1.2  c0.3-0.6,0.4-1.2,0.2-1.8l-0.4-1.4l2.6-0.7l33,8.9c0.4,0.1,0.9,0.2,1.3,0.2c1.4,0,2.8-0.6,3.7-1.8l16.8-20.3  C90.4,64.7,90.2,61.7,88.3,59.8L88.3,59.8z M73.1,55.7c1.1-1.8,3.4-2.3,5.1-1.3c0.8,0.5,1.4,1.3,1.7,2.3c0.2,1,0.1,2-0.4,2.8  l-3.1,5.2l-7.3,7.5c-0.3-1.2-1.1-2.3-2.3-3l-1.4-0.9L73.1,55.7z M30.2,83c-0.1,0.2-0.4,0.4-0.7,0.5L20.2,86c-0.1,0-0.2,0-0.3,0  c-0.5,0-0.9-0.3-1-0.8l-7.3-26.9c-0.2-0.6,0.2-1.1,0.7-1.3l9.3-2.5c0.1,0,0.2,0,0.3,0c0.5,0,0.9,0.3,1,0.8l7.3,26.9  C30.3,82.4,30.3,82.7,30.2,83L30.2,83z M87.6,65.9L70.8,86.2c-0.9,1.1-2.2,1.5-3.6,1.1l-33.1-9l-0.2-0.1l-3,0.8l-5.8-21.3l7.8-2.1  l0.1-0.1c2-2,4.7-3.1,7.5-3.1c5,0,9.5,3.6,10.5,8.5l0.1,0.3l14.9,9.2c1.2,0.7,1.8,2,1.8,3.4l0,0.2c-0.1,0.6-0.2,1.1-0.5,1.6  C66.8,76.4,66,77,65,77.3c-1,0.2-2,0.1-2.8-0.5l-4.7-2.9c-1.6-1-2.2-1.3-6.4-4l-0.7,1.2c4.3,2.6,4.9,3,6.4,4l4.7,2.9  c0.8,0.5,1.7,0.8,2.7,0.8c0.4,0,0.8,0,1.2-0.1c1.3-0.3,2.5-1.1,3.2-2.3c0.4-0.7,0.7-1.4,0.7-2.2L82,60.9c1.4-1.5,3.8-1.5,5.3-0.1  C88.7,62.2,88.8,64.4,87.6,65.9L87.6,65.9z"></path>	<path d="M60.2,49.8c7.7,0,13.9-6.2,13.9-13.9c0-7.7-6.2-13.9-13.9-13.9c-7.7,0-13.9,6.2-13.9,13.9C46.3,43.6,52.6,49.8,60.2,49.8z   M60.2,23.4c6.9,0,12.5,5.6,12.5,12.5c0,6.9-5.6,12.5-12.5,12.5c-6.9,0-12.5-5.6-12.5-12.5C47.7,29,53.3,23.4,60.2,23.4z"></path>	<path d="M60.2,45.9c5.5,0,10-4.5,10-9.9c0-5.5-4.5-10-10-10c-5.5,0-9.9,4.5-9.9,10C50.3,41.4,54.7,45.9,60.2,45.9z M60.2,27.4  c4.7,0,8.6,3.8,8.6,8.6c0,4.7-3.8,8.5-8.6,8.5c-4.7,0-8.5-3.8-8.5-8.5C51.7,31.2,55.5,27.4,60.2,27.4z"></path></g></svg>