<svg xmlns="http://www.w3.org/2000/svg" xmlns:xlink="http://www.w3.org/1999/xlink" x="0px" y="0px" viewBox="0 0 100 100" style="enable-background:new 0 0 100 100;" xml:space="preserve"><path d="M89.9,40.5L78,31.5v-6.9c0-1.2-1-2.2-2.3-2.2H66L50.5,10.7c-0.3-0.2-0.7-0.2-0.9,0L34,22.4h-9.7c-1.3,0-2.3,1-2.3,2.2v6.9 l-11.8,8.9c-0.2,0.2-0.3,0.5-0.3,0.6v47.7c0,0.4,0.3,0.7,0.8,0.7h78.8c0.4,0,0.8-0.3,0.8-0.7V41.1C90.2,40.9,90.1,40.7,89.9,40.5 L89.9,40.5z M88.6,87.2L59.1,64.9l29.5-22.3V87.2z M40.9,64.9L11.4,87.2V42.6L40.9,64.9z M50,59.9L87.2,88H12.8L50,59.9z M88.2,41.1 L78,48.7V33.4L88.2,41.1z M50,12.2l13.5,10.2H36.5L50,12.2z M24.2,23.9h51.5c0.4,0,0.8,0.3,0.8,0.7v25.2L57.9,64l-7.4-5.6 c-0.3-0.2-0.7-0.2-0.9,0L42.1,64L23.5,49.9V24.7C23.5,24.3,23.8,23.9,24.2,23.9L24.2,23.9z M22,33.4v15.3l-10.1-7.7L22,33.4z"></path></svg>