<svg xmlns="http://www.w3.org/2000/svg" xmlns:xlink="http://www.w3.org/1999/xlink" x="0px" y="0px" viewBox="0 0 100 100" style="enable-background:new 0 0 100 100;" xml:space="preserve"><g id="Expanded">	<g>		<g>			<path d="M62.7,56.3c-0.2,0-0.4,0-0.6-0.1c-0.6-0.2-1-0.8-1-1.5V43.7h-4.8c-0.9,0-1.6-0.7-1.6-1.6c0-0.9,0.7-1.6,1.6-1.6h6.3    c0.9,0,1.6,0.7,1.6,1.6v8.8l10-10c0.3-0.3,0.7-0.5,1.1-0.5h9.5V15.2H40.5v11.1c0,0.9-0.7,1.6-1.6,1.6c-0.9,0-1.6-0.7-1.6-1.6    V13.6c0-0.9,0.7-1.6,1.6-1.6h47.5c0.9,0,1.6,0.7,1.6,1.6v28.5c0,0.9-0.7,1.6-1.6,1.6H76L63.8,55.9C63.5,56.2,63.1,56.3,62.7,56.3    z"></path>		</g>		<g>			<path d="M62.7,88H12v-6.3c0-3.8,2.4-7.3,6-8.6l11.5-4.1v-5.7h3.2v7.9l-13.6,4.8c-2.3,0.8-3.9,3.1-3.9,5.6v3.1h44.3v-3.1    c0-2.5-1.6-4.7-3.9-5.6L42,71.3v-8.3h3.2v6.1l11.5,4.1c3.6,1.3,6,4.7,6,8.6V88z"></path>		</g>		<g>			<path d="M37,66.8c-7.8,0-14.1-7.4-14.1-16.6c0-9.1,6.3-16.6,14.1-16.6S51.1,41,51.1,50.2C51.1,59.3,44.8,66.8,37,66.8z M37,36.8    c-6,0-10.9,6-10.9,13.4c0,7.4,4.9,13.4,10.9,13.4s10.9-6,10.9-13.4C47.9,42.8,43,36.8,37,36.8z"></path>		</g>		<g>			<path d="M46.2,50.7c-3,0-5.3-1.3-7.3-3.9c-2.2,2.2-5.9,3.7-9.3,3.7c-2,0-3.8-0.4-5.6-1.3l1.5-2.8c1.3,0.7,2.6,1,4.1,1    c3.1,0,6.9-1.9,8-4l1.3-2.6l1.4,2.5c2.1,3.6,4.2,4.7,7.7,4.1c0.3-0.1,0.7-0.1,1-0.1c0.1,0,0.2,0,0.3,0l0.4,3.1    c-0.3,0-0.5,0-0.7,0c-0.1,0-0.2,0-0.4,0C47.7,50.6,46.9,50.7,46.2,50.7z"></path>		</g>		<g>			<path d="M70.6,27.8c-0.9,0-1.6,0.7-1.6,1.6c0,0.9,0.7,1.6,1.6,1.6c0.9,0,1.6-0.7,1.6-1.6C72.2,28.5,71.5,27.8,70.6,27.8    L70.6,27.8z"></path>		</g>		<g>			<path d="M62.7,27.8c-0.9,0-1.6,0.7-1.6,1.6c0,0.9,0.7,1.6,1.6,1.6s1.6-0.7,1.6-1.6C64.3,28.5,63.5,27.8,62.7,27.8L62.7,27.8z"></path>		</g>		<g>			<path d="M54.8,27.8c-0.9,0-1.6,0.7-1.6,1.6c0,0.9,0.7,1.6,1.6,1.6s1.6-0.7,1.6-1.6C56.3,28.5,55.6,27.8,54.8,27.8L54.8,27.8z"></path>		</g>	</g></g></svg>