<?xml version="1.0" encoding="utf-8"?>
<!-- Generator: Adobe Illustrator 22.0.0, SVG Export Plug-In . SVG Version: 6.00 Build 0)  -->
<svg version="1.1" id="Layer_1" xmlns="http://www.w3.org/2000/svg" xmlns:xlink="http://www.w3.org/1999/xlink" x="0px" y="0px"
	 viewBox="0 0 100 100" style="enable-background:new 0 0 100 100;" xml:space="preserve">
<g>
	<path d="M-2745.1-712.6c-6.9,7-13.4,13.5-19.8,19.9c-1.3,1.3-2.5,2.7-3.9,3.9c-5.2,4.5-12.1,4.3-16.6-0.5c-4.3-4.5-4.5-11.5,0-16.3
		c6.2-6.5,12.6-12.8,19-19.1c1.4-1.4,3.1-2.5,5.2-4c-6-5.9-11.2-11-16.4-16.2c-8.7-8.8-8.7-17.2,0.1-26c6.8-6.8,13.7-13.7,20.5-20.5
		c0.2-0.2,0.4-0.5,1.2-1.6c-3.2-2.6-6.4-5.2-9.7-8c-0.8,1-1.2,1.5-1.6,2.1c-4.1,6.5-8.3,8.4-15.6,5.7c-3.7-1.4-6.1-0.5-9.2,1.2
		c-4.6,2.5-9.5,4.8-14.5,6.6c-1.7,0.6-4.8,0.4-5.8-0.8c-1.1-1.2-0.5-3.9-0.6-6c0-0.3,0.2-0.6,0.4-0.9c4.3-11.1,7.6-12.5,18.5-7.6
		c2.1,1,4.2,1.9,6.4,2.9c6.1-3.3,11.3-9,19.3-6.5c1.2-2.1,2.2-4,3.4-5.7c4.1-5.9,9.8-8.7,16.8-6.9c4.1,1,8.1,2.9,11.9,4.8
		c5.7,2.8,10.4,7,14.7,11.6s8.8,8.9,14.1,14.2c-0.4-10.3,2.7-18,10.6-23.2c5.2-3.4,10.9-4.4,17.9-2.9c-4.2,4.2-8,7.8-11.5,11.8
		c-6.1,6.9-3.1,17.3,5.6,19.5c4.6,1.2,8.6-0.2,11.8-3.6c3.4-3.4,6.7-6.9,10.6-10.1c2.2,7.7,0.2,14.3-4.8,20.1
		c-5.1,5.9-12,7.8-19.3,7.7c11.5,11.5,22.9,22.9,34.3,34.3c0.8-0.6,2.1-1.5,3.3-2.5c0.3,0.2,0.6,0.5,0.9,0.7
		c-1.1,1.4-2.2,2.8-3.7,4.8c4.7,5.3,9.6,10.7,14.5,16c-0.2,0.3-0.5,0.5-0.7,0.8c-5.3-4.8-10.6-9.5-16-14.4c-1.7,1.3-3.2,2.4-4.7,3.5
		c-0.3-0.2-0.6-0.5-0.8-0.7c0.9-1.3,1.9-2.6,2.7-3.6c-12.1-12-24.1-24-36.4-36.2c-0.8,0.7-1.9,1.7-3.4,3.1c0.9,1.1,1.6,2.2,2.5,3.1
		c6.2,6.3,12.5,12.5,18.7,18.8c7.2,7.4,7.3,16.1,0.1,23.5c-8.3,8.5-16.6,16.8-25.1,25.1c-7.2,7-15.9,7-23.1,0
		C-2730.6-697.7-2737.4-704.9-2745.1-712.6z M-2760.9-743.8c0.8-0.5,2-0.9,2.8-1.7c9.5-9.4,18.9-18.8,28.3-28.2
		c1.8-1.8,1.9-3.8,0-5.7c-2.6-2.6-5.2-5.2-7.7-7.8c-2-2-4.1-2.2-6.1-0.1c-9.4,9.4-18.9,18.8-28.2,28.3c-0.9,0.9-1.5,3.6-0.9,4.3
		c3.1,3.6,6.7,6.9,10.1,10.3C-2762.1-744.1-2761.6-744.1-2760.9-743.8z M-2713.8-777.5c1.4-1.5,2.6-2.8,4.6-4.8
		c-1.8-1.4-3.5-2.3-4.8-3.6c-6.1-5.9-12.5-11.6-17.9-18.1c-3.6-4.5-7.9-7.4-13-9.4c-7.7-2.9-16.7-1.6-20.3,9.9
		c3.8,2.9,7.6,5.7,11.3,8.6c9.1-6.9,16.2-6.4,24.3,1.6C-2724.4-788.3-2719.4-783.2-2713.8-777.5z M-2710.4-746.4
		c-7,5.2-7,5.2-7,12.3c0,3.8,0,7.6,0,11.4c0,3.6,0,7.2,0,11c2.7,0,4.7,0,7,0C-2710.4-723.3-2710.4-734.6-2710.4-746.4z
		 M-2811.6-788.7c0.4,0.4,0.8,0.8,1.3,1.2c7.5-0.2,13.1-4.9,20.4-8.5c-4.2-1.7-7.3-3.2-10.5-4.3c-2.2-0.7-4.7-0.9-6.1,1.7
		C-2808.3-795.4-2809.9-792-2811.6-788.7z M-2707.8-715.7c6-1.2,10.2-7.3,10.2-13.9c0-6.7-4.3-12.7-10.2-13.7c2.3,3,4.6,5.4,6.2,8.3
		c1.9,3.3,2,7.2,0.2,10.6C-2703.1-721.5-2705.4-718.9-2707.8-715.7z M-2769.4-801.4c-6.1-2-10.1,1.5-14.4,5
		C-2775.6-793.2-2771.9-794.5-2769.4-801.4z M-2776.3-702.6c-2.6,0-4.9,2.1-4.7,4.6c0.2,2.6,1.6,4.3,4.3,4.5c2.6,0.2,4.9-1.8,5-4.4
		C-2771.6-700.4-2773.6-702.6-2776.3-702.6z M-2720.4-716c-3.7-3.7-6.9-7.5-7.3-12.9c-3.3,1.2-2.1,3.4-1.4,5
		C-2727.6-720-2725.3-716.7-2720.4-716z"/>
</g>
<g>
	<path d="M-11.3-684.4c0-18.7,0-37.3,0-56.1c-8.6,0-17.1,0-25.6,0c-0.2-0.4-0.5-0.7-0.7-1.1c0.8-0.4,1.7-0.7,2.3-1.3
		c12.6-11.2,25.3-22.5,38-33.8c1.6-1.4,2.3-2.8,2.3-5C4.9-787.9,5-794.1,5-800.3c0-0.9,0-1.8,0-3c3.7,0,7.1,0,10.5,0
		c5.1,0,10.2,0.1,15.3-0.1c1.2,0,2.5-0.5,3.4-1.2c5.2-4.4,10.3-9,15.8-13.8c29.1,25.7,58.1,51.5,87.7,77.7c-9.2,0-17.6,0-26.3,0
		c0,18.9,0,37.5,0,56.3C70.4-684.4,29.8-684.4-11.3-684.4z M-4.3-691.4c36.4,0,72.4,0,108.6,0c0-18.7,0-37.2,0-56.1
		c5,0,9.7,0,15.2,0c-23.5-20.9-46.5-41.2-69.5-61.6c-8.1,7.2-15.9,14.3-23.8,21.3c-0.2-0.1-0.4-0.3-0.7-0.4c0-2.6,0-5.3,0-7.9
		c-4.6,0-8.9,0-13.4,0c0,6.1-0.1,12.1,0,18c0,1.8-0.5,3.1-1.9,4.3c-8.7,7.5-17.3,15.2-25.9,22.8c-1.1,0.9-2.1,1.9-3.2,2.9
		c0.1,0.2,0.2,0.4,0.2,0.6c4.7,0,9.3,0,14.2,0C-4.3-728.6-4.3-710.1-4.3-691.4z"/>
	<path d="M66.6-773.4c0,8.8,0,17.5,0,26.4c-11.1,0-22.2,0-33.6,0c0-8.7,0-17.5,0-26.4C44.2-773.4,55.3-773.4,66.6-773.4z"/>
	<path d="M44.4-732.9c-3.9-1.8-7.6-3.4-11.4-5.1c0-1.6,0-3.1,0-4.9c11.2,0,22.2,0,33.4,0c0,1.5,0,3.1,0,4.9
		c-3.7,1.6-7.5,3.4-11.5,5.1c0,8.4,0,16.6,0,24.8c0,3.9-3,6.4-6.5,5.6c-2.5-0.6-4-2.7-4-5.9c0-7.1,0-14.3,0-21.4
		C44.4-730.6,44.4-731.6,44.4-732.9z"/>
</g>
<g>
	<path d="M-986.3-762.3c0,6.5,0,12.7,0,19.1c3.9,0.4,6.7,2.3,7.8,6.1c1,3.5-0.4,7.2-3.6,9.1c-1,0.6-1.3,1.2-1.2,2.3
		c0.9,9.3,1.7,18.7,2.6,28c0.3,3.5,0.7,6.9,0.8,10.4c0.3,9.9-7.6,18-17.5,18c-9.8,0-17.8-8.1-17.3-18.1c0.3-7.2,1.2-14.4,1.8-21.6
		c0.5-5.7,1.1-11.3,1.5-17c0-0.6-0.4-1.4-0.8-1.7c-3.2-2.1-4.8-5.3-4.1-8.7c0.7-3.6,3.4-6.1,7.3-6.7c0.2,0,0.4-0.1,0.7-0.1
		c0-6.3,0-12.5,0-19.1c-1,0-2,0-3,0c-3-0.1-6.1,0.1-9-0.5c-7.4-1.6-12.6-8.1-12.5-15.7c0.2-9.1,0.7-18.2,1.1-27.3
		c0.3-6.3,0.8-12.6,1.2-18.9c0.3-5,3.8-8.6,8.5-8.6s8.3,3.6,8.6,8.6c0.7,11,1.4,22,2,33.1c0.1,1.1,0.4,2,1.6,2
		c1.3,0,1.7-0.9,1.8-2.1c0.7-11,1.4-21.9,2-32.9c0.3-5.1,3.8-8.8,8.6-8.7c4.7,0,8.2,3.6,8.5,8.7c0.7,11,1.4,21.9,2,32.9
		c0.1,1.1,0.4,2.1,1.7,2.1s1.6-1,1.7-2.1c0.7-11,1.4-22,2-33.1c0.3-4.9,3.9-8.5,8.5-8.5c4.7,0,8.3,3.6,8.6,8.4
		c0.7,12,1.6,24.1,2.2,36.1c0.2,4.3,0.3,8.7-0.2,12.9c-1,7.7-7.8,13.3-15.5,13.6C-980.5-762.3-983.3-762.3-986.3-762.3z
		 M-997.5-767.8c6.4,0,12.9,0,19.3,0c5.9-0.1,10.6-4.6,10.8-10.4c0.1-3.4,0.1-6.7,0-10.1c-0.7-12.1-1.5-24.2-2.3-36.3
		c-0.1-2.1-1.4-3.4-3.1-3.3c-1.8,0-2.9,1.3-3.1,3.4c-0.7,11-1.4,22-2.1,33.1c-0.3,4.2-3.2,7.2-7.1,7.3c-3.9,0-6.9-3-7.2-7.2
		c-0.7-11-1.4-21.9-2.1-32.9c-0.1-2.3-1.2-3.6-3-3.6c-1.9-0.1-3.1,1.3-3.2,3.6c-0.7,11-1.4,21.9-2.1,32.9c-0.3,4.2-3.2,7.2-7.2,7.2
		c-3.9,0-6.9-3-7.1-7.2c-0.7-11-1.4-22-2.1-33.1c-0.1-2.1-1.3-3.4-3.1-3.4s-3,1.3-3.1,3.5c-0.3,4.4-0.6,8.7-0.8,13.1
		c-0.5,10.6-1.2,21.1-1.5,31.7c-0.2,7.2,4.5,11.8,11.7,11.8C-1009.7-767.8-1003.5-767.8-997.5-767.8z M-1005.8-726.7
		c-0.1,0.3-0.1,0.5-0.1,0.7c-0.7,7.3-1.4,14.5-2,21.8c-0.5,5.7-1.2,11.4-1.4,17.2c-0.3,8.4,8.1,14.3,16,11.4c5.6-2,8.5-7.3,7.7-14.2
		c-0.7-7-1.3-14.1-2-21.1c-0.5-5.3-1-10.5-1.5-15.8C-994.7-726.7-1000.2-726.7-1005.8-726.7z M-1002.8-762.3c0,6.5,0,12.7,0,19
		c3.6,0,7.2,0,10.7,0c0-6.4,0-12.6,0-19C-995.7-762.3-999.2-762.3-1002.8-762.3z M-997.3-732.3c3.4,0,6.8,0,10.2,0
		c2.1,0,3.4-1.1,3.3-2.8c-0.1-1.6-1.3-2.6-3.3-2.6c-6.9,0-13.8,0-20.7,0c-2.1,0-3.4,1.1-3.3,2.8c0.1,1.6,1.3,2.6,3.3,2.6
		C-1004.3-732.2-1000.8-732.3-997.3-732.3z"/>
	<path d="M-904.3-756.7c0,4.6,0,9,0,13.4c4.4,0.5,7.4,2.8,8,7.2c0.6,4-1.4,6.9-5.1,8.8c0.4,4.8,0.9,9.6,1.3,14.4
		c0.7,8,1.5,16,2.2,24c1,11-7.1,19.1-16.5,19.5c-11.2,0.5-19.4-8.8-18.2-20.4c1.2-11.8,2.2-23.6,3.3-35.4c0.1-1.4-0.1-2.3-1.4-3.1
		c-2.8-1.8-4.1-4.6-3.5-7.9c0.6-3.4,2.6-5.7,6.1-6.7c0.6-0.2,1.2-0.2,1.9-0.4c0-4.4,0-8.8,0-13.4c-2.5,0.6-4.9,1.2-7.3,1.8
		c-9.6,2.3-17.1-4.9-15.2-14.6c0.7-3.6,1.6-7.2,2.4-10.8c1.7-7.8,3.2-15.6,5.1-23.3c3.4-13.5,11.5-23.1,24-29.1
		c1.4-0.7,2.5-0.7,3.9,0c12.8,6.1,21,16.1,24.2,30c2.7,11.3,5,22.8,7.4,34.2c1.7,8.4-5.7,15.7-14.1,14
		C-898.8-755.3-901.5-756-904.3-756.7z M-923.5-773.3c-0.2-4.1,2.2-7.3,6-8c3.6-0.7,7.3,1.5,8.4,5.3c1.2,4,2.3,8.1,3.5,12.1
		c0.2,0.6,0.9,1.4,1.4,1.5c2.8,0.8,5.7,1.5,8.6,2.2c5.3,1.3,9.3-2.7,8.2-8c-2.3-10.8-4.7-21.7-7-32.5c-2.6-11.8-9.1-20.6-19.8-26.4
		c-0.9-0.5-1.6-0.5-2.5,0c-9.9,5.3-16.5,13.2-19.2,24c-2.8,11.5-5.1,23.1-7.6,34.6c-1.2,5.7,2.7,9.3,8.4,8.2
		c7.8-1.6,15.2-5.2,23.6-4.2c-1-3.5-1.9-6.9-3-10.2c-0.2-0.6-1.3-1.3-1.9-1.2c-0.6,0.1-1.2,1-1.7,1.6c-0.2,0.2-0.1,0.6-0.1,1
		C-920-773.3-921.7-773.3-923.5-773.3z M-923.8-726.7c-0.1,0.4-0.1,0.6-0.1,0.8c-0.7,7.2-1.3,14.4-2,21.6
		c-0.5,5.8-1.2,11.6-1.4,17.4c-0.3,8.4,8.2,14.3,16.1,11.4c5.6-2,8.4-7.3,7.7-14.1c-0.8-8.4-1.6-16.8-2.3-25.2
		c-0.4-3.9-0.7-7.9-1.1-11.9C-912.7-726.7-918.2-726.7-923.8-726.7z M-920.8-758.1c0,5,0,9.9,0,14.8c3.6,0,7.1,0,10.7,0
		c0-5,0-9.9,0-14.8C-913.5-759.5-917.2-759.5-920.8-758.1z M-915.5-732.3c3.5,0,6.9,0,10.4,0c2.1,0,3.4-1.1,3.4-2.8
		c0-1.6-1.3-2.7-3.3-2.7c-6.9,0-13.9,0-20.8,0c-2,0-3.2,1.1-3.2,2.8s1.2,2.7,3.3,2.7C-922.3-732.2-919-732.3-915.5-732.3z"/>
</g>
<g>
	<path d="M-1972.6-786.9c0.8-3.1,2.8-5.3,5-7.5c9.2-9.1,18.3-18.3,27.4-27.4c5.3-5.3,10.8-5.3,16.1,0c6.1,6.1,12.2,12.2,18.3,18.3
		c4.6,4.6,5.2,8.2,2.4,13.8c11.9,11.9,23.7,23.7,35.6,35.6c0.1-0.1,0.5-0.4,0.9-0.8c7.6-7.6,15.3-15.3,22.9-22.9
		c0.8-0.8,1.3-1.6,1-2.8c-0.2-0.7-0.4-1.5-0.2-2.1c1-3.3-1-5.2-3.2-7.2c-1-0.9-1.8-2-3.1-3.4c-0.9,1.1-1.4,2-2.1,2.7
		c-1.1,1.1-2.4,1.1-3.5,0c-3.8-3.7-7.6-7.5-11.3-11.3c-1.4-1.4-1.2-2.5,0.5-4.2c5.8-5.8,11.5-11.5,17.3-17.3
		c0.9-0.9,1.9-1.9,2.8-2.8c1.5-1.4,2.6-1.4,4.1,0c3.6,3.6,7.2,7.1,10.8,10.8c1.5,1.5,1.5,2.7,0,4.2c-0.6,0.6-1.3,1.1-2,1.7
		c2.2,2.2,4.1,4.2,6.1,6.1c0.4,0.4,1.2,0.3,1.9,0.3c11.9-0.8,21.3,7.7,21.3,19.7c0,2.6,0.7,4.4,2.4,6.2c5.3,5.9,8.9,12.7,11.6,20.1
		c0.8,2.1,1.6,4.3,2.2,6.5c0.2,0.8,0.1,2.1-0.4,2.6c-0.5,0.6-1.8,0.9-2.6,0.7c-7.2-2.4-14.4-4.9-20.7-9.3c-2.8-2-5.4-4.2-8.2-6.3
		c-0.5-0.4-1.3-0.6-1.9-0.7c-2.2-0.2-4.4-0.3-6.6-0.4c-0.6,0-1.4,0.1-1.7,0.4c-8.1,8-16.1,16-24.2,24.1c0.5,0.6,1,1.1,1.5,1.6
		c16.4,16.4,32.7,32.7,49.1,49.1c2.4,2.4,2.4,3.3-0.1,5.7c-2.3,2.3-4.7,4.5-7,6.8c-1,1-2,1.3-3.4,1c-4.2-0.9-8.4-1.6-12.6-2.3
		c-1.6-0.3-2.7-1-3.5-2.5c-1.8-3.2-3.6-6.4-5.5-9.6c-0.5-0.7-1.4-1.4-2.3-1.6c-3.6-0.8-7.2-1.5-10.8-2c-1.7-0.3-2.7-1.1-3.5-2.5
		c-1.7-3.2-3.5-6.3-5.4-9.4c-0.5-0.7-1.4-1.4-2.3-1.6c-3.7-0.8-7.4-1.5-11.2-2.1c-1.4-0.2-2.3-0.9-2.9-2.1c-0.9-1.7-1.9-3.3-3.5-5.5
		c-0.4,0.6-0.6,1.4-1.1,1.9c-12,12-24,24-36,36c-3.9,3.9-8.5,4.7-12.8,2.2c-5.2-3-6.6-10-2.9-14.7c0.6-0.7,1.2-1.4,1.8-2
		c10.4-10.4,20.7-20.8,31.1-31.1c0.5-0.5,1.1-0.9,1.8-1.5c-1.5-2.7-3.2-5-4.3-7.6c-1.5-3.4-3.8-5.4-7.7-5.5
		c-2.6-0.1-5.1-0.7-7.6-1.4c-1.1-0.3-2.3-1.1-2.9-2.1c-2.1-3.2-3.8-6.6-5.8-9.8c-0.4-0.7-1.3-1.4-2.2-1.5c-3.4-0.8-6.7-1.4-10.1-1.9
		c-0.6-0.1-1.3,0-1.9,0.2c-4.3,1.7-8.2,1.1-11.5-2.2c-6.7-6.6-13.4-13.3-19.9-20c-1.4-1.5-2.2-3.5-3.2-5.3
		C-1972.6-784.5-1972.6-785.7-1972.6-786.9z M-1932.2-760.3c2.9,0.6,5.7,1.2,8.6,1.6c1.6,0.3,2.7,1,3.5,2.5c1.8,3.3,3.7,6.5,5.6,9.7
		c0.4,0.6,1.2,1.2,1.9,1.4c3.4,0.7,6.7,1.5,10.1,1.9c2.4,0.3,3.9,1.4,5,3.5c1.7,3.3,3.7,6.4,5.4,9.4c6.9-6.9,13.6-13.6,20.2-20.2
		c-11.6-11.6-23.4-23.4-35-35C-1915.3-777.2-1923.7-768.8-1932.2-760.3z M-1841.3-774.1c-0.2,0.3-0.5,1-1,1.5
		c-27.5,27.5-55,55-82.5,82.5c-0.6,0.6-1.1,1.1-1.6,1.7c-1.2,1.7-1.3,3.5-0.4,5.3s2.5,2.8,4.5,2.8c1.9,0.1,3.3-1,4.5-2.2
		c27.6-27.6,55.2-55.2,82.8-82.9c0.4-0.4,0.7-0.8,0.8-0.9C-1836.4-768.8-1838.8-771.3-1841.3-774.1z M-1905.9-795.5
		c-0.8-1.4-1.4-2.9-2.4-3.9c-6.5-6.6-13-13.1-19.6-19.6c-2.6-2.6-5.5-2.7-8.1-0.1c-10,9.9-19.9,19.9-29.8,29.8
		c-2.5,2.5-2.5,5.4-0.1,7.8c6.6,6.7,13.3,13.4,20,20c2.4,2.3,5.2,2.4,7.6,0.1c10.2-10.1,20.3-20.2,30.3-30.4
		C-1907.2-792.6-1906.8-794-1905.9-795.5z M-1857.1-735.9c-5.3,5.3-10.6,10.6-16,16c0.9,1.5,1.7,3.2,2.7,4.7
		c0.5,0.7,1.4,1.3,2.2,1.5c3.7,0.8,7.4,1.5,11.2,2.1c1.4,0.2,2.3,0.9,2.9,2.1c1.9,3.4,3.8,6.7,5.8,10c0.4,0.6,1.2,1.2,1.9,1.3
		c3.8,0.8,7.6,1.4,11.4,2.3c1.1,0.3,2.3,1.1,2.9,2c2.1,3.2,3.9,6.7,5.9,10c0.3,0.6,1,1.2,1.5,1.3c3.5,0.7,7,1.4,10.5,2
		c0.4,0.1,1,0,1.3-0.2c1.8-1.8,3.5-3.8,5.2-5.6C-1824.1-702.9-1840.6-719.4-1857.1-735.9z M-1845.6-796.3c2.1,2.1,4.1,4.2,6.2,6.2
		c1.1,1.1,1.5,2.3,1.4,3.9c-0.2,1.8-0.3,3.8,0.1,5.6c1.6,8.2,8.4,12.9,17.1,11.8c1.7-0.2,2.9,0.2,4.1,1.3c4.1,4,8.8,7.3,14,9.9
		c2.9,1.4,5.9,2.6,9.3,4c-0.4-1.1-0.5-1.6-0.7-2.2c-2.9-7.9-7.1-15-12.9-21.1c-1.2-1.3-1.6-2.6-1.4-4.4c1.4-10.1-6.1-18.1-16.2-17.1
		c-2.8,0.3-4.6-0.4-6.3-2.4c-1.6-1.8-3.3-3.4-4.9-5.1C-1839.2-802.6-1842.3-799.5-1845.6-796.3z M-1835.9-813.4
		c-2.5-2.6-5.2-5.2-7.6-7.6c-5.7,5.7-11.5,11.5-17.1,17.1c2.5,2.4,5.1,5.1,7.6,7.6C-1847.3-802-1841.6-807.7-1835.9-813.4z"/>
	<path d="M-1941.7-768.4c-0.3,0-0.7,0-1.1-0.1c-3.5-0.6-8.9-5.9-9.5-9.4c-0.5-2.8,0.4-5.1,2.3-7.1c6.1-6.1,12.2-12.2,18.3-18.3
		c3.4-3.4,7.8-3.3,11.3,0c1,0.9,1.9,1.8,2.8,2.8c3.3,3.5,3.3,7.8,0,11.3c-2.3,2.3-4.6,4.6-6.9,6.9c-3.7,3.7-7.4,7.4-11.1,11.1
		C-1937.3-769.5-1939.2-768.4-1941.7-768.4z M-1919.8-794.6c-0.2-0.7-0.3-1.3-0.6-1.7c-1.3-1.4-2.6-2.9-4.1-4.1
		c-1.2-1-2.6-0.6-3.6,0.4c-6.2,6.2-12.4,12.3-18.5,18.6c-1.3,1.3-1.2,2.8,0,4.2c0.8,0.9,1.8,1.8,2.7,2.7c1.7,1.7,3.1,1.7,4.9,0
		c6-6,12-11.9,17.9-17.9C-1920.7-793-1920.3-793.9-1919.8-794.6z"/>
</g>
<g>
	<path d="M56.5,33.3c-5.7,0-11.4,0-17.1,0c0-11.1,0-22.1,0-33.3C39.7,0.1,40,0,40.2,0c15.3,0,30.6,0,45.9,0c7,0,12.5,5.8,13.7,14.2
		c1.4,9.3-4.7,18.6-12.4,19.1c-1.2,0.1-2.5,0-3.8,0c0,0.6-0.1,1.1-0.1,1.5c0,11.3,0,22.6,0,33.9c0,0.7,0.2,1.4,0.6,2.1
		c1.1,2,2.3,3.9,3.4,5.9c0.3,0.5,0.5,1.2,0.5,1.8c0.1,4.6-0.1,9.1,0.1,13.8c0.1,5-3,7.8-6.2,7.7c-9.9-0.1-19.7,0-29.6,0
		c-3.9,0-6.2-2.8-6.2-7.7c0-4,0-7.9,0-11.9c0-0.8,0.2-1.2,0.7-1.6c4.1-3.3,8.1-6.5,12.2-9.7c0.4-0.3,1-0.5,1.5-0.5
		c1.4-0.1,2.8,0,4.3,0c0-0.5,0.1-0.9,0.1-1.4c0-6.5,0-13.1,0-19.7c0-3-0.8-4-3.3-4c-1.5,0-3.1,0-4.6,0c-0.1,0-0.1-0.1-0.3-0.1
		C56.5,40,56.5,36.8,56.5,33.3z M80.2,29.3c1.5,0,2.8,0,4.1,0c1.8,0,3.6,0,5.4-0.8c5.6-2.2,8.5-10.9,5.8-17.3
		c-2-4.8-5.3-7.2-9.6-7.2c-14.2,0-28.2,0-42.4,0c-0.3,0-0.7,0-1,0.1c0,1.1,0,2,0,3c2.3,0,4.6,0,6.8,0c0,1.4,0,2.7,0,4
		c-2.3,0-4.6,0-6.9,0c0,1.2,0,2.3,0,3.5c2.3,0,4.6,0,6.9,0c0,1.4,0,2.7,0,4c-2.3,0-4.6,0-6.8,0c0,1.2,0,2.3,0,3.6c2.3,0,4.6,0,6.9,0
		c0,1.4,0,2.7,0,4c-2.3,0-4.6,0-6.9,0c0,1.1,0,2,0,3c8.5,0,16.9,0,25.3,0c0,1.4,0,2.7,0,4c-1.4,0-2.7,0-4,0c0,2.2,0,4.3,0,6.3
		c3,1.4,4.1,4.3,4.1,8.1c-0.1,7.8,0,15.5,0,23.4c0,0.5,0,0.9,0,1.4c-1.2,0-2.2,0-3.4,0c1.1,1.4,2,2.7,3,4c0.4,0.6,0.9,0.8,1.6,0.8
		c4.5,0,9.1,0,13.6,0c0.3,0,0.6-0.1,1.1-0.1c-1.1-1.8-2-3.4-3-5c-0.4-0.7-0.6-1.4-0.6-2.2c0-13.1,0-26.3,0-39.3
		C80.2,30.2,80.2,29.8,80.2,29.3z M60.2,72.7c-3.6,2.9-7,5.7-10.6,8.6c-0.2,0.2-0.4,0.8-0.4,1.3c-0.1,3.2,0,6.4,0,9.6
		c0,2.7,0.9,3.8,3.1,3.8c9.8,0,19.5,0,29.2,0c2.2,0,3.1-1.1,3.2-3.8c0-1.9,0-3.8,0-5.6c0-1.6,0-3.3,0-5c-0.5,0-0.9,0-1.3,0
		c-5.3,0-10.6,0-15.9,0c-0.7,0-1.1-0.2-1.6-0.8C64.1,77.9,62.2,75.3,60.2,72.7z M59.8,33.4c0,2.1,0,4,0,5.9c0.2,0,0.5,0,0.7,0
		c0-2.1,0-4,0-5.9C60.2,33.4,60,33.4,59.8,33.4z"/>
	<path d="M37.6,4.1c0,8.5,0,16.8,0,25.2c-1,0-1.9,0-2.8,0c-3-0.1-6,0.2-9-0.2c-4.5-0.5-7.5-4.2-8.5-9.6c-0.1-0.2-0.1-0.4-0.1-0.7
		c-5.7,0-11.4,0-17.2,0c0-1.4,0-2.6,0-4c5.7,0,11.4,0,16.9,0c0.7-1.8,1.1-3.7,1.9-5.2c1.5-3,3.7-4.8,6.5-5.2
		c2.1-0.3,4.3-0.2,6.4-0.3C33.6,4,35.5,4.1,37.6,4.1z M29.5,25.2c1.7,0,3.2,0,4.8,0c0-5.7,0-11.3,0-17c-1.7,0-3.2,0-4.8,0
		C29.5,13.9,29.5,19.6,29.5,25.2z M26.1,25.2c0-5.6,0-11.2,0-16.8c-2.8,0-5.4,3.3-5.7,7.2C20.1,20.7,22.2,24.4,26.1,25.2z"/>
	<path d="M88.3,10c-2.7,0-5.4,0-8.1,0c0-1.3,0-2.5,0-3.9c2.7,0,5.3,0,8.1,0C88.3,7.5,88.3,8.8,88.3,10z"/>
	<path d="M88.4,12.3c0,1.3,0,2.6,0,3.9c-2.7,0-5.3,0-8,0c0-1.2,0-2.5,0-3.9C82.9,12.3,85.6,12.3,88.4,12.3z"/>
</g>
</svg>
