<svg xmlns="http://www.w3.org/2000/svg" xmlns:xlink="http://www.w3.org/1999/xlink" x="0px" y="0px" viewBox="0 0 100 100" style="enable-background:new 0 0 100 100;" xml:space="preserve"><g>	<path d="M91.8,16.6l-1.6-1l0.5-0.9c0.7-1.2,0.9-2.7,0.7-4.1C91,9.2,90.2,8,89,7.3L87,6.1c-1.2-0.7-2.6-0.8-3.9-0.4  c-1.3,0.4-2.4,1.4-3,2.6l-5.3,9.5H6.6c-0.6,0-1.1,0.5-1.1,1.1v57.4c0,0.3,0.1,0.6,0.3,0.8c0.2,0.2,0.5,0.3,0.8,0.3h10.3v15.9  c0,0.4,0.2,0.8,0.5,1c0.3,0.2,0.7,0.2,1.1,0l28.1-16.8h35.2c0.6,0,1.1-0.5,1.1-1.1V28.9l6.4-11.4l1.6,1c0.8,0.5,1.3,1.2,1.5,2.1  c0.2,0.9,0.1,1.8-0.3,2.6l-5,9v0c-0.3,0.5-0.1,1.2,0.4,1.5c0.5,0.3,1.2,0.1,1.5-0.4l5-9c0.7-1.3,0.9-2.8,0.5-4.3  C93.9,18.6,93,17.3,91.8,16.6L91.8,16.6z M81.8,9.5c0.4-0.8,1-1.3,1.7-1.6c0.8-0.3,1.6-0.2,2.3,0.1L88,9.2h0  c0.6,0.4,1.1,1.1,1.2,1.8c0.2,0.9,0,1.8-0.4,2.6l-3.7,6.6l-6.9-4.2L81.8,9.5z M66.1,54.5l-6.9-4.2l18-32.3l6.9,4.2L66.1,54.5z   M57.1,59l1.3-6.6l6.2,3.7l-4.8,4.5L56.2,64L57.1,59z M80.6,75.3H46.2c-0.2,0-0.4,0.1-0.5,0.1L19,91.5V76.4c0-0.6-0.5-1.1-1.1-1.1  H7.6V20.1h65.9L56.8,50.2c-0.1,0.1-0.1,0.2-0.1,0.3L55,58.6l-1.6,8.1v0c-0.1,0.5,0.1,0.9,0.5,1.2c0.4,0.2,0.9,0.2,1.2-0.1l6-5.5  l5.9-5.5v0c0.1-0.1,0.2-0.2,0.2-0.3l13.2-23.8L80.6,75.3z M12.2,25.5c0-0.3,0.1-0.6,0.3-0.8c0.2-0.2,0.5-0.3,0.8-0.3h43.4  c0.6,0,1.1,0.5,1.1,1.1c0,0.6-0.5,1.1-1.1,1.1H13.3C12.7,26.6,12.2,26.1,12.2,25.5L12.2,25.5z M47.9,48.6c0,0.3-0.1,0.6-0.3,0.8  c-0.2,0.2-0.5,0.3-0.8,0.3H13.3c-0.6,0-1.1-0.5-1.1-1.1c0-0.6,0.5-1.1,1.1-1.1h33.5C47.4,47.5,47.9,48,47.9,48.6L47.9,48.6z   M47.9,54c0,0.6-0.5,1.1-1.1,1.1H13.3c-0.3,0-0.6-0.1-0.8-0.3c-0.2-0.2-0.3-0.5-0.3-0.8c0-0.3,0.1-0.6,0.3-0.8  c0.2-0.2,0.5-0.3,0.8-0.3h33.5c0.3,0,0.6,0.1,0.8,0.3C47.7,53.4,47.9,53.7,47.9,54L47.9,54z M47.9,59.4c0,0.6-0.5,1.1-1.1,1.1H13.3  c-0.6,0-1.1-0.5-1.1-1.1s0.5-1.1,1.1-1.1h33.5c0.3,0,0.6,0.1,0.8,0.3C47.7,58.8,47.9,59.1,47.9,59.4L47.9,59.4z M47.9,64.8  L47.9,64.8c0,0.3-0.1,0.6-0.3,0.8c-0.2,0.2-0.5,0.3-0.8,0.3H13.3c-0.3,0-0.6-0.1-0.8-0.3c-0.2-0.2-0.3-0.5-0.3-0.8  c0-0.3,0.1-0.6,0.3-0.8c0.2-0.2,0.5-0.3,0.8-0.3h33.5C47.4,63.7,47.9,64.2,47.9,64.8L47.9,64.8z M53.2,70.2L53.2,70.2  c0,0.3-0.1,0.6-0.3,0.8c-0.2,0.2-0.5,0.3-0.8,0.3h-1.7c-0.3,0-0.6-0.1-0.8-0.3c-0.2-0.2-0.3-0.5-0.3-0.8c0-0.3,0.1-0.6,0.3-0.8  c0.2-0.2,0.5-0.3,0.8-0.3h1.7h0C52.7,69.1,53.2,69.6,53.2,70.2L53.2,70.2z M45,70.2L45,70.2c0,0.6-0.5,1.1-1.1,1.1H13.3  c-0.3,0-0.6-0.1-0.8-0.3c-0.2-0.2-0.3-0.5-0.3-0.8s0.1-0.6,0.3-0.8c0.2-0.2,0.5-0.3,0.8-0.3h30.7c0.3,0,0.6,0.1,0.8,0.3  C44.9,69.6,45,69.9,45,70.2L45,70.2z"></path></g></svg>