<?xml version="1.0" encoding="utf-8"?>
<!-- Generator: Adobe Illustrator 22.0.0, SVG Export Plug-In . SVG Version: 6.00 Build 0)  -->
<svg version="1.1" id="Layer_1" xmlns="http://www.w3.org/2000/svg" xmlns:xlink="http://www.w3.org/1999/xlink" x="0px" y="0px"
	 viewBox="0 0 100 100" style="enable-background:new 0 0 100 100;" xml:space="preserve">
<g>
	<path d="M-1737.8,88.8c-6.9,7-13.4,13.5-19.8,19.9c-1.3,1.3-2.5,2.7-3.9,3.9c-5.2,4.5-12.1,4.3-16.6-0.5c-4.3-4.5-4.5-11.5,0-16.3
		c6.2-6.5,12.6-12.8,19-19.1c1.4-1.4,3.1-2.5,5.2-4.1c-6-5.9-11.2-11-16.4-16.2c-8.7-8.8-8.7-17.2,0.1-26
		c6.8-6.8,13.7-13.7,20.5-20.5c0.2-0.2,0.4-0.5,1.2-1.6c-3.2-2.6-6.4-5.2-9.7-8c-0.8,1-1.2,1.5-1.6,2.1c-4.1,6.5-8.3,8.4-15.6,5.7
		c-3.7-1.4-6.1-0.5-9.2,1.2c-4.6,2.5-9.5,4.8-14.5,6.6c-1.7,0.6-4.8,0.4-5.8-0.8c-1.1-1.2-0.5-3.9-0.6-6c0-0.3,0.2-0.6,0.4-0.9
		c4.3-11.1,7.6-12.5,18.5-7.6c2.1,1,4.2,1.9,6.4,2.9c6.1-3.3,11.3-9,19.3-6.5c1.2-2.1,2.2-4,3.4-5.7c4.1-5.9,9.8-8.7,16.8-6.9
		c4.1,1,8.1,2.9,11.9,4.8c5.7,2.8,10.4,7,14.7,11.6c4.3,4.6,8.8,8.9,14.1,14.2c-0.4-10.3,2.7-18,10.6-23.2
		c5.2-3.4,10.9-4.4,17.9-2.9c-4.2,4.2-8,7.8-11.5,11.8c-6.1,6.9-3.1,17.3,5.6,19.5c4.6,1.2,8.6-0.2,11.8-3.6
		c3.4-3.4,6.7-6.9,10.6-10.1c2.2,7.7,0.2,14.3-4.8,20.1c-5.1,5.9-12,7.8-19.3,7.7c11.5,11.5,22.9,22.9,34.3,34.3
		c0.8-0.6,2.1-1.5,3.3-2.5c0.3,0.2,0.6,0.5,0.9,0.7c-1.1,1.4-2.2,2.8-3.7,4.8c4.7,5.3,9.6,10.7,14.5,16c-0.2,0.3-0.5,0.5-0.7,0.8
		c-5.3-4.8-10.6-9.5-16-14.4c-1.7,1.3-3.2,2.4-4.7,3.5c-0.3-0.2-0.6-0.5-0.8-0.7c0.9-1.3,1.9-2.6,2.7-3.6
		c-12.1-12-24.1-24-36.4-36.2c-0.8,0.7-1.9,1.7-3.4,3.1c0.9,1.1,1.6,2.2,2.5,3.1c6.2,6.3,12.5,12.5,18.7,18.8
		c7.2,7.4,7.3,16.1,0.1,23.5c-8.3,8.5-16.6,16.8-25.1,25.1c-7.2,7-15.9,7-23.1,0C-1723.3,103.7-1730.3,96.5-1737.8,88.8z
		 M-1753.6,57.6c0.8-0.5,2-0.9,2.8-1.7c9.5-9.4,18.9-18.8,28.3-28.2c1.8-1.8,1.9-3.8,0-5.7c-2.6-2.6-5.2-5.2-7.7-7.8
		c-2-2-4.1-2.2-6.1-0.1c-9.4,9.4-18.9,18.8-28.2,28.3c-0.9,0.9-1.5,3.6-0.9,4.3c3.1,3.6,6.7,6.9,10.1,10.3
		C-1754.9,57.3-1754.3,57.3-1753.6,57.6z M-1706.6,23.9c1.4-1.5,2.6-2.8,4.6-4.8c-1.8-1.4-3.5-2.3-4.8-3.6
		c-6.1-5.9-12.5-11.6-17.9-18.1c-3.6-4.5-7.9-7.4-13-9.4c-7.7-2.9-16.7-1.6-20.3,9.9c3.8,2.9,7.6,5.7,11.3,8.6
		c9.1-6.9,16.2-6.4,24.3,1.6C-1717.2,13.1-1712.2,18.2-1706.6,23.9z M-1703.2,55c-7,5.2-7,5.2-7,12.3c0,3.8,0,7.6,0,11.4
		c0,3.6,0,7.2,0,11c2.7,0,4.7,0,7,0C-1703.2,78-1703.2,66.8-1703.2,55z M-1804.3,12.7c0.4,0.4,0.8,0.8,1.3,1.2
		c7.5-0.2,13.1-4.9,20.4-8.5c-4.2-1.7-7.3-3.2-10.5-4.3c-2.2-0.7-4.7-0.9-6.1,1.7C-1801.1,6-1802.7,9.4-1804.3,12.7z M-1700.6,85.7
		c6-1.2,10.2-7.3,10.2-13.9c0-6.7-4.3-12.7-10.2-13.7c2.3,3,4.6,5.4,6.2,8.3c1.9,3.3,2,7.2,0.2,10.6
		C-1695.8,79.9-1698.2,82.4-1700.6,85.7z M-1762.2,0c-6.1-2-10.1,1.5-14.4,5C-1768.3,8.2-1764.8,6.9-1762.2,0z M-1769.1,98.8
		c-2.6,0-4.9,2.1-4.7,4.6c0.2,2.6,1.6,4.3,4.3,4.5c2.6,0.2,4.9-1.8,5-4.4C-1764.3,101-1766.4,98.8-1769.1,98.8z M-1713.3,85.3
		c-3.7-3.7-6.9-7.5-7.3-12.9c-3.3,1.2-2.1,3.4-1.4,5C-1720.4,81.4-1718.1,84.7-1713.3,85.3z"/>
</g>
<g>
	<path d="M995.9,117c0-18.7,0-37.3,0-56.1c-8.6,0-17.1,0-25.6,0c-0.2-0.4-0.5-0.7-0.7-1.1c0.8-0.4,1.7-0.7,2.3-1.3
		c12.7-11.3,25.4-22.6,38.1-33.8c1.6-1.4,2.3-2.8,2.3-5c-0.2-6.2-0.1-12.4-0.1-18.6c0-0.9,0-1.8,0-3c3.7,0,7.1,0,10.5,0
		c5.1,0,10.2,0.1,15.3-0.1c1.2,0,2.5-0.5,3.4-1.2c5.2-4.4,10.3-9,15.8-13.8c29.1,25.7,58.1,51.5,87.7,77.7c-9.2,0-17.6,0-26.3,0
		c0,18.9,0,37.5,0,56.3C1077.7,117,1036.9,117,995.9,117z M1002.8,110c36.4,0,72.4,0,108.6,0c0-18.7,0-37.2,0-56.1c5,0,9.7,0,15.2,0
		c-23.5-20.9-46.5-41.2-69.5-61.6c-8.1,7.2-15.9,14.3-23.8,21.3c-0.2-0.1-0.4-0.3-0.7-0.4c0-2.6,0-5.3,0-7.9c-4.6,0-8.9,0-13.4,0
		c0,6.1-0.1,12.1,0,18c0,1.8-0.5,3.1-1.9,4.3c-8.7,7.5-17.3,15.2-25.9,22.8c-1.1,0.9-2.1,1.9-3.2,2.9c0.1,0.2,0.2,0.4,0.2,0.6
		c4.7,0,9.3,0,14.2,0C1002.8,72.7,1002.8,91.3,1002.8,110z"/>
	<path d="M1073.8,28c0,8.8,0,17.5,0,26.4c-11.1,0-22.2,0-33.6,0c0-8.7,0-17.5,0-26.4C1051.4,28,1062.4,28,1073.8,28z"/>
	<path d="M1051.7,68.5c-3.9-1.8-7.6-3.4-11.4-5.1c0-1.6,0-3.1,0-4.9c11.2,0,22.2,0,33.4,0c0,1.5,0,3.1,0,4.9
		c-3.7,1.6-7.5,3.4-11.5,5.1c0,8.4,0,16.6,0,24.8c0,3.9-3,6.4-6.5,5.6c-2.5-0.6-4-2.7-4-5.9c0-7.1,0-14.3,0-21.4
		C1051.7,70.8,1051.7,69.8,1051.7,68.5z"/>
</g>
<g>
	<path d="M30.7,43.3c0,4,0,7.7,0,11.6c2.6,0.2,4.4,1.4,5.2,3.7c0.7,2.1-0.3,4.4-2.4,5.5c-0.7,0.4-0.9,0.7-0.8,1.4
		c0.6,5.7,1.1,11.4,1.7,17.1c0.2,2.1,0.5,4.2,0.5,6.3c0.2,6-5,11-11.6,11C16.9,100,11.6,95,12,89c0.2-4.4,0.8-8.8,1.2-13.2
		c0.3-3.5,0.7-6.9,1-10.4c0-0.4-0.3-0.9-0.5-1c-2.1-1.3-3.2-3.2-2.7-5.3c0.5-2.2,2.2-3.7,4.8-4.1c0.1,0,0.3-0.1,0.5-0.1
		c0-3.8,0-7.6,0-11.6c-0.7,0-1.3,0-2,0c-2-0.1-4,0.1-5.9-0.3C3.4,42-0.1,38,0,33.4c0.1-5.5,0.5-11.1,0.7-16.6
		c0.2-3.8,0.5-7.7,0.8-11.5C1.7,2.2,4,0,7.1,0s5.5,2.2,5.7,5.2c0.5,6.7,0.9,13.4,1.3,20.2c0.1,0.7,0.3,1.2,1.1,1.2
		c0.9,0,1.1-0.5,1.2-1.3c0.5-6.7,0.9-13.4,1.3-20.1c0.2-3.1,2.5-5.4,5.7-5.3c3.1,0,5.4,2.2,5.6,5.3c0.5,6.7,0.9,13.4,1.3,20.1
		c0.1,0.7,0.3,1.3,1.1,1.3c0.9,0,1.1-0.6,1.1-1.3C33,18.7,33.5,12,33.9,5.2c0.2-3,2.6-5.2,5.6-5.2c3.1,0,5.5,2.2,5.7,5.1
		c0.5,7.3,1.1,14.7,1.5,22c0.1,2.6,0.2,5.3-0.1,7.9c-0.7,4.7-5.2,8.1-10.2,8.3C34.6,43.3,32.7,43.3,30.7,43.3z M23.4,40
		c4.2,0,8.5,0,12.8,0c3.9-0.1,7-2.8,7.1-6.3c0.1-2.1,0.1-4.1,0-6.2c-0.5-7.4-1-14.8-1.5-22.1c-0.1-1.3-0.9-2.1-2-2
		c-1.2,0-1.9,0.8-2,2.1c-0.5,6.7-0.9,13.4-1.4,20.2c-0.2,2.6-2.1,4.4-4.7,4.5c-2.6,0-4.6-1.8-4.8-4.4c-0.5-6.7-0.9-13.4-1.4-20.1
		c-0.1-1.4-0.8-2.2-2-2.2c-1.3-0.1-2,0.8-2.1,2.2C20.9,12.3,20.4,19,20,25.7c-0.2,2.6-2.1,4.4-4.8,4.4c-2.6,0-4.6-1.8-4.7-4.4
		C10,19,9.6,12.3,9.1,5.5c-0.1-1.3-0.9-2.1-2-2.1s-2,0.8-2,2.1c-0.2,2.7-0.4,5.3-0.5,8c-0.3,6.5-0.8,12.9-1,19.3
		c-0.1,4.4,3,7.2,7.7,7.2C15.3,40,19.4,40,23.4,40z M17.9,65.1c-0.1,0.2-0.1,0.3-0.1,0.4c-0.5,4.5-0.9,8.8-1.3,13.3
		c-0.3,3.5-0.8,7-0.9,10.5c-0.2,5.1,5.4,8.7,10.6,7c3.7-1.2,5.6-4.5,5.1-8.7c-0.5-4.3-0.9-8.6-1.3-12.9c-0.3-3.2-0.7-6.4-1-9.6
		C25.3,65.1,21.6,65.1,17.9,65.1z M20,43.3c0,4,0,7.7,0,11.6c2.4,0,4.8,0,7.1,0c0-3.9,0-7.7,0-11.6C24.6,43.3,22.3,43.3,20,43.3z
		 M23.5,61.6c2.2,0,4.5,0,6.7,0c1.4,0,2.2-0.7,2.2-1.7c-0.1-1-0.9-1.6-2.2-1.6c-4.6,0-9.1,0-13.7,0c-1.4,0-2.2,0.7-2.2,1.7
		c0.1,1,0.9,1.6,2.2,1.6C18.9,61.6,21.2,61.6,23.5,61.6z"/>
	<path d="M84.9,46.8c0,2.8,0,5.5,0,8.2c2.9,0.3,4.9,1.7,5.3,4.4c0.4,2.4-0.9,4.2-3.4,5.4c0.3,2.9,0.6,5.9,0.9,8.8
		c0.5,4.9,1,9.8,1.5,14.6c0.7,6.7-4.7,11.6-10.9,11.9c-7.4,0.3-12.8-5.4-12-12.4c0.8-7.2,1.5-14.4,2.2-21.6c0.1-0.9-0.1-1.4-0.9-1.9
		c-1.9-1.1-2.7-2.8-2.3-4.8c0.4-2.1,1.7-3.5,4-4.1c0.4-0.1,0.8-0.1,1.3-0.2c0-2.7,0-5.4,0-8.2c-1.7,0.4-3.2,0.7-4.8,1.1
		c-6.3,1.4-11.3-3-10-8.9c0.5-2.2,1.1-4.4,1.6-6.6c1.1-4.8,2.1-9.5,3.4-14.2c2.2-8.2,7.6-14.1,15.9-17.7C77.3,0,78,0,79,0.4
		c8.5,3.7,13.9,9.8,16,18.3c1.8,6.9,3.3,13.9,4.9,20.9c1.1,5.1-3.8,9.6-9.3,8.5C88.7,47.6,86.8,47.2,84.9,46.8z M72.3,36.6
		c-0.1-2.5,1.5-4.5,4-4.9c2.4-0.4,4.8,0.9,5.6,3.2c0.8,2.4,1.5,4.9,2.3,7.4c0.1,0.4,0.6,0.9,0.9,0.9c1.9,0.5,3.8,0.9,5.7,1.3
		c3.5,0.8,6.1-1.6,5.4-4.9c-1.5-6.6-3.1-13.2-4.6-19.8c-1.7-7.2-6-12.6-13.1-16.1c-0.6-0.3-1.1-0.3-1.7,0c-6.5,3.2-10.9,8-12.7,14.6
		c-1.9,7-3.4,14.1-5,21.1c-0.8,3.5,1.8,5.7,5.6,5c5.2-1,10-3.2,15.6-2.6c-0.7-2.1-1.3-4.2-2-6.2c-0.1-0.4-0.9-0.8-1.3-0.7
		c-0.4,0.1-0.8,0.6-1.1,1c-0.1,0.1-0.1,0.4-0.1,0.6C74.6,36.6,73.5,36.6,72.3,36.6z M72.1,65.1C72,65.3,72,65.4,72,65.5
		c-0.5,4.4-0.9,8.8-1.3,13.2c-0.3,3.5-0.8,7.1-0.9,10.6c-0.2,5.1,5.4,8.7,10.6,7c3.7-1.2,5.6-4.5,5.1-8.6C85,82.6,84.4,77.4,84,72.3
		c-0.3-2.4-0.5-4.8-0.7-7.3C79.5,65.1,75.9,65.1,72.1,65.1z M74.1,45.9c0,3,0,6,0,9c2.4,0,4.7,0,7.1,0c0-3,0-6,0-9
		C78.8,45.1,76.4,45.1,74.1,45.9z M77.5,61.6c2.3,0,4.6,0,6.9,0c1.4,0,2.2-0.7,2.2-1.7c0-1-0.9-1.6-2.2-1.6c-4.6,0-9.2,0-13.7,0
		c-1.3,0-2.1,0.7-2.1,1.7c0,1,0.8,1.6,2.2,1.6C73,61.6,75.3,61.6,77.5,61.6z"/>
</g>
<g>
	<path d="M-965.3,14.5c0.8-3.1,2.8-5.3,5-7.5c9.2-9.1,18.3-18.3,27.4-27.4c5.3-5.3,10.8-5.3,16.1,0c6.1,6.1,12.2,12.2,18.3,18.3
		c4.6,4.6,5.2,8.2,2.4,13.8c11.9,11.9,23.7,23.7,35.6,35.6c0.1-0.1,0.5-0.4,0.9-0.8c7.6-7.6,15.3-15.3,22.9-22.9
		c0.8-0.8,1.3-1.6,1-2.8c-0.2-0.7-0.4-1.5-0.2-2.1c1-3.3-1-5.2-3.2-7.2c-1-0.9-1.8-2-3.1-3.4c-0.9,1.1-1.4,2-2.1,2.7
		c-1.1,1.1-2.4,1.1-3.5,0c-3.8-3.7-7.6-7.5-11.3-11.3c-1.4-1.4-1.2-2.5,0.5-4.2c5.8-5.8,11.5-11.5,17.3-17.3
		c0.9-0.9,1.9-1.9,2.8-2.8c1.5-1.4,2.6-1.4,4.1,0c3.6,3.6,7.2,7.1,10.8,10.8c1.5,1.5,1.5,2.7,0,4.2c-0.6,0.6-1.3,1.1-2,1.7
		c2.2,2.2,4.1,4.2,6.1,6.1c0.4,0.4,1.2,0.3,1.9,0.3c11.9-0.8,21.3,7.7,21.3,19.7c0,2.6,0.7,4.4,2.4,6.2c5.3,5.9,8.9,12.7,11.6,20.1
		c0.8,2.1,1.6,4.3,2.2,6.5c0.2,0.8,0.1,2.1-0.4,2.6c-0.5,0.6-1.8,0.9-2.6,0.7c-7.2-2.4-14.4-4.9-20.7-9.3c-2.8-2-5.4-4.2-8.2-6.3
		c-0.5-0.4-1.3-0.6-1.9-0.7c-2.2-0.2-4.4-0.3-6.6-0.4c-0.6,0-1.4,0.1-1.7,0.4c-8.1,8-16.1,16-24.2,24.1c0.5,0.6,1,1.1,1.5,1.6
		c16.4,16.4,32.7,32.7,49.1,49.1c2.4,2.4,2.4,3.3-0.1,5.7c-2.3,2.3-4.7,4.5-7,6.8c-1,1-2,1.3-3.4,1c-4.2-0.9-8.4-1.6-12.6-2.3
		c-1.6-0.3-2.7-1-3.5-2.5c-1.8-3.2-3.6-6.4-5.5-9.6c-0.5-0.7-1.4-1.4-2.3-1.6c-3.6-0.8-7.2-1.5-10.8-2c-1.7-0.3-2.7-1.1-3.5-2.5
		c-1.7-3.2-3.5-6.3-5.4-9.4c-0.5-0.7-1.4-1.4-2.3-1.6c-3.7-0.8-7.4-1.5-11.2-2.1c-1.4-0.2-2.3-0.9-2.9-2.1c-0.9-1.7-1.9-3.3-3.5-5.5
		c-0.4,0.6-0.6,1.4-1.1,1.9c-12,12-24,24-36,36c-3.9,3.9-8.5,4.7-12.8,2.2c-5.2-3-6.6-10-2.9-14.7c0.6-0.7,1.2-1.4,1.8-2
		c10.4-10.4,20.7-20.8,31.1-31.1c0.5-0.5,1.1-0.9,1.8-1.5c-1.5-2.7-3.2-5-4.3-7.6c-1.5-3.4-3.8-5.4-7.7-5.5
		c-2.6-0.1-5.1-0.7-7.6-1.4c-1.1-0.3-2.3-1.1-2.9-2.1c-2-3.2-3.8-6.6-5.8-9.8c-0.4-0.7-1.3-1.4-2.2-1.5c-3.4-0.8-6.7-1.4-10.1-1.9
		c-0.6-0.1-1.3,0-1.9,0.2c-4.3,1.7-8.2,1.1-11.5-2.2c-6.7-6.6-13.4-13.3-19.9-20c-1.4-1.5-2.2-3.5-3.2-5.3
		C-965.3,16.9-965.3,15.7-965.3,14.5z M-925,41.1c2.9,0.6,5.7,1.2,8.6,1.6c1.6,0.3,2.7,1,3.5,2.5c1.8,3.3,3.7,6.5,5.6,9.7
		c0.4,0.6,1.2,1.2,1.9,1.4c3.4,0.7,6.7,1.5,10.1,1.9c2.4,0.3,3.9,1.4,5,3.5c1.7,3.3,3.7,6.4,5.4,9.4c6.9-6.9,13.6-13.6,20.2-20.2
		c-11.6-11.6-23.4-23.4-35-35C-908,24.2-916.5,32.6-925,41.1z M-834.2,27.3c-0.2,0.3-0.5,1-1,1.5c-27.5,27.5-55,55-82.5,82.5
		c-0.6,0.6-1.1,1.1-1.6,1.7c-1.2,1.7-1.3,3.5-0.4,5.3c0.9,1.8,2.5,2.8,4.5,2.8c1.9,0.1,3.3-1,4.5-2.2c27.6-27.6,55.2-55.2,82.8-82.9
		c0.4-0.4,0.7-0.8,0.8-0.9C-829.3,32.5-831.5,30.1-834.2,27.3z M-898.8,5.9c-0.8-1.4-1.4-2.9-2.4-3.9c-6.5-6.6-13-13.1-19.6-19.6
		c-2.6-2.6-5.5-2.7-8.1-0.1c-10,9.9-19.9,19.9-29.8,29.8c-2.5,2.5-2.5,5.4-0.1,7.8c6.6,6.7,13.3,13.4,20,20c2.4,2.3,5.2,2.4,7.6,0.1
		c10.2-10.1,20.3-20.2,30.3-30.4C-900,8.8-899.5,7.4-898.8,5.9z M-849.8,65.5c-5.3,5.3-10.6,10.6-16,16c0.9,1.5,1.7,3.2,2.7,4.7
		c0.5,0.7,1.4,1.3,2.2,1.5c3.7,0.8,7.4,1.5,11.2,2.1c1.4,0.2,2.3,0.9,2.9,2.1c1.9,3.4,3.8,6.7,5.8,10c0.4,0.6,1.2,1.2,1.9,1.3
		c3.8,0.8,7.6,1.4,11.4,2.3c1.1,0.3,2.3,1.1,2.9,2c2.1,3.2,3.9,6.7,5.9,10c0.3,0.6,1,1.2,1.5,1.3c3.5,0.7,7,1.4,10.5,2
		c0.4,0.1,1,0,1.3-0.2c1.8-1.8,3.5-3.8,5.2-5.6C-816.8,98.5-833.3,82-849.8,65.5z M-838.3,5.1c2.1,2.1,4.1,4.2,6.2,6.2
		c1.1,1.1,1.5,2.3,1.4,3.9c-0.2,1.8-0.3,3.8,0.1,5.6c1.6,8.2,8.4,12.9,17.1,11.8c1.7-0.2,2.9,0.2,4.1,1.3c4.1,4,8.8,7.3,14,9.9
		c2.9,1.4,5.9,2.6,9.3,4c-0.4-1.1-0.5-1.6-0.7-2.2c-2.9-7.9-7.1-15-12.9-21.1c-1.2-1.3-1.6-2.6-1.4-4.4C-799.8,10-807.3,2-817.4,3
		c-2.8,0.3-4.6-0.4-6.3-2.4c-1.6-1.8-3.3-3.4-4.9-5.1C-832-1.2-835,1.9-838.3,5.1z M-828.8-12c-2.5-2.6-5.2-5.2-7.6-7.6
		c-5.7,5.7-11.5,11.5-17.1,17.1c2.5,2.4,5.1,5.1,7.6,7.6C-840.2-0.6-834.3-6.4-828.8-12z"/>
	<path d="M-934.5,33c-0.3,0-0.7,0-1.1-0.1c-3.5-0.6-8.9-5.9-9.5-9.4c-0.5-2.8,0.4-5.1,2.3-7.1c6.1-6.1,12.2-12.2,18.3-18.3
		c3.4-3.4,7.8-3.3,11.3,0c1,0.9,1.9,1.8,2.8,2.8c3.3,3.5,3.3,7.8,0,11.3c-2.3,2.3-4.6,4.6-6.9,6.9c-3.7,3.7-7.4,7.4-11.1,11.1
		C-930,31.9-932,33-934.5,33z M-912.7,6.8c-0.2-0.7-0.3-1.3-0.6-1.7c-1.3-1.4-2.6-2.9-4.1-4.1c-1.2-1-2.6-0.6-3.6,0.4
		c-6.2,6.2-12.4,12.3-18.5,18.6c-1.3,1.3-1.2,2.8,0,4.2c0.8,0.9,1.8,1.8,2.7,2.7c1.7,1.7,3.1,1.7,4.9,0c6-6,12-11.9,17.9-17.9
		C-913.5,8.4-913,7.5-912.7,6.8z"/>
</g>
<g>
	<path d="M1067.8,829.5c-9.3,0-18.5,0-27.7,0c0-14.6,0-29.1,0-43.7c0.5,0,1-0.1,1.4-0.1c24.7,0,49.5,0,74.2,0
		c11.3,0,20.2,7.6,22.2,18.7c2.2,12.2-7.6,24.5-20,25.1c-2,0.1-4,0-6.1,0c0,0.8-0.1,1.4-0.1,2c0,14.9,0,29.7,0,44.6
		c0,0.9,0.4,1.9,0.9,2.7c1.8,2.6,3.7,5.1,5.5,7.7c0.5,0.7,0.8,1.6,0.8,2.4c0.1,6-0.1,12,0.1,18.1c0.1,6.6-4.8,10.2-10.1,10.1
		c-16-0.1-31.9,0-47.9,0c-6.3,0-10.1-3.7-10.1-10.1c0-5.2,0-10.4,0-15.6c0-1,0.3-1.6,1.1-2.1c6.6-4.3,13.1-8.6,19.7-12.8
		c0.7-0.4,1.6-0.7,2.4-0.7c2.2-0.1,4.5,0,6.9,0c0-0.7,0.1-1.2,0.1-1.8c0-8.6,0-17.2,0-25.9c0-3.9-1.3-5.2-5.3-5.2c-2.5,0-5,0-7.5,0
		c-0.1,0-0.2-0.1-0.5-0.1C1067.8,838.3,1067.8,834,1067.8,829.5z M1106.2,824.2c2.4,0,4.5,0,6.7,0c2.9,0,5.8,0,8.7-1
		c9.1-2.9,13.8-14.3,9.4-22.7c-3.3-6.3-8.5-9.4-15.5-9.4c-22.9,0-45.7,0-68.6,0c-0.5,0-1.1,0-1.6,0.1c0,1.4,0,2.6,0,3.9
		c3.7,0,7.4,0,11,0c0,1.8,0,3.5,0,5.3c-3.8,0-7.4,0-11.1,0c0,1.6,0,3,0,4.6c3.7,0,7.4,0,11.1,0c0,1.9,0,3.5,0,5.3c-3.7,0-7.4,0-11,0
		c0,1.6,0,3,0,4.7c3.8,0,7.4,0,11.1,0c0,1.8,0,3.5,0,5.3c-3.7,0-7.4,0-11.1,0c0,1.4,0,2.6,0,4c13.7,0,27.3,0,40.9,0
		c0,1.8,0,3.5,0,5.3c-2.2,0-4.3,0-6.4,0c0,2.9,0,5.6,0,8.3c4.9,1.9,6.6,5.6,6.6,10.6c-0.1,10.2,0,20.4,0,30.7c0,0.6,0,1.2,0,1.9
		c-1.9,0-3.5,0-5.5,0c1.8,1.9,3.3,3.5,4.8,5.2c0.7,0.8,1.5,1.1,2.6,1.1c7.3,0,14.7,0,22,0c0.5,0,1-0.1,1.8-0.1
		c-1.7-2.4-3.2-4.5-4.8-6.6c-0.7-0.9-0.9-1.8-0.9-2.9c0-17.2,0-34.5,0-51.7C1106.2,825.4,1106.2,824.9,1106.2,824.2z M1073.8,881.2
		c-5.8,3.8-11.4,7.5-17.1,11.3c-0.4,0.3-0.6,1.1-0.6,1.7c-0.1,4.2,0,8.4,0,12.6c0,3.6,1.4,5,5,5c15.8,0,31.6,0,47.3,0
		c3.5,0,5-1.5,5.1-5c0-2.5,0-5,0-7.4c0-2.1,0-4.3,0-6.6c-0.8,0-1.5,0-2.1,0c-8.6,0-17.1,0-25.7,0c-1.1,0-1.8-0.3-2.6-1.1
		C1080.2,888.1,1077.1,884.7,1073.8,881.2z M1073.1,829.6c0,2.7,0,5.2,0,7.8c0.4,0,0.8,0,1.1,0c0-2.7,0-5.2,0-7.8
		C1073.8,829.6,1073.4,829.6,1073.1,829.6z"/>
	<path d="M1037.2,791.1c0,11.2,0,22.1,0,33.1c-1.6,0-3,0-4.5,0c-4.9-0.1-9.7,0.2-14.6-0.3c-7.3-0.7-12.1-5.5-13.7-12.6
		c-0.1-0.3-0.1-0.5-0.2-0.9c-9.3,0-18.5,0-27.8,0c0-1.8,0-3.4,0-5.2c9.2,0,18.4,0,27.4,0c1.1-2.4,1.8-4.8,3-6.8
		c2.4-3.9,6-6.3,10.5-6.8c3.4-0.4,6.9-0.3,10.4-0.4C1030.8,791,1033.8,791.1,1037.2,791.1z M1024.1,818.8c2.7,0,5.2,0,7.8,0
		c0-7.5,0-14.9,0-22.3c-2.7,0-5.2,0-7.8,0C1024.1,804,1024.1,811.3,1024.1,818.8z M1018.6,818.8c0-7.4,0-14.7,0-22.1
		c-4.5,0-8.7,4.4-9.2,9.5C1008.8,812.9,1012.3,817.7,1018.6,818.8z"/>
	<path d="M1119.3,798.9c-4.4,0-8.7,0-13.1,0c0-1.7,0-3.3,0-5.1c4.3,0,8.6,0,13.1,0C1119.3,795.5,1119.3,797.1,1119.3,798.9z"/>
	<path d="M1119.3,801.8c0,1.7,0,3.4,0,5.1c-4.4,0-8.6,0-13,0c0-1.6,0-3.3,0-5.1C1110.6,801.8,1114.8,801.8,1119.3,801.8z"/>
</g>
</svg>
