<svg xmlns="http://www.w3.org/2000/svg" xmlns:xlink="http://www.w3.org/1999/xlink" width="56" height="56" viewBox="0 0 56 56"><defs><clipPath id="clip-path"><rect id="Rectangle_40063" data-name="Rectangle 40063" width="29" height="29" transform="translate(-0.4 -0.4)" fill="none"></rect></clipPath></defs><g id="Group_127967" data-name="Group 127967" transform="translate(0 0.053)"><circle id="Ellipse_1735" data-name="Ellipse 1735" cx="28" cy="28" r="28" transform="translate(0 -0.053)" fill="#e85442"></circle><g id="Group_127868" data-name="Group 127868" transform="translate(14.4 14.347)"><g id="Group_127867" data-name="Group 127867" transform="translate(0 0)" clip-path="url(#clip-path)"><path id="Path_177547" data-name="Path 177547" d="M7.051,13.073A4.694,4.694,0,0,0,12.115,8.7a.3.3,0,0,1,.24-.259A4.249,4.249,0,0,0,14.94,6.81a.3.3,0,0,1,.239-.119h.012l.038,0h4.528a3.339,3.339,0,0,0,3.235-2.533.3.3,0,0,1,.29-.227.308.308,0,0,1,.042,0,.76.76,0,0,1,.088.019l.008,0h4.542a.612.612,0,0,0,0-1.225H23.419l-.008,0a.571.571,0,0,1-.088.019.231.231,0,0,1-.042,0,.3.3,0,0,1-.29-.226A3.339,3.339,0,0,0,19.757,0H.612A.613.613,0,0,0,0,.612V7.905a.613.613,0,0,0,.612.612h.912a.3.3,0,0,1,.3.3v10.04a.3.3,0,0,1-.281.3A1.639,1.639,0,0,0,0,20.785v2.5a1.643,1.643,0,0,0,1.641,1.641h9.794a1.643,1.643,0,0,0,1.641-1.641v-2.5a1.643,1.643,0,0,0-1.641-1.641H3.348a.3.3,0,0,1-.3-.3V8.817a.3.3,0,0,1,.3-.3H6.521a.3.3,0,0,1,.242.476A6.442,6.442,0,0,0,5.47,12.8a6.63,6.63,0,0,0,2,4.654.613.613,0,0,0,.872-.861,5.467,5.467,0,0,1-1.588-3.182.3.3,0,0,1,.294-.336m8.76-8.814V1.524a.3.3,0,0,1,.3-.3h3.646a2.123,2.123,0,0,1,0,4.245H16.018a.3.3,0,0,1-.294-.359,4.229,4.229,0,0,0,.086-.852M7.177,11.844H7.171a.3.3,0,0,1-.291-.379A5.822,5.822,0,0,1,8.808,8.588.3.3,0,0,1,9,8.518h1.568a.3.3,0,0,1,.295.348c-.219,1.319-1.036,2.905-3.687,2.978m4.259,8.525a.416.416,0,0,1,.416.416v2.5a.417.417,0,0,1-.416.416H1.641a.417.417,0,0,1-.416-.416v-2.5a.417.417,0,0,1,.416-.416ZM1.524,7.293a.3.3,0,0,1-.3-.3V1.524a.3.3,0,0,1,.3-.3H14.287a.3.3,0,0,1,.3.3V4.259a3.038,3.038,0,0,1-3.034,3.034Z" transform="translate(-0.113 -0.071)" fill="#fff"></path><path id="Path_177548" data-name="Path 177548" d="M6.227,5.615a.612.612,0,1,0,.612.612.613.613,0,0,0-.612-.612" transform="translate(-2.082 -2.039)" fill="#fff"></path><path id="Path_177549" data-name="Path 177549" d="M10,5.615a.612.612,0,1,0,.612.612A.613.613,0,0,0,10,5.615" transform="translate(-3.404 -2.039)" fill="#fff"></path><path id="Path_177550" data-name="Path 177550" d="M25.808,35.755h8.2a2.436,2.436,0,0,0,0-4.872H23.073a.613.613,0,0,0,0,1.225H34.013a1.211,1.211,0,1,1,0,2.422h-8.2a2.436,2.436,0,1,0,0,4.871H35.836a.612.612,0,1,0,0-1.225H25.808a1.211,1.211,0,1,1,0-2.422" transform="translate(-7.988 -10.898)" fill="#fff"></path></g></g></g></svg>