<svg xmlns="http://www.w3.org/2000/svg" xmlns:xlink="http://www.w3.org/1999/xlink" id="Group_127874" data-name="Group 127874" width="30" height="30" viewBox="0 0 30 30"><defs><clipPath id="clip-path"><rect id="Rectangle_40065" data-name="Rectangle 40065" width="30" height="30" fill="none"></rect></clipPath></defs><g id="Group_127873" data-name="Group 127873" clip-path="url(#clip-path)"><path id="Path_177554" data-name="Path 177554" d="M15,30a.644.644,0,0,1-.643-.643V25.05a1.753,1.753,0,0,0-1.75-1.75H4.471a.644.644,0,0,1-.643-.643V14.043a.644.644,0,0,1,.643-.643h5.743a.314.314,0,0,0,.314-.314V11.172a.314.314,0,0,0-.314-.314H3.035a1.751,1.751,0,0,0-1.75,1.75V24.093a1.751,1.751,0,0,0,1.75,1.75h8.136a.644.644,0,0,1,.643.643v2.872a.643.643,0,1,1-1.286,0V27.443a.314.314,0,0,0-.314-.314H3.035A3.039,3.039,0,0,1,0,24.093V12.607A3.039,3.039,0,0,1,3.035,9.571h7.179a.314.314,0,0,0,.314-.314V8.3a.644.644,0,0,1,.643-.643h1.914a.314.314,0,0,0,.314-.314V5.252a.314.314,0,0,0-.209-.3,2.546,2.546,0,0,1-1.548-1.547.313.313,0,0,0-.3-.209H8.3a.314.314,0,0,0-.314.314v.957a.643.643,0,0,1-1.287,0V.643a.643.643,0,0,1,1.287,0V1.6a.314.314,0,0,0,.314.314h3.048a.314.314,0,0,0,.3-.209,2.54,2.54,0,0,1,4.8,0,.314.314,0,0,0,.3.209h3.048A.314.314,0,0,0,20.1,1.6V.643a.643.643,0,0,1,1.287,0V4.471a.643.643,0,0,1-1.287,0V3.514a.314.314,0,0,0-.314-.314H16.738a.313.313,0,0,0-.3.209,2.542,2.542,0,0,1-1.548,1.547.316.316,0,0,0-.209.3v2.09A.314.314,0,0,0,15,7.657h1.914a.644.644,0,0,1,.643.643v.957a.314.314,0,0,0,.314.314H25.05a3.039,3.039,0,0,1,3.035,3.035v5.264a.314.314,0,0,0,.314.314h.957a.644.644,0,0,1,.643.643V21.7a.644.644,0,0,1-.643.642H21.7a.644.644,0,0,1-.643-.642V18.828a.644.644,0,0,1,.643-.643h.957a.314.314,0,0,0,.314-.314V15a.314.314,0,0,0-.314-.314H17.871a.314.314,0,0,0-.314.314v1.91a.654.654,0,0,1-.049.248,3.752,3.752,0,0,1-6.931,0,.644.644,0,0,1-.048-.246V15a.314.314,0,0,0-.314-.314H5.429A.314.314,0,0,0,5.114,15v6.7a.314.314,0,0,0,.314.314h7.178a3.04,3.04,0,0,1,3.036,3.036v4.307A.644.644,0,0,1,15,30m7.657-10.529a.314.314,0,0,0-.314.314v.957a.314.314,0,0,0,.314.314H28.4a.314.314,0,0,0,.314-.314v-.957a.314.314,0,0,0-.314-.314Zm-4.786-8.614a.314.314,0,0,0-.314.314v1.914a.314.314,0,0,0,.314.314h5.743a.644.644,0,0,1,.643.643v3.828a.314.314,0,0,0,.314.314h1.914a.314.314,0,0,0,.314-.314V12.607a1.751,1.751,0,0,0-1.75-1.75ZM12.128,8.943a.314.314,0,0,0-.314.314V16.7a.321.321,0,0,0,.033.142,2.467,2.467,0,0,0,4.39,0,.316.316,0,0,0,.033-.141V9.257a.314.314,0,0,0-.314-.314Zm1.915-7.657a1.271,1.271,0,1,0,1.272,1.272,1.273,1.273,0,0,0-1.272-1.272" fill="#fff"></path><path id="Path_177555" data-name="Path 177555" d="M42.757,43.4a.643.643,0,1,1,.643-.643.644.644,0,0,1-.643.643" transform="translate(-13.4 -13.4)" fill="#fff"></path><path id="Path_177556" data-name="Path 177556" d="M39.949,37.785a.643.643,0,1,1,.643-.643.644.644,0,0,1-.643.643" transform="translate(-12.506 -11.613)" fill="#fff"></path><path id="Path_177557" data-name="Path 177557" d="M34.334,37.785a.643.643,0,1,1,.643-.643.644.644,0,0,1-.643.643" transform="translate(-10.72 -11.613)" fill="#fff"></path><path id="Path_177558" data-name="Path 177558" d="M37.142,43.4a.643.643,0,1,1,.643-.643.644.644,0,0,1-.643.643" transform="translate(-11.613 -13.4)" fill="#fff"></path><path id="Path_177559" data-name="Path 177559" d="M31.527,43.4a.643.643,0,1,1,.643-.643.644.644,0,0,1-.643.643" transform="translate(-9.827 -13.4)" fill="#fff"></path><path id="Path_177560" data-name="Path 177560" d="M20.3,18.132a.643.643,0,1,1,.643-.643.644.644,0,0,1-.643.643" transform="translate(-6.253 -5.36)" fill="#fff"></path><path id="Path_177561" data-name="Path 177561" d="M20.3,22.343a.643.643,0,1,1,.643-.643.644.644,0,0,1-.643.643" transform="translate(-6.253 -6.7)" fill="#fff"></path></g></svg>