<svg xmlns="http://www.w3.org/2000/svg" xmlns:xlink="http://www.w3.org/1999/xlink" width="29" height="29" viewBox="0 0 29 29"><defs><clipPath id="clip-path"><rect id="Rectangle_40100" data-name="Rectangle 40100" width="29" height="29" transform="translate(0 -0.333)" fill="none"></rect></clipPath></defs><g id="Group_127973" data-name="Group 127973" transform="translate(0 0.333)"><g id="Group_127972" data-name="Group 127972" clip-path="url(#clip-path)"><path id="Path_178141" data-name="Path 178141" d="M21.057,37.113h0a.614.614,0,1,1,.614.614.614.614,0,0,1-.614-.614" transform="translate(-7.338 -12.719)" fill="#fff"></path><path id="Path_178142" data-name="Path 178142" d="M42.728,29.6a.615.615,0,0,1-.614-.614V21.671a.614.614,0,1,1,1.229,0v7.317a.615.615,0,0,1-.614.614" transform="translate(-14.676 -7.338)" fill="#fff"></path><path id="Path_178143" data-name="Path 178143" d="M42.728,40.96a.615.615,0,0,1-.614-.614V38.516a.614.614,0,0,1,1.229,0v1.829a.615.615,0,0,1-.614.614" transform="translate(-14.676 -13.208)" fill="#fff"></path><path id="Path_178144" data-name="Path 178144" d="M38.517,24.965a.615.615,0,0,1-.614-.614V18.863a.614.614,0,1,1,1.228,0v5.488a.615.615,0,0,1-.614.614" transform="translate(-13.209 -6.359)" fill="#fff"></path><path id="Path_178145" data-name="Path 178145" d="M38.517,35.345a.615.615,0,0,1-.614-.614V32.9a.614.614,0,1,1,1.228,0v1.829a.615.615,0,0,1-.614.614" transform="translate(-13.209 -11.251)" fill="#fff"></path><path id="Path_178146" data-name="Path 178146" d="M.614,29.6A.615.615,0,0,1,0,28.988V21.671a.614.614,0,1,1,1.229,0v7.317a.615.615,0,0,1-.614.614" transform="translate(0 -7.338)" fill="#fff"></path><path id="Path_178147" data-name="Path 178147" d="M.614,40.96A.615.615,0,0,1,0,40.346V38.516a.614.614,0,0,1,1.229,0v1.829a.615.615,0,0,1-.614.614" transform="translate(0 -13.208)" fill="#fff"></path><path id="Path_178148" data-name="Path 178148" d="M4.825,24.965a.615.615,0,0,1-.614-.614V18.863a.614.614,0,0,1,1.229,0v5.488a.615.615,0,0,1-.614.614" transform="translate(-1.467 -6.359)" fill="#fff"></path><path id="Path_178149" data-name="Path 178149" d="M4.825,35.345a.615.615,0,0,1-.614-.614V32.9a.614.614,0,0,1,1.229,0v1.829a.615.615,0,0,1-.614.614" transform="translate(-1.467 -11.251)" fill="#fff"></path><path id="Path_178150" data-name="Path 178150" d="M14.333,28.667a3.362,3.362,0,0,1-3.359-3.359c0-.07.011-.194.327-3.288.228-2.231.541-5.286.59-5.906a.3.3,0,0,0-.106-.253,5.852,5.852,0,0,0-1.607-.534l-.027-.007c-1.583-.423-3.749-1-3.749-3.387V1.529a.3.3,0,0,0-.3-.3H4.273a.3.3,0,0,0-.3.3V8.846a.614.614,0,1,1-1.229,0V1.529a.3.3,0,0,0-.3-.3H1.528a.3.3,0,0,0-.3.3v9.146a.614.614,0,0,1-1.229,0V.614A.615.615,0,0,1,.614,0H28.052a.616.616,0,0,1,.615.614V10.675a.615.615,0,0,1-1.229,0V1.529a.3.3,0,0,0-.3-.3h-.915a.3.3,0,0,0-.3.3V8.846a.614.614,0,1,1-1.229,0V1.529a.3.3,0,0,0-.3-.3H22.565a.3.3,0,0,0-.3.3v10.4c0,2.386-2.167,2.964-3.749,3.387-1.018.274-1.526.445-1.694.689a.3.3,0,0,0-.051.2c.042.4.595,5.81.595,5.81.316,3.094.327,3.217.327,3.288a3.362,3.362,0,0,1-3.358,3.359M13.118,16.152c-.056.73-.367,3.77-.594,5.994l-.029.289c-.157,1.536-.281,2.749-.292,2.9,0,.007,0,.014,0,.022a2.131,2.131,0,0,0,4.261-.053c0-.008,0-.018,0-.027-.008-.091-.1-1.009-.232-2.281l-.087-.855c-.227-2.221-.537-5.258-.592-5.924,0-1.282,1.151-1.689,2.647-2.089,1.766-.473,2.838-.857,2.838-2.2V11.59a.3.3,0,0,0-.3-.3H7.931a.3.3,0,0,0-.3.3v.343c0,1.343,1.072,1.728,2.838,2.2,1.5.4,2.643.8,2.65,2.019M7.931,1.229a.3.3,0,0,0-.3.3V9.76a.3.3,0,0,0,.3.3h12.8a.3.3,0,0,0,.3-.3V1.529a.3.3,0,0,0-.3-.3H18.906a.3.3,0,0,0-.3.3V5.187a.614.614,0,1,1-1.229,0V1.529a.3.3,0,0,0-.3-.3H15.247a.3.3,0,0,0-.3.3V5.187a.615.615,0,0,1-1.229,0V1.529a.3.3,0,0,0-.3-.3H11.589a.3.3,0,0,0-.3.3V5.187a.614.614,0,1,1-1.229,0V1.529a.3.3,0,0,0-.3-.3Z" fill="#fff"></path></g></g></svg>