<svg xmlns="http://www.w3.org/2000/svg" xmlns:xlink="http://www.w3.org/1999/xlink" x="0px" y="0px" viewBox="0 0 100 100" style="enable-background:new 0 0 100 100;" xml:space="preserve"><g>	<path d="M81.5,9H27.4c-2.5,0-5,1-6.8,2.8c-1.8,1.8-2.8,4.2-2.8,6.8v62.9c0,2.5,1,5,2.8,6.8s4.2,2.8,6.8,2.8h54.1  c0.4,0,0.7-0.3,0.7-0.7c0-0.4-0.3-0.7-0.7-0.7H27.4c-2.2,0.1-4.4-0.7-6-2.3c-1.6-1.5-2.5-3.7-2.5-5.9s0.9-4.3,2.5-5.9  c1.6-1.5,3.8-2.3,6-2.3h54.1c0.2,0,0.4-0.1,0.5-0.2s0.2-0.3,0.2-0.5V9.7c0-0.2-0.1-0.4-0.2-0.5C81.8,9.1,81.6,9,81.5,9L81.5,9z   M19.3,76.4V18.5c0-2.2,0.9-4.2,2.4-5.7s3.6-2.4,5.7-2.4h53.3v61.5H27.4C24.1,71.9,21,73.6,19.3,76.4L19.3,76.4z"></path>	<path d="M81.5,80.7H27c-0.4,0-0.7,0.3-0.7,0.7c0,0.2,0.1,0.4,0.2,0.5s0.3,0.2,0.5,0.2h54.5c0.4,0,0.7-0.3,0.7-0.7  c0-0.2-0.1-0.4-0.2-0.5C81.8,80.8,81.6,80.7,81.5,80.7z"></path>	<path d="M53.7,40.1c2-1.1,3.4-3,3.8-5.2c0.4-2.2-0.2-4.5-1.6-6.3c-1.4-1.7-3.6-2.8-5.9-2.8s-4.4,1-5.9,2.8c-1.4,1.7-2,4-1.6,6.3  c0.4,2.2,1.8,4.2,3.8,5.2c-3.4,0.8-6.5,2.8-8.7,5.5c-2.2,2.8-3.4,6.2-3.4,9.7c0,2.1,0.4,3.4,1.4,4c1.4,0.9,3.4,0.1,5.9-1l0,0  C44.1,57,47,56.2,50,56c3,0.2,5.8,1,8.5,2.3c1.4,0.7,2.9,1.2,4.5,1.4c0.5,0,1-0.1,1.4-0.4c0.9-0.6,1.4-1.9,1.4-4  c0-3.6-1.2-7-3.4-9.8C60.2,42.8,57.1,40.9,53.7,40.1L53.7,40.1z M43.8,33.5c0-1.6,0.6-3.2,1.8-4.4c1.2-1.2,2.7-1.8,4.4-1.8  c1.6,0,3.2,0.6,4.4,1.8c1.2,1.2,1.8,2.7,1.8,4.4c0,1.6-0.6,3.2-1.8,4.4s-2.7,1.8-4.4,1.8c-1.6,0-3.2-0.7-4.4-1.8  C44.5,36.7,43.8,35.1,43.8,33.5L43.8,33.5z M63.6,58.2c-0.7,0.5-2.6-0.3-4.5-1.1l0,0c-2.8-1.4-5.9-2.2-9.1-2.4  c-3.1,0.2-6.2,1-9.1,2.4c-1.9,0.8-3.8,1.6-4.5,1.1c-0.5-0.3-0.7-1.3-0.7-2.9l0,0c0-5.1,2.7-9.8,7.1-12.4s9.9-2.6,14.3,0  s7.1,7.3,7.1,12.4C64.3,56.9,64,57.9,63.6,58.2L63.6,58.2z"></path></g></svg>