<svg xmlns="http://www.w3.org/2000/svg" xmlns:xlink="http://www.w3.org/1999/xlink" id="Group_127878" x="0px" y="0px" viewBox="0 0 33.4 35" style="enable-background:new 0 0 33.4 35;" xml:space="preserve"><style type="text/css">	.st0{clip-path:url(#SVGID_2_);}	.st1{fill:#FFFFFF;}</style><g>	<defs>		<rect id="SVGID_1_" width="33.4" height="35"></rect>	</defs>	<clipPath id="SVGID_2_">		<use xlink:href="#SVGID_1_" style="overflow:visible;"></use>	</clipPath>	<g id="Group_127877" class="st0">		<path id="Path_177565" class="st1" d="M31.9,5.1c-0.2-0.2-0.5-0.4-0.8-0.8c-2.9-2.7-4.6-4.1-5.5-4.1S22.9,1.7,20,4.3   c-0.4,0.3-0.7,0.6-0.9,0.8c-0.5,0.4-1.3,1.2-1.3,2v9.8c0,0.5,0.2,0.9,0.6,1.2c0.3,0.3,0.8,0.4,1.2,0.3l3.6-0.9v3.4h-0.5   c-0.5,0-1,0.4-1,1c0,0,0,0,0,0c0,1.6-0.1,3.2-0.2,4.7c-0.1,1.5-0.2,3.2-0.2,4.7c0.1,2.1,1.9,3.6,4,3.5c2.1,0.1,3.8-1.4,4-3.5   c0-1.6-0.1-3.2-0.2-4.7c-0.1-1.5-0.2-3.1-0.2-4.7c0-0.5-0.5-1-1-1c0,0,0,0,0,0h-0.5v-3.5l3.8,0.9c0.4,0.1,0.8,0,1.2-0.3   c0.4-0.3,0.6-0.7,0.6-1.2V7.1C33,6.3,32.6,5.6,31.9,5.1 M27.9,22c0,1.5,0.1,3.1,0.2,4.6c0.1,1.5,0.2,3.1,0.2,4.7   c-0.1,1.4-1.4,2.5-2.8,2.3c-1.4,0.1-2.7-0.9-2.8-2.3c0-1.5,0.1-3.1,0.2-4.7c0.1-1.5,0.2-3,0.2-4.6L27.9,22z M32,16.9   c0,0.1-0.1,0.2-0.2,0.3c0,0-0.1,0.1-0.2,0.1l-4.1-1V10c0-0.3-0.3-0.6-0.6-0.6c-0.3,0-0.6,0.3-0.6,0.6v10.8h-2v-4.2   c0-0.2-0.1-0.3-0.2-0.5c-0.1-0.1-0.3-0.1-0.5-0.1l-4.3,1c-0.1,0-0.1,0-0.2-0.1c-0.1-0.1-0.2-0.2-0.2-0.3V7.1   c0.2-0.4,0.5-0.8,0.9-1.1c0.2-0.2,0.5-0.5,0.9-0.8c1-0.9,4-3.8,4.7-3.8c0.7,0.1,3.8,2.9,4.8,3.8C30.7,5.6,31,5.8,31.2,6   c0.4,0.3,0.7,0.7,0.9,1.1V16.9z"></path>		<path id="Path_177566" class="st1" d="M14.7,2.9c-0.1-0.8-0.7-1.4-1.5-1.4c-0.8,0-1.4,0.6-1.5,1.4l-0.5,6.8   c-0.2,0.2-0.5,0.2-0.8,0.2c-0.3,0-0.6,0-0.8-0.2L9.1,2.9C9,2.1,8.4,1.5,7.6,1.5h0c-0.8,0-1.4,0.6-1.5,1.4L5.6,9.7   C5.4,9.8,5.1,9.9,4.8,9.8c-0.3,0-0.6,0-0.8-0.2L3.5,2.9C3.4,2.1,2.8,1.5,2,1.5c-0.8,0-1.5,0.6-1.5,1.4l-0.2,7c0,1,0,1.9,0,2.8   c0,0.5,0,0.9,0,1.4c0,0.7,0.5,1.2,1.5,1.5l3.7,1.1v4.2H4.9c-0.5,0-1,0.4-1,1c0,1.6-0.1,3.2-0.2,4.7c-0.1,1.6-0.2,3.2-0.2,4.7   c0.1,2.1,1.9,3.6,4,3.5c2.1,0.1,3.8-1.4,4-3.5c0-1.6-0.1-3.2-0.2-4.7c-0.1-1.5-0.2-3.1-0.2-4.7c0-0.2-0.1-0.5-0.3-0.7   c-0.2-0.2-0.5-0.3-0.7-0.3H9.8v-4.2l3.6-1.1c0.4-0.1,1.5-0.4,1.5-1.5V9.7L14.7,2.9z M10.1,22c0,1.5,0.1,3.1,0.2,4.6   c0.1,1.5,0.2,3.1,0.2,4.7c-0.1,1.4-1.4,2.5-2.8,2.3c-1.4,0.1-2.7-0.9-2.8-2.3c0-1.5,0.1-3.1,0.2-4.7c0.1-1.5,0.2-3,0.2-4.6   L10.1,22z M13.8,14.1c0,0.1-0.2,0.2-0.7,0.4L9,15.6c-0.2,0.1-0.4,0.3-0.4,0.6v4.7h-2v-4.7c0-0.3-0.2-0.5-0.4-0.6l-4.1-1.2   c-0.5-0.1-0.7-0.3-0.7-0.4c0-0.5,0-0.9,0-1.4c0-0.9,0-1.8,0-2.7l0.2-7c0-0.2,0.2-0.3,0.4-0.2c0.2,0,0.3,0.1,0.4,0.3l0.5,6.8   c0,0.4,0.3,0.7,0.6,0.9C3.8,10.9,4.3,11,4.8,11c1.1,0,1.9-0.5,2-1.3l0.5-6.8c0-0.2,0.2-0.3,0.3-0.3c0.2,0,0.3,0.1,0.4,0.3l0.5,6.8   c0,0.4,0.2,0.7,0.6,0.9c0.4,0.2,0.9,0.4,1.4,0.3c1.1,0,1.9-0.5,2-1.2l0.5-6.8c0.1-0.2,0.3-0.3,0.5-0.2c0.1,0,0.2,0.1,0.2,0.2   l0.2,6.8L13.8,14.1z"></path>	</g></g></svg>