<svg xmlns="http://www.w3.org/2000/svg" xmlns:xlink="http://www.w3.org/1999/xlink" id="Layer_1" x="0px" y="0px" viewBox="0 0 50 50" style="enable-background:new 0 0 50 50;" xml:space="preserve"><style type="text/css">	.st0{clip-path:url(#SVGID_2_);}	.st1{fill:#1F4386;}</style><g>	<defs>		<rect id="SVGID_1_" x="1.7" y="1.5" width="46.7" height="47.1"></rect>	</defs>	<clipPath id="SVGID_2_">		<use xlink:href="#SVGID_1_" style="overflow:visible;"></use>	</clipPath>	<g id="Group_128072" class="st0">		<path id="Path_178174" class="st1" d="M43.8,33.6c0,0-11-3.7-11.3-3.8c0,0.1-0.1,0.3-0.1,0.4c-0.5,2-1,4-1.6,6   c-0.7,2.3-1.5,4.6-2.3,6.9c0,0,0,0.1,0,0.1c-0.1,0.3-0.2,0.5-0.3,0.8c-0.1-1.1-0.3-2.4-0.5-3.8c-0.2-1.5-0.4-3-0.5-3.9   c0-0.1-0.1-0.2-0.2-0.2h-3.6c-0.1,0-0.2,0.1-0.2,0.2c-0.1,1-0.3,2.4-0.5,3.9c-0.2,1.4-0.4,2.7-0.5,3.8c-0.1-0.2-0.2-0.5-0.3-0.8   c0,0,0-0.1,0-0.1c-0.8-2.3-1.6-4.6-2.3-6.9c-0.6-2-1.1-4-1.6-6c0-0.1-0.1-0.3-0.1-0.4c-0.3,0-11.3,3.8-11.3,3.8   c-4.8,1.6-4.5,4.8-4.5,4.8v6.3c0.4,3.9,3.4,3.8,3.4,3.8h39.8c0,0,3,0.1,3.4-3.8v-6.3C48.3,38.4,48.6,35.2,43.8,33.6"></path>		<path id="Path_178175" class="st1" d="M28.1,32.4l-0.5-0.9c-0.1-0.2-0.3-0.3-0.5-0.3H23c-0.2,0-0.4,0.1-0.5,0.3l-0.5,0.9   c-0.1,0.2-0.1,0.4,0,0.5l0.9,2c0,0,0.1,0.1,0.1,0.1H27c0,0,0.1,0,0.1-0.1l0.9-2C28.1,32.8,28.1,32.6,28.1,32.4"></path>		<path id="Path_178176" class="st1" d="M35.4,15.1C35.4,15.1,35.4,15,35.4,15.1L35.4,15.1c0.1-1-0.5-1.9-1.3-2.2c0,0,0-0.1,0-0.1   c0-0.1,0-0.2,0-0.3c0-0.3,0.1-0.6,0.1-0.9c0.2-0.8,0.3-1.7,0.4-2.6c0.2-2.7-1.4-5.3-3.9-6.4c-0.3-0.1-0.6-0.2-0.8-0.3   c-1.5-0.6-3.2-0.9-4.8-0.9c-0.4,0-0.7,0-1.1,0c-1.2,0-2.4,0.3-3.6,0.7c-0.1,0.1-0.3,0.1-0.4,0.2c-0.5,0.3-0.9,0.7-1.2,1.2   l-0.2,0.2c-0.1,0.2-0.2,0.3-0.4,0.4c-0.2,0.2-0.5,0.4-0.8,0.5c-0.5,0.2-0.9,0.6-1.2,1c-0.4,0.8-0.6,1.6-0.6,2.5   c0,0.9,0,1.8,0.1,2.8c0,0.4,0.1,0.7,0.2,1.1l0,0.1c0,0.2,0.1,0.5,0.1,0.7c0,0,0,0-0.1,0c-0.9,0.3-1.5,1.2-1.4,2.2v0   c0,0.2,0,0.5,0,0.7c0,0.3,0.1,0.6,0.1,1c0,0.2,0,0.3,0.1,0.5c0.1,1.3,0.8,2.4,1.9,3.1c0,0,0,0.1,0,0.1c0.5,2.4,1.9,4.4,3.9,5.8   c0.2,0.2,0.5,0.3,0.8,0.5l0,0c0.4,0.2,0.8,0.4,1.3,0.5c0,0,0,0,0.1,0c0.4,0.2,0.7,0.3,1.1,0.3c0.3,0.1,0.7,0.1,1,0.1h0.1   c0.3,0,0.6,0,1-0.1c0.4-0.1,0.7-0.2,1.1-0.3l0.1,0c0.4-0.2,0.9-0.3,1.3-0.6l0,0c0.3-0.1,0.5-0.3,0.8-0.5c1.1-0.7,1.9-1.7,2.6-2.7   c0.3-0.5,0.6-1.1,0.8-1.7c0.1-0.2,0.2-0.5,0.2-0.7c0-0.2,0.1-0.4,0.2-0.6c0.2-0.2,0.3-0.3,0.5-0.5c0.1-0.1,0.2-0.2,0.3-0.3   c0.7-0.7,1.1-1.5,1.1-2.5c0-0.2,0-0.3,0.1-0.5c0-0.3,0.1-0.6,0.1-1C35.4,15.6,35.4,15.3,35.4,15.1"></path>	</g></g></svg>