<svg xmlns="http://www.w3.org/2000/svg" xmlns:xlink="http://www.w3.org/1999/xlink" id="Layer_1" x="0px" y="0px" viewBox="0 0 50 50" style="enable-background:new 0 0 50 50;" xml:space="preserve"><style type="text/css">	.st0{fill:#1F4386;}</style><g id="Icon-1" transform="translate(0)">	<path id="Path_178169" class="st0" d="M13.4,22.6c-1.7,0.8-3,2.3-3.4,4.2l-0.1,0.4H22l-1.7-4.5c-0.3-0.9-0.6-1.9-0.6-2.8L13.4,22.6  z"></path>	<path id="Path_178170" class="st0" d="M11,47.3H39c0.5,0,0.9,0.4,0.9,0.9c0,0.5-0.4,0.9-0.9,0.9H11c-0.5,0-0.9-0.4-0.9-0.9  C10.1,47.8,10.5,47.3,11,47.3"></path>	<path id="Path_178171" class="st0" d="M8.2,28.1c-0.9,0-1.8,1-1.7,1.8l3.1,15.5c0.2,0.6,0.8,1,1.4,1.1H39c0.6,0,1.2-0.4,1.4-1.1  l3.1-15.5c0.2-0.8-0.8-1.8-1.7-1.8H8.2z"></path>	<path id="Path_178172" class="st0" d="M40.1,27.2L40,26.8c-0.4-1.9-1.7-3.4-3.4-4.2l-6.3-2.7c-0.1,1-0.3,1.9-0.6,2.8L28,27.2H40.1z  "></path>	<path id="Path_178173" class="st0" d="M26.5,27.2c-0.2-0.6-0.4-1.2-0.8-1.7c0.3-0.6,0.6-1.1,1-1.6c-0.3-0.5-0.7-0.9-1.1-1.3  c1.4-0.9,2.7-1.9,3.9-3.1l-0.4-1.8c0.6-1.1,1-2.2,1.2-3.4l0,0c0.4,0.1,0.9-0.7,1.2-1.9c0.2-1.1,0.1-2.1-0.3-2.2  c0.1-0.6,0.2-1.1,0.2-1.6c0.2-1.1,0.1-2.2-0.1-3.2c-1.2-4.3-9.2-7-11.3-1.7c-0.5,0.1-1.1,1-1.3,1.6c-0.3,1.1-0.3,2.2-0.1,3.3  c0.1,0.5,0.1,1,0.2,1.6c-0.4,0.1-0.5,1.1-0.3,2.2c0.2,1.1,0.8,2,1.2,1.9l0,0c0.2,1.2,0.6,2.3,1.2,3.4l-0.4,1.8  c1.2,1.2,2.5,2.2,3.9,3.1c-0.4,0.4-0.8,0.8-1.1,1.3c0.4,0.5,0.7,1.1,1,1.6c-0.4,0.5-0.7,1.1-0.8,1.7L26.5,27.2z"></path></g></svg>