<svg xmlns="http://www.w3.org/2000/svg" xmlns:xlink="http://www.w3.org/1999/xlink" id="Group_127876" x="0px" y="0px" viewBox="0 0 30 30" style="enable-background:new 0 0 30 30;" xml:space="preserve"><style type="text/css">	.st0{clip-path:url(#SVGID_2_);}	.st1{fill:#FFFFFF;}</style><g>	<defs>		<rect id="SVGID_1_" x="0.5" y="0.5" width="29" height="29"></rect>	</defs>	<clipPath id="SVGID_2_">		<use xlink:href="#SVGID_1_" style="overflow:visible;"></use>	</clipPath>	<g id="Group_127875" class="st0">		<path id="Path_177562" class="st1" d="M29.4,15.5l-3.5-4.4c0-0.1-0.1-0.1-0.1-0.2V3.9c0-0.8-0.7-1.5-1.5-1.5h-1.9   c-0.8,0-1.5,0.7-1.5,1.5v1c0,0.1-0.1,0.2-0.2,0.3c0,0-0.1,0-0.1,0c-0.1,0-0.2,0-0.2-0.1l-3.1-3.7c0,0,0,0,0-0.1   c-1.2-1.1-3.1-1.1-4.3,0c0,0,0,0,0,0.1L0.7,15.5c-0.2,0.3-0.2,0.7,0.1,0.9c0.1,0.1,0.3,0.2,0.4,0.2h2.8c0.2,0,0.3,0.1,0.3,0.3V28   c0,0.9,0.7,1.5,1.5,1.5l0,0h18.5c0.9,0,1.5-0.7,1.5-1.5l0,0V16.8c0-0.2,0.1-0.3,0.3-0.3h2.8c0.3,0,0.6-0.3,0.6-0.6   C29.5,15.8,29.4,15.6,29.4,15.5 M19.9,28c0,0.2-0.1,0.3-0.3,0.3h-5.6c-0.2,0-0.3-0.1-0.3-0.3v-6.5c0-0.2,0.1-0.3,0.3-0.3h5.6   c0.2,0,0.3,0.1,0.3,0.3L19.9,28z M27.2,15.1c-0.1,0.1-0.2,0.2-0.3,0.2h-1.8c-0.3,0-0.6,0.3-0.6,0.6v12c0,0.2-0.1,0.3-0.3,0.3h-2.8   c-0.2,0-0.3-0.1-0.3-0.3v-6.5c0-0.8-0.7-1.5-1.5-1.5c0,0,0,0,0,0h-5.6c-0.8,0-1.5,0.7-1.5,1.5c0,0,0,0,0,0v6.8H5.7   c-0.2,0-0.3-0.1-0.3-0.3v-12c0-0.3-0.3-0.6-0.6-0.6H3.1c-0.2,0-0.3-0.1-0.3-0.3c0-0.1,0-0.1,0.1-0.2L13.7,2.3c0,0,0,0,0,0   c0.7-0.6,1.8-0.6,2.5,0c0,0,0,0,0,0L21,7.8C21.1,8,21.3,8,21.5,8c0.1,0,0.1,0,0.2,0c0.2-0.1,0.4-0.3,0.4-0.6l0-3.5   c0-0.2,0.1-0.3,0.3-0.3l1.9,0c0.1,0,0.2,0,0.2,0.1c0.1,0.1,0.1,0.1,0.1,0.2v7.4c0,0.1,0,0.3,0.1,0.4l2.5,3.1   C27.3,14.9,27.3,15,27.2,15.1"></path>		<path id="Path_177563" class="st1" d="M11.6,17.6c-0.6,0-1.1-0.5-1.1-1.1V9.7c0-0.6,0.5-1.1,1.1-1.1h6.8c0.6,0,1.1,0.5,1.1,1.1   v6.8c0,0.6-0.5,1.1-1.1,1.1L11.6,17.6z M15.9,13.8c-0.2,0-0.3,0.1-0.3,0.3v1.9c0,0.2,0.1,0.3,0.3,0.3h1.9c0.2,0,0.3-0.1,0.3-0.3   v-1.9c0-0.2-0.1-0.3-0.3-0.3L15.9,13.8z M12.2,13.8c-0.2,0-0.3,0.1-0.3,0.3v1.9c0,0.2,0.1,0.3,0.3,0.3h1.9c0.2,0,0.3-0.1,0.3-0.3   v-1.9c0-0.2-0.1-0.3-0.3-0.3L12.2,13.8z M15.9,10.1c-0.2,0-0.3,0.1-0.3,0.3v1.9c0,0.2,0.1,0.3,0.3,0.3h1.9c0.2,0,0.3-0.1,0.3-0.3   v-1.9c0-0.2-0.1-0.3-0.3-0.3L15.9,10.1z M12.2,10.1c-0.2,0-0.3,0.1-0.3,0.3v1.9c0,0.2,0.1,0.3,0.3,0.3h1.9c0.2,0,0.3-0.1,0.3-0.3   v-1.9c0-0.2-0.1-0.3-0.3-0.3L12.2,10.1z"></path>		<path id="Path_177564" class="st1" d="M17.2,24.3L17.2,24.3c0-0.3,0.3-0.6,0.6-0.6s0.6,0.3,0.6,0.6c0,0.3-0.3,0.6-0.6,0.6   C17.4,24.9,17.2,24.6,17.2,24.3L17.2,24.3"></path>	</g></g></svg>