<svg xmlns="http://www.w3.org/2000/svg" xmlns:xlink="http://www.w3.org/1999/xlink" id="Layer_1" x="0px" y="0px" viewBox="0 0 120 120" style="enable-background:new 0 0 120 120;" xml:space="preserve"><style type="text/css">	.st0{fill-rule:evenodd;clip-rule:evenodd;fill:#C1C0C4;}	.st1{fill:#C1C0C4;}</style><g>	<path class="st0" d="M34.2,42.1c0.6-0.1,1.2,0.2,1.3,0.8c0.1,0.6-0.2,1.2-0.8,1.3c-0.6,0.1-1.2-0.2-1.3-0.8  C33.3,42.9,33.7,42.3,34.2,42.1 M24,39.3c0.3-0.1,0.7,0.1,0.8,0.5c0.1,0.3-0.1,0.7-0.5,0.8c-0.3,0.1-0.7-0.1-0.8-0.5  C23.4,39.7,23.6,39.4,24,39.3z M40.4,41c0.3,0.2,0.4,0.6,0.2,0.9c-0.2,0.3-0.6,0.4-0.9,0.2c-0.3-0.2-0.4-0.6-0.2-0.9  C39.8,40.9,40.1,40.8,40.4,41z M37.8,70.9c-0.5,0.8-1.5,1-2.2,0.5c-0.8-0.5-1-1.5-0.5-2.2c0.5-0.8,1.5-1,2.2-0.5  C38.1,69.1,38.3,70.1,37.8,70.9z M39.9,75.5c-0.3,0.5-1,0.7-1.5,0.4c-0.5-0.3-0.7-1-0.4-1.5c0.3-0.5,1-0.7,1.5-0.4  C40.1,74.3,40.3,75,39.9,75.5z M47.9,76.7c-0.9,1.4-2.7,1.8-4.1,1c-1.4-0.9-1.8-2.7-1-4.1c0.9-1.4,2.7-1.8,4.1-1  C48.3,73.5,48.7,75.3,47.9,76.7z M26.1,77.9c-0.6,0.1-1.2-0.2-1.3-0.8c-0.1-0.6,0.2-1.2,0.8-1.3c0.6-0.1,1.2,0.2,1.3,0.8  C27.1,77.1,26.7,77.7,26.1,77.9z M36.4,80.7c-0.3,0.1-0.7-0.1-0.8-0.5c-0.1-0.3,0.1-0.7,0.5-0.8c0.3-0.1,0.7,0.1,0.8,0.5  C36.9,80.3,36.7,80.6,36.4,80.7z M30.9,84.3c-1.6,0.4-3.2-0.6-3.5-2.2c-0.4-1.6,0.6-3.2,2.2-3.5c1.6-0.4,3.2,0.6,3.5,2.2  C33.4,82.4,32.4,83.9,30.9,84.3z M14.7,69.8c-0.5-0.3-0.7-1-0.4-1.5c0.3-0.5,1-0.7,1.5-0.4c0.5,0.3,0.7,1,0.4,1.5  C15.9,69.9,15.2,70.1,14.7,69.8z M19.9,79c-0.3-0.2-0.4-0.6-0.2-0.9c0.2-0.3,0.6-0.4,0.9-0.2c0.3,0.2,0.4,0.6,0.2,0.9  C20.6,79.1,20.2,79.2,19.9,79z M12.3,55.9c-0.1-0.6,0.2-1.2,0.8-1.3c0.6-0.1,1.2,0.2,1.3,0.8c0.1,0.6-0.2,1.2-0.8,1.3  C13.1,56.9,12.5,56.5,12.3,55.9z M9.5,66.2c-0.1-0.3,0.1-0.7,0.5-0.8c0.3-0.1,0.7,0.1,0.8,0.5c0.1,0.3-0.1,0.7-0.5,0.8  C9.9,66.8,9.6,66.5,9.5,66.2z M20.4,44.5c0.3-0.5,1-0.7,1.5-0.4c0.5,0.3,0.7,1,0.4,1.5c-0.3,0.5-1,0.7-1.5,0.4  C20.3,45.7,20.1,45,20.4,44.5z M11.2,49.8c0.2-0.3,0.6-0.4,0.9-0.2c0.3,0.2,0.4,0.6,0.2,0.9c-0.2,0.3-0.6,0.4-0.9,0.2  C11.1,50.4,11,50,11.2,49.8z M21.4,68.3l0.9,2.2c0.2,0.4,0.5,0.6,0.9,0.7c0.3,0,0.6,0.1,0.9,0.3c1,0.6,1.3,1.9,0.7,2.9  c-0.6,1-1.9,1.3-2.9,0.7c-0.2-0.1-0.3-0.3-0.5-0.4c-0.3-0.3-0.7-0.5-1.1-0.4l-1.5,0.4c-0.5,0.1-0.8,0.5-0.8,0.9  c-0.1,0.4-0.2,0.8-0.4,1.1c-0.9,1.4-2.7,1.8-4.1,1c-1.4-0.9-1.8-2.7-1-4.1c0.9-1.4,2.7-1.8,4.1-1c0.4,0.2,0.6,0.5,0.9,0.8  c0.3,0.4,0.7,0.6,1.2,0.4l1.5-0.4c0.4-0.1,0.7-0.4,0.8-0.8c0.1-0.2,0.1-0.4,0.3-0.6c0.1-0.1,0.1-0.2,0.2-0.3  c0.3-0.3,0.3-0.7,0.2-1.1l-0.9-2.2c-0.1-0.4-0.4-0.6-0.8-0.7c-0.2,0-0.4-0.1-0.5-0.2c-0.8-0.5-1-1.5-0.5-2.2c0.5-0.8,1.5-1,2.2-0.5  c0.8,0.5,1,1.5,0.5,2.2c0,0,0,0.1-0.1,0.1C21.3,67.5,21.2,67.9,21.4,68.3z M18.1,59.6l-0.9,2.2c-0.2,0.4-0.1,0.8,0.2,1.1  c0.2,0.2,0.3,0.5,0.4,0.9c0.3,1.1-0.4,2.3-1.6,2.5c-1.1,0.3-2.3-0.4-2.5-1.6c0-0.2-0.1-0.4-0.1-0.6c0-0.4-0.2-0.8-0.5-1l-1.3-0.8  c-0.4-0.2-0.9-0.2-1.2,0.1c-0.3,0.2-0.7,0.4-1.1,0.5c-1.6,0.4-3.2-0.6-3.5-2.2c-0.4-1.6,0.6-3.2,2.2-3.5c1.6-0.4,3.2,0.6,3.5,2.2  c0.1,0.4,0.1,0.8,0,1.2c-0.1,0.5,0.1,0.9,0.5,1.1l1.3,0.8c0.4,0.2,0.8,0.2,1.2,0c0.2-0.1,0.4-0.2,0.6-0.2c0.1,0,0.2,0,0.3,0  c0.4,0,0.8-0.3,0.9-0.7l0.9-2.2c0.2-0.4,0.1-0.7-0.1-1.1c-0.1-0.2-0.2-0.3-0.2-0.5c-0.2-0.9,0.3-1.7,1.2-2c0.9-0.2,1.7,0.3,2,1.2  c0.2,0.9-0.3,1.7-1.2,2c0,0-0.1,0-0.1,0C18.6,59,18.3,59.2,18.1,59.6z M21.9,51.2l-2.2,0.9c-0.4,0.2-0.6,0.5-0.7,0.9  c0,0.3-0.1,0.6-0.3,0.9c-0.6,1-1.9,1.3-2.9,0.7c-1-0.6-1.3-1.9-0.7-2.9c0.1-0.2,0.3-0.3,0.4-0.5c0.3-0.3,0.5-0.7,0.4-1.1l-0.4-1.5  c-0.1-0.5-0.5-0.8-0.9-0.8c-0.4-0.1-0.8-0.2-1.1-0.4c-1.4-0.9-1.8-2.7-1-4.1c0.9-1.4,2.7-1.8,4.1-1c1.4,0.9,1.8,2.7,1,4.1  c-0.2,0.4-0.5,0.6-0.8,0.9c-0.4,0.3-0.6,0.7-0.4,1.2l0.4,1.5c0.1,0.4,0.4,0.7,0.8,0.8c0.2,0.1,0.4,0.1,0.6,0.3  c0.1,0.1,0.2,0.1,0.3,0.2c0.3,0.3,0.7,0.3,1.1,0.2l2.2-0.9c0.4-0.1,0.6-0.4,0.7-0.8c0-0.2,0.1-0.4,0.2-0.5c0.5-0.8,1.5-1,2.2-0.5  c0.8,0.5,1,1.5,0.5,2.2c-0.5,0.8-1.5,1-2.2,0.5c0,0-0.1,0-0.1-0.1C22.7,51.1,22.3,51,21.9,51.2z M40.1,45.7l1.5-0.4  c0.5-0.1,0.8-0.5,0.8-0.9c0.1-0.4,0.2-0.8,0.4-1.1c0.9-1.4,2.7-1.8,4.1-1c1.4,0.9,1.8,2.7,1,4.1c-0.9,1.4-2.7,1.8-4.1,1  c-0.4-0.2-0.6-0.5-0.9-0.8c-0.3-0.4-0.7-0.6-1.2-0.4l-1.5,0.4c-0.4,0.1-0.7,0.4-0.8,0.8c-0.1,0.2-0.1,0.4-0.3,0.6  c-0.6,1-1.9,1.3-2.9,0.7c-1-0.6-1.3-1.9-0.7-2.9c0.6-1,1.9-1.3,2.9-0.7c0.2,0.1,0.3,0.3,0.5,0.4C39.3,45.7,39.7,45.8,40.1,45.7z   M29.8,72.1L32,73c0.4,0.2,0.8,0.1,1.1-0.2c0.2-0.2,0.5-0.3,0.9-0.4c1.1-0.3,2.3,0.4,2.5,1.6c0.3,1.1-0.4,2.3-1.6,2.5  c-1.1,0.3-2.3-0.4-2.5-1.6c0-0.1,0-0.2-0.1-0.3c0-0.4-0.3-0.8-0.7-0.9l-2.2-0.9c-0.4-0.2-0.7-0.1-1.1,0.1c-0.2,0.1-0.3,0.2-0.5,0.2  c-0.9,0.2-1.7-0.3-2-1.2c-0.2-0.9,0.3-1.7,1.2-2c0.9-0.2,1.7,0.3,2,1.2c0,0,0,0.1,0,0.1C29.2,71.6,29.4,71.9,29.8,72.1z M32.5,46.9  c0.9-0.2,1.7,0.3,2,1.2c0.2,0.9-0.3,1.7-1.2,2c-0.9,0.2-1.7-0.3-2-1.2c0,0,0-0.1,0-0.1c-0.1-0.4-0.3-0.7-0.7-0.8L28.4,47  c-0.4-0.2-0.8-0.1-1.1,0.2c-0.2,0.2-0.5,0.3-0.9,0.4c-1.1,0.3-2.3-0.4-2.5-1.6c-0.3-1.1,0.4-2.3,1.6-2.5c0.2,0,0.4-0.1,0.6-0.1  c0.4,0,0.8-0.2,1-0.5l0.8-1.3c0.2-0.4,0.2-0.9-0.1-1.2c-0.2-0.3-0.4-0.7-0.5-1.1c-0.4-1.6,0.6-3.2,2.2-3.5c1.6-0.4,3.2,0.6,3.5,2.2  c0.4,1.6-0.6,3.2-2.2,3.5c-0.4,0.1-0.8,0.1-1.2,0c-0.5-0.1-0.9,0.1-1.1,0.5l-0.8,1.3c-0.2,0.4-0.2,0.8,0,1.2  c0.1,0.2,0.2,0.4,0.2,0.6c0,0.1,0,0.2,0,0.3c0,0.4,0.3,0.8,0.7,0.9l2.2,0.9c0.4,0.2,0.7,0.1,1.1-0.1C32.1,47,32.3,46.9,32.5,46.9z"></path>	<path class="st1" d="M113.3,62.2c-0.7,0.4-1.3,0.5-1.9,0.5c-1.1,0-1.7-0.7-1.7-2v-4.5h3.7v-2.5h-3.7v-3.4h-3v3.4h-2.4v2.5h2.4V61  c0,1.5,0.4,2.7,1.2,3.4c0.8,0.8,1.9,1.1,3.3,1.1c0.9,0,1.9-0.3,3-0.8L113.3,62.2z M98,62.8c-0.9,0-1.7-0.3-2.3-0.9  c-0.6-0.6-0.9-1.4-0.9-2.4c0-1,0.3-1.8,0.9-2.4c0.6-0.6,1.3-0.9,2.3-0.9c1.5,0,2.4,0.8,2.8,2.3l2.9-0.8c-0.4-1.3-1.1-2.3-2.1-3  c-1-0.8-2.2-1.2-3.6-1.2c-1.7,0-3.1,0.6-4.3,1.7c-1.2,1.1-1.8,2.6-1.8,4.3c0,1.8,0.6,3.2,1.8,4.3c1.2,1.1,2.6,1.7,4.3,1.7  c1.4,0,2.6-0.4,3.6-1.2c1.1-0.8,1.7-1.8,2.1-3.1l-2.8-0.7C100.4,62.1,99.4,62.8,98,62.8z M84.7,56.1c0.6,0,1.2,0.2,1.7,0.5  c0.5,0.3,0.8,0.9,1,1.6h-5.5c0.2-0.7,0.5-1.2,1.1-1.5C83.5,56.3,84.1,56.1,84.7,56.1z M90.5,59.3c-0.1-1.7-0.6-3.1-1.8-4.2  c-1.1-1.1-2.4-1.6-4-1.6c-1.7,0-3,0.6-4.2,1.7c-1.1,1.1-1.7,2.6-1.7,4.3c0,1.8,0.6,3.2,1.7,4.3c1.1,1.1,2.5,1.7,4.1,1.7  c1.3,0,2.4-0.3,3.3-0.9c1-0.6,1.7-1.5,2.2-2.6l-2.7-0.6c-0.6,1-1.5,1.5-2.8,1.5c-0.7,0-1.3-0.2-1.8-0.7c-0.5-0.5-0.9-1.1-1-1.9h8.7  V59.3z M72.3,53.5c-1.5,0-2.7,0.5-3.6,1.4v-1h-3v11.4h3v-5c0-2.6,0.9-3.9,2.8-3.9c0.7,0,1.3,0.2,1.7,0.7c0.4,0.5,0.6,1.1,0.6,1.9  v6.3h3v-6.9c0-1.4-0.4-2.6-1.3-3.4C74.8,54,73.7,53.5,72.3,53.5z M58.3,53.5c-1.5,0-2.7,0.5-3.6,1.4v-1h-3v11.4h3v-5  c0-2.6,0.9-3.9,2.8-3.9c0.7,0,1.3,0.2,1.7,0.7c0.4,0.5,0.6,1.1,0.6,1.9v6.3h3v-6.9c0-1.4-0.4-2.6-1.3-3.4  C60.8,54,59.7,53.5,58.3,53.5z M43.3,62.9c-0.9,0-1.6-0.3-2.3-0.9c-0.7-0.6-1-1.4-1-2.5c0-1,0.3-1.8,1-2.5c0.7-0.6,1.4-0.9,2.3-0.9  c0.8,0,1.6,0.3,2.2,0.9c0.7,0.6,1,1.4,1,2.4c0,1-0.3,1.8-1,2.4C44.9,62.6,44.2,62.9,43.3,62.9z M43.3,53.6c-1.7,0-3.2,0.6-4.4,1.7  c-1.2,1.1-1.8,2.5-1.8,4.3c0,1.7,0.6,3.2,1.8,4.3c1.2,1.1,2.7,1.7,4.4,1.7c1.7,0,3.1-0.6,4.3-1.7c1.2-1.1,1.8-2.5,1.8-4.3  c0-1.7-0.6-3.2-1.8-4.3C46.5,54.1,45,53.6,43.3,53.6z M30.1,62.8c-0.9,0-1.7-0.3-2.3-0.9c-0.6-0.6-0.9-1.4-0.9-2.4  c0-1,0.3-1.8,0.9-2.4c0.6-0.6,1.3-0.9,2.3-0.9c1.5,0,2.4,0.8,2.8,2.3l2.9-0.8c-0.4-1.3-1.1-2.3-2.1-3c-1-0.8-2.2-1.2-3.6-1.2  c-1.7,0-3.1,0.6-4.3,1.7c-1.2,1.1-1.8,2.6-1.8,4.3c0,1.8,0.6,3.2,1.8,4.3c1.2,1.1,2.6,1.7,4.3,1.7c1.4,0,2.6-0.4,3.6-1.2  c1.1-0.8,1.7-1.8,2.1-3.1L33,60.6C32.5,62.1,31.5,62.8,30.1,62.8z"></path></g></svg>