<svg xmlns="http://www.w3.org/2000/svg" xmlns:xlink="http://www.w3.org/1999/xlink" id="Layer_1" x="0px" y="0px" viewBox="0 0 50 50" style="enable-background:new 0 0 50 50;" xml:space="preserve"><style type="text/css">	.st0{clip-path:url(#SVGID_2_);}	.st1{fill:#1F4386;}</style><g>	<defs>		<rect id="SVGID_1_" x="3" y="1.9" width="44" height="46.3"></rect>	</defs>	<clipPath id="SVGID_2_">		<use xlink:href="#SVGID_1_" style="overflow:visible;"></use>	</clipPath>	<g id="Group_128076" class="st0">		<path id="Path_178185" class="st1" d="M7.5,23.2l3.8,0.6c0.3,0.9,0.7,1.8,1.1,2.7l-1.9,2.7c-0.2,0.4-0.2,0.8,0.1,1.1l3.8,3.8   c0.3,0.3,0.8,0.3,1.1,0.1l2.7-1.9c0.9,0.5,1.8,0.9,2.7,1.1l0.6,3.3c0.1,0.4,0.4,0.7,0.9,0.7h5.3c0.4,0,0.8-0.3,0.9-0.7l0.6-3.3   c1-0.3,1.9-0.7,2.7-1.1l2.7,1.9c0.4,0.2,0.8,0.2,1.1-0.1l3.8-3.8c0.3-0.3,0.3-0.8,0.1-1.1l-1.9-2.7c0.5-0.9,0.8-1.7,1.1-2.7   l3.8-0.6c0.4-0.1,0.7-0.4,0.7-0.9V17c0-0.4-0.3-0.8-0.7-0.9l-3.8-0.6c-0.3-0.9-0.7-1.8-1.1-2.7l1.9-2.7c0.2-0.4,0.2-0.8-0.1-1.1   l-3.8-3.8c-0.3-0.3-0.8-0.3-1.1-0.1L31.8,7C31,6.5,30,6.2,29.1,5.9l-0.6-3.3c-0.1-0.4-0.4-0.7-0.9-0.7h-5.3   c-0.4,0-0.8,0.3-0.9,0.7l-0.6,3.3C20,6.2,19,6.5,18.2,7l-2.7-1.9c-0.4-0.2-0.8-0.2-1.1,0.1l-3.8,3.8c-0.3,0.3-0.3,0.8-0.1,1.1   l1.9,2.7c-0.5,0.9-0.8,1.7-1.1,2.7l-3.8,0.6c-0.4,0.1-0.7,0.4-0.7,0.9v5.3C6.8,22.7,7.1,23.1,7.5,23.2 M8.5,17.7l3.6-0.6   c0.3-0.1,0.6-0.3,0.7-0.6c0.3-1.2,0.8-2.3,1.4-3.3c0.2-0.3,0.2-0.7,0-1l-1.8-2.6L15,7l2.6,1.8c0.3,0.2,0.7,0.2,1,0   c1-0.6,2.2-1.1,3.3-1.4c0.3-0.1,0.6-0.4,0.7-0.7l0.5-3.1h3.8l0.5,3.1c0.1,0.3,0.3,0.6,0.7,0.7c1.2,0.3,2.3,0.8,3.3,1.4   c0.3,0.2,0.7,0.2,1,0L35,7l2.7,2.7l-1.8,2.6c-0.2,0.3-0.2,0.7,0,1c0.6,1,1.1,2.1,1.4,3.3c0.1,0.3,0.4,0.6,0.7,0.6l3.6,0.6v3.8   l-3.6,0.6c-0.3,0.1-0.6,0.3-0.7,0.6c-0.3,1.2-0.8,2.3-1.4,3.3c-0.2,0.3-0.2,0.7,0,1l1.8,2.6L35,32.3l-2.6-1.8   c-0.3-0.2-0.7-0.2-1,0c-1,0.6-2.2,1.1-3.3,1.4c-0.3,0.1-0.6,0.4-0.7,0.7l-0.5,3.1h-3.8l-0.5-3.1c-0.1-0.3-0.3-0.6-0.7-0.7   c-1.2-0.3-2.3-0.8-3.3-1.4c-0.3-0.2-0.7-0.2-1,0L15,32.3l-2.7-2.7l1.8-2.6c0.2-0.3,0.2-0.7,0-1c-0.6-1-1.1-2.1-1.4-3.3   c-0.1-0.3-0.4-0.6-0.7-0.6l-3.6-0.6L8.5,17.7z"></path>		<path id="Path_178186" class="st1" d="M25,28.6c0.5,0,0.9-0.4,0.9-0.9c0-0.5-0.4-0.9-0.9-0.9c-4,0-7.2-3.2-7.2-7.2   c0-4,3.2-7.2,7.2-7.2s7.2,3.2,7.2,7.2c0,2.4-1.2,4.6-3.2,6c-0.4,0.3-0.5,0.8-0.2,1.2c0.3,0.4,0.8,0.5,1.2,0.2   c4.1-2.8,5.2-8.3,2.4-12.4c-2.8-4.1-8.3-5.2-12.4-2.4s-5.2,8.3-2.4,12.4C19.2,27.1,22,28.6,25,28.6"></path>		<path id="Path_178187" class="st1" d="M19.6,44.1H6.3c-0.5,0-0.9,0.4-0.9,0.9s0.4,0.9,0.9,0.9h13.3c0.5,0,0.9-0.4,0.9-0.9   S20,44.1,19.6,44.1"></path>		<path id="Path_178188" class="st1" d="M43.8,41.8H6.2C4.4,41.8,3,43.2,3,45c0,1.8,1.4,3.2,3.2,3.2h37.6c1.8,0,3.2-1.4,3.2-3.2   C47,43.2,45.6,41.8,43.8,41.8 M43.8,46.4H6.2c-0.8,0-1.4-0.6-1.4-1.4c0-0.8,0.6-1.4,1.4-1.4h37.6c0.8,0,1.4,0.6,1.4,1.4   C45.2,45.7,44.6,46.4,43.8,46.4"></path>	</g></g></svg>