<svg xmlns="http://www.w3.org/2000/svg" xmlns:xlink="http://www.w3.org/1999/xlink" x="0px" y="0px" viewBox="0 0 100 100" style="enable-background:new 0 0 100 100;" xml:space="preserve"><g>	<path d="M41.3,57.6h16.7L76.3,76c0.1,0.1,0.3,0.2,0.5,0.2c0.1,0,0.2,0,0.3-0.1c0.3-0.1,0.4-0.4,0.4-0.6V57.6h1.8  c8.4,0,15.3-6.8,15.3-15.3V20.2C94.5,11.8,87.7,5,79.3,5H27.2C18.8,5,12,11.8,12,20.2v22.1c0,8.4,6.8,15.3,15.3,15.3h0.6  c-2.2,2.3-4.3,4-5.9,5.2c-0.4,0.3-0.8,0.7-1.1,1.1c-0.4-0.9-1.2-1.5-2.2-1.5H7.9c-1.3,0-2.4,1.1-2.4,2.4v27.9C5.5,94,6.5,95,7.9,95  h10.8c1.2,0,2.1-0.8,2.4-1.9c0.7,0.7,1.7,1.1,2.7,1.1l30.7,0c2.4,0,4.3-1.9,4.3-4.3c0-1.5-0.8-2.9-2-3.6c1.2-0.8,2-2.1,2-3.6  c0-1.5-0.8-2.9-2-3.6c1.2-0.8,2-2.1,2-3.6c0-1.5-0.8-2.9-2-3.6c1.2-0.8,2-2.1,2-3.6c0-2.4-1.9-4.3-4.3-4.3l-16.2,0h0  c-0.2,0-0.4-0.1-0.5-0.2c-0.1-0.1-0.2-0.3-0.2-0.5c0-0.2,0.1-0.3,0.2-0.4C39.4,60.7,40.5,59,41.3,57.6L41.3,57.6z M19.7,92.6  c0,0.6-0.5,1-1,1H7.9c-0.6,0-1-0.5-1-1V64.7c0-0.6,0.5-1,1-1h10.8c0.6,0,1,0.5,1,1V92.6z M27.2,56.2c-7.6,0-13.9-6.2-13.9-13.9  V20.2c0-7.6,6.2-13.9,13.9-13.9h52.1c7.6,0,13.9,6.2,13.9,13.9v22.1c0,7.6-6.2,13.9-13.9,13.9h-2.5c-0.4,0-0.7,0.3-0.7,0.7v16.9  L58.7,56.4c-0.1-0.1-0.3-0.2-0.5-0.2H41.9c1.3-2.9,1-4.7,0.9-4.8c-0.5-2.8-1.6-4.7-3.3-5.6c-0.8-0.4-1.7-0.5-2.6-0.2  c-0.9,0.3-1.7,1-2.1,1.9c-1.5,3.3-3.6,6.2-5.8,8.7L27.2,56.2L27.2,56.2z M36.8,64.5c0.4,0.4,0.9,0.6,1.5,0.6h0l16.2,0  c1.6,0,2.9,1.3,2.9,2.9c0,1.6-1.3,2.9-2.9,2.9H38.3c-0.4,0-0.7,0.3-0.7,0.7c0,0.4,0.3,0.7,0.7,0.7h16.2c1.6,0,2.9,1.3,2.9,2.9  c0,1.6-1.3,2.9-2.9,2.9l-16.2,0c-0.4,0-0.7,0.3-0.7,0.7c0,0.4,0.3,0.7,0.7,0.7h16.2c1.6,0,2.9,1.3,2.9,2.9c0,1.6-1.3,2.9-2.9,2.9  l-13.6,0c-0.4,0-0.7,0.3-0.7,0.7s0.3,0.7,0.7,0.7h13.6c1.6,0,2.9,1.3,2.9,2.9s-1.3,2.9-2.9,2.9H23.7c-1.5,0-2.7-1.2-2.7-2.7  c0,0,0,0,0,0V67.3c0-1.4,0.6-2.6,1.7-3.5c3.5-2.7,9.9-8.3,13.4-15.8c0.3-0.6,0.7-1,1.3-1.2c0.5-0.2,1.1-0.1,1.5,0.1  c1.3,0.7,2.1,2.2,2.6,4.6c0,0,0.6,3.8-4.8,10c-0.3,0.4-0.5,0.9-0.5,1.4C36.2,63.5,36.4,64.1,36.8,64.5L36.8,64.5z"></path>	<path d="M13.2,84.6c-1.7,0-3.1,1.4-3.1,3.1c0,1.7,1.4,3.1,3.1,3.1c1.7,0,3.1-1.4,3.1-3.1C16.4,86.1,15,84.6,13.2,84.6z M13.2,89.5  c-1,0-1.7-0.8-1.7-1.7c0-1,0.8-1.7,1.7-1.7c1,0,1.7,0.8,1.7,1.7C15,88.7,14.2,89.5,13.2,89.5z"></path>	<path d="M25.4,18.2H58c0.4,0,0.7-0.3,0.7-0.7c0-0.4-0.3-0.7-0.7-0.7H25.4c-0.4,0-0.7,0.3-0.7,0.7C24.7,17.9,25,18.2,25.4,18.2z"></path>	<path d="M25.4,29.3h55.8c0.4,0,0.7-0.3,0.7-0.7s-0.3-0.7-0.7-0.7H25.4c-0.4,0-0.7,0.3-0.7,0.7S25,29.3,25.4,29.3L25.4,29.3z"></path>	<path d="M81.8,39.7c0-0.4-0.3-0.7-0.7-0.7H25.4c-0.4,0-0.7,0.3-0.7,0.7s0.3,0.7,0.7,0.7h55.8C81.5,40.4,81.8,40,81.8,39.7z"></path></g></svg>