<svg xmlns="http://www.w3.org/2000/svg" xmlns:xlink="http://www.w3.org/1999/xlink" width="62.139" height="75.883" viewBox="0 0 62.139 75.883"><defs><clipPath><rect data-name="Rectangle 40114" width="62.139" height="75.883" transform="translate(0 0)" fill="none"></rect></clipPath></defs><g data-name="Group 128152" transform="translate(0 0)"><g data-name="Group 128151" clip-path="url(#clip-path)"><path data-name="Path 178200" d="M10.366,15.872V7.878h28.2V5.034H7.522V15.907c.948-.008,1.9-.022,2.844-.035" fill="none" stroke="currentcolor" stroke-miterlimit="10" stroke-width="2"></path><path data-name="Path 178201" d="M50.535,5.034V7.878h7.756V66.323H50.446c-.015.948-.048,1.9-.107,2.844h10.8V5.034Z" fill="none" stroke="currentcolor" stroke-miterlimit="10" stroke-width="2"></path><path data-name="Path 178202" d="M42.7,19.094a5.533,5.533,0,0,1-5.554-5.5V6.563a5.554,5.554,0,1,1,11.108-.017v1.4H45.407V6.563a2.711,2.711,0,0,0-5.421-.1c0,.035,0,.069,0,.1v7.031a2.711,2.711,0,0,0,5.421,0h2.844a5.533,5.533,0,0,1-5.554,5.5" fill="none" stroke="currentcolor" stroke-miterlimit="10" stroke-width="2"></path><path data-name="Path 178203" d="M46.833,13.594a4.133,4.133,0,0,1-8.265,0H1V74.883H51.77V13.594ZM29.928,31.868H22.843a3.975,3.975,0,0,1-3.944-4V26.2a3.948,3.948,0,0,1,3.944-3.945h2.121V20.893a1.422,1.422,0,1,1,2.844,0h0v1.369h2.121a3.948,3.948,0,0,1,3.944,3.945,1.422,1.422,0,0,1-2.844,0,1.1,1.1,0,0,0-1.1-1.1H22.843a1.1,1.1,0,0,0-1.1,1.1V27.87a1.145,1.145,0,0,0,1.1,1.155h7.085a3.948,3.948,0,0,1,3.944,3.945v1.663a3.975,3.975,0,0,1-3.944,4H27.807V40a1.422,1.422,0,1,1-2.844,0h0V38.633h-2.12a3.975,3.975,0,0,1-3.944-4,1.422,1.422,0,1,1,2.844,0h0a1.145,1.145,0,0,0,1.1,1.155h7.085a1.145,1.145,0,0,0,1.1-1.155V32.97a1.1,1.1,0,0,0-1.1-1.1M18.764,47.056h15.3a1.422,1.422,0,0,1,0,2.844h-15.3a1.422,1.422,0,0,1,0-2.844M43.075,66.967H9.694a1.422,1.422,0,0,1,0-2.844H43.075a1.422,1.422,0,0,1,0,2.844m0-8.533H9.694a1.422,1.422,0,0,1,0-2.844H43.075a1.422,1.422,0,0,1,0,2.844" fill="none" stroke="currentcolor" stroke-miterlimit="10" stroke-width="2"></path></g></g></svg>