<svg xmlns="http://www.w3.org/2000/svg" xmlns:xlink="http://www.w3.org/1999/xlink" width="96.396" height="66.205" viewBox="0 0 96.396 66.205"><defs><clipPath><rect data-name="Rectangle 40113" width="96.396" height="66.205" fill="none"></rect></clipPath></defs><g data-name="Group 128150" transform="translate(0 0)"><g data-name="Group 128149" transform="translate(0 0)" clip-path="url(#clip-path)"><path data-name="Path 178192" d="M42.5,61.541c.067-.071.116-.126.166-.177.268-.27.541-.534.8-.811a3.97,3.97,0,0,0-.071-5.514c-.168-.169-.334-.342-.515-.5a3.949,3.949,0,0,0-4.641-.362l-.171.1c-.005,0-.013,0-.04-.005.048-.054.087-.1.131-.145.194-.2.391-.388.584-.586a3.974,3.974,0,0,0-.006-5.582,5.032,5.032,0,0,0-.944-.817,3.94,3.94,0,0,0-4-.177c-.06.03-.119.059-.18.087,0,0-.012-.006-.034-.019.043-.057.084-.114.128-.169a3.973,3.973,0,0,0-.242-5.249,4.945,4.945,0,0,0-1.385-1.078,3.97,3.97,0,0,0-4.444.668c-.406.383-.794.788-1.19,1.182a.548.548,0,0,1-.183.13c.04-.065.079-.131.12-.2a3.963,3.963,0,0,0-.576-4.876A4.982,4.982,0,0,0,24.5,36.431a3.972,3.972,0,0,0-4.545.733c-.355.351-.705.708-1.06,1.058a.324.324,0,0,1-.51.019,21.087,21.087,0,0,1-3.574-4.1,14.38,14.38,0,0,1-1.656-3.72c-.138-.464-.29-.923-.433-1.385a1.627,1.627,0,0,1,.267-1.539q3.629-4.879,7.246-9.765,2.418-3.259,4.832-6.518a1.65,1.65,0,0,1,1.164-.711,1.571,1.571,0,0,1,.926.185l2.46,1.267q1.111.572,2.221,1.147a2.429,2.429,0,0,0,1.2.285c.783-.02,1.565-.042,2.347-.051,1.207-.013,2.415.005,3.619.1a17.2,17.2,0,0,1,3.562.576,5.322,5.322,0,0,1,.5.175.564.564,0,0,1,.143,1c-.466.372-.947.726-1.4,1.109a14.479,14.479,0,0,0-2.6,2.753c-.159.225-.306.459-.444.7a4.89,4.89,0,0,0-.7,2.524c.008,1.855-.036,3.71-.064,5.566q-.028,1.866-.07,3.732a4.111,4.111,0,0,0,.18,1.367,3.355,3.355,0,0,0,1.745,2.025,4.318,4.318,0,0,0,1.131.331,5.59,5.59,0,0,0,1.245.1A4.67,4.67,0,0,0,46.6,32.1a14.444,14.444,0,0,0,.451-1.864,27.394,27.394,0,0,1,1.12-4.18,7.055,7.055,0,0,1,.962-1.833,1.774,1.774,0,0,1,2.553-.323q2.171,1.725,4.342,3.447l9.437,7.492,9.664,7.672c.386.306.778.6,1.154.919a3.174,3.174,0,0,1,1.144,3.3,3.306,3.306,0,0,1-5.37,1.793Q69.1,46,66.149,43.462l-3.971-3.406a1.71,1.71,0,0,0-1.212-.425A1.8,1.8,0,0,0,59.3,41.245a1.694,1.694,0,0,0,.7,1.515q1.924,1.5,3.845,2.994c1.97,1.533,3.946,3.058,5.906,4.6A3.305,3.305,0,0,1,65.719,55.6q-2.8-2.114-5.59-4.244C58.575,50.17,57.016,49,55.467,47.806a1.289,1.289,0,0,0-2.091.786,1.228,1.228,0,0,0,.555,1.277c.724.5,1.454.987,2.182,1.48q3.794,2.567,7.587,5.135a2.825,2.825,0,0,1,1.317,2.541,2.924,2.924,0,0,1-4.7,2.218q-4.6-3.385-9.2-6.774a2.025,2.025,0,0,0-1.391-.441,1.9,1.9,0,0,0-.622,3.628q2.59,1.234,5.181,2.46c.524.249,1.051.492,1.572.748a3.156,3.156,0,0,1,1.767,2.281,3.239,3.239,0,0,1-2.458,3.773,3.3,3.3,0,0,1-1.906-.155,66.392,66.392,0,0,1-10.1-4.827C42.952,61.809,42.736,61.679,42.5,61.541Z" transform="translate(-1.966 -1.633)" fill="none" stroke="currentcolor" stroke-miterlimit="10" stroke-width="2"></path><path data-name="Path 178193" d="M81.6,41.123l-.873-.681L66.109,28.988,57.821,22.5a3.108,3.108,0,0,0-1.353-.653,2.781,2.781,0,0,0-1.82.259,4.164,4.164,0,0,0-1.416,1.242,9.491,9.491,0,0,0-1.283,2.444,22.488,22.488,0,0,0-.806,2.808,10.7,10.7,0,0,1-1.356,3.383,4.463,4.463,0,0,1-1.153,1.264,2.838,2.838,0,0,1-2.292.486,1.871,1.871,0,0,1-1.538-1.6,4.184,4.184,0,0,1-.075-.822q-.009-4.426,0-8.854a5.475,5.475,0,0,1,.013-.623,2.814,2.814,0,0,1,.34-.963,10.154,10.154,0,0,1,1.6-2.171A26.291,26.291,0,0,1,49.9,15.765c.683-.532,1.315-1.12,1.973-1.679a20.439,20.439,0,0,1,4.253-2.818,6.864,6.864,0,0,1,3.373-.695c1.213.052,2.427.1,3.64.149,1.184.051,2.367.111,3.55.163.841.037,1.682.066,2.524.1s1.711.08,2.568.117c.826.036,1.652.068,2.478.1q1.318.057,2.635.118c.41.019.819.039,1.229.056.491.019.983.025,1.474.056a4.4,4.4,0,0,1,4.039,2.737q3.351,7.636,6.648,15.3a5.009,5.009,0,0,1-.715,5.378,22.936,22.936,0,0,1-4.54,4.443,13.148,13.148,0,0,1-3.345,1.81C81.663,41.11,81.641,41.113,81.6,41.123Z" transform="translate(-6.962 -1.644)" fill="none" stroke="currentcolor" stroke-miterlimit="10" stroke-width="2"></path><path data-name="Path 178194" d="M102.614,31.257A2.878,2.878,0,0,1,99.935,29.5c-1.319-2.948-2.617-5.906-3.924-8.861q-2.42-5.473-4.84-10.945a2.907,2.907,0,0,1,.22-2.915,2.7,2.7,0,0,1,1.191-1.017C93.993,5.13,95.4,4.5,96.825,3.886a2.916,2.916,0,0,1,3.824,1.5c.478,1.05.936,2.109,1.4,3.164q3.688,8.341,7.38,16.681a2.983,2.983,0,0,1-1.54,3.973c-1.356.574-2.7,1.185-4.042,1.782A3.013,3.013,0,0,1,102.614,31.257Z" transform="translate(-14.146 -0.567)" fill="none" stroke="currentcolor" stroke-miterlimit="10" stroke-width="2"></path><path data-name="Path 178195" d="M17.094,1a2.792,2.792,0,0,1,1.746.578c1.094.825,2.192,1.647,3.278,2.483a2.918,2.918,0,0,1,.556,4.088c-.865,1.158-1.744,2.306-2.616,3.458Q14.85,18.486,9.644,25.366A3.054,3.054,0,0,1,8.1,26.522a2.879,2.879,0,0,1-2.7-.471q-1.591-1.193-3.171-2.4a3.332,3.332,0,0,1-.564-.537,2.907,2.907,0,0,1-.063-3.6q1.834-2.439,3.682-4.866Q9.986,8.422,14.694,2.2a2.984,2.984,0,0,1,2.042-1.2A.435.435,0,0,1,16.8,1Z" transform="translate(-0.156 -0.155)" fill="none" stroke="currentcolor" stroke-miterlimit="10" stroke-width="2"></path><path data-name="Path 178196" d="M25.235,59.787a2.818,2.818,0,0,1-2.821-2.433,2.726,2.726,0,0,1,.789-2.415q3.242-3.255,6.5-6.495a2.848,2.848,0,0,1,4.8,1.507,2.743,2.743,0,0,1-.613,2.341,3.384,3.384,0,0,1-.241.263q-3.161,3.162-6.322,6.324a2.919,2.919,0,0,1-1.626.865C25.547,59.771,25.39,59.774,25.235,59.787Z" transform="translate(-3.484 -7.41)" fill="none" stroke="currentcolor" stroke-miterlimit="10" stroke-width="2"></path><path data-name="Path 178197" d="M33.154,65.825A2.867,2.867,0,0,1,31.5,60.938q1.539-1.544,3.083-3.084.807-.807,1.614-1.613a2.764,2.764,0,0,1,2.029-.84,2.82,2.82,0,0,1,2.827,2.55,2.762,2.762,0,0,1-.809,2.3Q37.877,62.633,35.5,65A3.044,3.044,0,0,1,33.154,65.825Z" transform="translate(-4.769 -8.623)" fill="none" stroke="currentcolor" stroke-miterlimit="10" stroke-width="2"></path><path data-name="Path 178198" d="M26.432,45.515a2.8,2.8,0,0,1-.827,2.037q-1.785,1.791-3.574,3.572a2.842,2.842,0,0,1-4.752-1.3,2.7,2.7,0,0,1,.7-2.7c1.2-1.226,2.4-2.444,3.638-3.633a2.688,2.688,0,0,1,2.914-.627,2.741,2.741,0,0,1,1.877,2.3A3.51,3.51,0,0,1,26.432,45.515Z" transform="translate(-2.673 -6.643)" fill="none" stroke="currentcolor" stroke-miterlimit="10" stroke-width="2"></path><path data-name="Path 178199" d="M41.544,71.888a2.844,2.844,0,0,1-2.017-4.852c.867-.872,1.733-1.744,2.61-2.607a2.742,2.742,0,0,1,2.88-.714,2.684,2.684,0,0,1,1.954,2.228,2.711,2.711,0,0,1-.758,2.466c-.879.9-1.774,1.788-2.671,2.673A2.778,2.778,0,0,1,41.544,71.888Z" transform="translate(-6.024 -9.895)" fill="none" stroke="currentcolor" stroke-miterlimit="10" stroke-width="2"></path></g></g></svg>