<svg xmlns="http://www.w3.org/2000/svg" xmlns:xlink="http://www.w3.org/1999/xlink" width="77.748" height="78.41" viewBox="0 0 77.748 78.41"><defs><clipPath><rect data-name="Rectangle 40112" width="77.748" height="78.41" transform="translate(0 0)" fill="none"></rect></clipPath></defs><g data-name="Group 128148" transform="translate(0 0)"><g data-name="Group 128147" clip-path="url(#clip-path)"><path data-name="Path 178189" d="M69.417,53.177s-17.846-6.066-18.361-6.111c-.06.232-.12.463-.184.682-.871,3.241-1.7,6.477-2.675,9.662-1.17,3.773-2.482,7.506-3.793,11.235a.751.751,0,0,1-.043.129A10.215,10.215,0,0,1,43.808,70c-.24-1.719-.527-3.97-.828-6.182-.313-2.426-.613-4.81-.814-6.4a.352.352,0,0,0-.351-.309H35.933a.353.353,0,0,0-.351.309c-.2,1.586-.5,3.97-.814,6.4-.3,2.212-.587,4.462-.827,6.182a9.991,9.991,0,0,1-.553-1.226.751.751,0,0,1-.043-.129c-1.312-3.729-2.623-7.463-3.793-11.235-.978-3.185-1.8-6.421-2.675-9.662-.064-.219-.124-.45-.184-.682-.514.043-18.36,6.109-18.36,6.109C.537,55.788,1,60.983,1,60.983V71.266c.716,6.264,5.555,6.143,5.555,6.143H71.187s4.839.12,5.555-6.143V60.983s.467-5.2-7.326-7.806" fill="none" stroke="currentcolor" stroke-miterlimit="10" stroke-width="2"></path><path data-name="Path 178190" d="M43.838,51.242l-.778-1.509a.978.978,0,0,0-.868-.529H35.55a.976.976,0,0,0-.868.529L33.9,51.242a.977.977,0,0,0-.015.866L35.4,55.294a.181.181,0,0,0,.163.1h6.624a.178.178,0,0,0,.163-.1l1.507-3.186a.98.98,0,0,0-.015-.866" fill="none" stroke="currentcolor" stroke-miterlimit="10" stroke-width="2"></path><path data-name="Path 178191" d="M55.753,23.087a.547.547,0,0,0,0-.081,3.447,3.447,0,0,0-2.185-3.478c.007-.043.014-.085.018-.122.018-.17.035-.344.053-.523a9.945,9.945,0,0,1,.2-1.417,20.471,20.471,0,0,0,.6-4.171,10.523,10.523,0,0,0-6.36-10.331c-.438-.2-.894-.381-1.356-.553A23.083,23.083,0,0,0,38.886,1c-.58-.008-1.168.009-1.741.043a15.451,15.451,0,0,0-5.8,1.164,6.191,6.191,0,0,0-2.509,2.242c-.092.141-.174.271-.249.388a2.3,2.3,0,0,1-.577.7,5.575,5.575,0,0,1-1.249.785,4,4,0,0,0-1.911,1.688,8.765,8.765,0,0,0-1,4.029,40.908,40.908,0,0,0,.106,4.47,13.97,13.97,0,0,0,.26,1.713l.021.1c.078.393.156.769.2,1.129-.036.007-.071.017-.111.023a3.426,3.426,0,0,0-2.342,3.56v.043A11.484,11.484,0,0,0,22,24.271c.035.542.114,1.054.189,1.548.035.25.075.5.106.756a6.3,6.3,0,0,0,3.154,5.011.247.247,0,0,1,.078.157,15.787,15.787,0,0,0,6.325,9.463c.4.274.829.538,1.263.776l.043.025a16.256,16.256,0,0,0,2.089.875c.036.014.068.029.1.043a8.927,8.927,0,0,0,1.829.559,8.828,8.828,0,0,0,1.694.142h.153a8.24,8.24,0,0,0,1.559-.146,8.629,8.629,0,0,0,1.765-.538l.1-.035a16.972,16.972,0,0,0,2.132-.9l.043-.021c.437-.242.861-.5,1.263-.776a14.759,14.759,0,0,0,4.239-4.445A17.77,17.77,0,0,0,51.489,34a8.578,8.578,0,0,0,.342-1.132,2.749,2.749,0,0,1,.378-1.036,6.53,6.53,0,0,1,.847-.8c.178-.153.36-.306.534-.463a6.132,6.132,0,0,0,1.854-3.994c.033-.251.068-.5.107-.758.075-.493.153-1.006.185-1.543a10.661,10.661,0,0,0,.018-1.186" fill="none" stroke="currentcolor" stroke-miterlimit="10" stroke-width="2"></path></g></g></svg>