<svg xmlns="http://www.w3.org/2000/svg" xmlns:xlink="http://www.w3.org/1999/xlink" width="83.751" height="83.748" viewBox="0 0 83.751 83.748"><defs><clipPath><rect data-name="Rectangle 40115" width="83.751" height="83.748" transform="translate(0 0)" fill="none"></rect></clipPath></defs><g data-name="Group 128154" transform="translate(0 0)"><g data-name="Group 128153" clip-path="url(#clip-path)"><path data-name="Path 178204" d="M9.781,21.688a13.888,13.888,0,0,1-6.516-9.666,8.1,8.1,0,0,1,2.07-6.687,8.1,8.1,0,0,1,6.687-2.07A13.894,13.894,0,0,1,21.69,9.783a36.674,36.674,0,0,1,4.894,10.44c.478,1.942.8,4.551-.506,5.852a3.2,3.2,0,0,1-1.609.783A2.134,2.134,0,0,0,25.89,28.7a4.945,4.945,0,0,0,1.7-1.107c3.434-3.431.872-11.326-4.051-18.992C18.74,1.137,9.367-1.527,3.782,3.783-1.527,9.368,1.135,18.739,8.6,23.536a49.4,49.4,0,0,0,6.117,3.377l.213-2.324a48.314,48.314,0,0,1-5.145-2.9" fill="none" stroke="currentcolor" stroke-miterlimit="10" stroke-width="2"></path><path data-name="Path 178205" d="M81.958,52.888,44.612,15.548a2.8,2.8,0,0,0-2.22-.8L29.046,15.987a27.117,27.117,0,0,1,1.072,3.337,12.205,12.205,0,0,1,.1,6.591A3.66,3.66,0,1,1,25.5,23.143a11.133,11.133,0,0,0-.362-2.6,24.46,24.46,0,0,0-1.44-4.071l-4.648.426a2.343,2.343,0,0,0-2.147,2.147L14.746,42.392a2.8,2.8,0,0,0,.8,2.22L52.891,81.957a2.607,2.607,0,0,0,3.677.065L82.024,56.566a2.607,2.607,0,0,0-.065-3.677M61.307,65.732l-3.243-3.243a14.11,14.11,0,0,1-6.483,2.638l-1.133.115-1.686-6.02,1.588-.18A8.932,8.932,0,0,0,55.8,56.3a5.181,5.181,0,0,0,1.646-2.9,2.346,2.346,0,0,0-.709-2.1c-1.208-1.208-3.8-.5-5.767.3C45.04,53.994,40.721,53.9,38.133,51.31a8.017,8.017,0,0,1-2.44-5.479,9.623,9.623,0,0,1,1.3-5.176l-3.506-3.506,4.524-4.524,3.4,3.4a19.39,19.39,0,0,1,5.253-2.361l1.382-.41L49.6,39.72l-1.588.127a7.51,7.51,0,0,0-4.6,2.467,4.532,4.532,0,0,0-1.387,2.421,1.768,1.768,0,0,0,.538,1.689c.252.252,1.422.938,5.923-.8a18.527,18.527,0,0,1,7.359-1.61,8.169,8.169,0,0,1,5.45,2.543,8.433,8.433,0,0,1,2.452,5.617,10.4,10.4,0,0,1-1.263,5.5l3.437,3.437Z" fill="none" stroke="currentcolor" stroke-miterlimit="10" stroke-width="2"></path></g></g></svg>