<svg xmlns="http://www.w3.org/2000/svg" xmlns:xlink="http://www.w3.org/1999/xlink" width="342" height="239" viewBox="0 0 342 239"><defs><clipPath id="line2clip-path"><rect data-name="Rectangle 8377" width="342" height="239" transform="translate(1578 4723)" fill="#ffffff"></rect></clipPath></defs><g data-name="Mask Group 9" transform="translate(-1578 -4723)" clip-path="url(#line2clip-path)"><path data-name="Path 1569" d="M301.39,1041.91a178.856,178.856,0,0,1-27.475-2.068,157.128,157.128,0,0,1-23.235-5.438,148.518,148.518,0,0,1-22.055-9.007,151.245,151.245,0,0,1-20.774-12.745,166.355,166.355,0,0,1-19.4-16.646A195.5,195.5,0,0,1,170.529,975.3a241.3,241.3,0,0,1-16.361-24.934,307.62,307.62,0,0,1-14.715-29.324c-4.632-10.551-9-21.951-12.983-33.884C93.7,788.99,66.645,694.3,46.045,605.715,24.476,512.962,10.3,428.161,3.915,353.667c-1.646-19.2-2.787-37.952-3.391-55.724C-.089,279.89-.165,262.363.3,245.851c.472-16.782,1.515-32.967,3.1-48.1,1.611-15.391,3.825-30.113,6.58-43.758A338.3,338.3,0,0,1,20.2,114.937a242.938,242.938,0,0,1,14.031-34A178.585,178.585,0,0,1,52.243,52.366,140.97,140.97,0,0,1,74.4,29.6,127.131,127.131,0,0,1,98.022,14.387a132.816,132.816,0,0,1,27.2-9.9A158.526,158.526,0,0,1,156.082.161a208.757,208.757,0,0,1,34.612,1.5,290,290,0,0,1,38.473,7.578,410.769,410.769,0,0,1,42.449,13.907c14.863,5.733,30.523,12.628,46.545,20.492,16.251,7.977,33.329,17.175,50.758,27.338,27.659,16.128,55.886,33.64,83.9,52.049,26.792,17.608,54.1,36.5,81.161,56.166,25.8,18.746,52.065,38.681,78.056,59.252,24.691,19.542,49.785,40.168,74.583,61.306,85.785,73.123,171.987,155.6,256.213,245.14q2.817,3,5.63,6c33.961-39.332,68.153-80.373,101.631-121.991,29.962-37.245,53.795-68.068,68.512-87.366,15.944-20.907,24.917-33.162,25.006-33.283l1.614,1.181c-.089.122-9.073,12.392-25.03,33.315-14.725,19.308-38.569,50.145-68.544,87.407-33.54,41.694-67.792,82.8-101.815,122.206q46.255,49.464,90.659,100.613c25.374,29.234,50.077,58.646,73.425,87.421,39.758,49,62.085,79.556,62.306,79.859l-1.616,1.178c-.221-.3-22.528-30.833-62.26-79.8-23.335-28.759-48.026-58.155-73.386-87.372q-44.292-51.02-90.443-100.378c-42.428,49.086-84.6,95.619-125.365,138.313C718.683,801.621,622.731,886.837,537.967,945.473c-24.514,16.957-48.4,31.885-71.012,44.369-11.753,6.49-23.4,12.455-34.63,17.729-11.51,5.408-22.9,10.241-33.847,14.367-11.218,4.227-22.292,7.83-32.915,10.709a281.874,281.874,0,0,1-31.833,6.755,221.267,221.267,0,0,1-30.6,2.5Q302.26,1041.909,301.39,1041.91ZM164.315,1.973q-52.662,0-88.655,29.18A139.007,139.007,0,0,0,53.822,53.6a176.46,176.46,0,0,0-17.8,28.25,240.908,240.908,0,0,0-13.914,33.715,336.269,336.269,0,0,0-10.161,38.824C1.186,207.669-.843,274.66,5.916,353.5,12.294,427.9,26.454,512.6,48,605.263c20.586,88.524,47.628,183.154,80.374,281.26,3.964,11.875,8.31,23.218,12.918,33.713a305.728,305.728,0,0,0,14.618,29.133,239.489,239.489,0,0,0,16.224,24.726,193.372,193.372,0,0,0,17.738,20.5,164.358,164.358,0,0,0,19.161,16.445,149.22,149.22,0,0,0,20.5,12.576,146.378,146.378,0,0,0,21.757,8.885,154.988,154.988,0,0,0,22.938,5.368,177.612,177.612,0,0,0,28.891,2.036,219.163,219.163,0,0,0,30.324-2.477,279.889,279.889,0,0,0,31.606-6.707c10.562-2.863,21.575-6.446,32.733-10.651,10.9-4.107,22.239-8.921,33.7-14.306,11.187-5.256,22.8-11.2,34.514-17.67,22.548-12.451,46.382-27.344,70.841-44.263,84.653-58.559,180.5-143.687,284.88-253.018C862.5,648.1,904.7,601.534,947.156,552.413q-2.895-3.092-5.793-6.173c-84.174-89.483-170.32-171.9-256.046-244.978-24.779-21.121-49.852-41.731-74.524-61.257-25.969-20.553-52.208-40.47-77.988-59.2-27.036-19.642-54.315-38.52-81.08-56.11-27.98-18.389-56.175-35.881-83.8-51.99C287.1,25.58,219.027,1.973,164.315,1.973" transform="translate(1502 3903.09)" fill="currentcolor"></path></g></svg>