<svg xmlns="http://www.w3.org/2000/svg" width="831.047" height="804.511" viewBox="0 0 831.047 804.511"><path data-name="Path 131551" d="M472.22,562.4a96.55,96.55,0,0,0,14.83-1.116,84.812,84.812,0,0,0,12.542-2.935,80.173,80.173,0,0,0,11.9-4.862,81.651,81.651,0,0,0,11.213-6.88,89.8,89.8,0,0,0,10.472-8.985,105.523,105.523,0,0,0,9.674-11.178,130.255,130.255,0,0,0,8.831-13.459,166.032,166.032,0,0,0,7.943-15.829c2.5-5.7,4.858-11.849,7.008-18.29,17.686-52.988,32.292-104.1,43.412-151.917,11.643-50.066,19.294-95.84,22.741-136.051.888-10.364,1.5-20.486,1.83-30.079.331-9.745.372-19.205.121-28.118-.255-9.059-.818-17.795-1.673-25.964-.87-8.308-2.065-16.254-3.552-23.62A182.61,182.61,0,0,0,624,62.039a131.131,131.131,0,0,0-7.574-18.353,96.392,96.392,0,0,0-9.721-15.422,76.093,76.093,0,0,0-11.958-12.289,68.622,68.622,0,0,0-12.752-8.211A71.691,71.691,0,0,0,567.313,2.42,85.57,85.57,0,0,0,550.655.085a112.684,112.684,0,0,0-18.683.81A156.539,156.539,0,0,0,511.2,4.985a221.728,221.728,0,0,0-22.913,7.507c-8.023,3.095-16.476,6.816-25.124,11.061-8.772,4.306-17.99,9.271-27.4,14.757-14.93,8.706-30.166,18.158-45.288,28.1-14.462,9.5-29.2,19.7-43.809,30.317-13.926,10.119-28.1,20.879-42.133,31.983-13.328,10.548-26.873,21.682-40.259,33.092a1748.881,1748.881,0,0,0-138.3,132.322q-1.521,1.617-3.039,3.239c-18.331-21.231-36.788-43.384-54.859-65.849-16.173-20.1-29.038-36.742-36.982-47.159-8.606-11.285-13.45-17.9-13.5-17.966l-.871.637c.048.066,4.9,6.689,13.511,17.983,7.948,10.422,20.819,27.067,37,47.181,18.1,22.506,36.593,44.7,54.958,65.965q-24.968,26.7-48.936,54.309c-13.7,15.78-27.031,31.656-39.634,47.188C12.171,426.1.119,442.591,0,442.755l.872.636c.119-.162,12.16-16.643,33.607-43.075,12.6-15.524,25.924-31.391,39.612-47.162Q98,325.615,122.911,298.972c22.9,26.5,45.666,51.613,67.67,74.659C246.973,432.7,298.766,478.7,344.52,510.347c13.232,9.153,26.128,17.211,38.331,23.95,6.344,3.5,12.631,6.723,18.693,9.57,6.213,2.919,12.361,5.528,18.27,7.755,6.055,2.282,12.033,4.227,17.767,5.781a152.154,152.154,0,0,0,17.183,3.646,119.441,119.441,0,0,0,16.517,1.349Q471.751,562.4,472.22,562.4ZM546.211,1.063q28.426,0,47.854,15.751a75.033,75.033,0,0,1,11.788,12.115,95.25,95.25,0,0,1,9.608,15.249,130.036,130.036,0,0,1,7.51,18.2,181.505,181.505,0,0,1,5.485,20.956c5.809,28.761,6.9,64.921,3.255,107.476-3.443,40.16-11.086,85.879-22.717,135.9-11.112,47.784-25.709,98.863-43.384,151.819-2.14,6.41-4.486,12.533-6.973,18.2a165.032,165.032,0,0,1-7.891,15.725,129.277,129.277,0,0,1-8.757,13.347,104.373,104.373,0,0,1-9.575,11.065,88.712,88.712,0,0,1-10.343,8.877,80.544,80.544,0,0,1-11.065,6.788,79.01,79.01,0,0,1-11.744,4.8,83.665,83.665,0,0,1-12.382,2.9,95.874,95.874,0,0,1-15.595,1.1,118.306,118.306,0,0,1-16.368-1.337,151.083,151.083,0,0,1-17.06-3.62c-5.7-1.545-11.646-3.479-17.669-5.749-5.884-2.217-12-4.815-18.191-7.722-6.039-2.837-12.307-6.046-18.63-9.538-12.171-6.721-25.036-14.76-38.239-23.892C299.435,477.852,247.7,431.9,191.356,372.886c-22.014-23.058-44.793-48.191-67.709-74.706q1.563-1.669,3.127-3.332A1747.911,1747.911,0,0,1,264.984,162.614c13.375-11.4,26.909-22.526,40.227-33.065,14.018-11.094,28.181-21.845,42.1-31.955,14.594-10.6,29.318-20.792,43.765-30.287,15.1-9.926,30.322-19.368,45.234-28.063,43.626-25.437,80.372-38.18,109.9-38.18" transform="translate(831.045 487.055) rotate(150)" fill="currentcolor"></path></svg>