<svg xmlns="http://www.w3.org/2000/svg" xmlns:xlink="http://www.w3.org/1999/xlink" id="Group_124133" data-name="Group 124133" width="1176.226" height="1041.914" viewBox="0 0 1176.226 1041.914"><defs><clipPath id="line-clip-path"><rect data-name="Rectangle 38609" width="1176.226" height="1041.914" fill="none"></rect></clipPath></defs><g data-name="Group 124131" transform="translate(0 0)" clip-path="url(#line-clip-path)"><path id="Path_131549" data-name="Path 131549" d="M874.836,1041.91a178.856,178.856,0,0,0,27.475-2.068,157.125,157.125,0,0,0,23.235-5.438A148.516,148.516,0,0,0,947.6,1025.4a151.245,151.245,0,0,0,20.774-12.745,166.356,166.356,0,0,0,19.4-16.646A195.5,195.5,0,0,0,1005.7,975.3a241.294,241.294,0,0,0,16.361-24.934,307.631,307.631,0,0,0,14.715-29.324c4.632-10.551,9-21.951,12.983-33.884,32.766-98.166,59.825-192.856,80.425-281.441,21.569-92.753,35.744-177.554,42.13-252.048,1.646-19.2,2.787-37.952,3.391-55.724.613-18.053.689-35.58.224-52.092-.472-16.782-1.515-32.967-3.1-48.1-1.611-15.391-3.825-30.113-6.58-43.758a338.315,338.315,0,0,0-10.223-39.056,242.936,242.936,0,0,0-14.031-34,178.581,178.581,0,0,0-18.009-28.571A140.967,140.967,0,0,0,1101.829,29.6,127.135,127.135,0,0,0,1078.2,14.387a132.816,132.816,0,0,0-27.2-9.9,158.526,158.526,0,0,0-30.86-4.326,208.757,208.757,0,0,0-34.612,1.5,290,290,0,0,0-38.473,7.578A410.771,410.771,0,0,0,904.61,23.146c-14.863,5.733-30.523,12.628-46.545,20.492-16.251,7.977-33.329,17.175-50.758,27.338-27.659,16.128-55.886,33.64-83.9,52.049-26.792,17.608-54.1,36.5-81.161,56.166-25.8,18.746-52.065,38.681-78.056,59.252-24.691,19.542-49.785,40.168-74.583,61.306-85.785,73.123-171.987,155.6-256.213,245.14q-2.817,3-5.63,6C193.8,511.557,159.611,470.516,126.133,428.9c-29.962-37.245-53.795-68.068-68.512-87.366C41.677,320.625,32.7,308.37,32.615,308.249L31,309.43c.089.122,9.073,12.392,25.03,33.315,14.725,19.308,38.569,50.145,68.544,87.407,33.54,41.694,67.792,82.8,101.815,122.206q-46.255,49.464-90.659,100.613c-25.374,29.234-50.077,58.646-73.425,87.421C22.548,789.392.221,819.948,0,820.251l1.616,1.178c.221-.3,22.528-30.833,62.26-79.8,23.335-28.759,48.026-58.155,73.386-87.372q44.292-51.02,90.443-100.378c42.428,49.086,84.6,95.619,125.365,138.313C457.543,801.621,553.495,886.837,638.259,945.473c24.514,16.957,48.4,31.885,71.012,44.369,11.753,6.49,23.4,12.455,34.63,17.729,11.51,5.408,22.9,10.241,33.847,14.367,11.218,4.227,22.292,7.83,32.915,10.709A281.871,281.871,0,0,0,842.5,1039.4a221.267,221.267,0,0,0,30.6,2.5Q873.966,1041.91,874.836,1041.91ZM1011.911,1.973q52.662,0,88.655,29.18A139.005,139.005,0,0,1,1122.4,53.6a176.46,176.46,0,0,1,17.8,28.25,240.9,240.9,0,0,1,13.914,33.715,336.265,336.265,0,0,1,10.161,38.824c10.761,53.282,12.79,120.273,6.031,199.11-6.378,74.4-20.538,159.1-42.086,251.766-20.586,88.524-47.628,183.154-80.374,281.26-3.964,11.875-8.31,23.218-12.918,33.713a305.729,305.729,0,0,1-14.618,29.133A239.474,239.474,0,0,1,1004.09,974.1a193.373,193.373,0,0,1-17.738,20.5,164.367,164.367,0,0,1-19.161,16.445,149.221,149.221,0,0,1-20.5,12.576,146.379,146.379,0,0,1-21.757,8.885A154.987,154.987,0,0,1,902,1037.869a177.612,177.612,0,0,1-28.891,2.036,219.163,219.163,0,0,1-30.324-2.477,279.887,279.887,0,0,1-31.606-6.707c-10.562-2.863-21.575-6.446-32.733-10.651-10.9-4.107-22.239-8.921-33.7-14.306-11.187-5.256-22.8-11.2-34.514-17.67-22.548-12.451-46.382-27.344-70.841-44.263-84.653-58.559-180.5-143.687-284.88-253.018-40.783-42.717-82.983-89.279-125.437-138.4q2.895-3.092,5.793-6.173c84.174-89.483,170.32-171.905,256.046-244.978,24.779-21.121,49.852-41.731,74.524-61.257,25.969-20.553,52.208-40.47,77.988-59.2,27.036-19.642,54.315-38.52,81.08-56.11,27.98-18.389,56.175-35.881,83.8-51.99C889.123,25.58,957.2,1.973,1011.911,1.973" transform="translate(0 0.004)" fill="currentcolor"></path></g></svg>