<svg xmlns="http://www.w3.org/2000/svg" xmlns:xlink="http://www.w3.org/1999/xlink" width="480" height="239" viewBox="0 0 480 239"><defs><clipPath id="clip-path"><rect id="Rectangle_38610" data-name="Rectangle 38610" width="480" height="239" fill="#fff"></rect></clipPath></defs><g id="Mask_Group_38" data-name="Mask Group 38" clip-path="url(#clip-path)"><path id="Path_131554" data-name="Path 131554" d="M301.39,0a178.856,178.856,0,0,0-27.475,2.068A157.128,157.128,0,0,0,250.68,7.5a148.518,148.518,0,0,0-22.055,9.007,151.245,151.245,0,0,0-20.774,12.745,166.355,166.355,0,0,0-19.4,16.646,195.5,195.5,0,0,0-17.922,20.708,241.3,241.3,0,0,0-16.361,24.934,307.62,307.62,0,0,0-14.715,29.324c-4.632,10.551-9,21.951-12.983,33.884C93.7,252.916,66.645,347.606,46.045,436.191,24.476,528.944,10.3,613.745,3.915,688.239c-1.646,19.2-2.787,37.952-3.391,55.724-.613,18.053-.689,35.58-.224,52.092.472,16.782,1.515,32.967,3.1,48.1,1.611,15.391,3.825,30.113,6.58,43.758A338.3,338.3,0,0,0,20.2,926.969a242.937,242.937,0,0,0,14.031,34A178.582,178.582,0,0,0,52.243,989.54,140.968,140.968,0,0,0,74.4,1012.307a127.133,127.133,0,0,0,23.625,15.212,132.812,132.812,0,0,0,27.2,9.9,158.527,158.527,0,0,0,30.86,4.326,208.761,208.761,0,0,0,34.612-1.5,290.008,290.008,0,0,0,38.473-7.578,410.759,410.759,0,0,0,42.449-13.907c14.863-5.733,30.523-12.628,46.545-20.492,16.251-7.977,33.329-17.175,50.758-27.338,27.659-16.128,55.886-33.64,83.9-52.049,26.792-17.608,54.1-36.505,81.161-56.166,25.8-18.746,52.065-38.681,78.056-59.252,24.691-19.542,49.785-40.168,74.583-61.306,85.785-73.123,171.987-155.6,256.213-245.14q2.817-3,5.63-6c33.961,39.332,68.153,80.373,101.631,121.991,29.962,37.245,53.795,68.068,68.512,87.366,15.944,20.907,24.917,33.162,25.006,33.283l1.614-1.181c-.089-.122-9.073-12.392-25.03-33.315-14.725-19.308-38.569-50.145-68.544-87.407-33.54-41.694-67.792-82.8-101.815-122.206q46.255-49.464,90.659-100.613c25.374-29.234,50.077-58.646,73.425-87.421,39.758-49,62.085-79.556,62.306-79.859l-1.616-1.178c-.221.3-22.528,30.833-62.26,79.8-23.335,28.759-48.026,58.155-73.386,87.372q-44.292,51.02-90.443,100.378c-42.428-49.086-84.6-95.619-125.365-138.313C718.683,240.285,622.731,155.069,537.967,96.433c-24.514-16.957-48.4-31.885-71.012-44.369-11.753-6.49-23.4-12.455-34.63-17.729-11.51-5.408-22.9-10.241-33.847-14.367-11.218-4.227-22.292-7.83-32.915-10.709A281.874,281.874,0,0,0,333.73,2.5,221.267,221.267,0,0,0,303.13,0Q302.26,0,301.39,0ZM164.315,1039.933q-52.662,0-88.655-29.18a139.006,139.006,0,0,1-21.838-22.445,176.46,176.46,0,0,1-17.8-28.25,240.908,240.908,0,0,1-13.914-33.715,336.272,336.272,0,0,1-10.161-38.824C1.186,834.237-.843,767.246,5.916,688.409c6.378-74.4,20.538-159.1,42.086-251.766,20.586-88.524,47.628-183.154,80.374-281.26,3.964-11.875,8.31-23.218,12.918-33.713a305.728,305.728,0,0,1,14.618-29.133,239.489,239.489,0,0,1,16.224-24.726,193.372,193.372,0,0,1,17.738-20.5,164.358,164.358,0,0,1,19.161-16.445,149.22,149.22,0,0,1,20.5-12.576,146.378,146.378,0,0,1,21.757-8.885A154.988,154.988,0,0,1,274.23,4.037,177.612,177.612,0,0,1,303.121,2a219.163,219.163,0,0,1,30.324,2.477,279.889,279.889,0,0,1,31.606,6.707c10.562,2.863,21.575,6.446,32.733,10.651,10.9,4.107,22.239,8.921,33.7,14.306,11.187,5.256,22.8,11.2,34.514,17.67,22.548,12.451,46.382,27.344,70.841,44.263,84.653,58.559,180.5,143.687,284.88,253.018,40.783,42.717,82.983,89.279,125.437,138.4q-2.895,3.092-5.793,6.173c-84.174,89.483-170.32,171.905-256.046,244.978-24.779,21.121-49.852,41.731-74.524,61.257-25.969,20.553-52.208,40.47-77.988,59.2-27.036,19.642-54.315,38.52-81.08,56.11-27.98,18.389-56.175,35.881-83.8,51.99-80.822,47.125-148.9,70.732-203.61,70.732" transform="translate(-76 -852.996)" fill="#0080ff"></path></g></svg>