<svg xmlns="http://www.w3.org/2000/svg" xmlns:xlink="http://www.w3.org/1999/xlink" x="0px" y="0px" viewBox="0 0 182 271.6" style="enable-background:new 0 0 182 271.6;" xml:space="preserve"><path d="M91,0C40.8,0,0,40.8,0,91c0,0,0,1,0.1,2.5c0.1,3.8,0.5,7.4,1,11.1c3.7,32.7,19.8,95.9,89.9,167 c70.1-71.1,86.2-134.3,89.9-167c0.6-3.6,0.9-7.3,1-11.1C182,92.1,182,91,182,91C182,40.8,141.3,0,91,0L91,0z M91,143.4 c-24.9,0-45.1-20.2-45.1-45.1c0-24.9,20.2-45.1,45.1-45.1c24.9,0,45.1,20.2,45.1,45.1C136.1,123.2,115.9,143.4,91,143.4L91,143.4z fill=var(--wdtPrimaryColor)"></path></svg>