<svg xmlns="http://www.w3.org/2000/svg" xmlns:xlink="http://www.w3.org/1999/xlink" x="0px" y="0px" viewBox="0 0 166 166" style="enable-background:new 0 0 166 166;" xml:space="preserve"><style type="text/css">	.st0{fill:#010101;}</style><g>	<path class="st0" d="M26.3,86.2c1.8-0.4,3.5-0.7,5.1-1.2c1.8-0.5,3.6-1.2,5.4-1.9c0.4-0.1,0.7-0.4,1.1-0.7c2-1.4,2.1-3.1-0.1-4.2  c-2.2-1.1-4.5-1.7-6.8-2.4c-1.2-0.4-2.4-0.5-3.5-0.7c2.2-0.5,4.4-1,6.6-1.7c1.2-0.4,2.5-1,3.6-1.7c1.9-1.3,1.9-3-0.1-4.3  c-2.6-1.6-5.6-2.3-8.6-3c-0.7-0.2-1.5-0.3-2.3-0.5c2.3-0.5,4.7-1,6.9-1.7c1.3-0.4,2.7-0.9,3.8-1.7c2-1.2,2-3.1,0.1-4.4  c-1.4-0.9-3-1.7-4.6-2c-3.2-0.8-6.5-1.2-9.7-1.8c-0.7-0.1-1.1,0.1-1.5,0.7c-0.6,0.8-1.2,1.5-1.9,2.3c2.6,0.4,5.1,0.8,7.5,1.2  c1,0.2,2,0.6,3,0.9c0.3,0.1,0.4,0.5,0.7,0.7c-0.3,0.2-0.5,0.5-0.8,0.6c-2.3,0.4-4.5,1-6.8,1.2c-6.1,0.7-12.3,1.2-18.4,1.7  c-0.3,0-0.6,0-1,0c0-7.9,0-15.7,0-23.6c15.5,0,30.9,0,46.4,0c0,29.7,0,59.4,0,89.2c-3.2,0-6.3,0-9.6,0c0-0.4,0-0.7,0-1.1  c0-3.8,0-7.6,0-11.4c0-1.6-0.6-2.7-1.9-3.5c-2.4-1.5-5.1-2-7.8-2.6c-0.8-0.2-1.7-0.3-2.8-0.5c1.7-0.4,3.4-0.7,4.9-1.2  c1.4-0.4,2.8-1,4.2-1.7c0.7-0.3,1.4-0.9,1.9-1.5c1.2-1.3,1-2.7-0.4-3.7c-1-0.7-2.2-1.2-3.3-1.5c-2.6-0.7-5.3-1.2-7.9-1.7  c1.5-0.4,3.3-0.7,5-1.3c1.8-0.6,3.6-1.4,5.4-2.2c0.3-0.1,0.7-0.4,0.9-0.7c1.3-1.2,1.3-2.4-0.3-3.1c-2.2-1-4.4-1.7-6.7-2.4  C30.1,86.9,28.2,86.6,26.3,86.2z"></path>	<path d="M67.3,98.7c1.1-4.2,2.2-8.5,3.3-12.8c1.5,0,2.8,0,4.2,0c1.2,4.3,2.3,8.5,3.5,12.7c0.8-4.1,1.7-8.4,2.6-12.7  c1.6,0,3,0,4.7,0c-1.6,6.2-3.1,12.4-4.7,18.6c-1.6,0-3.2,0-4.8,0c-1.1-3.9-2.2-7.8-3.3-11.7c-1.1,3.9-2.2,7.8-3.3,11.7  c-1.6,0-3.2,0-4.8,0c-1.6-6.2-3.1-12.3-4.7-18.5c1.6,0,3.1,0,4.7,0C65.5,90.2,66.4,94.5,67.3,98.7z"></path>	<path d="M127.8,85.7c3.8,0.1,7.6,0.1,11.3,0.5c2.5,0.2,3.9,2.2,3.8,4.7c-0.1,1.6-0.8,2.7-2.2,3.4  c-0.4,0.2-0.7,0.3-1.2,0.5c0.2,0.1,0.3,0.1,0.4,0.1c2.5,0.7,3.7,1.9,3.7,4c0.1,2.2-1.3,4.2-3.5,4.8c-1.2,0.3-2.4,0.5-3.6,0.5  c-2.9,0.1-5.8,0-8.7,0C127.8,98.2,127.8,92.1,127.8,85.7z M132.3,101.1c1.9-0.1,3.6-0.2,5.3-0.4c1-0.1,1.4-1,1.4-2  c0-0.9-0.4-1.9-1.4-2c-1.7-0.1-3.5,0-5.3,0C132.3,98.1,132.3,99.5,132.3,101.1z M132.3,93.1c1.5,0,3,0.1,4.4,0  c1.1-0.1,1.7-0.8,1.7-1.9c0-1.1-0.5-1.7-1.7-1.8c-1.5-0.1-2.9,0-4.4,0C132.3,90.6,132.3,91.8,132.3,93.1z"></path>	<path d="M104.8,96.1c-4.3,0-8.5,0-12.6,0c-0.2,1.8,0.8,3.5,2.3,4.1c2.2,0.9,4.2,0,6.2-2.8c1.3,0.6,2.5,1.3,3.9,2  c-1.1,2-2.6,3.5-4.7,4.4c-4.2,1.8-9.2,0.7-11.6-2.5c-3.3-4.5-1.7-12.3,2.9-14.7c6.1-3.2,12.8,0.5,13.4,7.4  C104.7,94.5,104.8,95.2,104.8,96.1z M92.2,92.6c2.4,0,4.7,0,6.9,0c-0.1-2-1.2-3.2-3.1-3.3C94.1,89.2,92.5,90.5,92.2,92.6z"></path>	<path d="M108.1,85.8c0.5,0,1,0,1.5,0c3,0,5.9,0,8.8,0.1c3.4,0.2,5.3,2.4,4.8,5.4c-0.2,1.4-1,2.4-2.3,3  c-0.3,0.1-0.6,0.3-1,0.4c2.8,0.8,4,2,4.1,4.1c0.1,2.6-1.7,4.9-4.6,5.2c-3.7,0.4-7.5,0.3-11.3,0.4C108.1,98.2,108.1,92.1,108.1,85.8  z M112.6,101.1c1.7-0.1,3.5-0.1,5.1-0.3c1.1-0.1,1.6-1,1.5-2.2c-0.1-1.1-0.6-1.9-1.7-1.9c-1.6-0.1-3.3,0-5,0  C112.6,98.1,112.6,99.5,112.6,101.1z M112.6,93.1c1.6,0,3,0.1,4.5,0c1.1-0.1,1.6-0.8,1.7-1.8c0-1-0.5-1.7-1.7-1.8  c-1.5-0.1-3,0-4.5,0C112.6,90.6,112.6,91.8,112.6,93.1z"></path>	<path d="M4.1,88.3c3.1,0.2,6.1,0.4,9.1,0.6c4.7,0.4,9.5,0.9,14.2,1.5c0.9,0.1,1.7,0.4,2.6,0.6c0.3,0.1,0.6,0.4,1.2,0.8  c-0.8,0.4-1.3,0.8-1.9,0.9c-3.5,0.7-7,1.4-10.5,1.8c-4.4,0.6-8.9,0.9-13.3,1.3c-0.4,0-0.9,0-1.4,0C4.1,93.3,4.1,90.9,4.1,88.3z"></path>	<path d="M4.1,73.3c0-2.5,0-4.9,0-7.4C5.6,66,7.2,66,8.7,66.1c5.8,0.5,11.7,1.1,17.5,1.7c1.1,0.1,2.2,0.4,3.3,0.7  c0.5,0.1,0.9,0.4,1.4,0.7c0,0.1,0,0.3,0.1,0.4c-0.5,0.3-1.1,0.7-1.6,0.8c-3,0.6-6,1.2-9,1.6c-5,0.6-10,0.9-15,1.3  C4.9,73.3,4.5,73.3,4.1,73.3z"></path>	<path class="st0" d="M155.1,104.4c-1.6,0-3.1,0-4.6,0c0-1.3-0.1-2.6,0-3.9c0.4-3.3-0.5-6.1-2.7-8.6c-1.6-1.8-2.8-3.9-4.3-6.1  c1.9,0,3.5,0,5.2,0c0.2,0,0.5,0.4,0.7,0.7c1.1,1.8,2.3,3.6,3.4,5.4c1.2-1.9,2.4-3.8,3.6-5.5c0.2-0.3,0.7-0.6,1.1-0.6  c1.4-0.1,2.9,0,4.4,0c-0.2,0.4-0.3,0.6-0.4,0.8c-2,2.8-4,5.5-5.9,8.3c-0.3,0.4-0.5,1-0.5,1.5c-0.1,2.2,0,4.5,0,6.7  C155.1,103.5,155.1,103.9,155.1,104.4z"></path>	<path d="M4.1,106.8c0-2.4,0-4.7,0-6.7c2.4,0,4.8-0.1,7.2,0c5.4,0.3,10.7,0.7,16,1.1c0.7,0,1.4,0.2,2,0.4  c0.5,0.2,0.9,0.5,1.4,0.8c-0.4,0.3-0.8,0.8-1.3,1c-1.5,0.4-3,0.9-4.6,1.1c-6.7,0.8-13.4,1.6-20.2,2.3  C4.5,106.8,4.3,106.8,4.1,106.8z"></path>	<path d="M31.1,80.9c-1.1,0.3-2.2,0.8-3.3,1c-5.4,0.7-10.9,1.3-16.3,1.9c-2.4,0.3-4.9,0.4-7.4,0.5c0-2.3,0-4.5,0-6.9  c0.7,0.1,1.4,0.1,2.1,0.2c5.6,0.4,11.1,0.7,16.7,1.1c2.1,0.2,4.3,0.5,6.4,0.8c0.7,0.1,1.3,0.4,1.9,0.7  C31.1,80.5,31.1,80.7,31.1,80.9z"></path>	<path d="M85.7,111.4c0.4,0,0.6,0,1,0c1.5,4.6,3,9.2,4.6,13.8c0.1,0,0.1,0,0.2,0c1.6-4.6,3.3-9.2,4.9-13.8  c0.4,0,0.8,0,1.3,0c-1.9,5.4-3.9,10.7-5.8,16.1c-0.3,0-0.7,0-1.1,0c-1.5-4.5-3-9-4.7-13.8c-1.6,4.8-3.1,9.3-4.7,13.8  c-0.4,0-0.7,0-1,0c-1.9-5.4-3.9-10.7-5.8-16.1c0.5,0,0.9,0,1.4,0c1.6,4.5,3.2,9.1,4.9,13.7c0.1,0,0.1,0,0.2,0  C82.7,120.7,84.2,116.1,85.7,111.4z"></path>	<path d="M116.9,120.9c0,2.3,0,4.4,0,6.6c-0.4,0-0.8,0-1.2,0c0-5.4,0-10.6,0-16.1c3,0.1,5.9,0,8.8,0.4  c2.8,0.4,4.2,2.9,3.5,5.5c-0.4,1.7-1.7,2.7-3.3,3.2c-0.3,0.1-0.7,0.2-1.1,0.3c1.7,2.3,3.4,4.4,5.1,6.7c-0.9,0.2-1.5,0.2-2.1-0.6  c-1.3-1.8-2.7-3.5-3.9-5.2c-0.4-0.5-0.9-0.8-1.6-0.8C119.8,120.9,118.4,120.9,116.9,120.9z M117,112.7c0,2.4,0,4.7,0,7  c2.2,0,4.3,0.1,6.4,0c2.2-0.1,3.7-1.7,3.6-3.6c0-1.9-1.4-3.2-3.6-3.3C121.3,112.5,119.2,112.7,117,112.7z"></path>	<path d="M131.7,127.4c0-5.3,0-10.6,0-15.8c2.5,0,5-0.2,7.4,0.1c3.4,0.4,6.8,3.4,6.5,8.5c-0.2,3.7-3.2,6.9-7.1,7.3  C136.3,127.6,134.1,127.4,131.7,127.4z M133,126.5c2-0.1,4,0,5.9-0.3c3.1-0.5,5.2-3,5.4-6.1c0.2-3.3-1.5-6-4.5-7  c-2.2-0.8-4.5-0.3-6.8-0.4C133,117.3,133,121.8,133,126.5z"></path>	<path class="st0" d="M90.7,76.7c3.4,0,6.7,0,10.2,0c0,0.4,0.1,0.7,0.1,1.1c-3.9,0-7.6,0-11.5,0c0-5.3,0-10.7,0-16  c3.8,0,7.5,0,11.3,0c0,0.4,0,0.7,0,1.1c-3.3,0-6.7,0-10.1,0c0,2.1,0,4.1,0,6.3c3,0,6,0,9,0c0,0.4,0,0.7,0,1.2c-3,0-6,0-9.1,0  C90.7,72.4,90.7,74.5,90.7,76.7z"></path>	<path d="M84,70.4c-3.5,0-6.8,0-10.2,0c0,2.5,0,5,0,7.4c-0.4,0-0.8,0-1.2,0c0-5.4,0-10.7,0-16c0.4,0,0.7,0,1.2,0  c0,2.4,0,4.8,0,7.3c3.5,0,6.8,0,10.2,0c0-2.4,0-4.8,0-7.3c0.4,0,0.8,0,1.2,0c0,5.3,0,10.6,0,16c-0.4,0-0.7,0-1.1,0  C84,75.3,84,72.9,84,70.4z"></path>	<path d="M66.5,111.3c0.5,0,0.8,0,1.2,0c2.5,5.4,5,10.8,7.5,16.1c-0.9,0.3-1.4,0.1-1.7-0.8c-0.5-1.2-1.1-2.4-1.6-3.6  c-3.2,0-6.3,0-9.4,0c-0.5,1.2-1.1,2.4-1.6,3.6c-0.3,0.8-0.7,1.1-1.7,0.7C61.5,122.1,64,116.7,66.5,111.3z M67.1,112.7  c-1.5,3.2-2.8,6.2-4.2,9.1c2.8,0,5.5,0,8.3,0C69.9,118.8,68.5,115.9,67.1,112.7z"></path>	<path class="st0" d="M110,123c-3.2,0-6.3,0-9.4,0c-0.5,1.2-1.2,2.4-1.6,3.6c-0.3,0.8-0.7,1.1-1.6,0.7c0.2-0.5,0.5-1.1,0.7-1.6  c2.1-4.6,4.2-9.1,6.3-13.7c0.3-0.8,0.7-1.2,1.7-0.8c2.4,5.3,4.9,10.7,7.4,16c-0.9,0.4-1.4,0-1.8-0.8  C111.1,125.4,110.5,124.3,110,123z M105.3,112.7c-1.5,3.2-2.8,6.1-4.2,9.1c2.8,0,5.5,0,8.3,0C108,118.8,106.7,115.9,105.3,112.7z"></path>	<path d="M147.8,125.2c0.3-0.3,0.5-0.6,0.6-0.7c1.6,0.7,3,1.6,4.5,1.9c1.1,0.3,2.4,0,3.6-0.3c1.2-0.4,1.9-1.4,1.9-2.7  c0-1.3-0.7-2.2-1.9-2.6c-1.1-0.4-2.2-0.6-3.2-0.9c-0.8-0.2-1.6-0.4-2.3-0.7c-1.5-0.7-2.5-1.7-2.5-3.5c0-1.8,0.9-3.1,2.4-3.9  c2.4-1.2,6.2-0.6,8.2,1.5c-0.2,0.3-0.4,0.5-0.5,0.7c-1.4-0.5-2.7-1.2-4.1-1.5c-0.9-0.2-2,0-2.9,0.3c-1.2,0.4-1.9,1.2-2,2.6  c-0.1,1.4,0.6,2.2,1.8,2.7c1.1,0.4,2.3,0.7,3.5,1c0.7,0.2,1.5,0.4,2.2,0.7c1.5,0.7,2.5,1.8,2.4,3.6c0,1.8-0.9,3.2-2.6,3.9  c-3,1.2-5.7,0.6-8.3-1.2C148.5,125.8,148.2,125.5,147.8,125.2z"></path>	<path d="M64.4,77.8c-0.5,0-0.8,0-1.3,0c0-5,0-9.9,0-15c-1.9,0-3.7,0-5.6,0c0-0.4,0-0.7,0-1.1c4.1,0,8.2,0,12.4,0  c0,0.3,0,0.6,0.1,1c-1.9,0-3.7,0-5.6,0C64.4,67.8,64.4,72.7,64.4,77.8z"></path></g></svg>