<svg xmlns="http://www.w3.org/2000/svg" xmlns:xlink="http://www.w3.org/1999/xlink" x="0px" y="0px" viewBox="0 0 166 166" style="enable-background:new 0 0 166 166;" xml:space="preserve"><g transform="translate(17.08 17.466)">	<g>		<path d="M26.3,52.6h-1.7v13.7h1.7c1.5,0,2.1-1.1,2.1-3.1v-7.7C28.4,53.6,27.7,52.5,26.3,52.6z"></path>		<path d="M60.8,73.1h3.8L62.8,57L60.8,73.1z"></path>		<path d="M-13.1-13.9v159.3h158V-13.9H-13.1z M118.6,47.8h13.1v4.8h-7.5v11.6h6.4v4.7h-6.4v14.5h7.5v4.8h-13.1   C118.6,88.1,118.6,47.8,118.6,47.8z M103.6,47.8l-0.4,0.3l3.7,31.6l3.5-31.9h5.4L110.4,88h-7.2l-5.4-40.2H103.6z M89.2,47.8h5.4   v40.1h-5.4V47.8z M15.1,64.3H9.7v-8.6c0-2.1-0.7-3.1-2-3.1s-2,0.9-2,3.1v24.6c0,2.1,0.7,3.1,2,3.1s2-0.9,2-3.1v-9.6h5.4v9.2   c0,5.8-2.4,8.5-7.5,8.5s-7.5-2.7-7.5-8.5V56.1c0-5.8,2.4-8.5,7.5-8.5s7.5,2.7,7.5,8.5V64.3z M34.3,132.3h-5.4v-0.1   c-0.5-2.2-0.6-4.5-0.5-6.8v-6.9c0-2.7-0.7-3.6-2.4-3.6h-1.5v17.3h-5.6V92h7.4c5.3,0,7.6,2.5,7.6,8.1v5.8c0.4,2.8-1,5.5-3.4,6.8   c2.5,1.2,4,3.9,3.6,6.6v5.8c-0.1,2.2,0.1,4.3,0.4,6.5L34.3,132.3z M34.3,88.2h-5.4c-0.5-2.2-0.6-4.5-0.5-6.8v-7   c0-2.7-0.7-3.6-2.4-3.6h-1.5v17.3h-5.6V48h7.4c5.3,0,7.6,2.5,7.6,8.1v5.8c0.4,2.8-1,5.5-3.4,6.8c2.5,1.2,4,3.9,3.6,6.6v5.8   c-0.1,2.2,0,4.3,0.3,6.5L34.3,88.2z M51.2,96.8h-7.5v11.4h6.4v4.7h-6.4v14.5h7.5v4.8H38V92h13.2V96.8z M51.2,52.8h-7.5v11.6h6.4   V69h-6.4v14.5h7.5v4.8H38V47.8h13.2V52.8z M66.3,132.3h-7.5L53.6,92H59l3.5,31.6L66.3,92h5.4L66.3,132.3z M66.3,88.1l-1.2-10h-5   l-1.2,10h-5.3L59.1,48h7.5L72,88.1H66.3z M81.3,132.3h-5.4V92h5.4V132.3z M85.7,52.8h-4.4v35.3h-5.4V52.6h-4.4v-4.8h14.4   L85.7,52.8z M99.3,96.8h-7.6v11.4h6.4v4.7h-6.4v14.5h7.6v4.8H86.2V92h13.2L99.3,96.8z M127.2,132.1H120v-0.3l-2.7-23l-2.7,23.3h-7   L103.1,92h5.7l2.7,30.5l3.6-30.5h5l3.4,30.5l3-30.5h5.3L127.2,132.1z"></path>		<path d="M26.3,96.8h-1.7v13.7h1.7c1.5,0,2.1-1.1,2.1-3.1v-7.7C28.4,97.6,27.7,96.7,26.3,96.8z"></path>	</g></g></svg>