<svg xmlns="http://www.w3.org/2000/svg" xmlns:xlink="http://www.w3.org/1999/xlink" id="Layer_1" x="0px" y="0px" viewBox="0 0 166 166" style="enable-background:new 0 0 166 166;" xml:space="preserve"><style type="text/css">	.st0{clip-path:url(#SVGID_2_);}	.st1{fill:#FFFFFF;}</style><g>	<g>		<g>			<defs>				<rect id="SVGID_1_" x="7.5" y="18.3" width="151" height="131.3"></rect>			</defs>			<use xlink:href="#SVGID_1_" style="overflow:visible;fill:#FFFFFF;"></use>			<clipPath id="SVGID_2_">				<use xlink:href="#SVGID_1_" style="overflow:visible;"></use>			</clipPath>			<g id="Vector_Smart_Object" class="st0">				<path id="Path_131441" d="M162-94.8H1.2l-80.4,181l80.4,181H162l80.4-181L162-94.8z"></path>				<path id="Path_131442" class="st1" d="M2.8,149.5l14.6,13.1l33.2-9.3l17.7,18.3l-19.7,18.6l14,11.9l71.7-71.4l-10.6-14     L2.8,149.5z M80.3,160.3l-11.6-12.1l35-9.9L80.3,160.3z"></path>				<path id="Path_131443" class="st1" d="M7.6,132.9c2.4,5.2,9.3,8.2,16.1,0.9c0,0,23-23.9,35-75c0,0,9.4-36.3-6-91.4L-1.1,85     c0,0,4.1,29.6,4.8,33.1C3.6,118,4.8,127,7.6,132.9z M46.6,11.2c10,44.5-18.2,90.2-18.2,90.2c-13,22.8-15.7,2-15.7,2     c-0.3-1.9-2-16-2-16L46.6,11.2z"></path>				<path id="Path_131444" class="st1" d="M165.6,94.5L122-10.2l-7.5,13.4l11.9,28.9c0,0-6.2-1-11.4,7.2c0,0-11.5,19.2,2.1,56     c0,0,11.3,34.2,27.2,34.5c0,0,8.5,0.7,11.9-14.9c0.7-3,0.9-6,0.8-9.1l2.6,3.7L165.6,94.5z M144.1,108c-4.6,3.2-10.7-4.9-17.7-24     c-5.6-15.3-5-30,0.2-33.3c6.2-3.8,12.6,6.2,17.8,23C149.3,89.3,148.8,104.8,144.1,108L144.1,108z"></path>				<path id="Path_131445" class="st1" d="M51.4,100.7c0,0-1.6,24.9,6.5,28.4c0,0,11,8.7,30.2-27.2l4.1,9.3l16.7-10.2     c0,0-8.8-21.5-9.8-22.9c0,0,14.6-37,16.7-55.6l-16,10.8c0,0-4.5,22-7.7,28.2c0,0-6-11.8-6.9-17c0,0,18.3-30,16.6-50.5     c0,0,0.4-13.9-10-10.9c0,0-10.2,1.9-21,23.8c0,0-12.1,22.3-3.2,43.5C67.5,50.5,53.2,78,51.4,100.7z M79.5,11     c4.7-10.6,8.8-9.1,8.8-9.1c2.8,1.4,0.6,8.6,0.6,8.6C87.8,17.2,79.6,32,79.6,32C75,21.9,79.5,11,79.5,11L79.5,11z M72.9,65.4     l8.5,21.1C71.9,110.7,65,100.8,65,100.8C59.8,89.8,72.9,65.4,72.9,65.4z"></path>			</g>		</g>	</g></g></svg>