<?xml version="1.0" encoding="utf-8"?>
<!-- Generator: Adobe Illustrator 22.0.0, SVG Export Plug-In . SVG Version: 6.00 Build 0)  -->
<svg version="1.1" id="Layer_1" xmlns="http://www.w3.org/2000/svg" xmlns:xlink="http://www.w3.org/1999/xlink" x="0px" y="0px"
	 viewBox="0 0 100 100" style="enable-background:new 0 0 100 100;" xml:space="preserve">
<g>
	<path d="M-1737.8-712.6c-6.9,7-13.4,13.5-19.8,19.9c-1.3,1.3-2.5,2.7-3.9,3.9c-5.2,4.5-12.1,4.3-16.6-0.5c-4.3-4.5-4.5-11.5,0-16.3
		c6.2-6.5,12.6-12.8,19-19.1c1.4-1.4,3.1-2.5,5.2-4c-6-5.9-11.2-11-16.4-16.2c-8.7-8.8-8.7-17.2,0.1-26c6.8-6.8,13.7-13.7,20.5-20.5
		c0.2-0.2,0.4-0.5,1.2-1.6c-3.2-2.6-6.4-5.2-9.7-8c-0.8,1-1.2,1.5-1.6,2.1c-4.1,6.5-8.3,8.4-15.6,5.7c-3.7-1.4-6.1-0.5-9.2,1.2
		c-4.6,2.5-9.5,4.8-14.5,6.6c-1.7,0.6-4.8,0.4-5.8-0.8c-1.1-1.2-0.5-3.9-0.6-6c0-0.3,0.2-0.6,0.4-0.9c4.3-11.1,7.6-12.5,18.5-7.6
		c2.1,1,4.2,1.9,6.4,2.9c6.1-3.3,11.3-9,19.3-6.5c1.2-2.1,2.2-4,3.4-5.7c4.1-5.9,9.8-8.7,16.8-6.9c4.1,1,8.1,2.9,11.9,4.8
		c5.7,2.8,10.4,7,14.7,11.6c4.3,4.6,8.8,8.9,14.1,14.2c-0.4-10.3,2.7-18,10.6-23.2c5.2-3.4,10.9-4.4,17.9-2.9
		c-4.2,4.2-8,7.8-11.5,11.8c-6.1,6.9-3.1,17.3,5.6,19.5c4.6,1.2,8.6-0.2,11.8-3.6c3.4-3.4,6.7-6.9,10.6-10.1
		c2.2,7.7,0.2,14.3-4.8,20.1c-5.1,5.9-12,7.8-19.3,7.7c11.5,11.5,22.9,22.9,34.3,34.3c0.8-0.6,2.1-1.5,3.3-2.5
		c0.3,0.2,0.6,0.5,0.9,0.7c-1.1,1.4-2.2,2.8-3.7,4.8c4.7,5.3,9.6,10.7,14.5,16c-0.2,0.3-0.5,0.5-0.7,0.8c-5.3-4.8-10.6-9.5-16-14.4
		c-1.7,1.3-3.2,2.4-4.7,3.5c-0.3-0.2-0.6-0.5-0.8-0.7c0.9-1.3,1.9-2.6,2.7-3.6c-12.1-12-24.1-24-36.4-36.2c-0.8,0.7-1.9,1.7-3.4,3.1
		c0.9,1.1,1.6,2.2,2.5,3.1c6.2,6.3,12.5,12.5,18.7,18.8c7.2,7.4,7.3,16.1,0.1,23.5c-8.3,8.5-16.6,16.8-25.1,25.1
		c-7.2,7-15.9,7-23.1,0C-1723.3-697.7-1730.3-704.9-1737.8-712.6z M-1753.6-743.8c0.8-0.5,2-0.9,2.8-1.7
		c9.5-9.4,18.9-18.8,28.3-28.2c1.8-1.8,1.9-3.8,0-5.7c-2.6-2.6-5.2-5.2-7.7-7.8c-2-2-4.1-2.2-6.1-0.1c-9.4,9.4-18.9,18.8-28.2,28.3
		c-0.9,0.9-1.5,3.6-0.9,4.3c3.1,3.6,6.7,6.9,10.1,10.3C-1754.9-744.1-1754.3-744.1-1753.6-743.8z M-1706.6-777.5
		c1.4-1.5,2.6-2.8,4.6-4.8c-1.8-1.4-3.5-2.3-4.8-3.6c-6.1-5.9-12.5-11.6-17.9-18.1c-3.6-4.5-7.9-7.4-13-9.4
		c-7.7-2.9-16.7-1.6-20.3,9.9c3.8,2.9,7.6,5.7,11.3,8.6c9.1-6.9,16.2-6.4,24.3,1.6C-1717.2-788.3-1712.2-783.2-1706.6-777.5z
		 M-1703.2-746.4c-7,5.2-7,5.2-7,12.3c0,3.8,0,7.6,0,11.4c0,3.6,0,7.2,0,11c2.7,0,4.7,0,7,0
		C-1703.2-723.3-1703.2-734.6-1703.2-746.4z M-1804.3-788.7c0.4,0.4,0.8,0.8,1.3,1.2c7.5-0.2,13.1-4.9,20.4-8.5
		c-4.2-1.7-7.3-3.2-10.5-4.3c-2.2-0.7-4.7-0.9-6.1,1.7C-1801.1-795.4-1802.7-792-1804.3-788.7z M-1700.6-715.7
		c6-1.2,10.2-7.3,10.2-13.9c0-6.7-4.3-12.7-10.2-13.7c2.3,3,4.6,5.4,6.2,8.3c1.9,3.3,2,7.2,0.2,10.6
		C-1695.8-721.5-1698.2-718.9-1700.6-715.7z M-1762.2-801.4c-6.1-2-10.1,1.5-14.4,5C-1768.3-793.2-1764.8-794.5-1762.2-801.4z
		 M-1769.1-702.6c-2.6,0-4.9,2.1-4.7,4.6c0.2,2.6,1.6,4.3,4.3,4.5c2.6,0.2,4.9-1.8,5-4.4C-1764.3-700.4-1766.4-702.6-1769.1-702.6z
		 M-1713.3-716c-3.7-3.7-6.9-7.5-7.3-12.9c-3.3,1.2-2.1,3.4-1.4,5C-1720.4-720-1718.1-716.7-1713.3-716z"/>
</g>
<g>
	<path d="M995.9-684.4c0-18.7,0-37.3,0-56.1c-8.6,0-17.1,0-25.6,0c-0.2-0.4-0.5-0.7-0.7-1.1c0.8-0.4,1.7-0.7,2.3-1.3
		c12.7-11.3,25.4-22.6,38.1-33.8c1.6-1.4,2.3-2.8,2.3-5c-0.2-6.2-0.1-12.4-0.1-18.6c0-0.9,0-1.8,0-3c3.7,0,7.1,0,10.5,0
		c5.1,0,10.2,0.1,15.3-0.1c1.2,0,2.5-0.5,3.4-1.2c5.2-4.4,10.3-9,15.8-13.8c29.1,25.7,58.1,51.5,87.7,77.7c-9.2,0-17.6,0-26.3,0
		c0,18.9,0,37.5,0,56.3C1077.7-684.4,1036.9-684.4,995.9-684.4z M1002.8-691.4c36.4,0,72.4,0,108.6,0c0-18.7,0-37.2,0-56.1
		c5,0,9.7,0,15.2,0c-23.5-20.9-46.5-41.2-69.5-61.6c-8.1,7.2-15.9,14.3-23.8,21.3c-0.2-0.1-0.4-0.3-0.7-0.4c0-2.6,0-5.3,0-7.9
		c-4.6,0-8.9,0-13.4,0c0,6.1-0.1,12.1,0,18c0,1.8-0.5,3.1-1.9,4.3c-8.7,7.5-17.3,15.2-25.9,22.8c-1.1,0.9-2.1,1.9-3.2,2.9
		c0.1,0.2,0.2,0.4,0.2,0.6c4.7,0,9.3,0,14.2,0C1002.8-728.6,1002.8-710.1,1002.8-691.4z"/>
	<path d="M1073.8-773.4c0,8.8,0,17.5,0,26.4c-11.1,0-22.2,0-33.6,0c0-8.7,0-17.5,0-26.4C1051.4-773.4,1062.4-773.4,1073.8-773.4z"/>
	<path d="M1051.7-732.9c-3.9-1.8-7.6-3.4-11.4-5.1c0-1.6,0-3.1,0-4.9c11.2,0,22.2,0,33.4,0c0,1.5,0,3.1,0,4.9
		c-3.7,1.6-7.5,3.4-11.5,5.1c0,8.4,0,16.6,0,24.8c0,3.9-3,6.4-6.5,5.6c-2.5-0.6-4-2.7-4-5.9c0-7.1,0-14.3,0-21.4
		C1051.7-730.6,1051.7-731.6,1051.7-732.9z"/>
</g>
<g>
	<path d="M20.8-762.3c0,6.5,0,12.7,0,19.1c3.9,0.4,6.7,2.3,7.8,6.1c1,3.5-0.4,7.2-3.6,9.1c-1,0.6-1.3,1.2-1.2,2.3
		c0.9,9.3,1.7,18.7,2.6,28c0.3,3.5,0.7,6.9,0.8,10.4c0.3,9.9-7.6,18-17.5,18c-9.8,0-17.8-8.1-17.3-18.1c0.3-7.2,1.2-14.4,1.8-21.6
		c0.5-5.7,1.1-11.3,1.5-17c0-0.6-0.4-1.4-0.8-1.7c-3.2-2.1-4.8-5.3-4.1-8.7c0.7-3.6,3.4-6.1,7.3-6.7c0.2,0,0.4-0.1,0.7-0.1
		c0-6.3,0-12.5,0-19.1c-1,0-2,0-3,0c-3-0.1-6.1,0.1-9-0.5c-7.4-1.6-12.6-8.1-12.5-15.7c0.2-9.1,0.7-18.2,1.1-27.3
		c0.3-6.3,0.8-12.6,1.2-18.9c0.3-5,3.8-8.6,8.5-8.6s8.3,3.6,8.6,8.6c0.7,11,1.4,22,2,33.1c0.1,1.1,0.4,2,1.6,2
		c1.3,0,1.7-0.9,1.8-2.1c0.7-11,1.4-21.9,2-32.9c0.3-5.1,3.8-8.8,8.6-8.7c4.7,0,8.2,3.6,8.5,8.7c0.7,11,1.4,21.9,2,32.9
		c0.1,1.1,0.4,2.1,1.7,2.1c1.3,0,1.6-1,1.7-2.1c0.7-11,1.4-22,2-33.1c0.3-4.9,3.9-8.5,8.5-8.5c4.7,0,8.3,3.6,8.6,8.4
		c0.7,12,1.6,24.1,2.2,36.1c0.2,4.3,0.3,8.7-0.2,12.9c-1,7.7-7.8,13.3-15.5,13.6C26.7-762.3,23.8-762.3,20.8-762.3z M9.8-767.8
		c6.4,0,12.9,0,19.3,0c5.9-0.1,10.6-4.6,10.8-10.4c0.1-3.4,0.1-6.7,0-10.1c-0.7-12.1-1.5-24.2-2.3-36.3c-0.1-2.1-1.4-3.4-3.1-3.3
		c-1.8,0-2.9,1.3-3.1,3.4c-0.7,11-1.4,22-2.1,33.1c-0.3,4.2-3.2,7.2-7.1,7.3c-3.9,0-6.9-3-7.2-7.2c-0.7-11-1.4-21.9-2.1-32.9
		c-0.1-2.3-1.2-3.6-3-3.6c-1.9-0.1-3.1,1.3-3.2,3.6c-0.7,11-1.4,21.9-2.1,32.9c-0.3,4.2-3.2,7.2-7.2,7.2c-3.9,0-6.9-3-7.1-7.2
		c-0.7-11-1.4-22-2.1-33.1c-0.1-2.1-1.3-3.4-3.1-3.4s-3,1.3-3.1,3.5c-0.3,4.4-0.6,8.7-0.8,13.1c-0.5,10.6-1.2,21.1-1.5,31.7
		c-0.2,7.2,4.5,11.8,11.7,11.8C-2.4-767.8,3.7-767.8,9.8-767.8z M1.4-726.7c-0.1,0.3-0.1,0.5-0.1,0.7c-0.7,7.3-1.4,14.5-2,21.8
		c-0.5,5.7-1.2,11.4-1.4,17.2c-0.3,8.4,8.1,14.3,16,11.4c5.6-2,8.5-7.3,7.7-14.2c-0.7-7-1.3-14.1-2-21.1c-0.5-5.3-1-10.5-1.5-15.8
		C12.7-726.7,7.1-726.7,1.4-726.7z M4.6-762.3c0,6.5,0,12.7,0,19c3.6,0,7.2,0,10.7,0c0-6.4,0-12.6,0-19
		C11.6-762.3,8.1-762.3,4.6-762.3z M9.9-732.3c3.4,0,6.8,0,10.2,0c2.1,0,3.4-1.1,3.3-2.8c-0.1-1.6-1.3-2.6-3.3-2.6
		c-6.9,0-13.8,0-20.7,0c-2.1,0-3.4,1.1-3.3,2.8c0.1,1.6,1.3,2.6,3.3,2.6C2.9-732.2,6.4-732.3,9.9-732.3z"/>
	<path d="M102.9-756.7c0,4.6,0,9,0,13.4c4.4,0.5,7.4,2.8,8,7.2c0.6,4-1.4,6.9-5.1,8.8c0.4,4.8,0.9,9.6,1.3,14.4c0.7,8,1.5,16,2.2,24
		c1,11-7.1,19.1-16.5,19.5c-11.2,0.5-19.4-8.8-18.2-20.4c1.2-11.8,2.2-23.6,3.3-35.4c0.1-1.4-0.1-2.3-1.4-3.1
		c-2.8-1.8-4.1-4.6-3.5-7.9c0.6-3.4,2.6-5.7,6.1-6.7c0.6-0.2,1.2-0.2,1.9-0.4c0-4.4,0-8.8,0-13.4c-2.5,0.6-4.9,1.2-7.3,1.8
		c-9.6,2.3-17.1-4.9-15.2-14.6c0.7-3.6,1.6-7.2,2.4-10.8c1.7-7.8,3.2-15.6,5.1-23.3c3.4-13.5,11.5-23.1,24-29.1
		c1.4-0.7,2.5-0.7,3.9,0c12.8,6.1,21,16.1,24.2,30c2.7,11.3,5,22.8,7.4,34.2c1.7,8.4-5.7,15.7-14.1,14
		C108.6-755.3,105.8-756,102.9-756.7z M83.8-773.3c-0.2-4.1,2.2-7.3,6-8c3.6-0.7,7.3,1.5,8.4,5.3c1.2,4,2.3,8.1,3.5,12.1
		c0.2,0.6,0.9,1.4,1.4,1.5c2.8,0.8,5.7,1.5,8.6,2.2c5.3,1.3,9.3-2.7,8.2-8c-2.3-10.8-4.7-21.7-7-32.5c-2.6-11.8-9.1-20.6-19.8-26.4
		c-0.9-0.5-1.6-0.5-2.5,0c-9.9,5.3-16.5,13.2-19.2,24c-2.8,11.5-5.1,23.1-7.6,34.6c-1.2,5.7,2.7,9.3,8.4,8.2
		c7.8-1.6,15.2-5.2,23.6-4.2c-1-3.5-1.9-6.9-3-10.2c-0.2-0.6-1.3-1.3-1.9-1.2c-0.6,0.1-1.2,1-1.7,1.6c-0.2,0.2-0.1,0.6-0.1,1
		C87.3-773.3,85.6-773.3,83.8-773.3z M83.4-726.7c-0.1,0.4-0.1,0.6-0.1,0.8c-0.7,7.2-1.3,14.4-2,21.6c-0.5,5.8-1.2,11.6-1.4,17.4
		c-0.3,8.4,8.2,14.3,16.1,11.4c5.6-2,8.4-7.3,7.7-14.1c-0.8-8.4-1.6-16.8-2.3-25.2c-0.4-3.9-0.7-7.9-1.1-11.9
		C94.6-726.7,89.1-726.7,83.4-726.7z M86.4-758.1c0,5,0,9.9,0,14.8c3.6,0,7.1,0,10.7,0c0-5,0-9.9,0-14.8
		C93.6-759.5,90.1-759.5,86.4-758.1z M91.6-732.3c3.5,0,6.9,0,10.4,0c2.1,0,3.4-1.1,3.4-2.8c0-1.6-1.3-2.7-3.3-2.7
		c-6.9,0-13.9,0-20.8,0c-2,0-3.2,1.1-3.2,2.8s1.2,2.7,3.3,2.7C84.9-732.2,88.3-732.3,91.6-732.3z"/>
</g>
<g>
	<path d="M-965.3-786.9c0.8-3.1,2.8-5.3,5-7.5c9.2-9.1,18.3-18.3,27.4-27.4c5.3-5.3,10.8-5.3,16.1,0c6.1,6.1,12.2,12.2,18.3,18.3
		c4.6,4.6,5.2,8.2,2.4,13.8c11.9,11.9,23.7,23.7,35.6,35.6c0.1-0.1,0.5-0.4,0.9-0.8c7.6-7.6,15.3-15.3,22.9-22.9
		c0.8-0.8,1.3-1.6,1-2.8c-0.2-0.7-0.4-1.5-0.2-2.1c1-3.3-1-5.2-3.2-7.2c-1-0.9-1.8-2-3.1-3.4c-0.9,1.1-1.4,2-2.1,2.7
		c-1.1,1.1-2.4,1.1-3.5,0c-3.8-3.7-7.6-7.5-11.3-11.3c-1.4-1.4-1.2-2.5,0.5-4.2c5.8-5.8,11.5-11.5,17.3-17.3
		c0.9-0.9,1.9-1.9,2.8-2.8c1.5-1.4,2.6-1.4,4.1,0c3.6,3.6,7.2,7.1,10.8,10.8c1.5,1.5,1.5,2.7,0,4.2c-0.6,0.6-1.3,1.1-2,1.7
		c2.2,2.2,4.1,4.2,6.1,6.1c0.4,0.4,1.2,0.3,1.9,0.3c11.9-0.8,21.3,7.7,21.3,19.7c0,2.6,0.7,4.4,2.4,6.2c5.3,5.9,8.9,12.7,11.6,20.1
		c0.8,2.1,1.6,4.3,2.2,6.5c0.2,0.8,0.1,2.1-0.4,2.6c-0.5,0.6-1.8,0.9-2.6,0.7c-7.2-2.4-14.4-4.9-20.7-9.3c-2.8-2-5.4-4.2-8.2-6.3
		c-0.5-0.4-1.3-0.6-1.9-0.7c-2.2-0.2-4.4-0.3-6.6-0.4c-0.6,0-1.4,0.1-1.7,0.4c-8.1,8-16.1,16-24.2,24.1c0.5,0.6,1,1.1,1.5,1.6
		c16.4,16.4,32.7,32.7,49.1,49.1c2.4,2.4,2.4,3.3-0.1,5.7c-2.3,2.3-4.7,4.5-7,6.8c-1,1-2,1.3-3.4,1c-4.2-0.9-8.4-1.6-12.6-2.3
		c-1.6-0.3-2.7-1-3.5-2.5c-1.8-3.2-3.6-6.4-5.5-9.6c-0.5-0.7-1.4-1.4-2.3-1.6c-3.6-0.8-7.2-1.5-10.8-2c-1.7-0.3-2.7-1.1-3.5-2.5
		c-1.7-3.2-3.5-6.3-5.4-9.4c-0.5-0.7-1.4-1.4-2.3-1.6c-3.7-0.8-7.4-1.5-11.2-2.1c-1.4-0.2-2.3-0.9-2.9-2.1c-0.9-1.7-1.9-3.3-3.5-5.5
		c-0.4,0.6-0.6,1.4-1.1,1.9c-12,12-24,24-36,36c-3.9,3.9-8.5,4.7-12.8,2.2c-5.2-3-6.6-10-2.9-14.7c0.6-0.7,1.2-1.4,1.8-2
		c10.4-10.4,20.7-20.8,31.1-31.1c0.5-0.5,1.1-0.9,1.8-1.5c-1.5-2.7-3.2-5-4.3-7.6c-1.5-3.4-3.8-5.4-7.7-5.5
		c-2.6-0.1-5.1-0.7-7.6-1.4c-1.1-0.3-2.3-1.1-2.9-2.1c-2-3.2-3.8-6.6-5.8-9.8c-0.4-0.7-1.3-1.4-2.2-1.5c-3.4-0.8-6.7-1.4-10.1-1.9
		c-0.6-0.1-1.3,0-1.9,0.2c-4.3,1.7-8.2,1.1-11.5-2.2c-6.7-6.6-13.4-13.3-19.9-20c-1.4-1.5-2.2-3.5-3.2-5.3
		C-965.3-784.5-965.3-785.7-965.3-786.9z M-925-760.3c2.9,0.6,5.7,1.2,8.6,1.6c1.6,0.3,2.7,1,3.5,2.5c1.8,3.3,3.7,6.5,5.6,9.7
		c0.4,0.6,1.2,1.2,1.9,1.4c3.4,0.7,6.7,1.5,10.1,1.9c2.4,0.3,3.9,1.4,5,3.5c1.7,3.3,3.7,6.4,5.4,9.4c6.9-6.9,13.6-13.6,20.2-20.2
		c-11.6-11.6-23.4-23.4-35-35C-908-777.2-916.5-768.8-925-760.3z M-834.2-774.1c-0.2,0.3-0.5,1-1,1.5c-27.5,27.5-55,55-82.5,82.5
		c-0.6,0.6-1.1,1.1-1.6,1.7c-1.2,1.7-1.3,3.5-0.4,5.3c0.9,1.8,2.5,2.8,4.5,2.8c1.9,0.1,3.3-1,4.5-2.2c27.6-27.6,55.2-55.2,82.8-82.9
		c0.4-0.4,0.7-0.8,0.8-0.9C-829.3-768.8-831.5-771.3-834.2-774.1z M-898.8-795.5c-0.8-1.4-1.4-2.9-2.4-3.9
		c-6.5-6.6-13-13.1-19.6-19.6c-2.6-2.6-5.5-2.7-8.1-0.1c-10,9.9-19.9,19.9-29.8,29.8c-2.5,2.5-2.5,5.4-0.1,7.8
		c6.6,6.7,13.3,13.4,20,20c2.4,2.3,5.2,2.4,7.6,0.1c10.2-10.1,20.3-20.2,30.3-30.4C-900-792.6-899.5-794-898.8-795.5z M-849.8-735.9
		c-5.3,5.3-10.6,10.6-16,16c0.9,1.5,1.7,3.2,2.7,4.7c0.5,0.7,1.4,1.3,2.2,1.5c3.7,0.8,7.4,1.5,11.2,2.1c1.4,0.2,2.3,0.9,2.9,2.1
		c1.9,3.4,3.8,6.7,5.8,10c0.4,0.6,1.2,1.2,1.9,1.3c3.8,0.8,7.6,1.4,11.4,2.3c1.1,0.3,2.3,1.1,2.9,2c2.1,3.2,3.9,6.7,5.9,10
		c0.3,0.6,1,1.2,1.5,1.3c3.5,0.7,7,1.4,10.5,2c0.4,0.1,1,0,1.3-0.2c1.8-1.8,3.5-3.8,5.2-5.6C-816.8-702.9-833.3-719.4-849.8-735.9z
		 M-838.3-796.3c2.1,2.1,4.1,4.2,6.2,6.2c1.1,1.1,1.5,2.3,1.4,3.9c-0.2,1.8-0.3,3.8,0.1,5.6c1.6,8.2,8.4,12.9,17.1,11.8
		c1.7-0.2,2.9,0.2,4.1,1.3c4.1,4,8.8,7.3,14,9.9c2.9,1.4,5.9,2.6,9.3,4c-0.4-1.1-0.5-1.6-0.7-2.2c-2.9-7.9-7.1-15-12.9-21.1
		c-1.2-1.3-1.6-2.6-1.4-4.4c1.4-10.1-6.1-18.1-16.2-17.1c-2.8,0.3-4.6-0.4-6.3-2.4c-1.6-1.8-3.3-3.4-4.9-5.1
		C-832-802.6-835-799.5-838.3-796.3z M-828.8-813.4c-2.5-2.6-5.2-5.2-7.6-7.6c-5.7,5.7-11.5,11.5-17.1,17.1c2.5,2.4,5.1,5.1,7.6,7.6
		C-840.2-802-834.3-807.7-828.8-813.4z"/>
	<path d="M-934.5-768.4c-0.3,0-0.7,0-1.1-0.1c-3.5-0.6-8.9-5.9-9.5-9.4c-0.5-2.8,0.4-5.1,2.3-7.1c6.1-6.1,12.2-12.2,18.3-18.3
		c3.4-3.4,7.8-3.3,11.3,0c1,0.9,1.9,1.8,2.8,2.8c3.3,3.5,3.3,7.8,0,11.3c-2.3,2.3-4.6,4.6-6.9,6.9c-3.7,3.7-7.4,7.4-11.1,11.1
		C-930-769.5-932-768.4-934.5-768.4z M-912.7-794.6c-0.2-0.7-0.3-1.3-0.6-1.7c-1.3-1.4-2.6-2.9-4.1-4.1c-1.2-1-2.6-0.6-3.6,0.4
		c-6.2,6.2-12.4,12.3-18.5,18.6c-1.3,1.3-1.2,2.8,0,4.2c0.8,0.9,1.8,1.8,2.7,2.7c1.7,1.7,3.1,1.7,4.9,0c6-6,12-11.9,17.9-17.9
		C-913.5-793-913-793.9-912.7-794.6z"/>
</g>
<g>
	<path d="M1067.8,28.1c-9.3,0-18.5,0-27.7,0c0-14.6,0-29.1,0-43.7c0.5,0,1-0.1,1.4-0.1c24.7,0,49.5,0,74.2,0
		c11.3,0,20.2,7.6,22.2,18.7c2.2,12.2-7.6,24.5-20,25.1c-2,0.1-4,0-6.1,0c0,0.8-0.1,1.4-0.1,2c0,14.9,0,29.7,0,44.6
		c0,0.9,0.4,1.9,0.9,2.7c1.8,2.6,3.7,5.1,5.5,7.7c0.5,0.7,0.8,1.6,0.8,2.4c0.1,6-0.1,12,0.1,18.1c0.1,6.6-4.8,10.2-10.1,10.1
		c-16-0.1-31.9,0-47.9,0c-6.3,0-10.1-3.7-10.1-10.1c0-5.2,0-10.4,0-15.6c0-1,0.3-1.6,1.1-2.1c6.6-4.3,13.1-8.6,19.7-12.8
		c0.7-0.4,1.6-0.7,2.4-0.7c2.2-0.1,4.5,0,6.9,0c0-0.7,0.1-1.2,0.1-1.8c0-8.6,0-17.2,0-25.9c0-3.9-1.3-5.2-5.3-5.2c-2.5,0-5,0-7.5,0
		c-0.1,0-0.2-0.1-0.5-0.1C1067.8,36.9,1067.8,32.6,1067.8,28.1z M1106.2,22.8c2.4,0,4.5,0,6.7,0c2.9,0,5.8,0,8.7-1
		c9.1-2.9,13.8-14.3,9.4-22.7c-3.3-6.3-8.5-9.4-15.5-9.4c-22.9,0-45.7,0-68.6,0c-0.5,0-1.1,0-1.6,0.1c0,1.4,0,2.6,0,3.9
		c3.7,0,7.4,0,11,0c0,1.8,0,3.5,0,5.3c-3.8,0-7.4,0-11.1,0c0,1.6,0,3,0,4.6c3.7,0,7.4,0,11.1,0c0,1.9,0,3.5,0,5.3c-3.7,0-7.4,0-11,0
		c0,1.6,0,3,0,4.7c3.8,0,7.4,0,11.1,0c0,1.8,0,3.5,0,5.3c-3.7,0-7.4,0-11.1,0c0,1.4,0,2.6,0,4c13.7,0,27.3,0,40.9,0
		c0,1.8,0,3.5,0,5.3c-2.2,0-4.3,0-6.4,0c0,2.9,0,5.6,0,8.3c4.9,1.9,6.6,5.6,6.6,10.6c-0.1,10.2,0,20.4,0,30.7c0,0.6,0,1.2,0,1.9
		c-1.9,0-3.5,0-5.5,0c1.8,1.9,3.3,3.5,4.8,5.2c0.7,0.8,1.5,1.1,2.6,1.1c7.3,0,14.7,0,22,0c0.5,0,1-0.1,1.8-0.1
		c-1.7-2.4-3.2-4.5-4.8-6.6c-0.7-0.9-0.9-1.8-0.9-2.9c0-17.2,0-34.5,0-51.7C1106.2,24,1106.2,23.5,1106.2,22.8z M1073.8,79.8
		c-5.8,3.8-11.4,7.5-17.1,11.3c-0.4,0.3-0.6,1.1-0.6,1.7c-0.1,4.2,0,8.4,0,12.6c0,3.6,1.4,5,5,5c15.8,0,31.6,0,47.3,0
		c3.5,0,5-1.5,5.1-5c0-2.5,0-5,0-7.4c0-2.1,0-4.3,0-6.6c-0.8,0-1.5,0-2.1,0c-8.6,0-17.1,0-25.7,0c-1.1,0-1.8-0.3-2.6-1.1
		C1080.2,86.7,1077.1,83.3,1073.8,79.8z M1073.1,28.2c0,2.7,0,5.2,0,7.8c0.4,0,0.8,0,1.1,0c0-2.7,0-5.2,0-7.8
		C1073.8,28.2,1073.4,28.2,1073.1,28.2z"/>
	<path d="M1037.2-10.3c0,11.2,0,22.1,0,33.1c-1.6,0-3,0-4.5,0c-4.9-0.1-9.7,0.2-14.6-0.3c-7.3-0.7-12.1-5.5-13.7-12.6
		c-0.1-0.3-0.1-0.5-0.2-0.9c-9.3,0-18.5,0-27.8,0c0-1.8,0-3.4,0-5.2c9.2,0,18.4,0,27.4,0c1.1-2.4,1.8-4.8,3-6.8
		c2.4-3.9,6-6.3,10.5-6.8c3.4-0.4,6.9-0.3,10.4-0.4C1030.8-10.4,1033.8-10.3,1037.2-10.3z M1024.1,17.4c2.7,0,5.2,0,7.8,0
		c0-7.5,0-14.9,0-22.3c-2.7,0-5.2,0-7.8,0C1024.1,2.6,1024.1,10,1024.1,17.4z M1018.6,17.4c0-7.4,0-14.7,0-22.1
		c-4.5,0-8.7,4.4-9.2,9.5C1008.8,11.5,1012.3,16.3,1018.6,17.4z"/>
	<path d="M1119.3-2.5c-4.4,0-8.7,0-13.1,0c0-1.7,0-3.3,0-5.1c4.3,0,8.6,0,13.1,0C1119.3-5.9,1119.3-4.2,1119.3-2.5z"/>
	<path d="M1119.3,0.4c0,1.7,0,3.4,0,5.1c-4.4,0-8.6,0-13,0c0-1.6,0-3.3,0-5.1C1110.6,0.4,1114.8,0.4,1119.3,0.4z"/>
</g>
<g>
	<path d="M50.1,0c27.5,0.1,50,22.5,49.9,50c0,27.6-22.6,50.1-50.1,50C22.3,99.9-0.1,77.4,0,49.9C0.1,22.3,22.6-0.1,50.1,0z M16,81.3
		c2.2-2.1,4.3-4.3,6.4-6.4c0.6-0.5,0.7-1,0.7-1.7c0-2.8,0-5.7,0-8.5c0-1,0.3-1.7,1.3-2.2c1.2-0.6,2.4-1.3,3.6-1.9
		c0.6-0.3,0.7-0.6,0.7-1.3c-0.1-3-0.1-6,0.1-9c0.1-1.8,0.6-3.6,0.9-5.5c-1.7-0.3-1.7-0.3-2.1,1.2c-0.8,2.6-1.7,5.1-2.6,7.6
		c-0.1,0.5-0.3,1-0.8,1.3c-3,2.4-6,4.9-9.1,7.2c-0.8,0.6-1.7,0.4-2.4-0.3c-0.8-0.9-0.6-1.8,0.5-2.7c2.5-2,5-4,7.5-6
		c0.5-0.4,0.9-1,1.1-1.6c1-2.8,1.9-5.8,2.9-8.7c0.5-1.5,0.8-1.8,2.4-1.8c1,0,2-0.1,3,0c0.7,0.1,1-0.2,1.3-0.8
		c1.2-2.5,2.8-4.6,4.9-6.4c0.5-0.4,0.5-0.7,0.3-1.2c-0.8-1.9-1.5-3.7-2.3-5.5c-0.2-0.5-0.6-1-1.1-1.3c-1.2-0.9-2.6-1.7-3.9-2.6
		c-1.1-0.8-1.3-1.7-0.7-2.6s1.6-1,2.6-0.3c1.5,1,3,2,4.4,3c0.8,0.5,1.3,1.1,1.7,2c0.8,2.1,1.7,4.1,2.6,6.5c0.6-0.7,1.1-1.2,1.5-1.7
		c0.3-0.3,0.3-0.9,0.7-1.1c1.7-1.3,1.5-2.9,0.9-4.6c-0.1-0.2-0.1-0.4-0.1-0.6c0-0.7-0.5-1.1-1-1.5c-1.3-0.8-2.6-1.7-3.8-2.5
		c-0.7-0.5-1.1-1.1-0.9-2c0.3-1.3,1.6-1.8,2.8-1c1.6,1,3.1,2.1,4.6,3.1c0.8,0.6,1.3,1.2,1.5,2.2c0.2,1.2,0.6,2.4,0.8,3.4
		c1.9,0,3.5,0,5.3,0c0.3-1.2,0.5-2.4,0.9-3.7c0.1-0.6,0.4-1.2,0.9-1.5c1.7-1.2,3.5-2.4,5.3-3.6c0.9-0.6,1.9-0.3,2.4,0.6
		c0.5,0.8,0.3,1.7-0.5,2.4c-0.6,0.4-1.1,0.9-1.7,1.2c-2.4,1.1-3.7,3-3.9,5.7c-0.1,0.6,0,0.9,0.3,1.4c0.7,0.8,1.3,1.5,1.7,2.4
		c0.4,0.8,0.8,1.2,1.7,1.2c0.8-2.1,1.7-4.2,2.6-6.3c0.2-0.6,0.6-1.1,1.1-1.5c1.6-1.2,3.3-2.2,4.9-3.3c1-0.7,2-0.6,2.6,0.3
		c0.6,0.9,0.4,1.9-0.7,2.6c-1.3,0.9-2.6,1.7-4,2.7c-0.3,0.2-0.7,0.6-0.8,1c-0.8,2-1.6,4-2.4,6c-0.2,0.6-0.1,0.9,0.3,1
		c6-6,11.9-11.9,17.9-17.9c-15.7-15.1-44.2-17.8-63.6,1C-1.3,35.3-0.2,64.3,16,81.3z M18.6,84c16.5,16,45.6,17.8,64.4-1.4
		c19.3-19.6,16.2-48.5,1-64c-6,6-12,12-18,17.9c0.7,1.2,1.5,2.6,2.2,3.9c0.2,0.3,0.6,0.6,1,0.6c1,0.1,2.1,0,3.3,0
		c1.5,0,1.9,0.3,2.4,1.7c0.8,2.4,1.7,4.9,2.4,7.3c0.5,1.7,1.4,3,2.8,4c2.2,1.6,4.3,3.3,6.4,5.1c1,0.8,1,2.1,0.1,2.8
		c-0.7,0.6-1.5,0.6-2.4-0.1c-2.9-2.3-5.8-4.6-8.6-6.9c-0.4-0.3-0.8-0.9-0.9-1.5c-0.9-2.5-1.7-5.1-2.6-7.6c-0.5-1.5-0.6-1.5-2.2-1.2
		c0,0.1,0,0.3,0.1,0.4c1.2,4.6,1.5,9.4,1,14.1c-0.1,0.6,0.1,0.9,0.6,1.1c1.2,0.6,2.4,1.3,3.6,1.9c1,0.5,1.4,1.2,1.4,2.4
		c-0.1,1.9,0.1,3.9-0.1,5.8c-0.3,2.6,0.4,4.7,2.6,6.2c0.1,0.1,0.2,0.2,0.3,0.3c0.8,0.9,0.9,1.9,0.1,2.7c-0.8,0.8-1.8,0.7-2.6-0.1
		c-1-1-1.9-2-2.9-2.9c-0.8-0.7-1-1.5-1-2.6c0.1-2.7,0-5.3,0-8c0-0.3-0.1-0.8-0.3-1c-0.8-0.5-1.6-0.9-2.4-1.4
		c-0.1,0.6-0.3,0.9-0.4,1.3c-2,6.3-5.7,11.3-11.6,14.5c-4,2.1-8,3.2-12.6,1.8c-4.4-1.3-8-3.7-11-7.2c-1-1.2-1.9-2.5-2.8-3.7
		C27.6,75,23.1,79.5,18.6,84z M63.5,38.9c-3.9,3.9-7.7,7.6-11.4,11.4c-0.3,0.3-0.3,0.9-0.3,1.3c0,8.5,0,16.9,0,25.5
		c0,0.3,0,0.7,0,1.2c0.6-0.1,1-0.2,1.5-0.3c3.7-1.1,6.8-3.2,9.2-6.1c3.2-3.7,4.7-8.2,5.2-13c0.5-5.5,0.1-11-2.1-16.2
		C64.8,41.3,64.1,40.2,63.5,38.9z M48.1,35.7c-1.7-0.5-3.2-0.8-4.6-1.4c-0.7-0.3-1.2-0.2-1.9,0.1c-3.2,1.7-5.4,4.3-6.9,7.5
		c-2.6,5.6-3.2,11.5-2.4,17.5c0.2,1.5,0.6,2.9,0.8,4.5c0.3-0.2,0.5-0.3,0.6-0.4c4.6-4.6,9.2-9.2,13.9-13.9c0.3-0.3,0.4-0.8,0.5-1.2
		c0.1-1.7,0-3.4,0-5.1C48.1,40.8,48.1,38.2,48.1,35.7z M48.1,54.3c-4.4,4.4-8.7,8.7-12.9,12.9c-0.4,0.4-0.3,0.8-0.1,1.2
		c2.4,4.2,5.6,7.4,10.1,9.1c0.9,0.3,1.8,0.6,2.8,0.9C48.1,70.3,48.1,62.4,48.1,54.3z M51.7,45.1c2.9-2.9,5.9-5.9,9-9
		c-0.9-0.6-1.9-1.2-2.9-1.7c-0.3-0.1-0.6-0.2-1-0.1c-1.7,0.5-3.4,1-5.1,1.6C51.7,38.8,51.7,42,51.7,45.1z M45,31.1
		c3.3,1.2,6.4,1.2,9.8,0c-1.2-1.9-3-2.7-5.1-2.6C47.8,28.6,46.1,29.3,45,31.1z M26.6,70.2c0.1,0.1,0.2,0.1,0.3,0.2
		c1-1.1,2.1-2.2,3.1-3.3c0.1-0.1,0.3-0.5,0.2-0.7c-0.3-0.9-0.6-1.8-0.9-2.7c-0.8,0.4-1.6,0.8-2.2,1.2c-0.3,0.1-0.5,0.6-0.5,0.8
		C26.6,67.3,26.6,68.8,26.6,70.2z"/>
</g>
</svg>
