<svg xmlns="http://www.w3.org/2000/svg" xmlns:xlink="http://www.w3.org/1999/xlink" width="132.333" height="106.045" viewBox="0 0 132.333 106.045"><defs><clipPath id="qoute-clip-path"><rect data-name="Rectangle 38699" width="132.333" height="106.045" fill="none"></rect></clipPath></defs><g data-name="Group 124302" opacity="0.05"><g data-name="Group 124301" clip-path="url(#qoute-clip-path)"><path data-name="Path 58000" d="M49.685,0a5.48,5.48,0,0,1,5.48,5.48V29.516q0,23.005-5.5,37.964A55.216,55.216,0,0,1,30.636,92.722a76.082,76.082,0,0,1-27.66,13.249A2.4,2.4,0,0,1,0,103.643v-19.4a2.413,2.413,0,0,1,1.189-2.07q9.236-5.5,11.861-14.053A2.771,2.771,0,0,0,10.4,64.529H5.219A5.219,5.219,0,0,1,0,59.309V5.48A5.48,5.48,0,0,1,5.48,0Z" fill="currentcolor"></path><path data-name="Path 58001" d="M375.528,0a5.48,5.48,0,0,1,5.48,5.48V29.516q0,23.005-5.5,37.964a55.216,55.216,0,0,1-19.033,25.241,76.083,76.083,0,0,1-27.659,13.249,2.4,2.4,0,0,1-2.976-2.328v-19.4a2.413,2.413,0,0,1,1.189-2.07q9.236-5.5,11.861-14.053a2.771,2.771,0,0,0-2.645-3.588h-5.185a5.219,5.219,0,0,1-5.219-5.219V5.48A5.48,5.48,0,0,1,331.323,0Z" transform="translate(-248.675)" fill="currentcolor"></path></g></g></svg>