<svg xmlns="http://www.w3.org/2000/svg" xmlns:xlink="http://www.w3.org/1999/xlink" width="28" height="28" viewBox="0 0 28 28"><defs><clipPath id="si1-clip-path"><rect data-name="Rectangle 40064" width="28" height="28" transform="translate(0 0.333)" fill="none"></rect></clipPath></defs><g data-name="Group 127872" transform="translate(0 -0.333)"><path data-name="Path 177552" d="M4.5,26.936h0Z" transform="translate(-1.603 -9.591)" fill="currentcolor"></path><g data-name="Group 127871"><g data-name="Group 127870" clip-path="url(#si1-clip-path)"><path data-name="Path 177553" d="M20.971,14.692a.3.3,0,0,1,.006-.426l3.24-3.054.019-.021a.323.323,0,0,1,.034-.03l2.694-2.694a4.72,4.72,0,0,0-.18-6.817A5.5,5.5,0,0,0,22.943.01a4.428,4.428,0,0,0-3.164,1.271L17.066,4l-3.286,3.1a.3.3,0,0,1-.413-.006L6.459.178a.607.607,0,0,0-.858,0L.178,5.6a.607.607,0,0,0,0,.858l6.707,6.709a.3.3,0,0,1-.006.426L2.918,17.326l-.018.019a.6.6,0,0,0-.121.174c-.008.015-.013.03-.019.047a.491.491,0,0,1-.026.057L.021,27.567a.612.612,0,0,0,.182.612.608.608,0,0,0,.629.111L9.87,24.674a.6.6,0,0,0,.173-.113.37.37,0,0,1,.041-.03l4.023-3.791a.3.3,0,0,1,.2-.08.283.283,0,0,1,.04,0,.239.239,0,0,1,.041.015l7.478,7.479a.607.607,0,0,0,.858,0l5.423-5.424a.606.606,0,0,0,0-.858Zm.5-13.131a3.277,3.277,0,0,1,1.459-.329,4.343,4.343,0,0,1,2.995,1.277,3.566,3.566,0,0,1,.77,4.3.3.3,0,0,1-.218.151.311.311,0,0,1-.042,0,.3.3,0,0,1-.21-.087L21.394,2.037a.3.3,0,0,1,.079-.477M18.565,4.213,20,2.779a.3.3,0,0,1,.419,0l5.049,5.049a.3.3,0,0,1,0,.42L24.034,9.682a.3.3,0,0,1-.42,0L18.565,4.632a.3.3,0,0,1,0-.42M1.675,6.24a.3.3,0,0,1,0-.419L5.82,1.676a.3.3,0,0,1,.42,0L7.673,3.109a.3.3,0,0,1,0,.42L6.5,4.7a.608.608,0,0,0,0,.858.606.606,0,0,0,.858,0L8.532,4.387a.3.3,0,0,1,.42,0l.981.982a.3.3,0,0,1,0,.419L8.764,6.958a.607.607,0,0,0,.858.858l1.169-1.169a.3.3,0,0,1,.42,0L12.47,7.906a.3.3,0,0,1-.006.426L8.195,12.354a.3.3,0,0,1-.413-.006ZM4.412,17.586,17.275,5.466a.3.3,0,0,1,.2-.081.3.3,0,0,1,.21.087l1.9,1.9a.3.3,0,0,1-.007.426L6.69,19.89a.3.3,0,0,1-.413-.007L4.406,18.012a.3.3,0,0,1,.006-.426m3.735,6.47L6.04,24.9a.289.289,0,0,1-.11.021.278.278,0,0,1-.055-.015L2.957,21.986A.3.3,0,0,1,2.88,21.7l.614-2.253a.3.3,0,0,1,.21-.209.307.307,0,0,1,.076-.01.3.3,0,0,1,.21.087L8.247,23.57a.3.3,0,0,1-.1.486m1.72-.989a.3.3,0,0,1-.413-.006l-1.9-1.9a.3.3,0,0,1,.006-.426L20.452,8.643a.3.3,0,0,1,.413.006l1.871,1.871a.3.3,0,0,1-.006.426Zm16.786-.554-4.145,4.146a.3.3,0,0,1-.419,0L15.3,19.869a.3.3,0,0,1-.025-.08.3.3,0,0,1,.093-.238l4.291-4.044a.3.3,0,0,1,.413.006l1.608,1.608a.3.3,0,0,1,0,.42l-1.169,1.169a.607.607,0,0,0,.859.859L22.54,18.4a.3.3,0,0,1,.42,0l.981.982a.3.3,0,0,1,0,.42l-1.169,1.169a.607.607,0,0,0,.43,1.036.6.6,0,0,0,.429-.178L24.8,20.659a.3.3,0,0,1,.42,0l1.433,1.433a.3.3,0,0,1,0,.42" transform="translate(0 0)" fill="currentcolor"></path></g></g></g></svg>