<svg xmlns="http://www.w3.org/2000/svg" xmlns:xlink="http://www.w3.org/1999/xlink" x="0px" y="0px" viewBox="0 0 100 100" style="enable-background:new 0 0 100 100;" xml:space="preserve"><g>	<path d="M45.2,51.1c-1.1,0-1.1-1.7,0-1.7h9.6c1.1,0,1.1,1.7,0,1.7H45.2z M45.2,46.8c-1.1,0-1.1-1.7,0-1.7h9.6c1.1,0,1.1,1.7,0,1.7  H45.2z M45.2,42.5c-1.1,0-1.1-1.7,0-1.7h9.6c1.1,0,1.1,1.7,0,1.7H45.2z M50,34.4c6.6,0,12,5.4,12,12c0,7.1-6.2,12.7-13.3,11.9  l-2.7,3.6c-0.5,0.6-1.5,0.3-1.5-0.6l0-4.3c-7.2-3.7-8.7-13.4-3-19.1C43.7,35.7,46.7,34.4,50,34.4L50,34.4z M57.3,39.1  c-4-4-10.6-4-14.6,0c-5.1,5.1-3.5,13.6,3,16.7c0.3,0.1,0.5,0.4,0.5,0.8l0,2.4l1.5-1.9c0.4-0.6,0.9-0.3,1.6-0.3  c6,0.5,11.1-4.3,11.1-10.3C60.3,43.5,59.2,40.9,57.3,39.1L57.3,39.1z M36.9,66.9h4.2c0.7-2.6,3.9-3.6,5.8-1.6  c0.5,0.4,0.8,1,0.9,1.6h4.2c0.7-2.6,3.9-3.6,5.8-1.6c0.4,0.4,0.8,1,0.9,1.6h4.2c0.7-2.6,3.9-3.6,5.8-1.6c2.2,2.2,0.6,5.9-2.5,5.9  c-1.6,0-3-1.1-3.4-2.7h-4.2c-0.7,2.6-3.9,3.6-5.8,1.6c-0.4-0.4-0.8-1-0.9-1.6h-4.2c-0.7,2.6-3.9,3.6-5.8,1.6  c-0.4-0.4-0.8-1-0.9-1.6h-4.2c-0.7,2.6-3.9,3.6-5.8,1.6c-2.2-2.2-0.6-5.9,2.5-5.9C35.2,64.3,36.6,65.4,36.9,66.9z M34.8,66.5  c-1.1-1.1-3.1-0.3-3.1,1.3c0,1.6,2,2.4,3.1,1.3C35.5,68.3,35.5,67.2,34.8,66.5z M67.7,66.5c-1.1-1.1-3.1-0.3-3.1,1.3  c0,1.6,2,2.4,3.1,1.3C68.5,68.3,68.5,67.2,67.7,66.5z M56.8,66.5c-1.1-1.1-3.1-0.3-3.1,1.3c0,1.6,2,2.4,3.1,1.3  C57.5,68.3,57.5,67.2,56.8,66.5z M45.8,66.5c-1.1-1.1-3.1-0.3-3.1,1.3c0,1.6,2,2.4,3.1,1.3C46.5,68.3,46.5,67.2,45.8,66.5z   M50,14.6c2.3,0,3.4,2.8,1.8,4.4s-4.4,0.5-4.4-1.8C47.4,15.7,48.6,14.6,50,14.6z M50.6,16.5c-0.6-0.6-1.6-0.2-1.6,0.6  c0,0.8,1,1.2,1.6,0.7C51,17.4,51,16.9,50.6,16.5z M39,16.2h5.4c0.9-4.4,6.3-6.2,9.6-3.1c0.9,0.8,1.5,1.9,1.7,3.1H61  c1,0,1.7,0.8,1.7,1.7v1.2H75c3,0,5.4,2.5,5.4,5.5v58.2c0,3-2.4,5.5-5.4,5.5l-50,0c-3,0-5.4-2.5-5.4-5.5V24.7c0-3,2.4-5.5,5.4-5.5  h12.2V18c0-0.5,0.2-0.9,0.5-1.2C38.1,16.4,38.5,16.2,39,16.2L39,16.2z M62.8,20.8v2.4H74c0.5,0,0.8,0.4,0.8,0.8v56.4  c0,0.5-0.4,0.8-0.8,0.8H26.1c-0.5,0-0.8-0.4-0.8-0.8l0-56.4c0-0.5,0.4-0.8,0.8-0.8h11.2l0-2.4H25c-2.1,0-3.8,1.8-3.8,3.9v58.2  c0,2.1,1.7,3.9,3.7,3.9h50c2.1,0,3.7-1.8,3.7-3.9V24.7c0-2.1-1.7-3.9-3.7-3.9L62.8,20.8L62.8,20.8z M62.8,24.9v1.6  c0,1-0.8,1.8-1.7,1.8H39c-0.5,0-0.9-0.2-1.2-0.5c-0.3-0.3-0.5-0.8-0.5-1.2v-1.6H26.9v54.7h46.3l0-54.7L62.8,24.9z M45.1,17.9H39  c0,0,0,0-0.1,0c-0.1,0.1,0,8.1,0,8.6c0,0,0,0,0,0.1l0.1,0h22l0.1-0.1v-8.5l-0.1,0h-6.1c-0.4,0-0.8-0.4-0.8-0.8  c-0.2-3.4-4.4-5.1-6.9-2.7c-0.7,0.7-1.2,1.6-1.3,2.7C45.9,17.6,45.6,17.9,45.1,17.9L45.1,17.9z"></path></g></svg>