<svg xmlns="http://www.w3.org/2000/svg" xmlns:xlink="http://www.w3.org/1999/xlink" width="115" height="100" viewBox="0 0 115 100"><defs><clipPath id="clip-path"><rect id="crop" width="115" height="100" fill="none"></rect></clipPath></defs><g id="Vector_Smart_Object" data-name="Vector Smart Object" clip-path="url(#clip-path)"><path id="Path_1114" data-name="Path 1114" d="M102.5-106H-20L-81.256,31.846-20,169.689H102.5L163.749,31.846Z" transform="translate(15.194 19.82)" fill="#030504"></path><g id="Group_511" data-name="Group 511" transform="translate(-6.57 -38.713)"><path id="Path_1115" data-name="Path 1115" d="M-4.423,117.117l11.111,10,25.269-7.08,13.511,13.937L30.5,148.141l10.681,9.075,54.6-54.348L87.72,92.209Zm59.031,8.222L45.755,116.1,72.4,108.537Z" transform="translate(7.397 21.471)" fill="#fff"></path><path id="Path_1116" data-name="Path 1116" d="M-1.444,78.361c1.863,3.94,7.119,6.253,12.258.695,0,0,17.553-18.238,26.632-57.092,0,0,7.136-27.657-4.576-69.582L-8.081,41.821s3.091,22.51,3.628,25.187C-4.454,67.008-3.582,73.829-1.444,78.361ZM28.295-14.314C35.9,19.579,14.459,54.394,14.459,54.394,4.541,71.759,2.494,55.9,2.494,55.9,2.27,54.488.991,43.709.991,43.709Z" transform="translate(8.081 47.617)" fill="#fff"></path><path id="Path_1117" data-name="Path 1117" d="M138.437,52.989,105.184-26.726,99.443-16.538l9.077,21.982s-4.717-.767-8.712,5.472c0,0-8.792,14.593,1.636,42.635,0,0,8.579,26.068,20.734,26.292,0,0,6.492.545,9.09-11.365a25.745,25.745,0,0,0,.608-6.9l1.969,2.83Zm-16.356,10.3c-3.539,2.412-8.16-3.713-13.516-18.285-4.277-11.638-3.844-22.873.19-25.342,4.731-2.9,9.591,4.758,13.538,17.5C125.979,49.064,125.643,60.871,122.081,63.291Z" transform="translate(-11.445 43.711)" fill="#fff"></path><path id="Path_1118" data-name="Path 1118" d="M41.143,56.521S39.959,75.5,46.08,78.164c0,0,8.4,6.6,22.984-20.738L72.187,64.5,84.9,56.766s-6.683-16.347-7.48-17.453c0,0,11.144-28.2,12.7-42.357l-12.2,8.2s-3.433,16.748-5.881,21.512c0,0-4.538-9.01-5.228-12.927,0,0,13.941-22.85,12.625-38.425,0,0,.316-10.608-7.613-8.268,0,0-7.771,1.435-15.974,18.13,0,0-9.226,16.97-2.472,33.092C53.38,18.272,42.467,39.189,41.143,56.521Zm21.4-68.375c3.552-8.077,6.684-6.9,6.684-6.9,2.131,1.062.471,6.583.471,6.583-.835,5.125-7.1,16.387-7.1,16.387C59.108-3.508,62.544-11.854,62.544-11.854ZM57.521,29.594l6.462,16.042c-7.277,18.492-12.54,10.938-12.54,10.938C47.538,48.2,57.521,29.594,57.521,29.594Z" transform="translate(-1.106 44.938)" fill="#fff"></path></g></g></svg>