<svg xmlns="http://www.w3.org/2000/svg" width="111" height="111.91" viewBox="0 0 111 111.91"><g id="Vector_Smart_Object" data-name="Vector Smart Object" transform="translate(-17.08 -17.466)"><g id="Layer_2" data-name="Layer 2" transform="translate(17.08 17.466)"><g id="Layer_1-2" data-name="Layer 1-2"><path id="Path_1119" data-name="Path 1119" d="M47.364,68.806h-1.2v9.647h1.2c1.043,0,1.487-.761,1.487-2.149V70.887C48.851,69.477,48.385,68.739,47.364,68.806Z" transform="translate(-19.702 -22.095)" fill="#0080ff"></path><path id="Path_1120" data-name="Path 1120" d="M74.127,83.482h2.664L75.5,72.2Z" transform="translate(-22.224 -22.401)" fill="#0080ff"></path><path id="Path_1121" data-name="Path 1121" d="M17.08,17.466v111.91h111V17.466ZM109.565,60.82h9.169v3.357H113.45V72.3h4.529V75.57H113.45V85.731h5.284v3.357h-9.169V60.82Zm-10.523,0-.289.2,2.6,22.181,2.486-22.382h3.818l-3.818,28.268H98.754L94.935,60.82Zm-10.1,0H92.76V88.976H88.941ZM36.882,72.391H33.064V66.348c0-1.5-.466-2.149-1.4-2.149s-1.376.649-1.376,2.149V83.6c0,1.477.466,2.149,1.376,2.149s1.4-.649,1.4-2.149V76.868h3.818v6.446c0,4.1-1.665,5.976-5.284,5.976s-5.261-1.925-5.261-5.976v-16.7c0-4.1,1.665-5.954,5.261-5.954s5.284,1.925,5.284,5.954Zm13.5,47.763H46.562v-.09a18.048,18.048,0,0,1-.355-4.767v-4.835c0-1.925-.466-2.529-1.665-2.529H43.5v12.131H39.569V91.886h5.173c3.707,0,5.372,1.768,5.372,5.685v4.1a4.61,4.61,0,0,1-2.42,4.767A4.426,4.426,0,0,1,50.2,111.09v4.1a26.141,26.141,0,0,0,.266,4.566Zm0-30.977H46.562a18.048,18.048,0,0,1-.355-4.767V79.486c0-1.925-.466-2.529-1.665-2.529H43.5V89.088H39.569V60.932h5.173c3.707,0,5.372,1.768,5.372,5.685v4.1a4.61,4.61,0,0,1-2.42,4.767A4.426,4.426,0,0,1,50.2,80.136v4.1a26.21,26.21,0,0,0,.2,4.566Zm11.855,6.066H56.951v8.013H61.48v3.268H56.951v10.184h5.284v3.357H52.977V91.886h9.257Zm0-30.954H56.951v8.125H61.48v3.268H56.951V85.843h5.284V89.2H52.977V60.82h9.257Zm10.634,55.888H67.585L63.9,91.886h3.818L70.2,114.067l2.664-22.181h3.818Zm0-31.044-.844-7.006H68.517L67.7,89.133H63.989l3.818-28.157h5.261l3.818,28.157Zm10.523,31.044H79.573V91.886h3.818Zm3.064-55.888H83.391v24.8H79.573V64.177H76.465V60.82h10.1Zm9.568,30.954H90.717v8.013h4.507v3.268H90.7v10.184h5.372v3.357H86.81V91.886h9.257Zm19.58,24.8H110.52v-.2L108.611,103.7,106.7,120.043h-4.884L98.665,91.886h3.974l1.909,21.442L107.1,91.886h3.508l2.42,21.442,2.131-21.442h3.707Z" transform="translate(-17.08 -17.466)" fill="#0080ff"></path><path id="Path_1122" data-name="Path 1122" d="M47.364,102.95h-1.2V112.6h1.2c1.043,0,1.487-.739,1.487-2.149v-5.394C48.851,103.51,48.385,102.861,47.364,102.95Z" transform="translate(-19.702 -25.173)" fill="#0080ff"></path></g></g></g></svg>