<svg xmlns="http://www.w3.org/2000/svg" xmlns:xlink="http://www.w3.org/1999/xlink" x="0px" y="0px"
	 viewBox="0 0 173.5 51.7" style="enable-background:new 0 0 173.5 51.7;" xml:space="preserve">
<style type="text/css">
	.logo-image0{fill:#FFFFFF;}
	.logo-image1{fill:#FCFCFC;}
	.logo-image2{fill:#FDFEFF;}
	.logo-image3{fill:#0096C7;}
</style>
<g transform="translate(16466.814 378.787)">
	<path class="logo-image0" d="M-16410-353.9v26.4h-4.3v-11.7h-12.4v11.7h-4.3v-26.4h4.3v10.7h12.4v-10.7H-16410z"/>
	<path class="logo-image1" d="M-16396.5-327.1c-1.7,0-3.3-0.4-4.8-1.3c-1.4-0.8-2.6-2-3.4-3.4c-0.8-1.5-1.3-3.1-1.3-4.8
		c0-1.7,0.4-3.3,1.3-4.8c0.8-1.4,2-2.6,3.4-3.4c1.5-0.8,3.1-1.3,4.8-1.3c1.7,0,3.4,0.4,4.8,1.2c1.4,0.8,2.6,2,3.4,3.4
		c0.8,1.4,1.3,3.1,1.3,4.8c0,1.7-0.4,3.3-1.3,4.8c-0.8,1.4-2,2.6-3.4,3.4C-16393.2-327.5-16394.9-327.1-16396.5-327.1
		 M-16396.5-331.1c1,0,1.9-0.2,2.7-0.7c0.8-0.5,1.4-1.1,1.8-1.9c0.5-0.9,0.7-1.8,0.7-2.8c0-1-0.2-1.9-0.7-2.8
		c-0.4-0.8-1.1-1.4-1.8-1.9c-1.7-0.9-3.7-0.9-5.4,0c-0.8,0.5-1.4,1.1-1.8,1.9c-0.5,0.9-0.7,1.8-0.7,2.8c0,1,0.2,2,0.7,2.8
		c0.4,0.8,1.1,1.5,1.8,1.9C-16398.4-331.3-16397.5-331.1-16396.5-331.1"/>
	<path class="logo-image0" d="M-16376.2-327.1c-1.4,0-2.8-0.3-4.1-1c-1.2-0.7-2.1-1.6-2.8-2.8c-0.7-1.3-1-2.7-1-4.1v-10.5h4.1v10.3
		c0,0.8,0.1,1.5,0.4,2.2c0.3,0.6,0.7,1.1,1.3,1.4c0.6,0.3,1.3,0.5,2,0.5c1,0.1,2.1-0.3,2.8-1.1c0.7-0.9,1-2,1-3.1v-10.3h4.1v10.5
		c0,1.5-0.3,2.9-1,4.2c-0.6,1.2-1.6,2.1-2.8,2.8C-16373.3-327.4-16374.8-327.1-16376.2-327.1"/>
	<path class="logo-image2" d="M-16350.5-343.3l-9,12.1h8.8v3.8h-14.7v-2.3l9-12.1h-8.3v-3.8h14.3L-16350.5-343.3z"/>
	<path class="logo-image3" d="M-16335-349.9v7.2h12.1v4h-12.1v11.3h-4.3v-26.4h17v4H-16335z"/>
	<path class="logo-image3" d="M-16316.4-348.9c-0.7,0-1.3-0.2-1.8-0.7c-0.9-1-0.9-2.5,0-3.5c1-1,2.5-1,3.5,0c0.9,1,0.9,2.5,0,3.5
		C-16315.1-349.1-16315.8-348.9-16316.4-348.9 M-16318.5-345.6h4.1v18.1h-4.1V-345.6z"/>
	<path class="logo-image3" d="M-16293.3-327.5h-5l-4.2-6.2l-4.3,6.2h-4.8l6.7-9.3l-6.3-8.8h5l4,5.7l3.8-5.7h4.8l-6.2,8.8L-16293.3-327.5z"/>
	<path class="logo-image3" d="M-16455.1-327.6h13.4v-16h-5.4v10.6h-8c-3.5,0-6.3-2.8-6.3-6.3v-18.2l17-14.3l17.9,14.3l3.4-4.2l-21.4-17.1
		l-22.3,18.8v20.7C-16466.8-332.9-16461.6-327.7-16455.1-327.6"/>
	<path class="logo-image3" d="M-16433.2-353.8l-0.1,6.1l-3.5-0.1c-0.3-0.9-1.1-1.6-2.1-1.5c-1.8,0-2.5,3-2.5,3l-5.4,0.2c0,0-0.3-4.1-3.5-4.3
		c-2-0.1-4,0.6-5.5,1.8l-1.2-1.2c0,0,4.8-4.6,8.7-4.8c2.2-0.2,4.5-0.2,6.7,0c0.5,1.1,1.6,1.8,2.8,1.8c1,0.1,1.9-0.4,2.3-1.3
		L-16433.2-353.8z"/>
</g>
</svg>
